<?xml version="1.0" standalone="no"?>
<!DOCTYPE svg PUBLIC "-//W3C//DTD SVG 20010904//EN"
 "http://www.w3.org/TR/2001/REC-SVG-20010904/DTD/svg10.dtd">
<svg version="1.0" xmlns="http://www.w3.org/2000/svg"
 width="128.000000pt" height="128.000000pt" viewBox="0 0 128.000000 128.000000"
 preserveAspectRatio="xMidYMid meet">
<metadata>
Created by potrace 1.11, written by Peter Selinger 2001-2013
</metadata>
<g transform="translate(0.000000,128.000000) scale(0.100000,-0.100000)"
fill="#000000" stroke="none">
<path d="M0 640 l0 -640 640 0 640 0 0 640 0 640 -640 0 -640 0 0 -640z m1173
273 c36 -21 77 -93 77 -136 0 -28 -1 -28 -52 -25 -51 3 -52 4 -59 38 -9 43
-34 62 -78 58 -24 -2 -40 -12 -55 -31 -19 -26 -21 -42 -21 -162 0 -120 2 -136
21 -162 43 -58 134 -33 134 37 0 30 1 30 55 30 l55 0 0 -32 c0 -44 -38 -108
-76 -130 -68 -40 -174 -32 -233 18 -50 42 -66 101 -66 244 0 109 3 131 23 171
27 56 49 76 99 95 48 18 133 12 176 -13z m-964 -151 c41 -92 78 -171 82 -176
5 -6 9 69 9 167 l0 177 55 0 55 0 0 -275 0 -275 -57 0 -58 0 -75 171 c-41 94
-78 173 -82 175 -5 3 -8 -74 -8 -170 l0 -176 -55 0 -55 0 0 275 0 275 58 0 57
0 74 -168z m396 48 c21 -66 42 -117 46 -112 3 4 23 58 44 120 l37 112 60 0
c44 0 59 -3 55 -12 -3 -7 -37 -89 -76 -181 -71 -169 -71 -169 -71 -263 l0 -94
-55 0 -55 0 0 103 0 104 -70 167 c-38 92 -70 170 -70 172 0 2 26 4 58 4 l58 0
39 -120z"/>
</g>
</svg>
