<svg id="five_boroughs" viewBox="0 0 1009.6 998.3">
  <defs>
    <style>
      .cls-1 {
        fill: #35a7ff;
      }

      .cls-2 {
        fill: #c6e0c6;
      }

      .cls-3 {
        fill: #ff5964;
      }

      .cls-4 {
        fill: #2e3192;
      }

      .cls-5 {
        fill: #ffaf87;
      }

      .cls-6 {
        fill: #f9f94e;
      }

      .cls-7 {
        fill: #fff;
      }
    </style>
  </defs>
  <title>5_bb_labelled</title>
  <rect id="Water" class="cls-1" width="1009.6" height="998.3"/>
  <g id="New_Jersey">
    <path id="NJ2" class="cls-2" d="M.2.2v736H2.9c0-1,.1-.7.4-1,2.5-3,13.2,1.1,16.4,1.3s6.1.7,7.9-.3,2.2-4.4,4.3-5c3.8-1.1,6.7,6.1,8.7,8.2,3.6,4.2,8.1,4.2,13.1,2.6s10.1-2.3,13.1-5.3,8.6-11.1,9.5-3c.1.9-.7,2.1-.9,2.9a1.5,1.5,0,0,0,.1.7c.5,1.2,2.7,1.1,3.5,2.2s-.4,4.7,1.7,6.6,2.4.9,3.3,1.5,2.2,1.8,3.3,2.7,3.1,4.4,4.7,6.4c1.1-4.3,4.1-8,5.6-12s-.7-3.7-1.9-5.8-1.6-3.4-4.4-5c-5.6-3.2-2.6-6.8-2.6-12.2s-.5-10.8,0-16a13.5,13.5,0,0,1,.8-3.6c.4-.9,1.9-1.8,2-2.8.5-3.6-3.7-3.2-5.8-3.6s-3.9-1.3-6.4,0-3.8,5.6-7.3,5.8-7.3-3.6-4.6-6.1,2.2,2.2,3,2.5,2.5-1.5,3.3-2.8,4.4-4.8,7.6-5.2,4.2,3.9,7.7,3c2.1-5.3-4.5-6.6-2.1-11.9,1.3-3.1,4.1-5.3,5.4-8.6.8-1.7,2.9-6.5,1.2-7.8s-5.8.8-6.8,2.2-1.5,5.4-2.9,7.9-2.9,4.3-5.6,4.9-4.4-1-6.6-2.8c-6.1-4.8-9.2,5.6-15,5-1.4-2.1-.2-5.6-1.1-8.1s-3.2-4.5-5-6.6a29.1,29.1,0,0,1-4.7-5.8c-1.2-2.2-1.9-3.9-3.9-5.3s-6.3-1.6-7.8-3.7,1.8-1.9,3.5-.7c4,2.8,8,5.1,12,8s4.9,6.8,7,10.9c.7,1.2,2.2,5.6,3.6,6.1s3.2-2.8,4.1-4.2,2.2-4.7,4.2-4.5,2.5,3.7,3.6,5c4.3,5.2,7.8,2.3,10.1-2.5,1.5-3.3,1.1-8.2,5.2-10s7,3.7,11,2.3,6.1-7.3,6.7-10.9c1-6.6,6.3-6.3,10-10.4,1.3-1.5,1-1-.1-2.3s-3.6-1.9-5.4-.6-2.3,3.8-5.3,4.5a14.8,14.8,0,0,1-7.3-.6c-2.5-1.2-2.9-3.2-3.3-5.5s-.8-3.4-3.5-5.1-10.3-4.1-9.8-9.4c.2-2.1,2-4.5,1.1-7s-3.4-2.6-3.9-5.2,2.5-4.5,2.3-6.9-3.2-2.9-5.3-3.1-5.4.6-7.4-1.6-2.2-5.7-2.9-8.6-1.2-5-1.7-7.5-.7-1.7-.2-2.8,1.8-1.3,1.9-3.3-3.7-5.7-4.7-8.8c2.8-.6,7,9,5.9,11s-2.5,2.2-1.7,5.5.8,4.5,1.4,6.7c1.2,5.1,3.9,8.2,9.1,8,2.6,0,4.3.1,6.2,1.9s1.7,2.7.5,5.1-2,4.3-1.2,6.1,3,2.4,3.4,5.3c.7,5.3-3.8,8.3,2.3,11.3,4.1,2,8.7,3.3,10.4,8.1.8,2.3.3,4.5,3.1,5.3s4.4-.6,6.1-1.7,3.2-3.1,4.8-4.1,3.7-.7,5.2,1.3,2.2,1.7,4.7-.1,3.8-1,6.3-1.5,4.7-1.9,7-3.3,3.9-3.5,6.1-4,6.4.9,8.8-1.4,2.7-4.5,4-6.3,2.2-4,4.1-4.8,5.3.6,6.5-1.6-3.7-2.7-4.5-5,1.2-2,.8-3.1-2.4-.7-3.3-1.1c-4.6-1.5-7.8-5.3-11.4-8.3-1.7-1.4-11.5-8.5-3.4-7.5,4.7.6,8.7,5.7,12.4,8.5s7.2,7.4,10.4,7.1c8.8-1,3.7-20.4,15.3-18.3,2.9.5,5.7,3.7,8.8,2.3s3.6-5.1,5.2-7.1c2.9-3.8,9.1-8.5,7.9-14.1-3.1-1.5-5.8-4.1-8.9-5.8a58.8,58.8,0,0,1-8.8-5.9c-2.7-2.5-5.2-5.3-7.7-7.8s-4.7-3.6-6.6-6-1.9-4.6.9-5.6,4.1,1.5,5.4,2.7c3.8,3.4,8.1,6.4,12,9.6s4.9,3.7,7.3,5.6,2.8,2.8,4.5-.4c2.7-5.1,7.5-9.6,9.6-15,1.3-3.2-.6-3.6-2.7-6s-2.4-5-4.1-6.5-4.9-2-7.3-2.8a46.2,46.2,0,0,1-9.1-4.7c-1.9-1.2-4.6-2.3-6.1-3.8s-2.2-4.1,1.3-4.1c5.4,0,10.8,4.5,15,7.4s9.3,3.4,12.3,6.9a31,31,0,0,1,3.5,6.1c.6,1.2,1.4,5.7,2.7,6.2s.1.1.2.2c3.2-1.7,5.6-6.5,7.7-9.4s6.1-6.6,8.5-10.3,2.8-7.9,4.2-11.6,2.7-7.7,1.5-11.6-2.5-6.7-2.8-10.3-1.3-7.8-1.2-11.6c.2-6.3,1.8-12.2,3.4-18.1s2.2-11.1,3.4-16.6c.2-1,.5-2.1.7-3.1,1.1-4,1.7-11.9-1.6-15.1s-8.9-2.4-13-1.6c-8.1,1.5-17.9,1-25.3,5.1-1.9,1.1-3,3-4.1,5.1s-2.7,5.5-5.3,6.8-4.7.2-6.7.2c-5.3.3-12.1,1.4-16.9-1.1-2.4-1.2-2.9-3.2-4.1-5.5l-4.8-9.2c-3.1-5.8-3.9-12.7-3.8-19.2,0-2.9.1-6.2.4-9.1s2.1-6.4,3.1-9.7,3.2-9,5-13.3c2.9-6.7,7.3-13.2,9.3-20.2s6-10.7,9.6-16.1c4.9-7.4,7.7-15.3,10.6-23.3,1.9-5.4,3.6-10.8,6.2-15.9s5.6-7.7,4.8-12.4-3.7-10.3-2.7-16.6c.4-2.7,1.8-5.5,2.2-8.4s.1-6.2,1.6-8.3c3.7,2,4.4,11.3,2.7,14.6s-3.3,2.5-3.8,4.5.6,4.6.6,6.7a10.6,10.6,0,0,0,1.6,6.4,8.9,8.9,0,0,1,.8,6.4c-1.7,5.1-4.8,9.4-6.3,14.7-1.8,6.8-5.1,13.2-8.1,19.6s-5.7,13.2-8.7,19.8-5,12.8-8.4,18.9c-5.3,9.4-10.7,18.1-14,28.5a38.7,38.7,0,0,0-1.3,7.7c-.5,5.3-1.2,12.3-.1,17.5s4.2,9.2,6.2,13.3,5.6,6.4,11.4,6.4,9.6.1,13.5-1.9a6.7,6.7,0,0,0,2.5-2.2c1.8-2.7,2-6.5,5-8.9s5.9-2.3,8.4-3.1,5.8-2.2,9-2.7c5.4-1,14-2.3,19.3-.5,3.7,1.2,7.8,6.2,9,9.9s-1.1,10.3-2.4,14.7l-.3,1c-1.1,4.6-.3,9.4-.8,14.3s-1.5,8.6,1,13.5,4.3,10.6,8.8,4.9c1.3-1.6,2-4.6,4.3-5.2s3.5,2.4,5.9,3.1,9.8-8.1,10.7-10.6.5-6.2.6-9.3a78.1,78.1,0,0,1,1.4-9.7,29.3,29.3,0,0,1,7.1-14.8c4.6-5,9.2-6.3,15.7-7.2a35.3,35.3,0,0,0,5.6-1.4,18.3,18.3,0,0,0,3.2-1.4c4.1-2.1,8.7-4.8,7.6-10.2s-9.7-3.7-14.2-3.3a15.8,15.8,0,0,1-15.2-9.2c-1.9-4.4-2.8-5.7-.7-10,1.4-2.7,3.1-5.4,4.3-8.3a70.2,70.2,0,0,0,4.4-17.2c1-6.3-3-10.2-3.9-16.1a27.7,27.7,0,0,1,3.6-18.9c2.4-3.8,6.9-5.5,9-8.9a87.9,87.9,0,0,0,6.5-13.9c1.8-5.3,3.4-13.6,9.8-14.9s8.5-1.4,12.1-6.8,8.6-10.7,15.1-13.1c10.3-3.9,21.9-1.3,32.9-2.5,4.7-.6,8.5-4.2,10.3-8.4s4.3-9.5,2.8-13.5c-2.6-6.9-13-16.5-8.5-24.7,2.7-5.1,8.9-4.4,10.9-10.3s.7-9-.5-13.3-3.3-9.6-3-14.7,2.8-9.9,3.9-14.8l.3-1.3c.3-2.2.9-4.5-.4-6.4s-4-2.1-5.1-4.7c-2.1-4.9.3-10.2-2.4-15.1-1.6-3-3.9-5.3-4.4-8.6a49.4,49.4,0,0,1-.1-8.6c.1-3.5.6-3.4,2.3-6s-1-4.3-3.3-5.2-5.5-2.3-5.8-6.4,1.3-4.9,4.2-6.5a18.8,18.8,0,0,0,8.8-10.1c-1.9-.7-4.8-.4-6.3-1.8s-1.6-5.3-1.8-7.4-.5-4.8,1.3-7,4.1-3.8,6-5.8c3.2-3.6,3.9-8.9,5.5-13.3a63.9,63.9,0,0,1,8.2-15.5c2.4-3.3,6.3-8.4,2.6-12.3s-9.6-6.3-5.2-10.8c2.1,4.5,6.3,7.5,8.6,12,1.1,2.1,2.1,5.5,1.4,8s-2.4,3.4-3.5,4.8a76,76,0,0,0-8.2,12.4c-1.2,2.2-2.4,4-2.7,6.4s.2,2.4,0,3.6-1,1.6-1.4,2.8c-1,2.8.3,4-2.5,5.8-1.3.9-4,1.6-5,3.1s-1,4.4-.8,6,1.5,3.3,3.6,4.7,3.3,1.8,3,4.8a13.2,13.2,0,0,1-2.2,5.8,34.5,34.5,0,0,1-4.1,5.9c-1.2,1.4-4.9,3.4-4.5,5.5.8,4.9,9.3,1.4,8.3,8.6-.5,4-3.4,8.3-2.5,12.5s3.4,8.9,4.8,13.5-.7,6.3.4,9.2,5.7,5.5,7,9.4-.1,4.2-1.2,6.6l-.6,1.9c-.8,3.9-.3,9.6,1.8,12s3.6,2.5,4.8,4.8,2.1,4.9,3.8,7.1c3.1,4.1,10.8,4.1,15.3,2.2,2.7-1.1,4.3-3.9,5.1-7a48.1,48.1,0,0,0,1.3-9.3c.4-7.7,2.4-14.8,3.8-22.4a34.9,34.9,0,0,1,2.6-8.9c1.5-3.1,1.2-3.7.4-6.9-1.9-7.5,6.2-8.3,11.5-10.9s5.8-6.9,9.6-9.6c.8,4.5-2.7,7.7-5.5,10.7s-3,3.5-3.6,5.9-.7,3.8-3,5.6-7.4,4.7-7.3,9.4-1.9,8.3-3,12.7a73.7,73.7,0,0,0-2,8.1c-.4,2.7,0,5.6-.5,8.3a69.1,69.1,0,0,1-1.8,8,21.7,21.7,0,0,1-3.7,7.8c-3.1,3.9-8.9,3.6-13.6,3s-7.9-3.4-10.2-7.5c-1.2-2-2.9-7.7-5-8.5-.7,2.1.1,4.4-.4,6.6s-1.5,3.3-1.4,5.8l.3,1.6c.9,3.8,4,6.5,3.4,10.9s-5.7,7.5-7.9,11.1-4.8,8.7-1.9,13.3,5.3,6.8,6.4,10.9-.5,7.6-1.1,11c-1.5,8.1-6.4,14.7-14.4,17.3-6,1.9-12.3.9-18.5,1.8s-10.9,2.6-16.2,4.2c-6.9,2.2-8.5,7.4-13,12.5a13.6,13.6,0,0,1-6.9,4.8c-1.9.6-7.9.7-6.9,4,1.4,1,5.3,2.3,6,4s-2.3,3-4.1,3.6c-5,1.6-5.4,4-8,8.1-5.7,8.6-15,15.2-17,25.5-.8,4.4.3,6.3,1.9,10.5a29.1,29.1,0,0,1,1.2,12.5c-.4,2.3-1.4,4.1-2,6.3s-.3,3.1-.6,5.1c-.6,4.6-4.4,8-5.4,12.6s-2.8,10.1,1.1,12.8,11.8,1.3,16.1.6c2.6-.4,5.4-1.5,7.7,0a11.2,11.2,0,0,1,3.5,5.1c1.7,5.5-1.8,10.4-5.2,14.4s-5.7,4.1-9.2,5.3l-3,1c-4.6,1.7-7,3.8-10.6,7.2s-7.2,9.6-9.1,15.3.1,12.5-1.4,18.8-5.3,5.8-8.8,9-8.4,6.8-8.1,10.5c.1.7,2,1,1.4,2.8s-2,.8-2.8,1.7.7,3.9,1.4,6.3-1.7,6.3-1,9.4,7,2.3,6.5,6.2-5.3,5-7.7,6.3c-3.9,2.1-4.4,6.3-7,9.7-1,1.3-3.4,3.1-3.3,4.7s4.6,2.4,2.7,5-4.6,1-6.2,2.8a5.9,5.9,0,0,0-1.2,6c5.9-.4-1.5,8.8-2,10.3-1.7,5.3-4.1,11.4-7.8,15.9s-10,6.5-10.7,11.6c-.4,2.4,2.8,14.1-2.7,11.9-1.3-.5-.7-2.5-2.8-1.9-.9,2.1-4.5,4.9-4.8,6.9s1.2,1.2,1.4,2.8-1.2,2.2-2.2,3.3-2.8,6.4-4.8,7.5-3-.6-4.3.9-.6,2.2-1.1,3.1-1.5,2.2-2.1,3.4c-1.6,2.9-3.9,5.6-5.1,8.7s-.6,4.8-1.7,7-2.6,3.9-.8,6.9,4,3.9,6.3,3.3,2.8-3.4,4.7-4.3,5.7-.3,8.1-.3h9.9c7.1,0,13.2-.6,19.2-4.5A10.7,10.7,0,0,0,245,630a11.9,11.9,0,0,0,1.3-2.5c.2-1.1-.6-2.7-.3-3.6,1.7-6.1,8.4,1.4,11.4,2.2s5.1.9,7.8,2.5,3.1,2.3,6,2.5,5.1-1.3,7.8-2.3,5.9-1.7,8.9-3c5.2-2.4,10.5-4.5,10.5-10.8s-5.9-6-6.1-11.4c-.1-3-1.1-13.7-6.9-10.8-1.4.7-1.3,2.5-2.8,3.3a12,12,0,0,1-5,0c-3.9-1.3-4-4.3-2.8-7.2-1.9-1-4-.6-5.7-2s-1.3-2.5-2.1-2.7-1.1,1-2,1.5c-4.4,1.9-10.1-3.3-5.5-7.1s12.2,1.5,16.2,3.9c5.9,3.4,13,4.1,19.3,6.6a83.6,83.6,0,0,1,10.4,5.1c2.1,1.3,4.4,2,6.5,3.2s3.1,2.7,4.7,3.9c3.8,2.7,8.9,2,10.7-2.4a6.2,6.2,0,0,0,.9-2.7c-.1-1.9.2-1-1.2-2.1s-7.2-2.7-10.3-4.6c-5.7-3.6-11.1-7.6-17.2-10.7l-8.8-4.3c-2-1-5.7-2.6-6.9-4.5,2.1-1.8,11.7-2.8,13.5-.2s-.7,3.4,3.1,5.3l8.1,3.9a110.1,110.1,0,0,1,15.2,8c1.5.9,3.8,3.2,5.5,3.5s3.6-2.8,4.2-5.3l1.1-1.8c-3-.2-6.2-2.5-8.7-3.9s-7.3-4-11-5.8-10.9-4.3-9.9-9.2c3.5-.1,5.9,1.2,8.8,2.8,1,.6,3.5,3.3,4.4,3.3s2.6-2.7,2.2-4.1c-2.6-.7-3.5-1-3.1-4s1.1-1.2.3-2.7-2-1.3-2.6-2.3c-1.7-2.6.1-3.5,2.4-1.5s2,3.9,4.7,1.3c4.8-4.7-2.1-7.8-5.5-9.8s-11.8-9-3.8-9.6c6.3-.6,7.9,8.5,13.2,7.7,1.9-3.9.8-10,.8-14.4,0-2.7-.2-3.7,2.5-4.2s5.9,1.5,5-1.9c-3.2-.7-8.4-.1-6.9-4.4,2.1-5.8,3.8.3,6.9-.1-.1-5.8,5.4,1,6.2,2.3s2.6,7.6,6,7.8c1.5,0,3.4-.3,4.2-1.7s-.5-2.2-1.3-3.7-1.4-1.1.4-2.5,3.1-2.2,5.3-1.8,2,2.3,4,.3,3.5-5.3,2.5-6.8-5.3-1.2-2-3.8,4.6-1.6,6.6-3.6a48.3,48.3,0,0,0,4.4-6.4c1.1-1.8,4.1-4.7,4.4-6.7s-3.8-2.3-3.8-4.1,6.3-.7,7.5-.5a49.5,49.5,0,0,0,12.2.7c.6-4.1-11.9-3.8-14.5-4.1s-12.5-2.2-10.8-4.1,4.5,1,6.2-1.4,1.4-5.2,3.8-2,.5,3.4,3.6,4.5,4.8,1.4,6.7,1.1,4-3.2,4.8-5.3,1.1-3,4.4-4.1,3.8-2.6.9-4-5,.2-7.3-1.1c1.3-2.8,4.4-1,6.6-2,4.6-1.9-1.2-2.2-2.2-3.2,1.3-1.4,5.2,0,5.6-2s-3.8-1.8-5.3-1.9-4.7-1.8-1.7-3.7,4,1.2,6.4,1.2,2.9-2.8,1.3-4.1-4-1.2-6.3-2-.5-2.4,2-2.5,5,0,6.3-1.8.5-2.4-1.1-4-1.5-.7-1.6-.9-.2-1.3-.4-2,1.1-.6.1-1.6-2.1.2-2.5-.2.5-2.1,1.6-2.8a19.4,19.4,0,0,0,5.9-6.8c1.8-3.1-2-4.9-4.5-5.6,1.2-2.3,4.4-3.3,6.1-5.5s1.4-4.1.9-6.8c-1.1-5.4-3.9-8.6-1.4-13.9.4-.8.5-2.4,1.2-3.1s2-.4,2.7-1.1.9-4.6-1.1-5.9-5-.1-7-1.3-1.7-2.9.9-3.6,8.7.7,8.5-2.7a9,9,0,0,1-2.7-.7c.1-2.6,4.5-.5,4.7-3.2a19.1,19.1,0,0,0-3.3-.6c.8-2.5,4.9-.7,5.2-3.3-4.4-.7-5.2-2.8-1.8-6,1-1.1,2.8-1.7,3.5-3.2,2-4.4.3-10.1,4.7-13.2,1.4-1,3.5-1.5,4.5-2.8s.4-3.5,1.7-5.3c-1.3-1.5-2.7-2.8-4-4.2,2.5-1.3,4.2,2.4,6.6,2,4.1-.6-1-2.4-1.8-3.3-3.1-3,1.8-1.6,3.6-2s1.6,0,2.2-1.4-.4-1.2-.6-2.8,2-4,3.3-6.1,2.3-4.1,3.4-6a33,33,0,0,1,4.1-5.7c.4-.4,2.2-1.7,2.2-2.2s-1.5-1.4-1.6-2.7,2.9-3.5,4.2-5,1.6-4.6,3.3-5.3,4.2,2.5,5.5-1.1c.5-1.1.4-2.3.8-3.1s1.4-1.8,1.4-3.2c-8.2-2.5,4.3-17.3,6.6-21.2s2-2.7,4.8-3.3,4.8-1.2,2.5-3.2-2,.1-2.5-.9.7-2.3,1.4-2.8,4.5.3,5.8-2.2-2.1-1.6-3.6-3.6.7-4.2,2-5.6,3.6-3.1,4.9-5.1.9-4.2,2.3-6.3,3.7-4.4,5-7.2a77.9,77.9,0,0,1,3.4-7.2c3-5.3,4.3-11,6.8-16.1,1.4-3.1,1.5-2.9-.6-5.5s-1.7-3.6.3-5.8,5.9-3.3,5.9-4.2-5-.5-4.2-4.2c.4-1.8,3.3-2.7,4.7-3.7a18.5,18.5,0,0,0,5.9-5.9c2.6-4.4,6.5-9.2,7.8-14.2s-.1-10,1.6-14.5,5-.6,6.6-3.6-.6-3.8-1-5.8c-.8-4.8,5.1-12,6.9-16.4,2.5-6,5-11.7,7.4-17.7s3.1-11,5.1-16.5c4.4-12.4,11.8-24.3,15.2-37.1,1.4-5.5,1.3-11.5,2.8-17.1A161.3,161.3,0,0,1,568,15.9,101.4,101.4,0,0,0,573.5.2Z" transform="translate(0)"/>
    <path id="NJ1" class="cls-2" d="M81.2,751.7a6.5,6.5,0,0,1-2.5-2.7c-.3-1,.3-2.1,0-3a5.1,5.1,0,0,0-1.3-2.4c-.8-.6-1.9-.6-2.3.4a8,8,0,0,0-.3,2.7c-.1,1.8-.3,3.7.6,5.3s.8,1.8,0,1.8-.9-1.4-1.2-1.7a5,5,0,0,1-.6-4.7c.8-2.5-.2-5.2.1-7.7.1-.8.4-2,.5-3.1a2.5,2.5,0,0,0-.7-2.4c-2.9-2.2-3.6,1.6-3.9,3.4-.6,3.7-2.4,4.9-6,6.1-6.4,1.9-13,3.1-19.5,2.5-3.6-.4-4.4-1.2-6.1-4s-2.2-3.6-5-4.1-5.9,1.9-9,2.6a17.5,17.5,0,0,1-8.5,0L8,738.5c-1.2-.4-5.1-1.3-5.1-2.3H.2V851.3h0v36.9h0v46.3c3-2.7,5.2-6.1,7.6-8.9s3.6-4.4,4.1-7.2-1.5-3.4-2.7-5.5c-3.4-5.6-.7-13.5-2.3-19.4-.8-3.1-2.6-1.6-4.4-3.3a2.2,2.2,0,0,1-.9-2h0v-.8c.3-2,.7-1.2,1.7-2.5s1.5-3.4,1.6-6.7l.6-11.1c.1-.9.6-2.1.3-3s-2-1.7-2.3-3-.6-4-1.2-5.9a16.7,16.7,0,0,1-.6-3.9h0c0-.2.1-.5.1-.7.1-1.7.8-3.3.8-5a29.8,29.8,0,0,1,.4-4.2c.3-1.7,1.2-5.7,3.9-4.7.8.3,1.1,1.4,1.8,1.6s3.4-1.3,4.4-2.3a13.7,13.7,0,0,0,2.5-2.3,4.5,4.5,0,0,0,.7-2.8c-.1-1-1.3-1.1-2.2-1.6a2.7,2.7,0,0,1-1.8-2.3,4.9,4.9,0,0,1,.9-3.9c2-2.6,5.1.4,7.1,1.5a21.2,21.2,0,0,1,5.9,4.4c.5.4,1.5,1.4,1.3,2.1s-2.5-.6-3-1.1a53.4,53.4,0,0,0-4.8-3.5c-1.3-1-2.5-2.1-4.2-2.1s-2,1.5-1.2,2.7,2.9,1.9,3.9,3.3-.2,3.3-.9,4.4-3.6,2.4-5.3,4a3.8,3.8,0,0,1-2.3,1.3c-1.3.3-1.8-.3-2.7-1s-2.4.7-2.8,1.7-.2,3.2-.4,4.6a25,25,0,0,0-.6,6.7c0,1,.1,3.8,1,4.5s1.9-3,2.1-3.7,1.6-4.5,3.9-5.4a41.3,41.3,0,0,1,6.1-1.3c5.8-1.1,9.7-4,13.9-7.8s8-9.4,12.8-10.1c6.4-1,7.9,2.8,12.2,6.1,8.9,6.9,18.7-5.1,18.3-13.9q-.3-3.9-.9-7.8c-.3-2-2-7.2,2.2-5.2,1.4.6,1,2.5,2.8,2.2s1.7-1.6,2-2.5c1-3.6-1.4-7.4-1.4-11.1a64.2,64.2,0,0,1,1.6-13c1.2-4.8,1.1-10.7,3.6-15s7-7.6,3.7-12C85.6,754.2,83.2,753.1,81.2,751.7Z" transform="translate(0)"/>
  </g>
  <g id="New_York">
    <path id="NY3" class="cls-2" d="M1008.9,775.2c-4.5,0-9.1.3-13.7.3-8.4,0-16.9.4-25.2-.7s-14.5-1.9-21.5-3.5c-4-.9-8.1-1.4-12.1-2.2l-2.4-.5-2.4-.5a14.5,14.5,0,0,0-5.5-.9c-2.5.5-2.7,2.9-4.2,4.6s-2.6,2.9-4.3,3.1-2.9-1.7-4.4-1.1-.7.8-1,1.2a9.7,9.7,0,0,1-2.3,2.2,17.6,17.6,0,0,0-3.7,3.5c-.9,1.2-1.4,2.7-2.6,3.8s-2.5,1.6-1.9,3.2a12.7,12.7,0,0,0,2.8,2.3c1.5,1,1.5,0,2.5-1.1s2.7-1.6,4.3-2.2,5.2-2.5,8-3.4a28.4,28.4,0,0,1,7.7-.8c4.7,0,10.2-.9,14.4,1.6s5.9,2.5,9.5,1.5l5.6-1.7c1.8-.5,2.4,0,3.9.8,4.4,2.3,9.8,2.6,14.7,2.8,3,.2,6.1,0,9.2.3s5.3,1,8.1,1a51.4,51.4,0,0,1,9.6,1.2c2.3.5,4.6.2,7,1.2h.2V774.9l.4.3Z" transform="translate(0)"/>
    <path id="NY2" class="cls-2" d="M1004.7,701.5a7.7,7.7,0,0,1,1.7-1.9,6,6,0,0,1,2.9-1.4h-.1v-570h-.4c-3.6,2-15.8-7.2-19.5-9.2s-17.3-10.8-22.9-7.1c-2,1.3-2,6.4-3.7,8.2s-6.5,2.6-9.7,1.7c-6.7-2-15.1-4.9-9.5,5,2.7,4.8,5.7,16.3,3.7,22s-12.4,6.8-17.9,9.5c-8.3,4.2,4.2,9.9,8.3,12.7,7.4,4.9,8,9.6,7.1,18.1-.3,3.2-.1,11.6,5,10.8.2-4.2-3.1-18.7,4.1-15.2,1.6.8,2.2,3.2,3.8,4s3.6.4,4.9.5c4.5.2,5.8-1.8,9.7-2.9,9.2-2.8,2.5,11.1,9.1,12.4,2.7.6,6.9-2.2,8.1-4.5s-1.3-6.2-.5-9.5c2.8-.7,4.7,3.2,6.1,5.3,2.4,3.7,2.7,5.5.6,9.2s-6.7,10.1-6.4,16.6c.3,4.7,2.7,8.5,4.1,12.8s.5,7.4-.5,10.5-1,3.3-3.1,3.5-2.1-1.8-3.9-2.7c-3.7-1.9-7.2,19.9-8,22.9s-1.4,5.9-.8,8.8,3.1,2.7,4.9,4.1-1.4,2.1-1.8,4,1.7,1.7,2.3,3.3-1.8,2.4-3.3,1.7-3.2-3.3-3.9-5.1a58.8,58.8,0,0,1-4.5-16.4,19,19,0,0,1,.4-6.3c.6-1.8,1.5-3,1.3-5.1a18.4,18.4,0,0,0-2.3-7.3,60.2,60.2,0,0,1-3.3-7.3c-2-4.8-5.2-9.1-8.2-13.3s-5-4.5-9.4-5.4c-1.8-.3-4.4-.3-5.7-1.7s-1.3-3.4-2.9-4.7-4.8.1-7.4-.9-5.9-5-8.2-7.1a105,105,0,0,0-9.2-6.9c-3-2-5.5-2.4-7.5-5.7-.9-1.4-3.5-7.2-5.8-5s-1.4,4.4-2.1,6-2.2,2.7-4,3.8c-4.6,2.8-1.3,6.3,1.7,9.1s5.3,8.2,6.1,13.9-1.1,7.7-3.3,11.3-5.7,3.6-9.4,4.7-6.7,4.6-9.3,7.8-.5,5.3.9,8.2,1.2,6.1,3.2,8.7c.7,1,1.7,1.5,2.3,2.4a32.4,32.4,0,0,1,1.3,3.3,24.9,24.9,0,0,0,2.6,4.8c1.8,2.4,4.5,1.9,6.9,2.8s2.3,4.2,2.3,7a40.1,40.1,0,0,0,.2,6c.4,2.8,1.5,5.4,1.9,8.3s-.4,5.9.2,8.8.5,3.8,1.4,5.2,2.8,2,4,3.3,1,2.6,2.5,3.7,4.5,2,2.5,3.4l79.5,66.7,4.7,30.8L984.4,443,945,457.6l6.6,27,1,77.4-4,7.6v21c.7,1.5,1.3-.8,1.2,2.6-.1,1.3-.9,1.6-1.6,2.6s-.3,2.5.2,3.7a12,12,0,0,0,2.2,3.6c.9,1,.9,2.1,1.7,3.2s1.8,1.1,1.6,2.6-.4,1.1-.5,1.7a11.3,11.3,0,0,0,0,2.6,10.5,10.5,0,0,0,.7,4.3c.5.9,1.3,1.4.8,2.5s-1.7,1.2-2.4,1.8-2.4,1.1-4.1,1.3a35.4,35.4,0,0,0-5.5,1.8c-2.9,1.1-6.1.7-9,1.9a10.1,10.1,0,0,0-5.8,5.1l.8.6a23.8,23.8,0,0,1,11.4-2.8c2.1-.1,4.4.2,6.6-.1a19.3,19.3,0,0,0,5.3-1.1c1.2-.5,3.5-2.1,4.4-.1s-.5,2.3-.1,3.2c1.3,2.8,7.4-3.9,8.4-4a2.5,2.5,0,0,1-1.5,2.8l-3.2,2.4c-1.7,1.2-3.4.7-5.1,0a5.8,5.8,0,0,0-3.2,0c-2.1.6-4.3,1.4-6.3,2.2s-7,3.1-10.6,4.3-6,.7-5.1,4.1,3.5,6,5.1,8.9,2.6,5.1,4.9,6.5,5.7,2.1,8.9.2a39.9,39.9,0,0,1,8.1-3.8c2.2-.7,4.6-1.7,7-1.6.4,1.5-5.5,4-6.6,4.8l-5.8,3.7c.8,2.8,3.2,5.3,3.8,8.4-1.2.1-2-2.1-2.6-2.8a10.5,10.5,0,0,1-1.7-2.9c-.4-.8-.6-1.8-1.5-2a7.6,7.6,0,0,0-3,0,7,7,0,0,0-5,1.6l-1.9,1.3c-.8.7-.7,1.2-.3,2.3s2.9,3.7,2.8,6.1-2.9-2.4-3.4-3.3a4.8,4.8,0,0,0-1.8-2.2c-.7-.4-1.4-.2-2.2-.4-2.4-.7,1.2-2.5,2.2-2.9s3.9-1.5,4.3-3-2.2-2.3-3.2-3c-3.4-2.2-2.5-7.5-6.9-8.8l-2.8-1.1c-.9-.3-1.2-.2-1.3.3a3.5,3.5,0,0,0-.3,1.2c-.3,1.2-.4,2.5-.7,3.8s-.9,1.6-.8,2.9a6.8,6.8,0,0,1,2.3,1.4c.7,1,.4,1.3,1.8,1.5s1.7.2,2.1,1a1.9,1.9,0,0,1-.6,2.6c-1,.7-1.3.6-.3,1.5s.4.2.6.7a7.5,7.5,0,0,1,0,1.5c0,1.3-.1,2-1.2,2.4a10.9,10.9,0,0,1-2.6.3c-1,0-2.5-.2-3.1-1s-.3-2.2.1-3,1.6-1.2.7-2.5-1.6-1.1-2.4-.3-2.5,3.4-3.5,4.9a4.2,4.2,0,0,0-.9,2.5c-.1.9.3,1.2.6,2a6,6,0,0,0,.6,1.9c.7.9,2.6.6,3.6.6a3.3,3.3,0,0,0,1.7-.2c.6-.4.3-.7.5-1.3s.9-1.9,1.9-1.3-1.9,5.1-3.3,5.5-4.9-.5-5.2,1.2,1,1.5,1.4,1.9a4.2,4.2,0,0,1,1.6,2.1c.2,1,.6,5.2-1.3,4.9s.4-3.6-.6-5.2-3.2-3.3-5.5-2.4a8.9,8.9,0,0,0-3.9,2.7c-.6.9-.9,2.3-1.7,3.2s-4.7,1.2-6.9,1.3-4,2.6-5.4,4.7a53.9,53.9,0,0,1-4.7,6,1.6,1.6,0,0,1-2.4.2c-.8-.7-.7-1.8-1.4-2.4s-1.5,2.6-1.8,3.5-1.2,1.2-1.8,1.9A10.5,10.5,0,0,0,883,704a3.4,3.4,0,0,0-.7,1.5,2.1,2.1,0,0,0,.3,1.8c1,2,4,2.4,5.7,3.5s5.4,1.7,7.9,1.5,3.3-3.6,5.5-5.1,2.7,2.7,2.9,4-2.8,4.3-4.8,5.1l-2,.8h0c.9.2,1.8,1.4,2.4,2.1s1.2,2.7,3,1.7,3.1-1.7,4.6-2.7l1.5-1.2a24.3,24.3,0,0,1,3.5-2c.9-.6,2.5-1.6,3.5-.8a13.9,13.9,0,0,1,4.2,5.9,45.2,45.2,0,0,0,3.5,7.4,51.7,51.7,0,0,0,3.9,5.3c.6.6,1.2,1.3,1.8,1.8a8.7,8.7,0,0,0,1.1.9h1.1v22.2l-7.7-.4a.8.8,0,0,1,.4.4c1.3.8,2.9,1.3,4,2.3s3,5.1,5.8,6,6-1.3,6.4-4.3-.6-3.6-1.1-5.6a20.9,20.9,0,0,1-.8-6.1,13.7,13.7,0,0,1,1.3-6.3c.8-1.8,2.9-3.3,4.4-4.5a24,24,0,0,0,4.4-4.6c1-1.4,2.2-3.2,3.8-3.9s2.4-.2,3.5-.7,2.5-1.9,3-.7c1.2,2.9-3.7,6.6-5.5,7.8l-4.2,2.9a16,16,0,0,0-4,4.2c-1.4,1.9-1.6,4.8-1.8,7.1a20.6,20.6,0,0,0-.2,3.5,6.3,6.3,0,0,0,1.9,3.8c2,2.5,4.8,3.2,7.8,4a32,32,0,0,0,5.4.9,46.1,46.1,0,0,1,5.3.2,33.1,33.1,0,0,0,8.3.5c4.8-.5,10.2-.4,14.7,1.4l5.9,2.5a13,13,0,0,0,3.4,1.5c4.5.6,8.8-1.3,12.8-1.3V743.6h.1c-.5-.6-1.6-.8-2.2-1.4a10.5,10.5,0,0,0-2.7-2c-1-.6-2-.4-3.1-.6s-1.6-1.7-2.6-1.7-2.9,3.5-3.5,4.8-2.1,2.8-4.7,3a23,23,0,0,0-6.7,1.8c-1.2.5-2.5.5-3.7,1.1s-1.4,1-2.5.7,2.1-2.3,3.3-3.1a18.4,18.4,0,0,1,6.1-2.1c1.9-.5,4.5-1.1,5.5-3.1s-.7-2.7-1.7-4.1-3.4-4.4-3.8-6.7,1.5-4.3,3.4-6.3,6.3-6.4,3.6-8.3a19.6,19.6,0,0,1-2.5-1.3,4.4,4.4,0,0,1-1.5-1.8c-.7-.9-1-1.2-.8-2.3s.6-1.8.9-2.7,1.2-5.4-1.2-6.7a16.9,16.9,0,0,0-6.2-2.5c-1-.2-2.5.1-3.4-.6s.5-.8.9-1.7-.2-1.9,1.2-1.6,1.1,1.1,1.9,1.5,5.1-.4,7,1.8,4,4.2,3.7,6.5-2.1,5.4-.2,7.4a11.4,11.4,0,0,0,3.2,2.2c1.2.4,1.9-.2,2.7-1a6,6,0,0,0,1.9-3c.2-1.2.7-2.4.9-3.6s-.3-2.1.3-3S1004.1,702.1,1004.7,701.5Z" transform="translate(0)"/>
    <path id="NY1" class="cls-2" d="M882.7,36.7c.6-2.6-1.1-2.6-3.1-2.9s-6.6-2.3-5.2-6.5c.5-1.6,2.9-3,2.7-4.7s-2.8-1.2-4.1-.9-4.2,1.1-3.8-1.5,2.7-3.2,3.4-4.3,1.4-4,2.5-5.6,2.7-2.5,4-3.8A24.6,24.6,0,0,0,882.9.2H620a18.8,18.8,0,0,1-.6,3.1c5.3,1.6,86.8,37.3,90.7,36.5.6-1.7.5-3.7,1.2-5.2s2.3-1.6,3.2-3.1-.2-2.7.2-4.2,2.2-1.4,3.5-2.7c2.8-2.8-1.5-6.1,3.3-7.7s3.3,4.4-.6,4.9c1.1,1.1,2.8,1.4,3.8,2.6s2,2.7,2.4-.2,1.1-2.8,2.9-.8a8.4,8.4,0,0,0,4,2.7,6,6,0,0,1,2.1,1.4c.7.8.2,1.5.6,2.3s2.6.5,4.4.5c5.4-.2,1.5,5.7,3.5,7.8s3.8,2,2.4,5c-.6,1.3-1.6,1.2-1.5,2.8s.9,1.2,1.8,2.3-.1,4.3,2.1,5.7,25.9,10.3,28.1,10c-.3-1.8-3-2.7-.8-3.7s4.3.1,5.5.6c5.9,2.7,45,16.5,48.4,17.9h0c.8-.8,1.1-.2,2-.7s.9-1.1,1.6-1.4c-.2,2,.8,1.8,2,2.4s1.7,1.7,2.5,2.1c.8-1.7.1-4.2,1.6-5.6s3.4-.7,3.8-2.7-3.2-1.3-3.2-3.5,4.1-5.1,5.2-6.2c.1,1.5-.5,3.1,1.5,3s2.1-1.5,2.9-2.5a17.8,17.8,0,0,0,4.9-7.9c.9-2.9,3.6-4.9,3.8-8.1s2.4-7.3,7.1-7c-.2,1.5-2.2,2.7-3,4.1s-1,4.5-1.6,6.7a18.8,18.8,0,0,1-2,5.6c-1,1.6-2.6,2.6-3.5,4.4-2,3.6,0,7.7,4.3,5.8,2.5-1.2,9.1-4,7.6-7.7-.7-1.9-2.5-2.4-.1-4.3s3.4-.3,5-1.1c3.6-2.1-3.9-5.3,2.5-6.4s2.2-3.9,4.4-7.3C880.8,39.1,882.3,38.5,882.7,36.7Z" transform="translate(0)"/>
  </g>
  <g id="Queens">
    <path id="Q12" class="cls-3" d="M998.6,416.6l-4.7-30.9L914.4,319h0c-3.1,2-5-5.7-9-.9-2.3,2.8-2.3,7.1-3.7,10.3s-1.1,3-.2,4.9,2.2,3.1,2.5,5.2-.8,1.8-2.7,3.2-1.8,3-.6,4.6.9.6,1.2,1.8a12.1,12.1,0,0,1,0,3.8c-.7,2.9-2.3,2-4.2.5s-5.6-5.7-8.2-8.8-6.8-7.6-8.6-12.4-3.4-11.2-5.9-16.7a15,15,0,0,0-2.8-4.7c-.5-.5-2.9-1.4-3-2s3.2-1.6,4-2.3,1-3.4.4-5.2a22.5,22.5,0,0,0-4.1-7.8c-1.4-1.9-2.4-4.2-3.8-6.1s-8.2-3.7-11-2-2.7,3-1.5,4.2,3.1.7,3,3.8c-.5,9.6-13.4,6.9-19.6,5.8-2.6-.5-7.3-1.1-6-5,.5-1.8,2.1-1.7.9-3.8s-3.8-1.5-6-2.2-4.5-2.6-7-3.2-4-.9-5.6,1-1.3,2.8-3.5,2.4c0-1.4,0-4.5-2.1-3.8s-1.6,3.1-4,1.3-1.1-3.1-2.7-3.7-1.7,2.2-3.8,2.2-2.4-2.9-3.7-4.1a22.4,22.4,0,0,0-6-4.2c-3.8-1.6-5.5,2-8.1,4.4-1.1,1-4.2,3.6-4.7.8-1.4-.1-2.5,2.3-3.7,2.9s-3.7.6-2.7,2.9,2.9,1.3,3.4,3.4-1.4,3.4-2.7,4.7-3.6,2.4-4.5,4.2-.9,3.9-2.8,5.1-3.4-.1-4.6-2.1-2.6-2.9-2.7-4.2,1.3-1.1,2.4-2.2.8-2.5.1-3.9-2.1-1.9-2.8-3.2-.4-3.2-1.6-4.5c-2.9-3.1-4.4.2-5.4,2.7s-1,2.7-2.3,2.9-1.4-1.6-2.7-2.5c-1.3,1.2-2,2.9-3.5,3.8a12.1,12.1,0,0,1-4.6,1.2c-2.9.3-2.9-1.2-5.2-2.3a2.9,2.9,0,0,0-4.2,1.8c-1.6,4.5,3.7,5.9,4,9.5.1,2-1,2.8-2.5,3.7s-3.5,2.3-5.2,3.1-4.1.6-4.8,2.4.8,3.9,2.1,5.1,3.2,3.2,5.2,3.6,4.6-1.5,7.3-1.1c6.1,1,.5,5.6,2.3,8.9.7,1.4,2.6,1.6,3.3,3s-.9,4.8-1.9,6.9a22.9,22.9,0,0,1-1.4,2.7c-.9,1.1-1.7,1-1.7,2.7s1.4,5,2.1,6.6a8.3,8.3,0,0,0,4.6,4.8c2.2,1.1,4.3,2.9,6.6,3.4s2.9-.2,3.3,1.2-2.9,5.1-4.2,6c-3.7,2.6-8,3.8-11.7,6.3-5.3,3.7-11.5-1.4-15.6-4.8-2.4-2-8.6-7-7.9-11.1l-.3-.3.3.3a3.3,3.3,0,0,1,.8-1.8c.8-1.1,3.7-2.8,5-3.3a4.5,4.5,0,0,1,4.6.8c1.4,1.1,2.2,3.4,3.4,4.1s1.6.9,1.9-.4-1.1-1.7-1.5-2.3-2-2.9-3.1-4.3.2-1.8,1.2-3.8c2.4-4.9-6.3-6.6-9.2-8.9s-4.3-4-6.7-5.7a81.3,81.3,0,0,0-9.1-5.1c-4.4-2.4-8.2-4.7-13.2-2.5a29.8,29.8,0,0,1-9.4,2c-2.3.3-4.4-.1-5,2.3-.9,4.1,5.3,9.6.1,11.9a25,25,0,0,1-5.7,1.4h0a9.4,9.4,0,0,1-2.5-.2h-.1l-4.7.8h0l4.7-.8h0a3.2,3.2,0,0,1-2.3-1.9c-.5-1-.1-3.1.1-4.5l-4.1-5.3h0l4.1,5.3a1.3,1.3,0,0,1,.1-.6c0-2.4,1.1-1.8,1.8-3.6s-2.1-3.6-3.5-4.6a25.9,25.9,0,0,1-4.6-4.1c-2.9-3.2-6.9-.7-10.2,1.1s-1.7,1.8-2.1,4.1-1.6,4-3.3,2.5,1.5-9.1,3.7-10.5,8.7-1,10.8-4.7-.4-4.2-2.7-5.5-4.4-2.6-6.6-3.9-5.7-1-3.9,2.2c.6,1.1,2.1,1.3,1.5,2.8s-2.1.8-3-.2-2.4-4.8-4.8-6.8-5.2-4-7.2-2.1-1.6,2.9-2.6,4a13,13,0,0,1-3.9,3.1,9.6,9.6,0,0,0-4.1,3.3c-1,1.6-1.2,3.7-2.2,5.4-3.2,5.9-9.8,8.8-15.5,12.4l-1.1.7c-2.5,1.7-5.8,5.7-8.8,2.3-1.4-1.4-6.2-8-7.4-2.7-.5,2.1.3,3.4-1.1,5.4s-2.5,2.2-3,3.6a5.2,5.2,0,0,0-.6,2.2c-.1,3.1,3,4.3,5.6,6.2,4.8,3.7-8.3,7.2-10.4,9.2-4.2,4-6.3,9.7-9.3,14.6-1.4,2.4-3.4,4.1-4.9,6.2s-1.6,4.2-2.7,6.2-3.4,5.2-4.8,7.8-3.1,6.1-5.1,8.6-4,3.5-5.5,5.8c-2.9,4.3-5.8,9.9-6.3,15.1-.2,2.4-.4,5.2-.4,8,1.4-.1,3.3-1.6,4.6-2.1a22.8,22.8,0,0,0,5.3-2.4c3.8-2.7,8.2-4.3,12.8-2.6s7.4,4.1,11,6.1a25.7,25.7,0,0,1,4.4,2.9c1.4,1.2,2.2,3.3,3.2,4.9s3,5.7,5,8.2a7.4,7.4,0,0,0,3.3,2.2,24.7,24.7,0,0,0,5.2,1.8c1.4.2,2.8.2,4.1.5a11,11,0,0,1,5.6,4.1c3.1,3.9,4.5,9,5.7,13.8a12.1,12.1,0,0,1,.5,1.8,5.3,5.3,0,0,1,0,2.8c-.2,1.6.5,1.4,1.5,2.1a1.9,1.9,0,0,1,.4,2.6c-.8,1.1-2.6.7-3.3,1.8a2.4,2.4,0,0,0,0,2.6c.5.7,1.6.8,2.2,1.5s1,1.8,1.8,2.6,1.7,1.1,2.1,1.9-.1,2,.2,3,1.8,1,1.9,1.8-1.7,1.2-2.4,1.4-.9,1.3.3,2,3.1,2.3,4.7,3.4l1.9,1.6c1,.9,2,.5,3,1a15,15,0,0,1,2.3,2,23.4,23.4,0,0,1,2.4,3.1c1.4,1.7,1.9,1.3,3.9,1.4.4,1.8-2.8,1.4-3.5,2.1s.8,1.7,1.6,1.9,1.9-.1,2.6.4a4.6,4.6,0,0,1,1.3,1.9c-.1.8-1.6,1.1-2.2,1.6s-1.9,1.1-1.7,1.6,3.9,1.4,4.8,1.8,2.1,1.6,3.1,2.6,4.4,2.8,6.1,4.6-3.7,2.4-3.1,4.8c1.2.7,2.5.9,3.7,1.6s2,1,2.9,1.6a9.1,9.1,0,0,1,2.1,1.8c1.3,1.2.2.8-.6,1.6s0,1.9.7,2.5a3.1,3.1,0,0,1,1.6,2.1c.3,1.1.3,1.1-.5,2s-.7,1.3.2,1.9,1.2.4,1.5.8.1.9.2,1.4a10.7,10.7,0,0,0,1.6,3.2c.8,1.1,1.9,1.9,2.7,3s1,1.9,1.6,2.8,1.7-2.8,2.1-3.8.9-.9,1.4-1.5.5-1.4,1.2-1.5a20.9,20.9,0,0,0,1.7,4.1c.3.6.4,1.3,1.1,1s1.4-1.9,2.1-2.3a16.9,16.9,0,0,1,3.1-1.3c1.5-.6,1.7-1.7,2.7-2.9a18.1,18.1,0,0,1,4.1-3.2,30,30,0,0,0,3.8-3.1,30.9,30.9,0,0,1,3.1-2.3c2.3-1.6,3.5-3.9,5.4-5.9a30.5,30.5,0,0,1,4.9-3.8c2.1-1.3,4.8-1.9,7.1-2.6s2.7-1.4,4-1.3,1.8,1.7,1.8,3.2a45.1,45.1,0,0,0,.1,5.2c.4,2.3,1.3,4.4,1.8,6.7s.7,5.3,1.5,7.9a39.7,39.7,0,0,1,1.1,6.9,5.3,5.3,0,0,0,.5,1.8c.4.6.3.4,1.1.5s1.9-.2,2.5.9a7.5,7.5,0,0,1,.2,3c0,1.4.3,1.1,1.3,1.5s2.1,4.4,2.2,6.4a10.5,10.5,0,0,0,1.1,4.3,24.7,24.7,0,0,1,1.2,5.9c.1,1.3.6,4.1,2.2,2.2s.9-1.9,1.6-2.3,1.4.8,1.4,1.7-.4,2.1-.4,3.2a6.7,6.7,0,0,0,1,3.1,22.4,22.4,0,0,1,1.3,2.7,11.9,11.9,0,0,1,.4,3.3c.2,1.7,2.8,5,1.7,6.6a4.2,4.2,0,0,1-3.1.8c-.8-.3-1-1.5-2-1.3a4.4,4.4,0,0,0-1.7,1.9c-.4,1.3,1,1.6,1.9,2.3s2.1,3.5.1,4.3-1.3.1-2.1,0a2.9,2.9,0,0,0-2.3.8c-.7.5-1.3,1.4-2.1,1.9s-2,.4-3,.8-1.8.9-1.5,1.6,1.9.9,2.4,1.1.7,2.4,1.2,3.7c4.2.7,8.3,5.7,10.6,8.8s1.9,3.6,4,4.8,1.9,1.1,2.9.3,1.4-2.1,2.4-2.7,2.2,0,2.5,1.4-.3,2.4-1.8,3.2-4.4,2.9-2.8,5.9a25.6,25.6,0,0,0,5.2,6.2c2.4,2.2,4.6.3,7-.6a15.7,15.7,0,0,1,5.6-1.6c1.7,0,2.5,1.4,3.5,2.6s.9,1.3,1.8,1.3,1-.9,1.4-1.8a5.6,5.6,0,0,1,1.3-2.4c.9-.9,1.1-.9,1.4-1.9a8.9,8.9,0,0,0,.2-3.6c-.5-2.3-.6-4.7-1.2-7a144.6,144.6,0,0,1-2.8-14.6c-.4-2.5-.7-5.1-1.2-7.6s-.6-3.2-.1-4.5,1.8-1.6,2.1,0-.4,2.6-.5,3.8a32.5,32.5,0,0,0-.1,5.4c.1,1.4.7,2,1.3,3.1a25.6,25.6,0,0,1,2.2,6.4,54.1,54.1,0,0,1,1.2,7.2c.4,2.3.6,5.2,2.7,6.4a5,5,0,0,0,3.4.5l1.4-.5a9.9,9.9,0,0,0,1.7-.2,1.8,1.8,0,0,0,1.3-2.3c-.7-2.3-1.5-.2-2.3.5s-6.8.9-4.5-1.3,4.5-.1,4.7-3.8-1.3-6.9-2.2-10.4a12,12,0,0,1-.7-4.6c0-1.3.7-3.5,1.6-1.6s0,5.5,1,8,1.9,4.5,2.6,6.8a8.6,8.6,0,0,0,2.6,3.6l.2-.3c1.1-1.5,2.3-2.8,2.3-4.9-.2-3.7-1.9-7.5-2.8-11.1-.3-.9-.5-1.9-.8-2.9.3,1,.5,2,.8,3,.9,3.6,2.7,7.3,2.8,11,.1,2.1-1.2,3.4-2.3,4.9l-.2.3a12.9,12.9,0,0,1,1.5,1.7,10.9,10.9,0,0,0,2.1,2.6c1.4,1.1,2.1.6,2.8-.8s.3-1.2,1.2-1.3.6.4.9,1,.6,2.3,2,1.1.4-4.6-.6-7.1a23,23,0,0,1-.8-15.1,43.8,43.8,0,0,1,3.1-7c1-1.8,2.1-1.9,3.9-2v-3.9h0v3.9c.4,1.3-.8,1.6-1.6,2.4a11.6,11.6,0,0,0-2.3,3.6c-1.5,2.8-2.5,4.8-2.5,8-.1,5.4,2,11.7,5.8,15.6a65.5,65.5,0,0,0,9.4,7.9c3.3,2.2,6.3,4.7,9.5,6.9s6.9,3.7,10.2,5.7c10.5,6.2,20.6,13,31.2,18.9,5.5,3,11.2,5.8,16.2,9.6,1.8,1.4,3.7,2.5,5.6,3.9s3.7,2.9,3.3,4.8-1.5,2.5-1.9,3.8a8.1,8.1,0,0,0-.5,3.1c.1,2.4-.1,3.9-1.8,5.9s-2.4,2.1-3,3.5.6,2.2,2.1,1.9a6.5,6.5,0,0,0,4.2-3,14.3,14.3,0,0,1,2-3l.7-.9c1-1.3,1.7-2.6,2.8-3.8a24.8,24.8,0,0,0,4.7-6.9,6.1,6.1,0,0,0,.2-3c-.3-1-1-1.9-.9-2.9s1.6-2.1,2.6-2.9l3.6-3.1a44.7,44.7,0,0,1,8.8-5.5c3.5-1.8,6.8-3.9,10.4-5.4a26.4,26.4,0,0,1,5.6-1.9c.6-.2,1.4-.1,1.9-.5s1.3-1.9,1.7-2.6a33.5,33.5,0,0,0,2.1-3.6c.8-2.3-.6-5.3-1-7.5a17.7,17.7,0,0,0-4.5-7.7c-1.2-1.4-3-2.3-4.5-3.4a22.8,22.8,0,0,1-3.8-3.8,6.7,6.7,0,0,1-1.1-1.4h.7c2,.2,3.4,1.8,4.9,3.5s2.2,2.5,3.4,3.6,2.3,1.8,3.4,2.9,2.3,4.3,2.8,7.1c.2,1.2.1,3.3,1.4,3.5s3.4-1.4,4.5-2.2a6.5,6.5,0,0,0,2.2-3,18.2,18.2,0,0,0,.7-6.2c0-3.4-.4-8,2.7-10.1l.7-.4-.8-.6a10.1,10.1,0,0,1,5.8-5.1c2.9-1.1,6.1-.8,9-1.9a26.9,26.9,0,0,1,5.5-1.7,8.4,8.4,0,0,0,4.1-1.4c.6-.5,2-.8,2.4-1.7s-.4-1.6-.8-2.5a11,11,0,0,1-.7-4.4,11.3,11.3,0,0,1,0-2.6c.1-.6.4-1.1.5-1.7s-.8-1.6-1.6-2.6-.8-2.2-1.7-3.1a12.5,12.5,0,0,1-2.2-3.7c-.5-1.1-1.1-2.6-.2-3.7s1.5-1.3,1.6-2.6c.1-3.4-.5-1.1-1.2-2.6v-21l4-7.6-1-77.4-6.7-26.9L984.4,443Zm-298-72c-.4,1.1-.5,2.2-1.8,2.3s-2.1-.9-3.1-1.4a37.2,37.2,0,0,1-3.8-2.2c-1.3-.7-2-1.5-3.5-1.3a12.4,12.4,0,0,0-3.7,1.7c-3.5,1.9-7,4-10.3,6.1a48.3,48.3,0,0,0-4.5,3.4c-1,.9-2.7,2.1-4.1,1.3h0c1.4.8,3.1-.4,4.1-1.3a48.3,48.3,0,0,1,4.5-3.4c3.3-2.1,6.8-4.2,10.3-6.1a9.6,9.6,0,0,1,3.7-1.7c1.5-.2,2.2.6,3.5,1.3a37.2,37.2,0,0,0,3.8,2.2c1,.5,1.9,1.5,3.1,1.4s1.3-1.2,1.8-2.3.9-1.3,1.6-.4C701.5,343.3,701.1,343.4,700.6,344.6Zm65,255.1c-.7-2.2-1.5-4.5-1.3-6.5h0a19.8,19.8,0,0,0,1.3,6.5,26.8,26.8,0,0,0,1.2,3A20.8,20.8,0,0,1,765.6,599.7Zm50.9-8.4c-1.3.4-2.7.7-4,1.2-3.2,1.2-3.5,3-3.8,6.1-.2,1.5-.3,4.2-2,4.5,1.7-.3,1.8-3,1.9-4.5.4-3.1.7-4.9,3.8-6.1a31.1,31.1,0,0,1,4.1-1.1,2.8,2.8,0,0,1,1.3-.3Z" transform="translate(0)"/>
    <path id="Q11" class="cls-3" d="M930.8,735.6l-1.1-.8-1.8-1.9a51.7,51.7,0,0,1-3.9-5.3c-1.5-2.2-2.4-5-3.5-7.4a13.9,13.9,0,0,0-4.2-5.9c-1-.7-2.6.3-3.5.8a39.7,39.7,0,0,0-3.5,2c-.6.4-1,.9-1.5,1.3l-4.6,2.7c-1.8.9-2-.5-3-1.8s-1.5-1.9-2.4-2.1h0a10.4,10.4,0,0,0-4.1,2.3c-.8.9-2.4,4.5-3.8,4.5h-.3c-.1-1.7,3.4-4.1,1.9-5.9s-4.7-1.5-6.5-2.6-1.6-3.2-3-4.5-3.1.3-4.5.5a33.7,33.7,0,0,1-5.5,0c-2.2,0-3.4,0-3.4,2.4a13.1,13.1,0,0,0,0,2.8c.3,1,1.7,1.9,2.4,2.5s4.8,2.4,5.4,4.5-1,2.8-1.4,4.3-.3,3.7-.7,5.4.4,2.2.8,3.3a13.1,13.1,0,0,1,.9,3.4c.1,1.8-.9,4.3-.2,6s3.6,1.8,3.4,4.4c-2.3.4-2.6-2.7-4.7-1.9s-1.6.9-2.4,1.3-1.2,1-1.7.1a34.4,34.4,0,0,1-3.5-5.8c-.3-1.1-.3-2-1.6-1.8a3.8,3.8,0,0,0-2.3,1.3c-1.4,2.2-.8,5.1-4,5.7-1.3.2-3.1.1-4-1s-.1-2.7,1-3.6,5.7-2,7.8-4.4,2.5-5.8,4-8.6,3-5.1,1.8-7.5a7.7,7.7,0,0,0-5.4-4l-3.8-1.1c-1.4-.3-2,.2-2.8,1.2a23.5,23.5,0,0,0-2.3,3.2,10.3,10.3,0,0,0-1.3,3.6c-.5,1.8-1.7,2.7-3.2,3.7s-2.8,1.3-2.1,2.7,2.3,1.5,1.6,3.5-2,2.8-3.1,4a13.1,13.1,0,0,0-2.7,3.5,25.6,25.6,0,0,1-2.2,4c-.7,1-1.8,1.7-2.2,3s-.3,2.3-.5,3.4-.1,2.5-.6,3-.9-1.8-.9-2.5a6.7,6.7,0,0,1,.4-3.2,8.2,8.2,0,0,0,1-2.4c.1-1-.2-2.1.1-3s2.6-4.1,4-5.6,2.7-2.4,2-4.8-1.5-2.3-2.7-1.9-1,1.5-1.3,2.5c-1.2,2.8-3.8,4.3-6.2,5.9s-3.2,1.7-4.8,2.6a8.6,8.6,0,0,1-3.9.9,35.4,35.4,0,0,1-4.6-.2c-1.2-.3-2.2-.8-3.3-1.1s-5-.9-5.6,1.4-1.1,5,.3,7.5,1.7,2.7,2.4,4.1,1.7,2.6,1.5,3.7c-1.8.4-3.5-3.5-4-4.9s-2-3-4.2-2.2-3,3.6-1.8,5.2,2.5,1.3,3.5,2a5.8,5.8,0,0,1,2.1,1.7c.9,1.4-.2,1.4-1.3.8s-1.4-1.1-2.2-1.6-3.3-3.3-5.7-2.3-2.7,3.2-4.4,4.4a20.5,20.5,0,0,1-3.6,1.9c-1.4.9-2.8,1.8-4.1,2.8a81.6,81.6,0,0,0-6.6,5c-.2.1-.6.8-.9.9s-.3-.2-1.1-.6a3,3,0,0,0-3,.6,19,19,0,0,1-6.1,2.4,54.9,54.9,0,0,0-8.6,3.8c-2.8,1.4-5.7,2.4-8.5,3.5a30.5,30.5,0,0,1-8.4,2.1c-2.9.3-5.7.8-8.7.3s-5.4-2.8-8.6-1.7a18,18,0,0,0-6,3.8c-2.3,2-4.9,3.6-7.4,5.4-6.8,4.8-13.7,9.7-20.6,14.4l-7.7,4.8c-1.8,1.1-3.7,2-5.6,3s-5.4,2.5-7.5,1a2.4,2.4,0,0,0-2.6-.5c-1.1.4-1.5,1.5-2.4,2.1s-1.3-1-1.8-1.9-1.4-.5-2.4.1-3.1,2.4-5,2.6-3.6-2.3-5.8-2.9-3.7,2.3-5.1,3.7-2.8,3.7-4.4,5.4-3.8,3.3-5.7,3-1.7-1-3-.9-1.1.6-2,1.1a8.7,8.7,0,0,1-6.7-.1c-2.2-1.1-3.9-2.8-6.1-3.7s-2.9.7-4.3,1.5a55.8,55.8,0,0,1-5.2,3.2c-2.5,1.2-4.9,3.1-7.6,3.6-.5,0-1.1.2-1.5,0s-.6-.8-1.1-.9-1.7.9-2.7.9-1.3-.9-2.1-1-1.8.7-2.5,1.1c-2.9,1.5-5.3,2.9-8.5,3.4a51.9,51.9,0,0,0-9.6,2.4c-5.6,1.9-4.6,9.8-4.6,14.5,0,2.7,1.3,5.4,2.5,7.7a6.8,6.8,0,0,0,1.8,2.8c1.5.7,2.4-.7,3.4-1.4s4.4-1.6,6.5-2.4a91.6,91.6,0,0,0,9.8-4,83,83,0,0,1,10.1-3.8c3.6-1.1,7.3-1.2,10.8-2.1,6-1.5,12.1-2.4,18-4.1,1.5-.5,2.9-1.5,4.3-1.8s2.1,3.6,4.7,2.9c.8-.2,1.6-1.1,2.4-1.4s2.5-1,3.7-1.7a56.7,56.7,0,0,1,11.2-4.4c4.9-1.4,9.7-3,14.7-4.2a86.2,86.2,0,0,0,21.1-8.7c3-1.6,5.8-3.9,8.9-5.2.7-.2,1.9-.9,2.6-.4s.4,1.2,1.3,1.4,1.1-.6,1.7-1.2,5.1-2.6,7.6-3.7c4.4-2,8.3-4.4,12.5-6.7,6.4-3.7,12.9-7,19.4-10.3l10.1-5.1a30.5,30.5,0,0,1,7-2.9l7.1-2c4-1.3,7.9-2.8,11.8-4.2s7.1-1.8,10.5-2.9,9.3-2.9,14.1-4,8-3.5,12.4-4.2,6.8-1.7,10.2-2.3a57.5,57.5,0,0,0,7.1-2,30.4,30.4,0,0,0,6.6-2.3c2.1-1.1,4.8-1.2,7-1.9s5.8-1.4,8.7-2,8.4-3.3,11.8-1.4a23.8,23.8,0,0,0,10.4,2.8c2,.1,4,0,6,0a24.4,24.4,0,0,0,5.4-.2c4.4-1.1,8.1-3.7,11.7-6.3a57.4,57.4,0,0,1,5-3.6c1.5-.8,3.5-2.4,5.2-2.5s2.5,1.2,3.5,2.1l7.7.4V735.8Z" transform="translate(0)"/>
    <path id="Q10" class="cls-3" d="M829.2,697.3a15.8,15.8,0,0,0-3.3,4.8c-.9,2.1-1.9,4.1-2.9,6.1s-1.8,2.6-2.6,4a6.5,6.5,0,0,0-1.1,3.4c.1,3.7,6.7,1.8,8.9,2.3s3.2,2.2,4.2,3.2a5.6,5.6,0,0,1,2,4.8,8.6,8.6,0,0,0,.1,1.6,1.7,1.7,0,0,0,.8,1.3c1.4.7,2.7-1.4,3.3-2.3,2.1-3.3,6.1-5.1,9.1-7.5l8.2-6.4c.9-.7,1.8-1.2,1.9-2.3s-1.4-2.7-2.3-3.6a23.2,23.2,0,0,1-4.4-5c-.9-1.4-1.6-2.8-2.4-4.3a20,20,0,0,0-2.2-3.7c-.6-.8-1.4-1.4-2.1-2.2a5,5,0,0,0-2-1.8,5.7,5.7,0,0,1-2.8-1.1c-1.4-1.1-4.3-3.2-5.1-.2s3.8,2.6,3.4,4.3a3.2,3.2,0,0,1-3.7-.9c-.4-.4-.6-2.2-1.3-2.3s-.5.8-.6,1.3a7.5,7.5,0,0,1-.8,2.4A20.6,20.6,0,0,1,829.2,697.3Z" transform="translate(0)"/>
    <path id="Q9" class="cls-3" d="M829.3,724a11.5,11.5,0,0,0-7.1-3.3,6.2,6.2,0,0,0-3.7,1.6c-1.9,1.4-4.3,3-5.1,5.3a4.4,4.4,0,0,0-.2,2,8,8,0,0,0,5.2,6.6c1.3.5,2.6,1.6,4.1,1.6s2.8-1,4.1-1.5,3.5-.3,4.6-1.9,1.7-3,1.5-4.7a4.2,4.2,0,0,0-.4-1.6A12.1,12.1,0,0,0,829.3,724Z" transform="translate(0)"/>
    <path id="Q8" class="cls-3" d="M828,679.9l-3.1-1.6c-2-1-4.4-1.6-6.6-.4s-3.7,3.9-5.5,6.1-4.4,2.5-5.7,4.7-.7,4.5.7,6.7a32.1,32.1,0,0,1,1.9,3.1,18.3,18.3,0,0,1,.7,3.2c.6,2,2.5,3.1,3.1,5a15.9,15.9,0,0,1,.6,4.3c0,1.1-.1,3.2,1.6,3a3.6,3.6,0,0,0,2.1-2.1,16.2,16.2,0,0,1,.6-1.7c.9-3.2,1.7-6.4,2.3-9.6.2-1.6.5-2.7-.7-3.9s-1.5-1.1-1.3-2.1c1.9-.4,2.4,2.1,3.5,3.1s.8.4.9-.6a20.8,20.8,0,0,1,0-2.5c.1-1.5.1-2.7,1.2-3.8s2.3-1.8,2.3-2.7-3.4.2-4.4-.6,1-2,1.9-2.1,2.2,0,3.1-.8.9-1.5,1.6-2.2.8-.3.8-1S828.5,680.2,828,679.9Z" transform="translate(0)"/>
    <path id="Q7" class="cls-3" d="M802.4,688.3c1.3-2,.8-3.7-.3-5.8s-.7-5.4-1.8-7.7-2.4-3.1-3.4-4.8-2.9-3.1-4.5-2.1-1.3,3.1-1.4,4.4a9.7,9.7,0,0,0,.1,3.8l.2.3c.5.7,1.4,1.2,1.8,1.9a5,5,0,0,0,1.5,1.7c.8.4,2,.4,2.3,1.5s-4.4-.6-3.6,2,1.7,1.9,2.2,3a3.5,3.5,0,0,1,.5,2c-.1.8-.6.7-1.2,1.1s1,1.5,1.4,2.2.6,1.6,1.1,2.4a10,10,0,0,1,1.9,3.1c.5,1.4.9,2.9,1.4,4.3s1.6,4.6,3.4,5.5,1.9-.2,1.9-1.3a3.8,3.8,0,0,0-1.3-2.2c-2.1-2.2-2.8-4.9-3.2-7.9s-.9-4.7.7-7Z" transform="translate(0)"/>
    <path id="Q6" class="cls-3" d="M800,732h-.4c-.8.1-1.3,1.1-1.9,1.7s-2.6,1.7-3.5,3a3.4,3.4,0,0,0-.6,1.5c-.4,2.7,2.4,6.1,3.6,7.9s2.5,4.7,5,4.4,2.1-5,2.3-7,.8-2.7.2-3.3-2.1.2-2.6-1.5S803,732,800,732Z" transform="translate(0)"/>
    <path id="Q5" class="cls-3" d="M755.5,704.3h-1.3c-.9-.1-.8-.7-1.4-.8s-1.2.6-1.4,1.4-1.4,2.3.1,3.1,2.3.6,3.3,1.7,1.9,1.9,2.1,3.1a23.5,23.5,0,0,1-.1,2.7c.1,1.4.2,4.2,2.1,4.3s2.5-2.2,3.1-3.1.8-3.2,1.8-4.6,3.3-4.6,5.2-2.2,2.1,4,3.8,5,2.4-2.9,3.4-4.1c.8.6.3,2.2.6,3.1s1.5,2.7,2.1,4.1a36.5,36.5,0,0,1,1.8,4.1c.4.9.6,2.7,1.6,3.2s2.5-.5,3.4.2-.4,1.9-1.3,2.2-4,2.6-2.3,4.9,1.1,3.9-.2,5.8-2.7,2.7-2.2,4.1,3.1.8,2.9,2.6-1,1.2-1.9,1.5a5,5,0,0,0-2.2,1.6c-.5.6-.9,1.3-1.7.4s-.2-1.6-.3-2.3l-5,.7a6.6,6.6,0,0,0-3.3,1.2,5.3,5.3,0,0,1-2.6,1.5c-2,.6-4.5,1-5.1,3.4s3.3,3.6,5.1,4.2,4.8,2.4,6.6.9.9-2.7,2.1-2.6,1.2,2.1,1.7,2.7a2.2,2.2,0,0,0,2.6.6,25.3,25.3,0,0,0,3.6-2c1.5-1,2.6-2.6,4-3.7s2.5-1.1,3.3-2.2.7-4.8.6-6.7a12.9,12.9,0,0,1-.1-3.4c.2-1.1.6-2.1.9-3.2a3.6,3.6,0,0,1,.2-1.1,18.4,18.4,0,0,1,.6-4,9.2,9.2,0,0,1,2.9-3c1.7-1.1,4.1-3.2,2.3-5.5s-3.5-.7-4.3-2-.2-3,.4-3.4,1.5.3,1.6-1.2-.6-1.8-.6-2.7,3.9.4,4.2-2-3.5-1.3-4.5-2-1-1.4-1.5-1.9a7.6,7.6,0,0,1-1.8-2.6c-.3-.6-.4-1.3-.7-1.9s-.8-.6-.7-1.1,2.7-.8,3.6-1,2.4-1.8,3-3.4.9-2.1-.1-3.1a5.2,5.2,0,0,0-3.1-1.4c-1.3,0-1.8,0-2.6.9s-1.1,1.4-1.8.8-.5-2.5-.6-3.4a4.9,4.9,0,0,0-.9-2.2c-.2-.4-.8-1-.8-1.3-.5-2.6,4.2.1,4.9.2s1.9.4,2.3-.5a4.9,4.9,0,0,0-.3-2.9,14.4,14.4,0,0,0-1.8-2.5c-.2-.4-.3-.8-.7-1s-1.3-.2-1.5-.8,1.5-1,2-1.7-.2-2.5-.8-3.4-1.8-2.8-3.4-3.4a5.7,5.7,0,0,1-3-2.5c-.2-.4-1.2-1.7-1.1-2.1s.9-.8,1.3-1.1,2.4-.7,2.8-1.3-.3-1.9-.9-2.4a14,14,0,0,1-1.6-2c-.7-.9-1.6-1.5-2.3-2.4a8.8,8.8,0,0,1-1-3.7c-.2-2.1-.1-4.1-1.6-5.8a4.1,4.1,0,0,0-1.6,3.4,7.5,7.5,0,0,0,0,1.5c.1.3.7.5.8.8s-1.8,3.6-2.7,4.3a7.1,7.1,0,0,1-3.1,1c-1.7.2-2.4-1.4-3.1-2.7a10.1,10.1,0,0,0-3.1-4.3c-.9-.7-1.9-2-3.1-1.7a5.1,5.1,0,0,0-2.8,2.2c-.7,1.2-.3,1.7.5,2.8a21.8,21.8,0,0,1,2,3.7c.7,1.4.9,2.9,1.5,4.3s1.1,2.1,1.1,3.5-.9,2.8-1.7,4.4-.9,4.1-2.5,5.1-2.1.4-2.2,1.2,1.9.8,2.5,1.5a2.2,2.2,0,0,1-.5,2.7c-.8.9-1.7,1.4-2.2,2.6s-.6,2.5-1,3.7a56.2,56.2,0,0,1-2.7,7.2c-1.1,2.7,2.4,2.8,2.4,5S756.6,704,755.5,704.3Z" transform="translate(0)"/>
    <path id="Q4" class="cls-3" d="M803.5,731a1.9,1.9,0,0,0,2.7.8c.3-.3.4-.8.7-1.1s.8-.5,1.2-.8a4.6,4.6,0,0,0,1.7-2.6c.6-2-.5-2.8-2.3-2.8h0c-1.4.5-3,3.2-3.5,4.2S803.2,730.3,803.5,731Z" transform="translate(0)"/>
    <path id="Q2" class="cls-3" d="M759.3,735.1c.8-.4.9-.8,2-.8h2.9a4.3,4.3,0,0,0,2.2-.9c.6-.5,1.5-.7,2-1.2s.6-1,1.3-.5.7,1.8,1.4,2.4,1.5-.1,2.2-.4,2.4-.7,3.5-1.4,1.5-1.3,1.1-2.3-.7-1.8-1.1-2.7a15.5,15.5,0,0,0-1.4-2.9c-.4-.9-1.1-1.5-1.6-2.4s-1-2.4-1.9-1.9-.7,1.8-.7,2.5,1.2,4.7-.6,6-1.9,0-2.4-1-.2-1-.4-1.5a5.1,5.1,0,0,0-.9-1.3,5,5,0,0,1-.4-1.3,8.9,8.9,0,0,0-1.5-3.1c-.9-.9-1.2-.1-1.6.8s-1.1,1.3-1.8,2a12.4,12.4,0,0,0-1.6,3,2.7,2.7,0,0,1-1.9,2.1c-.5.2-1.5.7-1.1,1.5s.6.2.8.4.2.7.2,1.1S757,736.4,759.3,735.1Z" transform="translate(0)"/>
    <path id="Q1" class="cls-3" d="M745.6,755.9a12.5,12.5,0,0,0-5.9,5.9c-1.4,2.4,2.8,6.1,5.2,5.6.7-.1.9-1.3,1.6-1.7a11.1,11.1,0,0,1,1.9-.9c.8-.5,1.3-.6,1.3-1.6s-.5-1.9-.1-2.6a1.8,1.8,0,0,1,2.9,0c.9,1.1.5,2.9.1,4.1a5,5,0,0,0,.3,3.6c.7,1.9.8,4.5,3.3,4.6s4.6-.1,6.5-2,4.8-3.8,4.6-7.1-5.5-3.4-7.6-4.7-3.5-5.7-6.4-6.9a2.6,2.6,0,0,0-3.1.6A20.6,20.6,0,0,1,745.6,755.9Z" transform="translate(0)"/>
  </g>
  <g id="The_Bronx">
    <path id="Bronx6" class="cls-4" d="M848.5,169.3c1-1.9,7-.4,4.7-3.7-.7-.9-2.4-1.1-3.4-1.8a3.9,3.9,0,0,1-1.6-2.9c-.2-1.9.1-4.2-.6-5.9s-2.2-2-3.6-2.5a7.8,7.8,0,0,1-4.2-4,22.6,22.6,0,0,1-1.7-5.6c-.2-1.6.2-3.2-.3-4.7-1.3-3.8-4.7-1.7-6.1,1s.3,5.7,2,8.1,4.2,5,4,7.5-1.4,2.4-2,3.6a8.5,8.5,0,0,1-2.1,3.1c-2.3,2.4-.3,3.7,1.1,6.1l2.6,4.6c.9,2.2,1.1,4.5,2.2,6.6s2.3,2.5,3.6,3.9a13.9,13.9,0,0,1,2.1,4c1,2.3,3.2,6.9,5.4,2.3a19.8,19.8,0,0,1,2.1-4.1c.8-.9,1.6-1.4,1.9-2.7s-1.5-5.1-3-7S847.3,171.9,848.5,169.3Z" transform="translate(0)"/>
    <path id="Bronx5" class="cls-4" d="M829.5,256c-3.2-1.6-5.8-4.1-9.4-4.8s-8-2.7-9.7-6.3c-.7-1.5-.3-3.1-1.3-4.8s-2.4-2.8-2.5-4.5c4.7-.4,3.9,4.7,5.8,7.7s5.4.3,8.2-1.4,5.9-4.3.8-6.7c-3.5-1.6-9.1-2.5-11.1-6.1s-1.4-8.9-3.6-12.9c-.7-1.4-1.7-3.4-3.6-3.1s-2.7,2.8-3.8,3.9-3,2.6-4.3,1.5-1.3-4.7-.7-5.8,3.1-1.3,3.5-2.7-3.2-3.9-4.3-5.3a16.8,16.8,0,0,1-2.5-7.2c-.5-3.4-1.4-8-.6-11.4s1.9-1.4,3.1-2.9.5-3,0-4.3a12.7,12.7,0,0,0-1.2-2.3c-.8-.9-2.3-2.3-3.2-3.2s-1.8-1-2.6-1.7c3.7-3,5.4,4.8,8.2,3.1s-1.6-6.8-3.2-8.1a5.8,5.8,0,0,1-1.8-1.7c-.7-1.1,0-1.4-.2-2.4s0-1-.8-1.9-2.4-.3-1.8-1.3,3.9.7,4.4-1.8-1.9-1.5-3-2.6-1.1-2.7,0-4.5,1.4-2.7,0-4-3.2-.5-2.9-3.3a5.7,5.7,0,0,1,3.4-4.3c2.2-1.1,3.6-.4,3.9-3.1s-.6-4-2.6-4.6-4.7-.5-5.5,1.2-.2,4.5-3,3.3,4.3-5.3,3.6-8.1-2.5-2.2-2.9-4-.1-4-.2-5.8c-.3-4.1-3.3-5.5-4.7-9.1s-3-9.4-.6-14,4.3-6.2,4.8-10.2c.3-2.2-.5-9,1.9-10.1,5.5,7-1.4,13-2.4,19.8-.4,2.3.5,2.9,2,4.5s2,2.6-.4,3.3-3.1,0-3.8,2.5a6.3,6.3,0,0,0,.9,4.8c.6,1,2,3.4,3.1,3.7s1.8-2.1,3.7-1.8c0,3.6,2.6-.2,3.1-.7,2.1-1.7,2.7.6,2.1,2.5s-.9,1.2-1,1.9.6,1.7.4,2.7-2.5,2.1-2.3,3.6,2.8,1.3,3.1,3.1-.9,3.9,1.9,3.1c.7-.2.4-1.2,1.5-1.5s1.6.4,2.3,1.1,1.8,3.4,2.7,5,2.1,2.7,3,4.2,2.3,4.2,3.2,1.8-1.1-3.3-.2-5,3.3-2.7,4.2-.6-.9,3.9-1.5,5.6a17.7,17.7,0,0,0-.8,5.6c-.1,2.1.9,3.4,1.6,5.2s.9,3.5,1.6,5.1c1.6,3.2,4.5,5.1,6.3,8.1.7,1.1,1.1,3.9,2.5,2s.7-4,1.4-5.4,2.4-2.6,2.8-4.4-1-2.9-2-4.4c-3.2-4.4,1.5-5.7,4.5-7.8s2.5-5.3,4.4-8.1,2.5-2.4,2.7-4.8.2-4.3.4-6.5c.3-4,.2-8.3,4.5-9.8s8.1-2.1,9.2-5.6c.4-1.2.6-4.5-1.2-4.5s-2.1,3.8-4.2,2.8-.8-3.5-1.3-4.4-1.3-.3-.8-1.8,1.9-1.5,2.3-1.8c2.7-2,5.6-5.3,2.5-8.6s-3.5-1.3-5.6-1.7-1.4-2.3-3.3-2.9-7.8,4.9-7.1,7.3,1.3.6,1.7,1.3-.4,1.4-.9,2.4-.7,3-1,5-1.7,1.8-3.3,3a13,13,0,0,0-3.8,4.9c-2,3.5-3.5,8.1-6.1,11.2s-5.9-1.6-7.4-4.2-5.6-5.1-5.4-8.2c3.5-.1,4.7,6.1,7.7,6.2s1.5-2.5,1.3-3.9-.6-2-.1-2.3,1,.7,1.5,1c3.6,2.5,4.2-4.2,5.4-6.6s2.5-1.6,4.1-3,.8-3.1,1.1-5.2,2.1-2.8,2.5-4.9-.2-3.2,1.2-5a12.4,12.4,0,0,0,1.7-2.3c.4-.7.3-1.6.8-2.2h0c-3.3-1.5-42.5-15.2-48.3-17.9-1.2-.6-4.2-1.2-5.6-.6s.6,1.9.8,3.7c-2.1.3-27-9.4-28-10s-.5-3.8-2.1-5.7-1.8-.8-1.9-2.4,1-1.5,1.6-2.7c1.4-3.1-.9-3.3-2.4-5s1.8-8-3.5-7.8c-1.8,0-3.3,1.5-4.4-.5s.1-1.5-.6-2.3a4.9,4.9,0,0,0-2.1-1.4,7.2,7.2,0,0,1-4-2.8c-1.8-2-2.5-1.7-2.9.8s-1,2.1-2.5.3-2.6-1.5-3.7-2.7c3.9-.4,5.1-6.4.6-4.8s-.5,4.9-3.3,7.6-3.1.6-3.6,2.8.6,2.8-.2,4.2-2.4,1.6-3.1,3-.7,3.6-1.3,5.3c-3.9.7-85.3-35.1-90.6-36.6-.3,1.1-.5,2.1-.7,3.1-.6,4.3-.4,8.5-1.2,12.8s-2.3,7.6-3.3,11.4-2,9.2-3.6,13.4c-2.9,7.5-6.2,14.7-8.3,22.5-1.2,4.3-2.5,8.8-3.9,13-.7,1.8-1.9,3.8-1.7,5.7s2.3,3.5,4.1,5.1a27.4,27.4,0,0,1,3.4,4.1,9.8,9.8,0,0,0,4.9,3.1c2.1.5,3.6.2,5.9.7a20.9,20.9,0,0,1,6.9,3.3c6.7,5.5,1.6,14.8-1.4,20.7a103.3,103.3,0,0,1-14.9,22.1,57.8,57.8,0,0,0-10.4,14.9c-1.6,3.4-2.7,7.3-4.8,10.5a47.6,47.6,0,0,0-4,6.9,29.9,29.9,0,0,0-.9,3.2c-.7,3.1-.9,6.5-1.9,9.6a80.2,80.2,0,0,0-2.8,10.4c-.8,4.4.6,7.8,1.9,12s2.3,8.7,1.9,12.8-.2,8-1.1,11.5a49.5,49.5,0,0,0-2.3,13.3h0c0,4.6,3.2,7.9,5.6,11.4s4.7,6.9,7,10.1h.1l8.4-.7,12,11.9.7-.5c1.2-.5,3.9.3,5.2.5s3.3-.1,5-1.9a20.5,20.5,0,0,0,3.1-5.4,33.9,33.9,0,0,1,5.6-8c3.3-3.8,5.8-6.6,11.1-7.8,7.2-1.7,13,.5,17.6,6.1,1.4,1.7,2.4,4.1,4,5.7s3.2,1,5.1-1,3.2-3.3,6.3-2.5,5.4,2,6.5,4.1.7,3.3,3.9,3c6.6-.6,13.3-9.3,11.1-16.1-.4-1-1.2-1.3-1.7-2.1a23.9,23.9,0,0,1-1.6-3.2c-.8-1.7-1.7-3.2-2.5-4.9s-1.3-3.1-3-4.1-4-1.9-6-2.9-8.8-3.5-9.4-7.9c-.4-2.6,1.7-2.1,3.1-.7s2.5,3.9,4.3,5.5c3.4,2.8,8.2.8,11.4,4.5s3.3,7.9,8.3,9.1c2.2.4,4.6-.3,6.6-.9s4.5-2.1,5.7-1.1.2,4.4.1,5.6c-.3,2.8-.4,4.9,1,7.3s2,4.3,3.4,5.8,3.8,1,6.1.2,11.3-1.4,11.2-5.8c-.1-1.9-2-3.9-3.3-5.2s-3.9-2.4-4.2-3.9,2.2-2.6,1.7-4.8-2.4-2.9-3.8-3.8-4.1-1.5-5.6-3.3-3-4.6-.6-4.6,2.1,3.7,3.3,4.8,3.4.9,5,1.4,4.6,7.3,7.3,6.3,2.3-4.6,2.5-5.8a17.8,17.8,0,0,1,2.4-6.9c2.3-3.4,7.6-5,6.5-9.8-.4-1.9-1.6-3.6-2-5.6s-1.1-4.2-1.5-6.4c-.1-.7-1.8-7.7-.6-8.3s3.3,4.1,3.7,5.1c1.5,4,3.1,8.7,3.1,13s-2,6.2-2.3,9.5.4,7,.4,10.6,0,6.1,1.7,9.2,3.8,9.5,10.5,8.3c2.7-.5,2.9-3,2.6-5.6s-1.2-4.8,0-6.5,3.8-1.5,5.5-1.4,5.5,1.4,8.1.5,4.3-3.2,6.6-4.4c4.6-2.3,11.1-3.8,15.3-.5s7.1,5.9,10.9,8.6c1.6,1.1,3.1,2.5,5,2.9s4.2.4,6.7,1.7,6.1,4.5,9.5,6.2,9.1,1.7,7.4-3.2S832.2,257.4,829.5,256Z" transform="translate(0)"/>
    <path id="Bronx4" class="cls-4" d="M692.2,298.8a2.9,2.9,0,0,0-1.4-.8,18.6,18.6,0,0,1-2.9-2.7c-.9-.9-1.1-1.4-2.3-.6s-.8.5-1,1,0,1.2-.3,1.5-.5-.8-.6-1.2a18.7,18.7,0,0,0-.4-2.5c-1.5-5.6-7.6-6.4-12.1-8.3a28.2,28.2,0,0,1-2.9-1.8c-.9-.7-2.1-1.2-3-2a10.1,10.1,0,0,1-1.4-2c-.3-.5-.8-1.9-1.3-2.1s-1.4,1.2-1.7,1.7a4.6,4.6,0,0,1-1.7,1.7,3.4,3.4,0,0,0-1.8,2.5c-.2,1.3-.4,2.6-.7,3.9s-.5,2.9-.8,4.3-.9,2.4-1.2,3.7a2.3,2.3,0,0,0,.7,2.6c.8.8,1.9,1.3,2.7,2.1s1.5,4.2,3.3,5.6a7.8,7.8,0,0,0,3.6,1.3,50.5,50.5,0,0,1,5.3,1.2l4.7,1.7a14.5,14.5,0,0,0,3.6.2c2.5,0,5,.3,7.5.1a12.6,12.6,0,0,0,2.8-.5c1-.4,1.1-.6,1.4-1.6s2.7-1.4,4-2.8-.2-3.3-1.1-4.6S692.6,299.2,692.2,298.8Z" transform="translate(0)"/>
    <path id="Bronx3" class="cls-4" d="M648.6,283.7c-.7-.2-1.3,0-1.9-.4s-.9-1.1-1.5-1.6a1.3,1.3,0,0,0-1.2-.5c-.8.1-1,.5-1.4,1.1s-1,.4-1.7.7.3,1.3.8,1.5,1,.1,1.5.4.5,1,1,1.3a7.6,7.6,0,0,0,1.8.9c.9.2.9-.8,1.6-1.1s1.5-.1,1.8-.6S649.2,283.9,648.6,283.7Z" transform="translate(0)"/>
    <path id="Bronx2" class="cls-4" d="M642.3,279.2a1.7,1.7,0,0,0,1,.1c.4-.2.6-.8.8-1.1a17.1,17.1,0,0,1,1.8-2,4.6,4.6,0,0,1,1.7-1.4,6.4,6.4,0,0,0,1.8-1c.4-.4.1-1-.4-1.2a10.7,10.7,0,0,1-1.9-.7,4.5,4.5,0,0,1-1.6-2c-.3-.5-.4-1.1-.7-1.7s-1.7-.6-2,.2,0,.8-.4,1.3a16.7,16.7,0,0,0-1.6,1.2,2.1,2.1,0,0,1-1,.6c-.4.1-1.1,0-1.4.4s0,.9.4,1.2a4.9,4.9,0,0,1,1.3,1.2,1.4,1.4,0,0,1,.3,1.4c-.3.8-.8.4-1.5.6s-.8.7-.4,1.1,1.5.6,2.2.9A5.1,5.1,0,0,0,642.3,279.2Z" transform="translate(0)"/>
    <path id="Bronx1" class="cls-4" d="M879.9,142.4c-3.4-2.1-4.4-5.6-6.3-8.9-.6-1.1-1.7-2.3-3-1.7s-1,1.9-1.7,2.8-2.3,1.3-2.4,3.3a17.8,17.8,0,0,0,.4,4.1c.2,1.3-.1,2.5.2,3.7s1.8,1.9,2.2,3.1-.9,2.4-1.4,3.5c-1.5,3.2,2.4,3.3,2.5,6.1s-.8,1.6-1.2,2.8.1,2.5.9,3.6,3.1,4.3,5.3,4.6a8.9,8.9,0,0,0,2.3-.1c.2-1.2-1.4-2-2.1-2.7a14.3,14.3,0,0,1-2.4-3.1c-1.9-3,1.4-3,2-5.4s-.1-2.2-.3-3.6a33.9,33.9,0,0,1-.2-4.5c-.1-2.9,1.7-4.1,4.4-4.2.8-.1,3.3.6,3.9-.1S880.7,142.9,879.9,142.4Z" transform="translate(0)"/>
  </g>
  <g id="Staten_Island">
    <path id="SI3" class="cls-5" d="M368.5,732.1c-2.3-1.7-4.4-4.7-6.3-6.9s-4-3.8-5.3-6.5-1.5-6.1-3.2-8.3-3.6-1.9-3.7-3.5,2.4-1.1,2.5-2.7-2.1-2.4-3.3-2.7-3.8.1-2.5-1.8,2-.7,2.3-2.2-.6-2.7-1.3-3.6c-2.3-3-5.4-5.8-6.7-9.5a10.6,10.6,0,0,1-.1-5.3,58.8,58.8,0,0,0,.2-7.3c0-3.2-.2-6.3-.2-9.6s.3-6.5-.2-9.7.3-8.2-1.8-11.6a6.7,6.7,0,0,0-3.6-2.8c-.8-.2-3,.3-3.6-.4s.2-2.8-.3-3.7-2.2-.8-3.3-1.3-1.7-1.5-2.6-2.4-1.5-.8-2.9-.4-3.2,4.4-6.3,2.4c-.8-.6-1.8-2.5-2.9-2.7s-3.2,1.8-4.3,2.4-3.2,1.5-4.8,2.3-3.6,2.1-5.4,3.1a30.1,30.1,0,0,1-6.5,2.5,10.5,10.5,0,0,1-6.8-.5,13.5,13.5,0,0,0-6.9-1.6c-3.7,0-7.5-.1-10.9,1.5-1.6.7-2.8,1.7-4.5,2.2s-3,.6-4.5,1a13.8,13.8,0,0,0-7.8,4.7c-1.4,1.7-2.8,3.3-5.2,3.8-.8.2-1.9-.1-2.7.3s-.8.8-1.3,1.1-3.8.1-5.1-.6-1.6-2.2-2.9-3.3a11,11,0,0,0-6.1-1.9c-2,0-4.8-.2-6.6.7s-.9.7-1.5,1.6-2.3,1.7-4.2,2.3-1.7.9-1.6,2.3h-.5c-1.4-.1.3-2.4-2.3-2.1a3.9,3.9,0,0,0-3.1,2.3c-.4.9-.1,2.4-1.2,3s-2.1-.7-3.3-1.1-3.5-1.3-4.4-.5.8,4-1.3,4.4-1.8-1.6-2.1-2.8-1.8-3.2-3.5-1.8-.2,1.5-.5,2.2a1.8,1.8,0,0,1-2.6.7c-1.1-.5-1.7-2.3-2.4-3.2a3.9,3.9,0,0,0-3.3-2.1,14.6,14.6,0,0,0-4.2-.2c-1.9.3-.5,2.5-2.3,3.2s-1.5-1.2-1.3-2.2a3.3,3.3,0,0,0-.8-3.4c-1.2-1-2.7-.2-3.9-.9s-.5-2.2-1.5-3-1.2,1.3-1.8,1.7-2.3-.3-3.2.3v2.6c-2,.1-1.1-1.6-2.1-2.5s-1.9.8-2.9,1.1-.9-1.8-1-2.8-1.6-2.5-2.7-3.5-3.3-4.2-5-2.8-.7,1.3-1,1.8-.9,1.1-1.3,1.8-2.5,3.6-3.8,2.3.7-3.1.5-4.1-1.1-3.5-2.6-2.4-1.2,2.1-3.3,2.2-2.8-.2-3.5,1.1-.1,2.4-.2,3.5-1-2.1-3-1.9-4.2.8-4.1,2.3,3,2.7.8,4.2-2.3-1.2-3.2-1.7-5,2.1-7,3.2-2.7,1.6-3.1,3.3,0,4-1.6,6.1-7.2,6.4-8.6,11a42.1,42.1,0,0,0-1.2,7.1,32.9,32.9,0,0,1-.5,4.4,22.3,22.3,0,0,0-.3,8.9c.3,1.7,1.6,3,.4,4.5s-1,.3-1.1,1.3a3.5,3.5,0,0,0,.4,1.7,14.8,14.8,0,0,0,1.3,3.5c.8,1.3,2.6,1.4,3.9,2s2.5,2.4,4,3.5,3.6,2,3.7,4-1.2,3.8-1.7,5.6a15.1,15.1,0,0,1-2.8,5.5c-1,1.2-1.9,2.7-1.5,4.4a20.6,20.6,0,0,0,1.7,3.3c1.2,2.4,2.4,5.5,1.5,8.2s-1,2.4-1.4,3.7c-.9,3.7-1.7,7.6-2.9,11.3a17.6,17.6,0,0,1-6.8,9.7,9.1,9.1,0,0,0-4,6c-.4,2.7.9,4.9,1.4,7.4a11.3,11.3,0,0,1-.3,4.5c-.5,2.3-3.2,6-1,8.2s3,1.1,4.2,1.4a25.8,25.8,0,0,0,4.8.3c3.1.1,6.8.3,9.3,2.3a13.2,13.2,0,0,0,3.6,2.6c1.5.8,3.4.5,4.9,1.3s1.3,2.3-.1,3.2a4.9,4.9,0,0,1-4.7,0c-2-1.2-5.6-4.9-8.1-4.4s-2.1,5.9-2.8,7.9-3.9,5.6-6.8,6.8-7.9-1.1-10,1.6-1.4,6.4-3.1,9.4-3.7,6.6-2.4,10c.6,1.6,1.3,2.1.7,3.8s-1.5,2.7-2.1,4a21.2,21.2,0,0,1-3.9,5.5c-.8.7-1.7,1.1-2.5,1.8s-1.1,1.6-1.9,2.3-2.6.8-4.1.7c-4-.4-7.2-.8-10.5-2.8s-6-2.8-8.6-1.3-5.2,5.9-7.6,8.7-5.4-.7-5.4,2.7c-.1,1.5.2,2.2-1,3.2a16.8,16.8,0,0,0-4.1,4.7c-1,1.4-2.3,3.6-4.4,3.2s-1.9-1.6-3.4-.3-1.9,2.2-3,3.1-3.1,2.2-3.5,3.8.4,2.8.9,4.1a23.8,23.8,0,0,0,2.4,5.1c1.1,1.5,2.6,2,.7,3.5s-2.1,1.2-1.5,3.2a7.1,7.1,0,0,0,2.4,3.5c1,.7,3.3,1.3,3.9,2.3s.2,3.4.6,4.7,2,3.4,2,5-1.5,2.9-2,4.2a13,13,0,0,1-2.2,3.8c-.8.9-2.3,2.5-2.1,3.8s5.4,4.5,2.9,7.2c-.4.4-1.2.2-1.5.7s.3,1.4.4,1.9a7.5,7.5,0,0,0,2.4,4.1c1.3.9,2,1,.8,2.6s-4.6-1.4-6,1.8c-.5,1.3-.2,2.8-.8,4.1s-1.9-.8-2.9-1.6-3.5,1.2-4.8,2.3l-4.3,3.8c-1.4,1.4-2.3,2.5-2.4,4.5s.1,4.7-1,6.5-2.8,1.7-3.3,3.5a16.1,16.1,0,0,0,.2,6.9c.7,2.1,1.9,4.4,2.8,6.4s2,5,3.5,7,3.7,3.2,5.2,5.1,2.6,5.1,4.8,4.7,1.4-3.6,2.8-4.3,1.3,2.8,2.1,3.4,6.4-.7,7.9-2a32.8,32.8,0,0,0,3.7-4.5,16.8,16.8,0,0,1,4-3l3.7-2.6c2.5-1.8,5.8-3.8,8.9-2.7s3.6,5.2,6.5,3.7c1.3-.6,1.3-2.3,1.8-3.3s2.8-1.4,4.5-1c3.7,1.1,5.9-.5,8.9-2.5s5.3-3.6,6.5-7a22.7,22.7,0,0,1,6.7-9.7c3.4-3,6.8-4,11.2-4.2,1.4-.1,2.3.2,3.2-.9s1.6-3.1,2.5-1.2-.5,2.4.5,3.5,3.1.9,4.6,1.6,1.4,2.1,2.6,2.6c3.8,1.4,9-7.2,10.7-9.6s2.1-4.2,3.2-6.3,2.7-3,4.5-4.3,3-2.4,4.6-3.5,3.1-2.1,4.2-1,1.4,3.8,3.7,3.4,2.5-1.5,3.5-2.3c3.1-2.5,6.1-3.3,6.6-7.6,1.8-.2,2.1.9,2.9,2.4s1.5.8,2.6-.3,2.6-1.5,4-2.2a30.8,30.8,0,0,0,6.3-4.6,72.2,72.2,0,0,1,7.7-5.6c2.4-1.4,4.6-3.2,7-4.6a105,105,0,0,1,10.8-4.9c2.6-1.1,4.3-1.8,5.9-4.2l2.8-3.5a6.7,6.7,0,0,1,.9-1.4l.9-.6c.7-.7,1.1-1.6,1.8-2.3s3-2.4,2.7-4.9-1.3-1.6-1.7-2.7a11.3,11.3,0,0,1,.1-4.1c.4-1.6,1.3-1.3,2.7-1.8s1.2-1.3,1.2-2.7c0-3.5,3.2-2.3,5.5-3s2.1-2.8,3.7-3.8,5.3,0,7.4,1.3,5.8,4.9,5.5,7.6-3.2,5.2-5.1,7.5-1.9,2.9-2.8,4.3a16.1,16.1,0,0,1-3.6,3.3c-2.4,1.7-5.5.9-8.4.9s-2.4.4-3.3,2.2a5.1,5.1,0,0,0-.7,3.8c.7,2.5,3.5,5.6,5.1,7.8s4,.3,5.7-1.3c6-5.4,9.2-13,14.3-19.1a41.8,41.8,0,0,1,5.3-5c1.6-1.3,2.7-1.4,4.6-2s3.1-1.9,4.6-3a47.4,47.4,0,0,0,5.1-3.7,31.2,31.2,0,0,0,7.4-9.1c1.7-3.1,3.9-5.2,6.4-7.6s2.7-6.6,4-3.5c.4.9.4,3.5,1.9,2.7s1-2.4,1.4-3,2.2-3.3,3.3-5a19.2,19.2,0,0,0,2-5.5c.5-1.5,1-3.1,2.9-3.6s2.4,1.1,3.7.5,1.8-2.1,2.4-3.1a47.1,47.1,0,0,1,3.3-4.2,38.1,38.1,0,0,0,3.4-5.8c1-2,1.6-3.3,3.4-4.5a18.5,18.5,0,0,0,4.1-4.7,63,63,0,0,1,4.5-5.5c8-8.3,15.6-17.2,24.8-24.2,2.6-2,4.4-5.1,6.5-7.6a26.2,26.2,0,0,0,3.7-6,13.2,13.2,0,0,1,4.9-5.3c2.3-1.7,6-3,7.7-5.3s2.3-4.2,3.5-6.1a48.6,48.6,0,0,0,3.6-6.1c1.2-3,2.3-6,3.2-8.9a26.2,26.2,0,0,1,1.5-3.9c.7-1.4,2.2-2.8,2.3-4.4S370.1,733.4,368.5,732.1Z" transform="translate(0)"/>
    <path id="SI2" class="cls-5" d="M100.1,729.5a16.4,16.4,0,0,0,1.6,2.9c.8,1.2,1.5,2.4,2.2,3.7s2.5,3.3,3.6,5.1,2,3.8,3,2.3.1-1.9.4-2.6.8-1.4,1-2.2-1-3.6-1.7-5.2-1.8-3.3-2.4-5a6.5,6.5,0,0,1,.3-5.6c1.1-1.8,2-4.2,3.6-5.6s1.1-.8.8-1.7a6.6,6.6,0,0,0-1.7-2.4,3.8,3.8,0,0,0-1.8-.9c-.8-.2-1.6,0-2.4-.2s-.8-1-1.4-1.2-1.4.7-1.8,1.3a16.9,16.9,0,0,0-1.7,2.9c-.6,1.3-.4,2.8-.5,4.2s0,2.9,0,4.3S99.5,727.4,100.1,729.5Z" transform="translate(0)"/>
    <path id="SI1" class="cls-5" d="M95.5,811c.7-.1,1.1-.8,1.5-1.3a7.5,7.5,0,0,1,1.8-1.3,4.5,4.5,0,0,1,2.8-.4c1,0,3.4.8,4.2,0s.4-1.5.5-2.1,0-2,.1-3a32.5,32.5,0,0,1,.6-4.5,12.4,12.4,0,0,1,1-2h0c.3-.5.6-1-.1-1.4a4.4,4.4,0,0,0-2-.2,8.6,8.6,0,0,0-2.8.4c-.9.3-1.7.9-2.6.5s-1.3-.8-2.3-.7-1.1.5-1.5,1.2-1.4,4.4-2,6.7-1.2,4.4-.6,6.5S94.7,811,95.5,811Z" transform="translate(0)"/>
  </g>
  <g id="Brooklyn">
    <path id="Brooklyn13" class="cls-6" d="M682.3,770.2c-2.2-5.2-3.3-10.8-5.3-16-1.4-3.4-3.2-6.6-4.3-10.2s-.3-6.4-2.2-8.7-4.8-1.3-6.9-1.2-7.1-.4-10.5,0-3.8,2.2-5.4,2-2.5-2.4-1.4-3.9,3.8-2.3,5.4-3.4,3.4-3.1,5.5-3.9,3.8-.6,5.9-.6c5.5,0,2.5-3.4.6-6.1s-3.9-7-6.2-10.3a103.7,103.7,0,0,1-7-11.5c-1-1.9-2.1-3.4.1-4.6a4.5,4.5,0,0,1,5.7,1.4c1.1,1.5,1,3.6,3.5,3s2.7-2.8,2.7-4.8-.9-4.1-.2-5.6,2.4,0,4.3,0,3.2-4.7,4.5-5.8,1.7-2.5,2.8-3.1,1.1,1.3,2,.8.5-2.2.6-2.8a14.8,14.8,0,0,1,4.2-7.6c2.1-2.2,2.3-.3,4.7.5s2.7-1.5,2-3.5-2.8-2.5-3.9-3.8a13.7,13.7,0,0,1-2.7-4.7,61.8,61.8,0,0,1,7.4,6.3c.7.6,3.5,3.6,4.2,3.5s1.7-3.4,2.5-4.2,7.6-3.1,7.1-6.4-3.3-4.2-4.9-5.8a24,24,0,0,1-4.7-6.6c-.7-1.8-2.3-4.4-2-6.4,2.2-.4,4.9,2.5,6.1,4.1s1.3,2.5,2.6,2.7,1.9-.8,2.8-1.3,3.6-2.4,3.5-5-1.9-4.2-2.8-6.2c1.6,0,3.8,4.2,4.5,5.6s0,4.5,1.2,6.6,1.1,1.5,2.3.5a7.9,7.9,0,0,1,3.4-1.4c1.2-.2,2.9-.6,3.7-1.7s.7-3.4.7-4.9a26.4,26.4,0,0,1-.1-4c.1-1.3.8-2,.7-3.4s-2-6.8-4.2-8.6-5.7-2.2-5.3-4.5h1.3c-.5-1.3.4-2.8-1.2-3.7s-2.2-.5-2.4-1.1,1.1-1.4,1.5-1.6,2.1-.3,3-.8,1.3-1.4,2.1-1.9a2.9,2.9,0,0,1,2.3-.8c.8.1,1.2.4,2.1,0s1.3-3.2-.1-4.3-2.3-1-1.9-2.3a4.4,4.4,0,0,1,1.7-1.9c1-.2,1.2,1,2,1.3a4.2,4.2,0,0,0,3.1-.8c1.1-1.6-1.5-4.9-1.7-6.6a11.9,11.9,0,0,0-.4-3.3,22.4,22.4,0,0,0-1.3-2.7,8.1,8.1,0,0,1-1-3.1c0-1.1.5-2,.5-3.2s-.3-2.3-1.5-1.7-1,1.7-1.6,2.3-2.1-.9-2.2-2.2a20,20,0,0,0-1.2-5.9,9.1,9.1,0,0,1-1-4.3c-.2-2,0-5.5-2.2-6.4s-1.4-.1-1.4-1.5a7.5,7.5,0,0,0-.2-3c-.6-1.1-1.4-.8-2.5-.9s-.7.1-1.1-.5a5.3,5.3,0,0,1-.5-1.8,39.7,39.7,0,0,0-1.1-6.9c-.7-2.6-.9-5.3-1.5-8s-1.4-4.3-1.8-6.6a45.1,45.1,0,0,1-.1-5.2c0-1.5.1-3.2-1.8-3.2s-2.8.9-4,1.3-5,1.3-7.1,2.6a30.5,30.5,0,0,0-4.9,3.8c-1.9,2-3.1,4.3-5.3,5.9a23.5,23.5,0,0,0-3.2,2.3,37.9,37.9,0,0,1-3.7,3.1,16.7,16.7,0,0,0-4.2,3.2c-.9,1.2-1.2,2.3-2.7,2.9a20.5,20.5,0,0,0-3.1,1.3c-.7.4-1.4,2-2.1,2.3s-.8-.4-1.1-1a20.9,20.9,0,0,1-1.7-4.1c-.7.1-.8,1.1-1.2,1.5s-1.1.8-1.4,1.5-.3,4-2.1,3.8-1-1.9-1.6-2.8-1.9-1.9-2.7-3a8.5,8.5,0,0,1-1.5-3.2c-.2-.5,0-1-.2-1.4s-1.2-.5-1.6-.8-.9-1-.2-1.9.8-.9.5-2-.6-1.4-1.6-2.1-1.6-1.7-.7-2.5,1.9-.4.6-1.6a9.1,9.1,0,0,0-2.1-1.8c-.9-.6-1.9-1-2.9-1.6s-2.5-.9-3.7-1.6c-.6-2.4,5-3,3.1-4.8s-4.3-2.8-6.1-4.6-1.7-2.1-3.1-2.6-4.4-.6-4.8-1.8,1.2-1.2,1.7-1.6,2.2-.8,2.2-1.6a4.6,4.6,0,0,0-1.3-1.9c-.7-.5-1.8-.3-2.6-.4s-2.7-.9-1.6-1.9,4-.3,3.5-2.1c-2-.1-2.5.3-3.8-1.4a18.1,18.1,0,0,0-2.5-3,14.5,14.5,0,0,0-2.2-2.1c-1-.5-2.1-.1-3.1-1l-1.9-1.6c-1.6-1.1-3-2.4-4.7-3.4s-1.7-1.4-.3-2,2.6-.3,2.4-1.4-1.6-1-1.9-1.8.3-2.1-.2-3-1.4-1.3-2.1-1.9-1-1.8-1.7-2.6-1.8-.8-2.3-1.5a2.4,2.4,0,0,1,0-2.6c.7-1.1,2.6-.7,3.4-1.8a2,2,0,0,0-.5-2.6c-.9-.7-1.7-.5-1.5-2.1a4.5,4.5,0,0,0,0-2.8c-.1-.6-.3-1.2-.4-1.8-1.3-4.8-2.7-9.9-5.8-13.8a11,11,0,0,0-5.6-4.1c-1.3-.3-2.7-.3-4.1-.5a23.8,23.8,0,0,1-5.1-1.8,7.2,7.2,0,0,1-3.4-2.2c-2-2.5-3.4-5.5-5-8.2s-1.8-3.7-3.2-4.9a25.7,25.7,0,0,0-4.4-2.9c-3.6-2-7.2-4.7-11-6.1s-9-.1-12.8,2.6a22.8,22.8,0,0,1-5.3,2.4c-1.3.6-3.1,2-4.6,2.1a46.2,46.2,0,0,0,.7,10.1c.7,3.9,2.4,7,2.4,11.1s-2.2,8-4.6,12-3.9,8.8-5.8,13.2-4.5,7.5-5.2,11.4a14.7,14.7,0,0,0,.6,6.9c.8,2.3,2.2,4.2,3.3,6.3s2.7,5.7,1.3,6.9-4.6-3.2-4.8-4.6a20.4,20.4,0,0,0-1.4-6.4c-.5-1-1.9-4.7-3.4-4.4s-2.3,3.8-3.1,4.7c-3.1,3.5-8.2,6.3-12.8,6.6s-10.9,1-14.7-.8c-1.6-.8-3.3-1.9-5.4-.8s-1.7,3.1-2.7,4.5-3.1,3-4.3,5a15.8,15.8,0,0,0-2.1,7c-.6,6.1-2.8,10.8-6,16s-5.6,9.4-9.9,12.8a154,154,0,0,1-13.5,9.3c-3.5,2.4-8.3,4.7-9.7,8.8s-1.5,7.3,1.7,9.9,3.7,2.4,5.5,3.8c4,3,7.2,4.3,7.9,9.6s-.8,8.1-5.5,6.4-2.4-4.4-2.7-7.3-2.5-6.1-5.6-5.6c-.5,1.8,1.5,3.3,2.3,4.7a11.4,11.4,0,0,1,1.2,5.5c-.2,2-.8,2.9.4,4.7s2.3,3.1,3.9,3.6c3.3.9,6.7-2.9,9-4.8s3.9-2.5,5.2-4.3,1.8-3.5,3.1-5,1-1.7,2.1-1.6c1.5,2.7-1,4.7-1.9,7.2-.2.6-1,2.8-.2,3.3s1.7-1.9,2-2.5c1.8-2.9,3.6-2.5,6.3-3.6s2.3-4.4,4.8-5.5c.1,2.2-1.3,4.2-1,6.2,0-.4,2.3.7,2.5,1.4a2.9,2.9,0,0,1-.6,2.7c-1.3,1.1-3.8.1-5.2-.2s-1.9-.7-2.3.9,3.1,2.6,3.9,4.2-1,3.6-2.7,3.5-2.1-2.5-3.6-3.5-3,.4-2.2,2.2,3.3,2.1.8,3.2-4.3-1.4-6.4-2.9-6.1-.4-8.8,1.6-4.5,3.7-1.4,5.6,4.9,1.4,4.7,5.4c-3.6.9-3.5-.7-5.9-2.5s-1,.9-2.6,2-1.6-2.4-3.1-2.8-3.2,3-4,3.8c-3,2.7-6.3,5.5-8.5,8.9s-1.2,2.7,1.1,3.7,4.6,2.9,2.7,4.4-3-1.3-4.4-.8-1.4,3.4-1.2,4.8,1.5,2.7-.7,3.3-3.2-1.1-4.4-2.5-2.9-1.9-4.7.1a5.5,5.5,0,0,0-1.5,4.1c.3,3.9,6.2,3,5.6,7.2a62.1,62.1,0,0,0-6-1.9c-1.9-.1-2.6.2-3.9,1.8s-2.8,6.8-4.9,9.9-2.7,7.1-4.4,10.6-3.5,6.9-4.7,10.5-1,6.4-1,9.6-.1,7.1,0,10.7c.1,6.8,3.3,13.4,5.9,19.5,1.5,3.6,2.9,6.9,4.6,10.2a10,10,0,0,1,1.1,5.1c0,1.4-.3,3.1,1.2,3.7.1-2.2.5-3.5,2.9-2.2s3.4,2.4,5.3,3.3,3.7,2.4,5.6,3.2,5.8,1.4,8.6,2c10.4,2.2,21.5,2.9,28.6,12,2,2.5,4.9,7.9,8.1,8.7,0-5,7.5-3.1,6.7.3-.3,1.5-3.7,1.5-2.9,3.5s4.3-.3,5.8-.2c.4,2.9-2.4,3.3-2.9,5.4s1.6,3,1.2,5c-2,.5-5.3.6-5.8,3.1s2.3,5,4,6.3a12.5,12.5,0,0,0,8.1,1.8c1.3,0,3.2-1.4,4.2-1.2s1.5,5.1,3.2,6.3,4.5,1.8,4.2,5.1c-2.3.6-2.8-2.6-5.2-1.5-.5.3-.6,1-1.4,1.3s-2.8-.1-3.7-.4-3.5-1.8-5.5-2.4a29.6,29.6,0,0,0-7.8-1.3c-1.1-.1-2.3.1-3.4,0a7.2,7.2,0,0,1-2.1-.5c-.5-.4-.1-1.4-.5-1.7a3.4,3.4,0,0,0-2.8-.1c-1.2.6-.6,1.3-1.3,2s-3.3.8-5.2,1.5a15.3,15.3,0,0,0-5.6,3.9,3.7,3.7,0,0,0-.8,4.7c.4.8,1.2,1.4,1.5,2.4s-.4,2.1-.3,3,2.2,2.3,4.2,2.7,5.7.3,8.4,2,3,3.2,4.9,4.4a16.9,16.9,0,0,0,8,1.9,122.1,122.1,0,0,0,22.6-1.5c4.7-.7,8.6-2.7,13.1-4.1s9.4-1.7,14.2-2.5c6.6-1.2,13.3-1.9,19.9-3.2,2.9-.6,5.8-1.6,8.7-1.6a67.9,67.9,0,0,0,10.1-.2c3.9-.5,7.8-1.4,11.6-2.1s9.3-1.9,13.7-1.6c.6,5.4,5.8-.6,5.7-3.8a21,21,0,0,0-1.5-6.1c-1.1-2.3-2.8-2.2-5.2-2.2s-6.3.6-8.8,0c-4.2-1.1,3.5-1.7,4.8-1.7,5.2,0,9.8-.3,13.7-3.8s9.8.4,14.2,2.4c2.6,1.2,5.1,2.6,7.7,3.9s3.1,2.2,5.2,1.9v-3.3c3.1-.6,4.5,4.4,7.2.5s-.8-4.3-2.5-7c-.5-.8-1.6-3.5-.6-4.4s2.4,1.7,3.1,2.3,3.2.3,4.5-1a6.3,6.3,0,0,1,3.9-2.3c.4-2-2.3-2.4-2.3-4.1,4-1.1,3.1,6.5,8.3,3.3,1.4-.9,2.6-3,4.4-2.5s1.2,4.1,2,5.8c1.7,3.3,6.8,5.2,4.2,9.9-.9,1.6-2.8,1.9-4.5,1.5s-2.7-2.3-4.4-3.6-4-1.9-4.8.1,3.6,4.1,5.3,4.8,4.3,1.6,6,3.3,2.1,2.9,3.4,4.2c3.3,3.2,8.3-1.4,11.9-3,5.1-2.1,10.3-2.6,15.4-4.5,3.1-1.2,8.4-2.1,8.8-5.7s-1-4.7-1.7-7A80.5,80.5,0,0,0,682.3,770.2Z" transform="translate(0)"/>
    <path id="Brooklyn12" class="cls-6" d="M709.7,768.7c-1.4-2.6-3.7-4-6.2-5.3s-3.8-3.1-5.3-1.7-2.2,2.5-3.6,3.5-2.8,1.6-2.9,3,2.6,4,2.6,6.4c0,.8-.3,2.3.6,2.3s1.2-1,1.8-1.4,3,0,4.1-1.2,2.1-3.1,2.4-2.5c1.3,2.5-1.8,4.6-3,6.4s-2,3.4-3.4,4.7-1.4.8-1.5,1.8,1.3,2.1,2,3.1,1.4,5.3,1.9,7.8c2.1.3,3.1-2.3,3.9-3.8s1.9-3.6,2.9-5.3,4.1-5.6,5.5-8.8c.7-1.5,1-2.6.2-4.2S710.6,770.3,709.7,768.7Z" transform="translate(0)"/>
    <path id="Brooklyn11" class="cls-6" d="M706.4,724.5c1-.7,1.9-.5,2.1-2.1a2.3,2.3,0,0,0-.9-2.5c-.6-.5-1-2.4-1.9-2.1s-.6,1.3-.7,1.8-1,1.6-1.2,2.6-.5,6.7,1.4,5.3S705.4,725.3,706.4,724.5Z" transform="translate(0)"/>
    <path id="Brooklyn10" class="cls-6" d="M700.9,702.1a8.5,8.5,0,0,0,3.2-1.8c2.1-2.3.2-7.3.9-10.2s1.1-2.8,1.2-4.6a9.9,9.9,0,0,0-.3-4.2c-1.1-3.1-3.2-4-5.9-2.2-1.1.7-1.9,1.6-3,2.4s-4.8,3.3-7.1,5.2a13.7,13.7,0,0,0-4,4.3c-.8,1.5-1.1,3.2-1.8,4.8a90.3,90.3,0,0,0-3.4,10.4c-.4,1.3-.6,2.5.8,3.3a4,4,0,0,0,3.8-.4,26.7,26.7,0,0,1,4.3-2.5l6.3-2.3Z" transform="translate(0)"/>
    <path id="Brooklyn9" class="cls-6" d="M703.2,738.2c1.2-.1.7-.6,1-1.6s1-.8,1.3-1.4-1.7-2.7-2.3-2.9-1.7,1-2,1.8.2.9-.1,1.3-.7.1-1,.4S702.1,738.3,703.2,738.2Z" transform="translate(0)"/>
    <path id="Brooklyn8" class="cls-6" d="M698.9,715.3c-.2-1-1.3-1.9-1.9-2.7s-2.2-3.7-2.7-1.6,0,4.3-.6,6.4,0,2.7,1.4,4.2a12.5,12.5,0,0,1,1.6,2.4c.8.9,1.1,2.8,1.3,3.9s.8,2.2,2,1.2.4-1.4.5-2.1.8-1.3,1-2a3.2,3.2,0,0,0-.3-3.3c-.6-.9-4.7-3.1-3.8-4.6S699.3,716.9,698.9,715.3Z" transform="translate(0)"/>
    <path id="Brooklyn7" class="cls-6" d="M699.8,753.7c1.4-.1,1.5-2.3,1.4-3.6s-1.1-1.6-2-2.6-1.3-5.1-1.6-7.9c-.1-1-.8-2.3-1.8-1.1s-.5,2.7-.4,3.7a30.5,30.5,0,0,1,.1,4.3C695.4,748.5,696.9,753.9,699.8,753.7Z" transform="translate(0)"/>
    <path id="Brooklyn6" class="cls-6" d="M757.7,666.4c-1.5-1.1-3.3,0-4.7,1s-2.7,1.3-3.9,2.1-3.4,2.3-5.2,3.2-2,.9-1.8,2,2.2,2.6,2.9,3.7,1.4,2.6,2.1,3.9.8,2.8,1.6,3.7c2.6,2.8,3.7-4.7,4.3-6a25.4,25.4,0,0,1,3.1-5.3c1.2-1.3,2.8-2.4,3.5-4.1S758.9,667.2,757.7,666.4Z" transform="translate(0)"/>
    <path id="Brooklyn5" class="cls-6" d="M752.4,714.4c-1.9.1-2.8,2.6-4.8,1.3a15.4,15.4,0,0,1-3.4-3.8,3.3,3.3,0,0,1,.8-4.3c.8-.5,3.5-.4,2.3-2.2s-3-1.4-4.3-1.5a4.3,4.3,0,0,0-3.7,2.4c-.8,1.5-.1,3.4-.3,5.1s-1.3,4.9-1.8,7.4a25.3,25.3,0,0,0-.1,2.8,4.9,4.9,0,0,0,0,1.7c.2.4.7.5,1,.8s.4,1.2-.7,1.8a9.6,9.6,0,0,0-2.5,1.6,17,17,0,0,0-1.9,1.9,1.6,1.6,0,0,0-.4,2.4,16.2,16.2,0,0,0,3.1,3.3,13.8,13.8,0,0,1,2.4,3c.8,1,1.4,2,2.8,2s2.5-1.2,3.4-2.4,5.6-2.7,7.5-5,.2-4.8.4-7.1a27.8,27.8,0,0,1,1.6-6.3,19.3,19.3,0,0,0,1.1-3.4C755,714.6,753.7,714.3,752.4,714.4Z" transform="translate(0)"/>
    <path id="Brooklyn4" class="cls-6" d="M745.3,692.2c.6-1.1.1-1.6-.7-2.4s-1.1-1.5-1.7-2.2-3.5-4.5-5.5-4-1.2,1.2-2,1.6-1-.6-.6-1.4a10.1,10.1,0,0,1,1-2.4c.6-.7,1.8-.8,2.3-1.5s-.8-5-2.3-4.5-1.4,1.7-1.9,2.3-4.1,3.3-5.8,1.8-.2-1.3-1.1-1.4-1.3,1.6-1.3,2.6c-2,.4-1.4-3.9-3.7-2.3-.8.6-.8,1.8-1.4,2.5a10.8,10.8,0,0,1-2.4,1.8,5.4,5.4,0,0,0-2,3.1c-.3,1.1-.6,1.5-1.8.9s-2.9-2.9-4.9-1.6a4.2,4.2,0,0,0-1.3,3,8.4,8.4,0,0,0,.8,3.3c.6.8,1.5.2,2.4.3s1.7,1.3,1.8,2.6,0,2.8,0,4.2a5.4,5.4,0,0,1,0,1.8c-.3.5-.7.2-1.1.4s-.7.1-1,.5-.3,1-.7,1.2-2-1-2.2-1.6-1.3.8-1.4,1.6a2.1,2.1,0,0,0,1.4,2.4c2,1,4.3,1.4,5.9-.3s2.2-2.4,4-3.3a42.7,42.7,0,0,1,6.8-3.3c3.5-1.1,7.2-1.9,10.7-3S743.5,695.5,745.3,692.2Z" transform="translate(0)"/>
    <path id="Brooklyn3" class="cls-6" d="M720.3,665.4c-1.5,2-2.9,5.9-1.9,8.4s6.9.4,9.1.2,4.8.3,7.1-.2,3.6-3.9,5.3-6,4.6-3.7,4.9-7.3a4.1,4.1,0,0,0-.9-3.2,17.7,17.7,0,0,0-3-3.1c-2.1-1.4-6-.5-8,.8a75.4,75.4,0,0,0-7,4.5A34.9,34.9,0,0,0,720.3,665.4Z" transform="translate(0)"/>
    <path id="Brooklyn2" class="cls-6" d="M720.4,714.8c-1.1.6-1,1.1-1.1,2.2s-2.5,3.5-1.8,5.1,3,3.8,4.2,5.9.5,4.6,2.2,6,1.9,1.3,2.6.4,1.4-3.3,2-4.7,3.9-3.6,5.2-6a11.1,11.1,0,0,0,.7-3.7c.2-1.6.8-3,1-4.5a5.7,5.7,0,0,0-.7-3.1c-1.2-2.2-4.2-2-5.9-.4s-.9,2,.2,3,2,1.3.6,1.9a5.3,5.3,0,0,1-3.5-.4c-1.3-.6-2.1-.9-2.5-2.3s0-1.4.9-1.9,1.6-1.1.6-2.1-2-.2-2.7-1.1-.7-2.6-1.9-2.7-1.3,1.7-1,2.6,3.1,2.5,2.9,4.3S721.3,714.3,720.4,714.8Z" transform="translate(0)"/>
    <path id="Brooklyn1" class="cls-6" d="M727.7,744l-3.3-1.6c-2.1-.9-4.3-1.6-6.3-2.6s-4.2-1.7-6.5.2-1.5,1.3-2.3,1.8-2.4,1.4-2.6,2.6,2.9,2.6,4.2,3.3a25.2,25.2,0,0,1,4.9,3.7c1.9,1.8,2.8,4.9,5.6,5s2.9-1.5,4.1-2.5,3.2-1.6,4.6-2.8,2-3.6,1.1-5.1S728.6,744.5,727.7,744Z" transform="translate(0)"/>
  </g>
  <g id="Manhattan">
    <path id="Manhattan9" class="cls-7" d="M612.5,101.8c-1.4-.6-3.8-2.2-5.5-1.5s-.4,2.3-1.4,3.3-3.5.2-4.4-.7-1.3-3-1.4-4.7a5.7,5.7,0,0,0-5.1-5.7c-1.6-.1-2.3.8-3.2,1.9s-3,3-4.3,4.6a14.4,14.4,0,0,0-2.9,4.9,19.9,19.9,0,0,0-.2,4.9,26.3,26.3,0,0,1-2.4,11,125.8,125.8,0,0,1-6.3,12.1c-3.1,5.2-5.8,10.7-9,15.8-1.5,2.5-3.1,5.5-5.5,7.1s-2.4,1.2-3.5,2.7a5.8,5.8,0,0,0-.8,5.4c1.1,3.1,3.5,5.1,3.3,8.5s-3.1,7.5-4.2,11-2.4,9.5-4.2,14.2a73.7,73.7,0,0,1-6.7,14.2c-3,4.5-6.4,8.7-9.1,13.3a3.3,3.3,0,0,1-1.2,1.6c-.5.2-1.2-.1-1.7.1s-1.2,2.6-2.1,3.8-3,1.1-3.4,2.2,1.4,1,1.5,2.3-1.8,3.4-2.4,4.4-2.4,3.4-3.3,5.4-1.6,4.4-2.7,6.5-3.2,6.4-5.1,9.5-5.7,8.4-7.6,13c-.5,1.2-.7,2.4-1.1,3.7a38.1,38.1,0,0,1-3.6,7.3c-1.8,3.2-3.3,6.6-5.2,9.8s-1.7,3.7-2.8,5.4-2.9,2.9-4,4.9-1.5,3.7-2.3,5.4c-1.6,3.3-3.6,6.3-5.4,9.5-.6,1.1-1.1,2.6-2,3.4s-1.6.7-2.9.7-3.1-.3-2.7,1,2,.8,2.5,1.7-1.8,2.3-2.8,3.4a7.5,7.5,0,0,0-1,2c-.5.9-1.3,1.2-1.8,1.9s1.1,2.8.8,4.5a1.1,1.1,0,0,1-1.8.8c-.5-.3-.7-1.5-.8-2.1-2.6-.4-2.7,4.2-4,5.7s-1.6,1.5-1.3,2.8,1.9,1.5.6,2.7-2.9.5-2.4,1.8,3,.9,1.3,1.7-3.1-1-2.4.7,2.7.8,2.7,2-3.5,0-4-.5-.5,1.8-.1,2.4,1.8.4,1.5,1.6-4.5-2.1-3.9.4c.6.1,2,.6,1.9,1.5s-1.8.1-2.5.2a2.2,2.2,0,0,0-1.7,2.1c.2,1.2,1.4,1,2.1,1.7.7,2.6-6.6-.3-5.7,3,.9.5,3.3.3,1.7,1.7s-1.2.3-1.7.5a7.6,7.6,0,0,0-1.3,1.7,17.2,17.2,0,0,0-2.7,5,11.1,11.1,0,0,0-.5,2.5c.2.9,1.2,1.1,1.6,1.9a3.4,3.4,0,0,1-.4,3.1c-.5.9-1.7,1.8-2.6,1s-.3-2-1.7-2.1c.1,2.4-1.2,4.4-2.3,6.2s.8,3.3,2,5.1-.3,3.3-1.9,4.9-3.1,5.9-2.9,9.6a10.6,10.6,0,0,1-.8,4.3c-.5,1.5-.3,1.7.7,2.8a7.9,7.9,0,0,1,1.9,2.6c.5,1.8-.9,1.5-2,2.1s-1.2,1.7.3,1.9,3.3-.1,3.9,1.2-1.7,1.6-2.6,1.9-2,.8-2.4,2.5-1.9,3.6-1.5,5.2,5.8.3,4.9,3.3c-.8.3-7.7.4-5.6,2.3s2.3-.3,2,1.5-1.7,1.7-2.3,2.4c-2.3,2.5,3.7,3.4,5.1,4.4s.4,1.4-1,1.7-4.3.4-5,1.7-.6,4-.8,5.3c-.7,6.5-3,12.8-3.3,19.3a69.9,69.9,0,0,1-.8,8c-.4,2.1-1.2,4-1.5,6s-1.1,4.5-1.6,6.9-1.2,3.4-.7,4.5,3,.7,4.1.4,3,.1,2.2,1.8-2.5.8-2,2.9,1.3,2.3,1.7,3.3a7.2,7.2,0,0,0,1.6,2.5,7.1,7.1,0,0,0,3.8,1.8c1.9.2,2.4-.3,3.4-1.6s2.7-2.3,3.7-.7,0,2.2,2.2,1.9c3.9-.5-2.6-5.1,1-6.1s1.4,6.5,5.9,2.7,7-5.6,8.2-9.6c.5-1.5-.6-2.3-.8-3.6s.8-2.5,2.3-3.1,4.1-2.4,6.3-3.3a27.3,27.3,0,0,1,6.9-1.4,16.2,16.2,0,0,1,2.2-.1c1.3.1,1.2-.1,1.3,1.2s-.6,2.8,1,3.5,3.2-1.3,4.7-1.7a24.6,24.6,0,0,1,6.5-1.1c2,0,3.8-.8,5.7-1.4a12.6,12.6,0,0,0,4.6-2.4A10.3,10.3,0,0,0,507,480c1-2.5,2.2-4.9,3.2-7.5,2-4.8,2.3-10.3,3.1-15.5a3.4,3.4,0,0,1,0-1c0-.2.5-.5.5-.5a18.1,18.1,0,0,0,.7-3.5c.3-2.1.8-4.2,1-6.4.3-4-1.4-6.9-4.4-9.5-1-.9-2.6-1.8-1.4-3.1s3.6-.4,4.6-1.4c-.9-.6-5.5-1.4-4.1-3.7s5.5.4,4.6-3.5c-.5-1.9-2.1-3-2.2-5.3a3.5,3.5,0,0,1,.8-2.8c1.4-1.9.5-4.2.6-6.6s1.1-4.1,1.9-6.1c1.9-4.6,5.4-8.2,8.2-12.4s6-9.5,9.2-14,8.8-10.8,12.8-16.4a78,78,0,0,0,5-7.7c2.7-4.6,5.3-9.1,9.1-12.9a54.9,54.9,0,0,0,4.4-5.2c1-1.1,3.2-2.5,3.2-4.1s-1.3-3.1-1.7-4.4-1-3.2-1.7-4.8a7.3,7.3,0,0,1-.9-4.4c.7-4.3,5.8-6.6,8.3-9.7a19.9,19.9,0,0,0,2.5-4.5c.8-2.1,1.3-4.2,2.9-5.9s4.4-3.7,6.7-5.5,3.6-2.4,4.8-4.2,1-4.4,1-6.7.3-5.6-.3-8.2-3.1-6.8-5.4-9.8a26,26,0,0,0-3.6-3.8c-1.3-1.5-1.2-2.5-1.2-4.4V243.3c0-2.6-.1-5.2.1-7.8.5-4.6,1.2-9.2.8-13.8s-1.7-10.1-2.2-15.2a63.1,63.1,0,0,1,0-8.7,23.9,23.9,0,0,1,2.2-9.1,40.3,40.3,0,0,0,3-9.5h.1a14,14,0,0,1,1-4.6c.8-1.7,1.9-3,2.6-4.8a58.3,58.3,0,0,1,2.8-6.2c1-2,1.6-4,2.7-5.9,3.2-5.6,6.9-10.8,8.7-17.1.4-1.1.5-3.8,1.6-4.6s1.4.6,2.5-.1,1.6-2,2.4-2.8,2.3-2.4,3.4-3.6,1.7-1.2,1.8-2.5-.7-1.9-1.9-2.5c.8-.9,2.3-1,3.4-1.5a9.6,9.6,0,0,0,4-2.9c2.4-3.1,3.9-9.1,3-12.9S615.2,103,612.5,101.8Z" transform="translate(0)"/>
    <path id="Manhattan9-2" data-name="Manhattan9" class="cls-7" d="M614.3,282.2l-12-11.9-8.3.7c2.5,3.7-1.1,6.3-1.3,10.2-.1,2.3.2,4.7,0,7.1a13.5,13.5,0,0,1-2.6,6.3,21.7,21.7,0,0,1-8.2,8c-1.9,1-2.6,1.4-3.1,3.5s-1.4,2.8-1.9,4.4c-1.2,3.9,6.2,6.6,8.8,7.8a15.9,15.9,0,0,1,3.2,1.6c.6.4,1.1,1.4,1.7,1.8l1.7.3a7.2,7.2,0,0,0,5.2-2.8c1.2-1.4,2.9-2.9,4-4.4s.8-4.2,1.2-6.2c.9-4.1,3.9-7.7,6.7-10.8s6.9-4.5,7.3-7.5S612.2,284.1,614.3,282.2Z" transform="translate(0)"/>
    <path id="Manhattan8" class="cls-7" d="M572,319.2c-1.9,1-2,4.2-1.4,5.9s.4,2.4,1.5,2.5,1.6-1.7,2.2-2.4,3.2-2.1,2.6-3.8S573.6,318.3,572,319.2Z" transform="translate(0)"/>
    <path id="Manhattan7" class="cls-7" d="M565.7,339.6a8.1,8.1,0,0,0-1.9,1.8,17.6,17.6,0,0,0-1.4,2.3A53.7,53.7,0,0,1,557,353c-2.8,3.9-5.4,7.9-8.2,11.8s-5.2,6.6-7.7,10-5.1,6.7-6.4,10.5c-.7,1.8-1.8,3.4-2.5,5.1a10.9,10.9,0,0,0-.5,4.4c3.4.3,6.4-4.9,8.1-7.4,3.2-4.4,7.4-8,10.5-12.4,5.6-8.1,9.8-17.1,15.1-25.4,1.9-2.9,4.5-5.1,5.3-8.5a15.1,15.1,0,0,0,.6-3.7,4.1,4.1,0,0,0-.1-1.1C570.6,333.2,566.6,338.9,565.7,339.6Z" transform="translate(0)"/>
    <path id="Manhattan6" class="cls-7" d="M526.7,394.9c-.3.1-.5.8-.5,1.3h0c0,.5-1.1,1-1.5,1.4a13.3,13.3,0,0,0-1.9,1.4c-.7.6-.9.8-.9,1.7s-.3,1.9,0,2.3a1.4,1.4,0,0,0,1.8.2c.5-.6.1-1.8.6-2.5s2.9-1.3,3.3-3S527.4,394.6,526.7,394.9Z" transform="translate(0)"/>
    <path id="Manhattan5" class="cls-7" d="M436.3,526.3c-1.3-1.1-3.5-2.2-5.2-1.7a12.4,12.4,0,0,0-3.4,2.2c-1.1.9-2.3,1.8-3.3,2.8s-1.5,2.8-2.3,4.1a10.6,10.6,0,0,1-2.8,3.5c-1.1.7-2,1.6-3.1,2.4a6.8,6.8,0,0,0-2,1.8,8.9,8.9,0,0,0-.7,2.8,2.7,2.7,0,0,0,1.2,2.5c1.4,1.3,2.5,3,4.4,3.8a2.4,2.4,0,0,0,2.8-.3,19.4,19.4,0,0,1,3.1-2.6c2.2-1.4,3.9-3.2,6.1-4.7a35.4,35.4,0,0,1,6.2-3c1.2-.6,3.1-1.4,3.9-2.5a1.7,1.7,0,0,0,.5-1.2,15.2,15.2,0,0,0,0-3.7C441.5,529.5,438.3,528,436.3,526.3Z" transform="translate(0)"/>
    <path id="Manhattan4" class="cls-7" d="M396.7,512.6l-1.2-.9a4.4,4.4,0,0,1-1.4-1.3c-.2-.6-.1-.9-.7-1.4a3.7,3.7,0,0,0-3.1-.5c-.9.3-1,1-1,1.8a3.5,3.5,0,0,0,1.6,2.6c1,.7,1.3,1.7,2.1,2.5a2,2,0,0,0,2.1.8,10.4,10.4,0,0,0,2.5-.8,1.6,1.6,0,0,0,.3-2.4C397.6,512.8,397,512.8,396.7,512.6Z" transform="translate(0)"/>
    <path id="Manhattan3" class="cls-7" d="M390.6,515.5a10.1,10.1,0,0,1-1.3-.9c-.2-.4-.2-.7-.4-1.1s-1-.5-1.7,0a3.6,3.6,0,0,0-1,1.1,8.8,8.8,0,0,1-.5,1.5c-.3.6-1.3,1.3-1.1,2s1.7,1.4,2.3,2,.8,1.5,1.6,1.7,1.3-.8,1.6-1.5.2-.9.4-1.4.6-.8.8-1.2h0C392.3,517.3,391,515.7,390.6,515.5Z" transform="translate(0)"/>
    <path id="Manhattan2" class="cls-7" d="M385.9,534.4a12.7,12.7,0,0,1-2.5-2.1c-.5-.5-1.2-1.5-2-1.1s-1.4,1.7-2,2.4-1.5.4-1.5,1.4,1.2,1.7,2,2.2a9.5,9.5,0,0,1,2.4,2.5c.6.7.9,1.9,1.8,2.4s2.6-3.2,2.8-3.4,1.9-.9,1.7-2.1S386.7,534.8,385.9,534.4Z" transform="translate(0)"/>
    <path id="Manhattan1" class="cls-7" d="M615.9,92.9l-3.3,3.9c2.6.2,12,3,12.6,11.3l1.9-7.7C628.2,94.6,619.6,88.4,615.9,92.9Z" transform="translate(0)"/>
  </g>
</svg>
