<svg id="Layer_1" data-name="Layer 1" xmlns="http://www.w3.org/2000/svg" viewBox="0 0 390 110.4">
  <defs>
    <style>
      .cls-1 {
        opacity: 0.4;
      }

      .cls-2 {
        fill: #f26101;
      }

      .cls-3 {
        opacity: 0.9;
      }

      .cls-4 {
        opacity: 0.6;
      }

      .cls-5 {
        opacity: 0.8;
      }
    </style>
  </defs>
  <title>5bb_exploded</title>
  <g id="QUEENS" class="cls-1">
    <path class="cls-2" d="M394.8,20.8l-.9-5.6L379.3,2.9h0c-.5.4-.9-1.1-1.6-.2s-.5,1.3-.7,1.9a.7.7,0,0,0,0,.9c.1.4.4.6.4,1s-.1.3-.5.6a.5.5,0,0,0-.1.8c.1.2.2.1.2.3a.9.9,0,0,1,0,.7c-.1.6-.4.4-.7.1a8.1,8.1,0,0,1-1.6-1.6,9.1,9.1,0,0,1-1.5-2.3l-1.1-3a2.6,2.6,0,0,0-.5-.9L371,.8c0-.3.6-.3.7-.4s.2-.6.1-.9a4.1,4.1,0,0,0-.7-1.5,6.7,6.7,0,0,1-.7-1.1,2,2,0,0,0-2.1-.4.6.6,0,0,0-.2.8c.3.3.5.1.5.7S366.2-.7,365-.9s-1.3-.2-1.1-1,.4-.3.2-.7-.7-.2-1.1-.4l-1.3-.5c-.4-.1-.7-.2-1,.1s-.3.6-.7.5,0-.8-.4-.7-.3.5-.7.2-.2-.5-.5-.7-.3.4-.7.4-.4-.5-.7-.7l-1.1-.8c-.7-.3-1,.4-1.5.8s-.7.7-.8.2-.5.4-.7.5-.7.1-.5.5.5.3.6.7-.2.6-.5.8a6,6,0,0,0-.8.8c-.2.3-.2.7-.5.9s-.6,0-.9-.3-.5-.6-.5-.8.3-.2.5-.4.1-.5,0-.7-.4-.4-.5-.6a3.2,3.2,0,0,0-.3-.9c-.5-.5-.8.1-1,.5s-.2.5-.4.6-.3-.3-.5-.5-.4.6-.7.7l-.8.2c-.6.1-.6-.2-1-.4a.5.5,0,0,0-.7.3c-.3.9.6,1.1.7,1.8s-.2.5-.5.7l-.9.5c-.3.2-.8.1-.9.5s.2.7.4.9a2.8,2.8,0,0,0,.9.7c.5.1.9-.3,1.4-.2s.1,1,.4,1.6.5.3.6.6-.1.9-.3,1.2l-.3.5c-.2.2-.3.2-.3.5a2.8,2.8,0,0,0,.4,1.2,1.4,1.4,0,0,0,.8.9l1.2.7c.3,0,.6-.1.6.2s-.5.9-.7,1.1l-2.2,1.1c-1,.7-2.1-.2-2.8-.9s-1.6-1.2-1.5-2h0c0-.1.1-.2.1-.3l1-.6a.6.6,0,0,1,.8.1c.3.2.4.6.6.8s.3.1.4-.1l-.3-.4-.6-.8c-.2-.4.1-.3.3-.7s-1.2-1.2-1.7-1.7l-1.3-1a6.5,6.5,0,0,0-1.6-.9,2.5,2.5,0,0,0-2.5-.5l-1.7.4c-.4,0-.8,0-.9.4s1,1.8,0,2.2l-1,.2h-.5v.2l-.9.4h0l.9-.4h0a.4.4,0,0,1-.4-.4,2.4,2.4,0,0,1-.2-.9l-.9-.9h0l.9.9h.1c0-.4.3-.3.4-.6s-.4-.7-.6-.9a3.4,3.4,0,0,1-.9-.8c-.5-.5-1.2-.1-1.8.3s-.4.3-.4.7-.3.7-.6.5.2-1.7.7-2,1.6-.2,1.9-.8,0-.8-.5-1L329-.3c-.3-.2-1-.1-.7.4s.4.3.3.6-.4.1-.6-.1-.4-.9-.8-1.2-1-.8-1.4-.4a2.5,2.5,0,0,0-.4.7,2.1,2.1,0,0,1-.8.6,1.1,1.1,0,0,0-.7.6c-.2.3-.2.7-.4,1s-1.8,1.6-2.9,2.3h-.2c-.4.3-1,1-1.6.4s-1.1-1.4-1.4-.5.1.7-.2,1-.4.4-.5.7a.6.6,0,0,0-.1.4c0,.6.5.8,1,1.1s-1.5,1.4-1.9,1.7a11.1,11.1,0,0,0-1.7,2.7l-.9,1.1a6.1,6.1,0,0,0-.5,1.2l-.9,1.4-.9,1.6c-.4.4-.8.6-1,1.1a5.9,5.9,0,0,0-1.2,2.7c0,.5-.1,1-.1,1.5s.6-.3.9-.4l.9-.4a2.6,2.6,0,0,1,2.4-.5l2,1.1.8.6c.3.2.4.6.6.9l.9,1.5.7.4.9.3h.8a2.3,2.3,0,0,1,1,.7,6.4,6.4,0,0,1,1,2.6.4.4,0,0,1,.1.3.5.5,0,0,1,0,.5c0,.3.1.3.3.4a.3.3,0,0,1,.1.5c-.2.2-.5.1-.6.3a.5.5,0,0,0,0,.5l.4.3.3.5.4.3c.1.2,0,.4,0,.6s.4.1.4.3-.3.2-.5.3-.1.2.1.3l.8.6.4.3c.2.2.4.1.6.2l.4.4a2.1,2.1,0,0,1,.4.6c.3.3.4.2.7.2s-.5.3-.6.4.1.3.3.3h.5c0,.1.2.3.2.4s-.3.2-.4.3a.5.5,0,0,0-.3.3c.1.2.7.2.9.3l.5.5,1.2.8c.3.4-.7.5-.6.9l.7.3.5.3.4.3c.2.2,0,.2-.1.3s0,.4.1.5l.3.3c0,.3.1.3-.1.4s-.1.3,0,.4.3,0,.3.1,0,.2.1.3a1.4,1.4,0,0,0,.2.6l.5.5c.2.2.2.4.3.5s.4-.5.4-.7l.3-.2c.1-.1.1-.3.2-.3l.3.7c.1.1.1.3.2.2s.3-.3.4-.4l.6-.2c.3-.2.3-.4.5-.6l.7-.6a1.8,1.8,0,0,0,.7-.5l.6-.5,1-1a3.1,3.1,0,0,1,.9-.7,3.5,3.5,0,0,1,1.3-.5l.7-.3c.4,0,.4.4.4.6a3.3,3.3,0,0,0,0,1,5.3,5.3,0,0,0,.3,1.2,8,8,0,0,0,.3,1.5c.1.4.1.8.2,1.2a.6.6,0,0,0,.1.4c.1.1,0,.1.2.1s.3-.1.4.1a1.3,1.3,0,0,1,.1.6c0,.2,0,.2.2.3s.4.8.4,1.1a1.9,1.9,0,0,0,.2.8,2.3,2.3,0,0,1,.2,1.1c.1.2.2.8.5.4s.1-.3.2-.4.3.1.3.3-.1.4-.1.6a1.4,1.4,0,0,0,.2.6l.3.5v.6c.1.3.5.9.3,1.2s-.4.2-.5.1-.2-.3-.4-.2a.5.5,0,0,0-.3.3c-.1.3.2.3.3.5s.4.6,0,.8h-.3l-.5.2-.3.3-.6.2a.5.5,0,0,0-.3.3l.5.2c.3.2.1.4.2.7s1.5,1,2,1.6.3.7.7.9.3.2.5,0,.3-.4.5-.5.4,0,.4.3,0,.4-.3.6-.8.5-.5,1.1a4.8,4.8,0,0,0,.9,1.1c.5.4.9,0,1.3-.1l1-.3c.4,0,.5.3.7.5l.3.2c.2,0,.2-.2.3-.3s.1-.3.2-.5.2-.1.3-.3v-.7c-.1-.4-.1-.8-.2-1.3a23.8,23.8,0,0,1-.5-2.6,7.8,7.8,0,0,1-.2-1.4,1.4,1.4,0,0,1-.1-.9c.1-.3.4-.3.4,0s-.1.5-.1.7v1a1.1,1.1,0,0,0,.2.6,6.1,6.1,0,0,1,.5,1.2c.1.4.1.8.2,1.3s.1,1,.5,1.2h.9c0-.1.2,0,.3-.1a.3.3,0,0,0,.2-.4c-.1-.4-.3,0-.4.1s-1.3.2-.9-.2.9-.1.9-.7a5.8,5.8,0,0,0-.4-1.9,2.8,2.8,0,0,1-.1-.9c0-.2.1-.6.3-.3s0,1,.2,1.5l.4,1.2a1.8,1.8,0,0,0,.5.7h.1a1.3,1.3,0,0,0,.4-.9c-.1-.6-.4-1.3-.5-2l-.2-.5.2.5a19.4,19.4,0,0,1,.5,2,1.3,1.3,0,0,1-.4.9h-.1l.3.3a1,1,0,0,0,.4.5c.2.2.4.1.5-.2s0-.2.2-.2.1.1.2.2.1.4.3.2.1-.9-.1-1.3a4.5,4.5,0,0,1-.1-2.8,7.5,7.5,0,0,1,.6-1.3c.1-.3.3-.3.7-.4V54h0v.7c0,.3-.2.3-.3.5a1.6,1.6,0,0,0-.4.7,2.4,2.4,0,0,0-.5,1.4,4.4,4.4,0,0,0,1.1,2.9l1.7,1.4,1.7,1.3L361,64c1.9,1.1,3.8,2.4,5.8,3.4a28.2,28.2,0,0,1,2.9,1.8l1.1.7c.2.2.6.6.6.9l-.4.7a1.3,1.3,0,0,0-.1.6,1.2,1.2,0,0,1-.3,1l-.6.7c-.1.3.2.4.4.3a1,1,0,0,0,.8-.5,2.1,2.1,0,0,1,.4-.6h.1l.5-.7a6,6,0,0,0,.9-1.3c0-.2.1-.4,0-.5s-.2-.4-.1-.6a.7.7,0,0,1,.4-.5l.7-.6,1.6-1,1.9-1,1-.3h.4l.3-.5a4.3,4.3,0,0,0,.4-.7,3,3,0,0,0-.2-1.3,3.1,3.1,0,0,0-.8-1.5l-.8-.6a2.3,2.3,0,0,1-.7-.7c-.1-.1-.2-.1-.2-.2h.1c.4,0,.6.3.9.6l.6.7.6.5a2.2,2.2,0,0,1,.6,1.3c0,.2,0,.6.2.6s.6-.2.8-.4a.7.7,0,0,0,.4-.5,2.3,2.3,0,0,0,.2-1.1c0-.7-.1-1.5.5-1.9a.1.1,0,0,0,.1-.1h-.2a3.1,3.1,0,0,1,1.1-.9l1.7-.4,1-.3.7-.2a1,1,0,0,0,.5-.4c.1-.2-.1-.3-.2-.4a2.5,2.5,0,0,1-.1-.8v-.5c0-.1.1-.2.1-.3s-.2-.3-.3-.5l-.3-.6c-.2-.1-.3-.4-.4-.6s-.2-.5-.1-.7.3-.3.3-.5,0-.2-.2-.5V49l.8-1.4-.2-14.3-1.3-4.9,7.3-2.7ZM340,7.6c-.1.2-.1.4-.3.4l-.6-.2-.7-.4a.7.7,0,0,0-.6-.3,1.5,1.5,0,0,0-.7.3l-1.9,1.1-.8.7c-.2.1-.5.4-.8.2h0c.3.2.6-.1.8-.2l.8-.7,1.9-1.1a1.5,1.5,0,0,1,.7-.3.7.7,0,0,1,.6.3l.7.4.6.2c.2,0,.2-.2.3-.4s.2-.3.3-.1S340.1,7.4,340,7.6Zm12,46.9a2.7,2.7,0,0,1-.3-1.2h0a2.7,2.7,0,0,0,.3,1.2.8.8,0,0,0,.2.5A.8.8,0,0,1,352,54.5Zm9.3-1.5-.7.2c-.6.2-.7.5-.7,1.1s-.1.8-.4.8.4-.5.4-.8.1-.9.7-1.1l.7-.2h0Z" transform="translate(-4.8 6.9)"/>
    <path class="cls-2" d="M382.3,79.5l-.2-.2-.3-.3-.7-1a8.3,8.3,0,0,1-.7-1.3,1.8,1.8,0,0,0-.7-1.1c-.2-.2-.5,0-.7.1l-.6.4-.3.2-.8.5c-.4.2-.4-.1-.6-.3l-.4-.4h0a2,2,0,0,0-.8.4c-.1.2-.4.8-.7.8h0c0-.4.6-.8.3-1.1s-.9-.3-1.2-.5-.3-.6-.5-.8-.6,0-.9.1h-1c-.4,0-.6,0-.6.4V76l.5.5c.3.2.8.4.9.8s-.2.5-.2.8a3.4,3.4,0,0,0-.1,1,.7.7,0,0,0,.1.6c.1.2.1.4.2.6s-.2.8-.1,1.1.7.4.7.8-.5-.5-.9-.3l-.4.2c-.2.1-.3.2-.4,0a5.3,5.3,0,0,1-.6-1c-.1-.2-.1-.4-.3-.4l-.4.3c-.3.4-.2.9-.8,1a.5.5,0,0,1-.7-.2c-.2-.2,0-.5.2-.6s1-.4,1.4-.8a11.9,11.9,0,0,0,.8-1.6,1.7,1.7,0,0,0,.3-1.4,1.4,1.4,0,0,0-1-.7l-.7-.2c-.3-.1-.4,0-.5.2l-.4.6c-.2.2-.2.4-.3.7a.9.9,0,0,1-.6.6c-.1.2-.5.3-.4.5s.5.3.3.7a1.8,1.8,0,0,1-.5.7l-.5.6-.4.8c-.2.2-.4.3-.4.5a1.7,1.7,0,0,0-.1.7c-.1.1,0,.4-.1.5s-.2-.3-.2-.4,0-.5.1-.6l.2-.5c0-.2-.1-.4,0-.5a2.6,2.6,0,0,1,.7-1c.3-.3.5-.5.4-.9s-.3-.5-.5-.4-.2.3-.3.5a2.9,2.9,0,0,1-1.1,1.1l-.9.4a.8.8,0,0,1-.7.2h-.8l-.7-.2c-.3-.1-.9-.2-1,.2a1.7,1.7,0,0,0,.1,1.4c.1.3.3.5.4.8a1.1,1.1,0,0,1,.3.6c-.3.1-.6-.6-.7-.9s-.4-.5-.8-.4-.6.7-.3,1l.6.3c.1.1.3.2.4.4s-.1.2-.3.1l-.4-.3c-.3-.2-.6-.6-1-.4s-.5.6-.8.8l-.7.4-.7.5a5.4,5.4,0,0,0-1.2.9h-.2c-.2.1-.1,0-.2-.1a.7.7,0,0,0-.6.1,2.2,2.2,0,0,1-1.1.5l-1.6.7-1.5.6a8.9,8.9,0,0,1-3.2.5c-.5-.1-1-.5-1.6-.3a3.4,3.4,0,0,0-1.1.7l-1.3,1-3.8,2.6L338,94l-1.1.5c-.3.2-.9.5-1.3.2h-.5l-.5.4c-.2.2-.2-.2-.3-.3s-.2-.1-.4,0l-.9.5c-.5,0-.7-.5-1.1-.6s-.7.5-.9.7l-.8,1c-.3.2-.7.6-1.1.5h-.5a.5.5,0,0,0-.4.2,1.9,1.9,0,0,1-1.3,0,4.1,4.1,0,0,0-1.1-.7c-.3-.1-.5.1-.8.3l-.9.5a4.6,4.6,0,0,1-1.4.7h-.5c-.1-.1-.3.1-.5.1s-.2-.1-.4-.2l-.4.2a5.6,5.6,0,0,1-1.6.7,5.8,5.8,0,0,0-1.8.4c-1,.3-.8,1.8-.8,2.7a3.3,3.3,0,0,0,.4,1.4c.1.1.2.4.4.5s.4-.1.6-.3l1.2-.4,1.8-.7,1.9-.7,2-.4,3.3-.8.7-.3c.4-.1.4.7.9.5s.3-.2.4-.2l.7-.3a18.9,18.9,0,0,1,2.1-.9l2.7-.7a14.6,14.6,0,0,0,3.9-1.6l1.6-1h.5c.1.1.1.3.2.3s.2-.1.3-.2a4.6,4.6,0,0,1,1.4-.7l2.3-1.2,3.6-1.9,1.9-1,1.2-.5,1.3-.4,2.2-.7,2-.6,2.5-.7,2.3-.8,1.9-.4,1.3-.4,1.2-.4a6.1,6.1,0,0,1,1.3-.3l1.6-.4c.6-.1,1.5-.6,2.2-.3a3.2,3.2,0,0,0,1.9.5h2.1a7,7,0,0,0,2.1-1.1l1-.7.9-.5c.2,0,.5.3.7.4h1.4V79.5Z" transform="translate(-4.8 6.9)"/>
    <path class="cls-2" d="M363.7,72.4a2.4,2.4,0,0,0-.6.9l-.6,1.1a3.5,3.5,0,0,1-.5.8,1.4,1.4,0,0,0-.2.6c.1.7,1.3.3,1.7.4a2.4,2.4,0,0,1,.8.6,1.4,1.4,0,0,1,.3.9V78c.1.1.1.2.2.2s.5-.2.6-.4a7.9,7.9,0,0,1,1.7-1.4l1.5-1.2c.1-.1.3-.2.3-.4a.8.8,0,0,0-.4-.6,3.9,3.9,0,0,1-.8-1,2.5,2.5,0,0,1-.4-.7l-.5-.7-.3-.4c-.1-.1-.2-.3-.4-.4a.6.6,0,0,1-.5-.2c-.3-.2-.8-.6-1,0s.7.5.7.8a.6.6,0,0,1-.7-.2c-.1-.1-.1-.4-.3-.4s-.1.2-.1.2a.9.9,0,0,1-.1.5Z" transform="translate(-4.8 6.9)"/>
    <path class="cls-2" d="M363.7,77.3a3.8,3.8,0,0,0-1.3-.6,1.5,1.5,0,0,0-.7.3,2.1,2.1,0,0,0-.9,1c-.1.1-.1.2-.1.4a1.7,1.7,0,0,0,1,1.2l.7.3c.3,0,.5-.2.8-.3s.6,0,.8-.3a1.6,1.6,0,0,0,.3-.9.4.4,0,0,0-.1-.3A3.5,3.5,0,0,0,363.7,77.3Z" transform="translate(-4.8 6.9)"/>
    <path class="cls-2" d="M363.4,69.2l-.5-.3a1.7,1.7,0,0,0-1.2,0c-.5.2-.7.7-1,1.1s-.9.5-1.1.9-.1.8.1,1.2.3.3.4.6a1.3,1.3,0,0,1,.1.6c.1.3.5.5.6.9a1.9,1.9,0,0,1,.1.8c0,.2,0,.5.3.5s.3-.2.4-.4a.4.4,0,0,1,.1-.3c.1-.6.3-1.2.4-1.8s.1-.5-.1-.7-.3-.2-.3-.4.5.4.7.6.1.1.1-.1v-.5c.1-.2.1-.5.3-.7s.4-.3.4-.5-.6.1-.8-.1.2-.3.3-.4h.6l.3-.4v-.2Z" transform="translate(-4.8 6.9)"/>
    <path class="cls-2" d="M358.7,70.8a.9.9,0,0,0,0-1.1c-.2-.4-.1-1-.4-1.4a4.7,4.7,0,0,0-.6-.9c-.1-.2-.5-.6-.8-.4s-.2.6-.3.8,0,.6.1.7h0l.3.3.3.4c.2,0,.4,0,.4.2s-.8-.1-.6.4.3.4.4.5v.4c-.1.2-.1.2-.3.2s.2.3.3.4l.2.5.4.5a1.9,1.9,0,0,0,.2.8c.1.4.3.9.6,1s.4,0,.4-.2-.2-.3-.3-.4a3.5,3.5,0,0,1-.6-1.4c0-.5-.1-.9.2-1.3Z" transform="translate(-4.8 6.9)"/>
    <path class="cls-2" d="M358.3,78.8h-.1l-.3.3c-.2.2-.5.3-.7.6s-.1.1-.1.2.5,1.2.7,1.5.4.9.9.8.4-.9.4-1.3.2-.5.1-.6-.4.1-.5-.2S358.9,78.8,358.3,78.8Z" transform="translate(-4.8 6.9)"/>
    <path class="cls-2" d="M350.1,73.7h-.5c-.2-.1-.2.1-.2.3s-.3.4,0,.5.4.1.6.3l.4.6v.5c0,.3,0,.8.3.8s.5-.4.6-.6.2-.6.3-.8.6-.9,1-.4a3.1,3.1,0,0,0,.7.9c.4.2.4-.5.6-.8s.1.4.1.6.3.5.4.8l.4.7c0,.2,0,.5.2.6s.5-.1.7,0-.1.4-.3.4-.7.5-.4.9a.9.9,0,0,1,0,1.1c-.2.2-.5.5-.4.8s.5.1.5.4-.2.3-.4.3l-.4.3c-.1.1-.1.3-.3.1s0-.3,0-.4h-.9l-.6.2-.5.3c-.4.1-.9.2-1,.6s.6.7,1,.8.9.4,1.2.2.2-.6.4-.5.2.4.3.5a.4.4,0,0,0,.5.1l.6-.4.8-.7.6-.4c.2-.3.1-.9.1-1.2s-.1-.4,0-.6.1-.4.1-.6,0-.2.1-.2a1.7,1.7,0,0,1,.1-.7,1,1,0,0,1,.5-.6c.3-.2.7-.6.4-1s-.6-.1-.8-.4,0-.5.1-.6.3,0,.3-.2a4.3,4.3,0,0,0-.1-.5c0-.4.7,0,.8-.4s-.7-.2-.9-.4-.2-.2-.2-.3l-.4-.5a.4.4,0,0,0-.1-.3c-.1-.1-.1-.1-.1-.2s.5-.2.6-.2.5-.4.6-.7a.5.5,0,0,0,0-.5.9.9,0,0,0-.6-.3.6.6,0,0,0-.5.2c-.1.1-.2.2-.3.1s-.1-.4-.1-.6l-.2-.4a.3.3,0,0,0-.1-.2c-.1-.5.7,0,.9,0s.3.1.4-.1,0-.4-.1-.5-.2-.3-.3-.5-.1-.1-.1-.2-.3,0-.3-.1.3-.2.4-.3-.1-.5-.2-.6-.3-.6-.6-.7a1.3,1.3,0,0,1-.6-.4l-.2-.4c0-.1.2-.2.3-.2s.4-.1.5-.3-.1-.3-.2-.4l-.3-.4-.4-.4a1.9,1.9,0,0,1-.2-.7,1.5,1.5,0,0,0-.3-1.1.9.9,0,0,0-.3.7v.2l.2.2c.1.2-.4.6-.5.8l-.6.2c-.3,0-.4-.3-.5-.5a2.4,2.4,0,0,0-.6-.8c-.2-.2-.4-.4-.6-.3a.7.7,0,0,0-.5.4c-.1.2-.1.3.1.5a4.3,4.3,0,0,1,.4.7c.1.2.1.5.2.8a1.1,1.1,0,0,1,.2.6,1.3,1.3,0,0,1-.3.8c-.1.3-.1.8-.4.9s-.4.1-.4.3.3.1.4.2.1.4-.1.5l-.4.5c-.1.2-.1.5-.2.7a5,5,0,0,1-.5,1.3c-.2.5.5.5.5.9A.4.4,0,0,1,350.1,73.7Z" transform="translate(-4.8 6.9)"/>
  </g>
  <g id="The_Bronx" data-name="The Bronx" class="cls-3">
    <path class="cls-2" d="M168.4,49.5c.2-.6,1.9-.2,1.2-1.1a2.5,2.5,0,0,0-.9-.4.9.9,0,0,1-.4-.8,8.8,8.8,0,0,0-.2-1.7,1.3,1.3,0,0,0-1-.6,2.3,2.3,0,0,1-1.1-1.1,7.5,7.5,0,0,1-.5-1.6,3,3,0,0,0-.1-1.3c-.3-1-1.3-.4-1.6.3a2.2,2.2,0,0,0,.5,2.3,4,4,0,0,1,1.1,2c0,.3-.4.6-.5,1l-.6.8c-.7.7-.1,1,.3,1.7l.7,1.2a9.5,9.5,0,0,0,.6,1.8c.2.5.6.7,1,1.1a2.2,2.2,0,0,1,.5,1.1c.3.6.9,1.9,1.5.6a3.9,3.9,0,0,1,.6-1.1c.2-.3.4-.4.5-.7a3.2,3.2,0,0,0-.8-2C168.9,50.6,168,50.1,168.4,49.5Z" transform="translate(-4.8 6.9)"/>
    <path class="cls-2" d="M163.2,73.1a12.6,12.6,0,0,0-2.6-1.3,3.8,3.8,0,0,1-2.7-1.7c-.2-.4,0-.9-.3-1.3s-.7-.8-.7-1.3,1.1,1.3,1.6,2.1,1.5.1,2.2-.4,1.6-1.1.2-1.8-2.4-.7-3-1.6-.4-2.5-.9-3.6-.5-.9-1.1-.8-.7.8-1,1.1-.8.7-1.2.4a2.9,2.9,0,0,1-.2-1.6c.2-.4.9-.4,1-.8s-.9-1-1.1-1.4a3.7,3.7,0,0,1-.7-2,8,8,0,0,1-.2-3.1c.1-.6.5-.4.9-.8a1.1,1.1,0,0,0-.1-1.1,1.1,1.1,0,0,0-.3-.6,3.8,3.8,0,0,0-.9-.9c-.2-.3-.4-.3-.7-.5s1.5,1.3,2.3.8-.5-1.8-.9-2.2a1,1,0,0,1-.5-.4c-.2-.3,0-.4-.1-.7s.1-.3-.2-.5-.6-.1-.5-.3,1.1.1,1.2-.5-.5-.5-.8-.7-.3-.8,0-1.3.4-.7,0-1.1-.9-.1-.8-.9a2.2,2.2,0,0,1,.9-1.2c.6-.2,1-.1,1.1-.8a1.1,1.1,0,0,0-.7-1.3c-.4-.1-1.3-.1-1.5.4s0,1.2-.8.9,1.2-1.5,1-2.2-.7-.6-.8-1.1a8.6,8.6,0,0,1-.1-1.6c-.1-1.1-.9-1.5-1.2-2.5a4.3,4.3,0,0,1-.2-3.8c.5-1,1.2-1.7,1.3-2.8s-.1-2.4.5-2.7c1.5,1.9-.4,3.5-.7,5.3s.2.8.6,1.3.6.7-.1.9-.8,0-1.1.7a2.1,2.1,0,0,0,.3,1.3c.2.2.5.9.9,1s.4-.6,1-.5.7,0,.8-.2.7.2.6.7-.3.3-.3.5.2.5.1.7-.7.6-.6,1,.7.4.8.9-.2,1,.5.8.1-.3.4-.4a.8.8,0,0,1,.7.3,6.1,6.1,0,0,1,.7,1.4l.9,1.1c.1.3.6,1.2.8.5s-.3-.9,0-1.4.8-.7,1.1-.1-.2,1.1-.4,1.5a3.9,3.9,0,0,0-.2,1.5,3.7,3.7,0,0,0,.4,1.5,6.9,6.9,0,0,0,.5,1.3c.4.9,1.2,1.4,1.7,2.2s.3,1.1.7.6.1-1.1.3-1.5.7-.7.8-1.2-.3-.8-.6-1.2.5-1.5,1.3-2.1.7-1.5,1.2-2.2.7-.7.7-1.3.1-1.2.1-1.8.1-2.3,1.3-2.7,2.1-.5,2.5-1.5.1-1.2-.4-1.2-.5,1-1.1.7-.2-.9-.4-1.2-.3,0-.2-.5l.6-.5c.8-.5,1.6-1.4.7-2.3s-.9-.3-1.5-.4-.4-.7-.9-.8-2.1,1.3-1.9,1.9.3.2.4.4-.1.4-.2.7a3.1,3.1,0,0,0-.3,1.3c-.1.6-.4.5-.9.8a4.5,4.5,0,0,0-1,1.4,29.1,29.1,0,0,1-1.7,3c-.8,1-1.6-.4-2-1.1s-1.6-1.4-1.5-2.2,1.3,1.6,2.1,1.7.4-.8.4-1.1-.2-.6-.1-.7.3.2.4.3,1.2-1.1,1.5-1.8.7-.4,1.1-.8.3-.8.3-1.4.6-.8.7-1.4,0-.8.4-1.3l.4-.6c.1-.2.1-.5.2-.6a.1.1,0,0,1,.1-.1h-.1c-.9-.4-11.5-4.1-13.1-4.8a2.3,2.3,0,0,0-1.6-.2c-.5.2.2.5.3,1s-7.4-2.6-7.7-2.7-.1-1.1-.6-1.6-.5-.2-.5-.6.3-.4.4-.8-.2-.9-.6-1.3.5-2.2-1-2.2-.9.4-1.2-.1.1-.4-.1-.6l-.6-.4a1.8,1.8,0,0,1-1.1-.8c-.5-.5-.7-.5-.8.2s-.2.6-.6.1-.8-.4-1.1-.7,1.4-1.8.2-1.3-.1,1.3-.9,2.1-.8.1-1,.7.2.8,0,1.1-.7.5-.9.9a5.8,5.8,0,0,0-.3,1.4c-1.1.2-23.3-9.5-24.8-10,0,.3-.1.6-.1.9s-.2,2.3-.4,3.5-.6,2-.9,3.1a21.2,21.2,0,0,1-1,3.6,65,65,0,0,0-2.2,6.2c-.4,1.2-.7,2.4-1.1,3.5a2.9,2.9,0,0,0-.4,1.6c0,.7.6.9,1.1,1.4l.9,1.1a2.6,2.6,0,0,0,1.3.8,8.8,8.8,0,0,0,1.6.2,5.6,5.6,0,0,1,1.9.9c1.9,1.5.5,4.1-.4,5.7a26.2,26.2,0,0,1-4,6,16.9,16.9,0,0,0-2.9,4.1,14.3,14.3,0,0,1-1.3,2.8,18.6,18.6,0,0,0-1.1,1.9c-.1.3-.1.6-.2.9a23.8,23.8,0,0,1-.5,2.6c-.3,1-.6,1.9-.8,2.8a7.4,7.4,0,0,0,.5,3.3,8.5,8.5,0,0,1,.5,3.5c-.1,1,.3,2.2,0,3.1a15,15,0,0,0-.3,3.7h0a5.6,5.6,0,0,0,1.2,3.1c.7.9,1.2,1.9,1.8,2.8h0l2.2-.2,3.3,3.2a.1.1,0,0,0,.1-.1,7.6,7.6,0,0,1,1.5.1,1.1,1.1,0,0,0,1.3-.5,6.7,6.7,0,0,0,.9-1.4,8.6,8.6,0,0,1,1.5-2.2,5.5,5.5,0,0,1,3-2.2,4.6,4.6,0,0,1,4.8,1.7l1.1,1.6c.6.5.9.2,1.4-.3s.9-.9,1.7-.7,1.5.5,1.8,1.1.2.9,1.1.8a3.7,3.7,0,0,0,3-4.4l-.5-.5-.4-.9c-.2-.5-.5-.9-.7-1.3a2,2,0,0,0-.8-1.2l-1.6-.7c-.9-.5-2.4-1-2.6-2.2s.5-.6.8-.2.7,1.1,1.2,1.5,2.2.2,3.1,1.2.9,2.2,2.3,2.5a5.5,5.5,0,0,0,1.8-.2c.3-.1,1.2-.6,1.5-.3s.1,1.2.1,1.5a2.7,2.7,0,0,0,.3,2,8.3,8.3,0,0,0,.9,1.6c.4.5,1,.3,1.6,0s3.1-.4,3.1-1.5-.6-1.1-.9-1.5-1.1-.6-1.2-1,.6-.7.5-1.3-.6-.8-1-1.1a5.1,5.1,0,0,1-1.6-.9c-.2-.2-.8-1.2-.1-1.2s.5,1,.9,1.3.9.2,1.3.4,1.3,1.9,2,1.7.7-1.3.7-1.6a4.9,4.9,0,0,1,.7-1.9c.6-.9,2-1.4,1.8-2.7a6.7,6.7,0,0,1-.6-1.5c-.1-.5-.3-1.1-.4-1.7s-.5-2.1-.2-2.3.9,1.1,1,1.4a11.3,11.3,0,0,1,.9,3.5c0,1-.6,1.7-.6,2.6a27.1,27.1,0,0,0,.1,2.9,5.1,5.1,0,0,0,.4,2.5c.7,1.3,1.1,2.6,2.9,2.3s.8-.8.7-1.5-.3-1.3,0-1.8,1-.4,1.5-.4,1.5.4,2.2.1a10.8,10.8,0,0,0,1.8-1.1c1.3-.7,3-1.1,4.2-.2l3,2.4a3.3,3.3,0,0,0,1.3.7,9.5,9.5,0,0,1,1.8.5c1,.5,1.7,1.2,2.6,1.7s2.5.5,2.1-.9S163.9,73.5,163.2,73.1Z" transform="translate(-4.8 6.9)"/>
    <path class="cls-2" d="M125.7,84.8c-.1-.2-.2-.2-.4-.3s-.5-.4-.8-.7-.3-.4-.6-.1l-.3.2a.6.6,0,0,1-.1.4c-.1.2-.1-.2-.1-.3s-.1-.5-.1-.7-2.1-1.7-3.3-2.2l-.8-.5-.8-.6a1,1,0,0,1-.4-.5c-.1-.1-.2-.5-.4-.6s-.3.3-.4.5a1,1,0,0,1-.5.4,1.2,1.2,0,0,0-.5.7,4.3,4.3,0,0,1-.2,1.1,5,5,0,0,1-.2,1.2l-.3.9c-.1.4-.1.5.2.8l.7.5c.5.5.4,1.2.9,1.6a2.9,2.9,0,0,0,1,.3l1.4.4,1.3.4h1a14.7,14.7,0,0,0,2.1,0h.7c.3-.1.3-.2.4-.5s.7-.4,1.1-.7-.1-.9-.3-1.3Z" transform="translate(-4.8 6.9)"/>
    <path class="cls-2" d="M113.8,80.7c-.2-.1-.3,0-.5-.2s-.3-.3-.4-.4h-.3c-.3,0-.3.1-.4.3s-.3.1-.5.2.1.3.2.4h.4c.2.1.2.3.3.3l.5.3c.2,0,.2-.2.4-.3l.5-.2C114.2,80.9,114,80.7,113.8,80.7Z" transform="translate(-4.8 6.9)"/>
    <path class="cls-2" d="M112.1,79.4h.3c.1,0,.1-.2.2-.2s.3-.4.5-.6.2-.3.4-.4.4-.1.5-.3.1-.2-.1-.3a.6.6,0,0,1-.5-.2,1,1,0,0,1-.4-.5l-.2-.5c-.1-.2-.5-.1-.6.1a.4.4,0,0,1-.1.3c-.1.1-.3.2-.4.4H111c-.1.2,0,.3.1.4s.3.2.4.3.1.2.1.4-.3.1-.4.1-.3.2-.1.3.4.2.5.3Z" transform="translate(-4.8 6.9)"/>
    <path class="cls-2" d="M176.9,42.1a5.9,5.9,0,0,1-1.7-2.4c-.2-.3-.5-.6-.8-.5s-.3.5-.5.8-.6.3-.6.9a2.1,2.1,0,0,0,.1,1.1,3.4,3.4,0,0,0,0,1c.1.4.5.5.6.9s-.2.6-.4.9.7.9.7,1.7-.2.4-.3.7,0,.7.2,1,.9,1.2,1.5,1.3h.6c.1-.4-.4-.6-.6-.8l-.6-.8c-.5-.9.3-.8.5-1.5a1.7,1.7,0,0,0-.1-1V44.2c-.1-.8.4-1.1,1.2-1.2s.9.2,1.1,0S177.1,42.3,176.9,42.1Z" transform="translate(-4.8 6.9)"/>
  </g>
  <g id="Staten_Island" data-name="Staten Island">
    <path class="cls-2" d="M86.7,29.7a10.7,10.7,0,0,1-1.4-1.6,4.4,4.4,0,0,1-1.2-1.5c-.3-.5-.3-1.3-.7-1.8s-.8-.5-.9-.8.6-.3.6-.6-.5-.6-.7-.6-.9,0-.6-.4.4-.2.5-.5A1,1,0,0,0,82,21a8,8,0,0,1-1.5-2.1,2.4,2.4,0,0,1,0-1.2V13.9a16.2,16.2,0,0,0-.1-2.2c-.1-.9.1-1.9-.4-2.7a2.4,2.4,0,0,0-.8-.6c-.2,0-.7.1-.8-.1s0-.6-.1-.8-.5-.2-.7-.3-.4-.3-.6-.5-.4-.2-.7-.1-.7,1-1.4.5-.4-.6-.6-.6-.8.4-1,.5l-1.1.5L71,8.2l-1.5.6A2.5,2.5,0,0,1,68,8.7a2.9,2.9,0,0,0-1.6-.3,5.4,5.4,0,0,0-2.5.3l-1,.5-1,.2a3.4,3.4,0,0,0-1.8,1.1,1.8,1.8,0,0,1-1.1.8h-.6l-.3.2a1.3,1.3,0,0,1-1.2-.1c-.4-.1-.3-.5-.7-.7a2.1,2.1,0,0,0-1.3-.5,3.6,3.6,0,0,0-1.5.2c-.3.1-.2.1-.4.4s-.5.3-.9.5-.4.2-.4.5h-.1c-.3,0,.1-.6-.5-.5a1.3,1.3,0,0,0-.7.5c-.1.2,0,.6-.3.7s-.5-.1-.7-.2-.8-.3-1-.1.2.9-.3.9-.4-.3-.5-.6-.4-.7-.8-.4,0,.4-.1.5a.4.4,0,0,1-.6.2,1.6,1.6,0,0,1-.5-.8.8.8,0,0,0-.8-.4h-.9c-.5.1-.1.6-.5.7s-.4-.2-.3-.4a1.1,1.1,0,0,0-.2-.8c-.3-.2-.6-.1-.9-.2s-.1-.5-.3-.7-.3.3-.4.4h-.8v.6c-.4.1-.2-.3-.4-.5s-.5.1-.7.2-.2-.4-.2-.6-.4-.6-.6-.8-.8-1-1.2-.6l-.2.4-.3.4c-.1.1-.6.8-.8.5s.1-.7.1-.9-.3-.8-.6-.6-.3.5-.8.5a.8.8,0,0,0-.8.3c-.1.2,0,.5,0,.8s-.2-.5-.7-.5-.9.2-.9.6.7.6.2.9-.5-.3-.7-.4-1.2.5-1.6.8-.6.3-.7.7,0,.9-.4,1.4-1.6,1.4-1.9,2.5a4.1,4.1,0,0,0-.3,1.6c0,.3-.1.6-.1,1a4.4,4.4,0,0,0-.1,2c.1.4.4.7.1,1s-.2.1-.3.3.1.3.1.4l.3.8c.2.3.6.3.9.4s.6.6.9.8.8.5.9.9a6.5,6.5,0,0,1-.4,1.3,2.9,2.9,0,0,1-.7,1.2,1.2,1.2,0,0,0-.3,1c.1.3.3.5.4.8a2.3,2.3,0,0,1,.3,1.8l-.3.9L28.1,35a4.4,4.4,0,0,1-1.6,2.2,2.3,2.3,0,0,0-.9,1.4,4.1,4.1,0,0,0,.3,1.6,4.1,4.1,0,0,1,0,1.1c-.1.5-.8,1.3-.3,1.8a1.7,1.7,0,0,0,1,.3h1.1a3.8,3.8,0,0,1,2.1.5,2.4,2.4,0,0,0,.8.6c.3.2.8.1,1.1.3s.3.5,0,.7a1.1,1.1,0,0,1-1.1,0c-.5-.2-1.3-1.1-1.8-1s-.5,1.4-.7,1.8A2.6,2.6,0,0,1,26.6,48c-.7.2-1.8-.3-2.3.3s-.3,1.5-.7,2.1-.8,1.5-.5,2.3.3.5.1.9l-.4.9a3.4,3.4,0,0,1-.9,1.2l-.6.4a1,1,0,0,1-.4.5c-.3.3-.6.2-.9.2a6.5,6.5,0,0,1-2.4-.6c-.5-.4-1.4-.7-1.9-.3s-1.2,1.3-1.8,1.9-1.2-.1-1.2.7.1.4-.2.7a2.8,2.8,0,0,0-.9,1c-.3.4-.6.8-1,.8s-.5-.4-.8-.1-.4.5-.7.7-.7.5-.8.8a1.6,1.6,0,0,0,.2,1,3.9,3.9,0,0,0,.6,1.1c.2.4.6.5.1.8s-.4.3-.3.7a1.6,1.6,0,0,0,.5.8c.3.2.8.3.9.6s.1.7.2,1a5.6,5.6,0,0,1,.4,1.2c0,.3-.3.6-.4.9a1.7,1.7,0,0,1-.6.8c-.1.3-.5.6-.4.9s1.2,1,.6,1.6-.2.1-.3.2.1.3.1.4a1.9,1.9,0,0,0,.5,1c.3.2.5.2.2.6s-1-.4-1.3.4-.1.6-.2.9-.4-.2-.7-.4-.8.3-1.1.5l-.9.9a1.2,1.2,0,0,0-.6,1,3.6,3.6,0,0,1-.2,1.5c-.2.3-.6.4-.8.8a3.8,3.8,0,0,0,.1,1.5,9.4,9.4,0,0,0,.6,1.5c.3.5.5,1.1.8,1.6a13.1,13.1,0,0,0,1.2,1.1c.2.3.6,1.2,1.1,1.1s.3-.8.6-1,.3.7.5.8,1.4-.2,1.8-.5l.8-1a3.1,3.1,0,0,1,.9-.7l.9-.6a2.4,2.4,0,0,1,2-.6c.4.2.8,1.2,1.4.9s.3-.5.4-.8.7-.3,1.1-.2,1.3-.1,2-.6a2.5,2.5,0,0,0,1.4-1.6A4.7,4.7,0,0,1,24,80.4a3.7,3.7,0,0,1,2.5-1c.3,0,.5.1.7-.2s.4-.7.6-.3-.1.6.1.8.7.2,1,.4.4.5.6.6,2-1.7,2.4-2.2l.8-1.4c.2-.5.6-.7,1-1l1-.8c.3-.2.7-.5,1-.2s.3.8.8.8a2.4,2.4,0,0,0,.8-.6c.7-.5,1.4-.7,1.5-1.7s.5.2.7.6.3.1.5-.1a2,2,0,0,1,.9-.5c.6-.3,1-.7,1.5-1a10.9,10.9,0,0,1,1.7-1.3l1.6-1,2.4-1.2a2.6,2.6,0,0,0,1.4-.9l.6-.8c.1-.1.1-.3.2-.3h.2c.2-.2.2-.4.4-.6s.7-.5.6-1.1-.3-.3-.4-.6a2.8,2.8,0,0,1,.1-.9c.1-.4.3-.3.6-.4s.3-.3.3-.6.7-.6,1.2-.7.5-.6.8-.9a1.7,1.7,0,0,1,1.7.3c.5.3,1.3,1.1,1.2,1.7a3.9,3.9,0,0,1-1.1,1.7,6.1,6.1,0,0,1-.7,1l-.8.8a3.9,3.9,0,0,1-1.9.2c-.4,0-.5.1-.7.5a1.1,1.1,0,0,0-.2.8A7.1,7.1,0,0,0,52.8,70c.4.6.9,0,1.3-.3s2.1-3,3.2-4.3l1.2-1.2,1-.4a3,3,0,0,0,1.1-.7l1.1-.8a6.8,6.8,0,0,0,1.7-2.1,6.1,6.1,0,0,1,1.5-1.7c.2-.2.6-1.5.9-.8s.1.8.4.6a4.9,4.9,0,0,0,.3-.7,7.6,7.6,0,0,1,.8-1.1,5.6,5.6,0,0,0,.4-1.2c.1-.4.2-.8.7-.9s.5.3.8.2a2.4,2.4,0,0,0,.6-.8l.7-.9.8-1.3c.2-.5.3-.8.7-1a5.2,5.2,0,0,0,1-1.1,5.8,5.8,0,0,1,1-1.2,48.5,48.5,0,0,1,5.6-5.5c.6-.5,1-1.2,1.5-1.7a6.4,6.4,0,0,0,.8-1.4A3.2,3.2,0,0,1,83,38.5c.5-.4,1.4-.7,1.8-1.2a6.1,6.1,0,0,0,.7-1.4,6.7,6.7,0,0,0,.9-1.4c.2-.6.5-1.3.7-2l.3-.8a2.4,2.4,0,0,0,.5-1C87.9,30.1,87.1,30,86.7,29.7Z" transform="translate(-4.8 6.9)"/>
    <path class="cls-2" d="M26,29.1l.4.6.5.9a7.6,7.6,0,0,0,.8,1.1c.1.2.4.9.7.5s0-.4,0-.5l.3-.5a1.7,1.7,0,0,0-.4-1.2l-.6-1.1a2,2,0,0,1,.1-1.3,14.8,14.8,0,0,1,.8-1.3c.2-.1.3-.1.2-.4a.9.9,0,0,0-.4-.5l-.4-.2h-.5c-.2,0-.2-.2-.3-.2s-.3.1-.4.3l-.4.6a1.7,1.7,0,0,0-.1,1,3.3,3.3,0,0,0,0,1C26.3,28.2,25.9,28.6,26,29.1Z" transform="translate(-4.8 6.9)"/>
    <path class="cls-2" d="M25,47.5c.1,0,.2-.2.3-.3l.4-.3h.7c.2,0,.7.2.9,0s.1-.3.1-.4a1.6,1.6,0,0,0,0-.7c.1-.4.1-.7.2-1s.1-.3.2-.5h0a.2.2,0,0,0,0-.3H26.7a.7.7,0,0,1-.6.1c-.2,0-.3-.2-.5-.1s-.3.1-.4.3a5.4,5.4,0,0,0-.4,1.5,2.3,2.3,0,0,0-.1,1.4C24.7,47.3,24.8,47.5,25,47.5Z" transform="translate(-4.8 6.9)"/>
  </g>
  <g id="Brooklyn" class="cls-4">
    <path class="cls-2" d="M291.9,72.9c-.4-.9-.6-2-1-2.9s-.5-1.2-.7-1.9-.1-1.2-.4-1.6-.9-.2-1.3-.2h-2c-.3,0-.6.4-.9.4a.5.5,0,0,1-.3-.8c.2-.3.7-.4,1-.6l1-.7h1.1c1,0,.4-.6.1-1.1l-1.1-1.9a23.9,23.9,0,0,1-1.3-2.1c-.2-.4-.4-.7,0-.9a.8.8,0,0,1,1,.3c.2.3.2.6.7.5s.5-.5.5-.9-.2-.7,0-1,.4,0,.7,0,.6-.8.9-1.1l.5-.5s.2.2.3.1.1-.4.2-.5a2.7,2.7,0,0,1,.7-1.4c.4-.4.4,0,.9.1s.5-.3.4-.6-.5-.5-.8-.7a4.1,4.1,0,0,1-.5-.9,8.1,8.1,0,0,1,1.4,1.2c.1.1.6.6.8.6s.3-.6.4-.8,1.4-.5,1.3-1.2-.6-.7-.8-1a3.4,3.4,0,0,1-.9-1.2,2.8,2.8,0,0,1-.4-1.2c.4-.1.9.5,1.1.8s.3.4.5.4.4-.1.5-.2.7-.4.7-.9a11.7,11.7,0,0,0-.5-1.1c.2-.1.7.7.8,1s0,.8.2,1.2.2.3.4.1.4-.2.6-.3a.8.8,0,0,0,.7-.3,1.3,1.3,0,0,0,.2-.9c0-.2-.1-.5-.1-.7s.2-.4.2-.6a2.7,2.7,0,0,0-.8-1.6c-.2-.2-1.1-.4-1-.9h.3c-.1-.3,0-.6-.3-.7s-.4-.1-.4-.2.2-.3.3-.3l.5-.2c.2,0,.3-.2.4-.3l.4-.2c.2.1.2.1.4,0s.3-.5,0-.7-.4-.2-.4-.5l.4-.3c.1-.1.2.2.3.2a.6.6,0,0,0,.6-.1c.2-.3-.3-.9-.3-1.2a1.7,1.7,0,0,0-.1-.7.8.8,0,0,0-.2-.4,1.4,1.4,0,0,1-.2-.6c0-.2.1-.4.1-.6s-.1-.4-.3-.3l-.3.4c-.3.3-.4-.2-.4-.4a4.3,4.3,0,0,0-.2-1.1,1.9,1.9,0,0,1-.2-.8c0-.3,0-1-.4-1.1s-.2-.1-.3-.3.1-.4,0-.6-.2-.1-.5-.1h-.2v-.4c-.1-.4-.1-.8-.2-1.2a8,8,0,0,1-.3-1.5,5.3,5.3,0,0,1-.3-1.2,3.4,3.4,0,0,1-.1-1c0-.3.1-.6-.3-.6l-.7.3a2.5,2.5,0,0,0-1.3.5,2.2,2.2,0,0,0-.9.7c-.4.3-.6.7-1,1l-.6.5a1.8,1.8,0,0,1-.7.5l-.8.6a.8.8,0,0,1-.5.5l-.5.3c-.2.1-.3.4-.4.4s-.2-.1-.2-.2l-.3-.7c-.1,0-.2.2-.2.3l-.3.2c-.1.2-.1.8-.4.7l-.3-.5-.5-.5-.3-.6c0-.1.1-.2,0-.3h-.3c-.2-.1-.2-.2,0-.4s.1-.1.1-.4l-.3-.3a.4.4,0,0,1-.2-.5c.2-.1.4-.1.2-.3l-.4-.3-.6-.3-.6-.3c-.1-.5.9-.5.5-.9l-1.1-.8c-.2-.2-.3-.4-.6-.5s-.8-.1-.8-.3.2-.3.3-.3.4-.2.4-.3-.2-.3-.3-.4h-.4c-.2,0-.5-.1-.3-.3s.7-.1.6-.4-.5.1-.7-.3l-.4-.5-.5-.4c-.2-.1-.3,0-.5-.2l-.4-.3-.8-.6c-.3-.1-.4-.2-.1-.3s.5-.1.4-.3-.3-.2-.3-.4,0-.3,0-.5l-.4-.3c-.2-.2-.2-.4-.3-.5l-.5-.3a.5.5,0,0,1,0-.5c.2-.2.5-.1.7-.3a.4.4,0,0,0-.1-.5c-.2-.1-.3-.1-.3-.4s.1-.3,0-.5-.1-.2-.1-.3a8.2,8.2,0,0,0-1-2.6,2.6,2.6,0,0,0-1.1-.7h-.7l-1-.3-.6-.4a11.9,11.9,0,0,1-.9-1.5c-.2-.3-.3-.7-.6-.9l-.8-.6-2-1.1a2.6,2.6,0,0,0-2.4.5l-1,.4c-.2.1-.5.4-.8.4a11.5,11.5,0,0,0,.1,1.9,6.5,6.5,0,0,1,.5,2,3.6,3.6,0,0,1-.9,2.2,25.6,25.6,0,0,0-1.1,2.4,18.9,18.9,0,0,0-.9,2.1,2.9,2.9,0,0,0,.1,1.3,6.7,6.7,0,0,0,.6,1.2c.1.2.5,1,.3,1.2s-.9-.6-.9-.8a5.3,5.3,0,0,0-.3-1.2c-.1-.2-.3-.8-.6-.8s-.4.7-.6.9a4.3,4.3,0,0,1-2.3,1.2,6.1,6.1,0,0,1-2.7-.2c-.3-.1-.6-.3-1-.1s-.3.5-.5.8l-.8.9a2.2,2.2,0,0,0-.4,1.3,6.8,6.8,0,0,1-1.1,3,8,8,0,0,1-1.8,2.3,18.4,18.4,0,0,1-2.5,1.7c-.7.5-1.5.9-1.8,1.6s-.3,1.4.3,1.9l1,.7c.8.5,1.3.7,1.5,1.7s-.2,1.5-1,1.2-.5-.8-.5-1.3-.5-1.2-1.1-1.1.3.6.5.9a3,3,0,0,1,.2,1c0,.4-.2.5.1.9a1.4,1.4,0,0,0,.7.6c.6.2,1.2-.5,1.6-.9a3.5,3.5,0,0,0,1-.8c.2-.2.3-.6.6-.9s.1-.3.3-.3-.1.9-.3,1.4-.2.5,0,.6.3-.4.3-.5.7-.4,1.2-.6.4-.9.9-1.1-.3.8-.2,1.2.4.1.5.2a.8.8,0,0,1-.2.5c-.2.2-.7,0-.9,0s-.4-.1-.5.2.6.4.8.7a.6.6,0,0,1-.5.7c-.4,0-.4-.5-.7-.7s-.5.1-.4.4.6.4.2.6-.8-.2-1.2-.5-1.1-.1-1.6.3-.9.7-.3,1,.9.3.9,1-.7-.1-1.1-.4-.2.1-.5.3-.3-.4-.6-.5-.5.5-.7.7a12.1,12.1,0,0,0-1.6,1.6c-.2.5-.2.5.2.7s.9.5.5.8-.5-.2-.8-.1-.2.6-.2.9.3.5-.1.6-.6-.2-.8-.5a.6.6,0,0,0-.9,0,1.1,1.1,0,0,0-.3.8c.1.7,1.2.5,1.1,1.3l-1.1-.4c-.4,0-.5.1-.8.4s-.5,1.2-.9,1.8a11.9,11.9,0,0,0-.8,2,10.8,10.8,0,0,0-.8,1.9,5.5,5.5,0,0,0-.2,1.8V59a8.9,8.9,0,0,0,1.1,3.6,10.8,10.8,0,0,0,.8,1.9,1.3,1.3,0,0,1,.2.9c0,.3,0,.6.2.7s.1-.6.6-.4l.9.6,1.1.6,1.6.4c1.9.4,3.9.5,5.2,2.2s.9,1.4,1.5,1.6,1.4-.6,1.2,0-.6.3-.5.7.8-.1,1.1-.1-.5.6-.6,1,.3.6.3.9-1,.1-1.1.6.4.9.7,1.2a2.5,2.5,0,0,0,1.5.3c.2,0,.6-.3.8-.2s.3.9.6,1.1.8.4.7,1-.5-.5-.9-.3-.1.2-.3.2H254a9.3,9.3,0,0,0-1-.5l-1.4-.2h-1c-.1-.1,0-.3-.1-.3a.5.5,0,0,0-.5,0l-.3.3c-.2.3-.6.2-.9.3a1.8,1.8,0,0,0-1,.7c-.3.3-.4.5-.2.9l.3.4c0,.2-.1.4-.1.6s.4.4.8.5,1.1,0,1.5.3a7,7,0,0,0,1,.8,2.3,2.3,0,0,0,1.4.4,29.7,29.7,0,0,0,4.2-.3,21.7,21.7,0,0,0,2.4-.7,20,20,0,0,1,2.6-.5l3.7-.6a7.6,7.6,0,0,1,1.6-.3h1.8l2.2-.4,2.5-.3c.1,1,1-.1,1-.7a2.3,2.3,0,0,0-.3-1.1c-.2-.4-.5-.4-.9-.4a8.5,8.5,0,0,1-1.6,0c-.8-.2.6-.3.8-.3a3.9,3.9,0,0,0,2.6-.7c.7-.7,1.8,0,2.6.4l1.4.7a1.8,1.8,0,0,0,.9.4,1.3,1.3,0,0,1,.1-.6c.5-.1.8.8,1.3.1s-.2-.8-.5-1.3-.3-.7-.1-.8.4.3.6.4.6,0,.8-.2l.7-.4c.1-.4-.4-.5-.4-.8s.6,1.2,1.5.6.5-.5.8-.4.2.7.4,1,1.3,1,.8,1.9a.8.8,0,0,1-.9.2c-.4,0-.4-.4-.8-.6s-.7-.4-.9,0,.7.7,1,.9a2.4,2.4,0,0,1,1.1.6c.3.2.4.5.7.8s1.5-.3,2.1-.6,1.9-.5,2.9-.8,1.5-.4,1.6-1.1a7.9,7.9,0,0,0-.3-1.3Z" transform="translate(-4.8 6.9)"/>
    <path class="cls-2" d="M297,72.7a2.3,2.3,0,0,0-1.2-1c-.3-.2-.7-.6-1-.3l-.6.6c-.2.2-.5.3-.6.6s.5.7.5,1.1,0,.5.1.5.3-.2.4-.3.5,0,.7-.2.4-.6.5-.5-.4.9-.6,1.2l-.6.9c-.1.1-.3.1-.3.3s.2.4.4.6a5.8,5.8,0,0,1,.3,1.4c.4.1.6-.4.8-.7a4.7,4.7,0,0,1,.5-1c.3-.5.7-1,1-1.6s.2-.5,0-.8Z" transform="translate(-4.8 6.9)"/>
    <path class="cls-2" d="M296.4,64.5c.1-.1.3-.1.3-.4s0-.3-.1-.4-.2-.4-.4-.4-.1.2-.1.3-.2.3-.2.5-.1,1.2.2,1S296.2,64.7,296.4,64.5Z" transform="translate(-4.8 6.9)"/>
    <path class="cls-2" d="M295.3,60.4c.2-.1.5-.1.6-.3s.1-1.4.2-1.9a2.4,2.4,0,0,0,.2-.8v-.8c-.2-.6-.6-.7-1.1-.4l-.6.4-1.3,1c-.2.2-.6.5-.7.8s-.2.6-.3.9a10.7,10.7,0,0,0-.7,1.9c0,.2-.1.4.2.6a.9.9,0,0,0,.7-.1l.8-.5,1.1-.4Z" transform="translate(-4.8 6.9)"/>
    <path class="cls-2" d="M295.8,67.1c.2-.1.1-.2.2-.3s.1-.2.2-.3a.7.7,0,0,0-.4-.5c-.2-.1-.4.1-.4.3v.2h-.2C294.9,66.9,295.6,67.1,295.8,67.1Z" transform="translate(-4.8 6.9)"/>
    <path class="cls-2" d="M295,62.8l-.4-.5c-.1-.1-.4-.6-.5-.2s0,.7-.1,1.1,0,.5.3.8l.3.4a2.5,2.5,0,0,1,.2.7c0,.2.2.5.4.3s0-.3.1-.4l.2-.4a.7.7,0,0,0-.1-.6c-.1-.2-.9-.6-.7-.8S295,63.1,295,62.8Z" transform="translate(-4.8 6.9)"/>
    <path class="cls-2" d="M295.1,69.9c.3,0,.3-.4.3-.7s-.2-.3-.4-.4a4,4,0,0,1-.3-1.5c0-.2-.1-.4-.3-.2s-.1.5-.1.7a2.2,2.2,0,0,1,.1.8C294.3,68.9,294.6,69.9,295.1,69.9Z" transform="translate(-4.8 6.9)"/>
    <path class="cls-2" d="M305.8,53.8c-.3-.1-.6.1-.9.2l-.7.4-1,.6c-.1.1-.3.2-.3.4l.6.7.3.7.3.7c.5.5.7-.9.8-1.2a4.7,4.7,0,0,1,.6-.9c.2-.3.5-.5.6-.8S306,54,305.8,53.8Z" transform="translate(-4.8 6.9)"/>
    <path class="cls-2" d="M304.8,62.7c-.3,0-.5.5-.9.2l-.6-.7a.6.6,0,0,1,.2-.8c.1-.1.6-.1.4-.4a1.2,1.2,0,0,0-.8-.2.6.6,0,0,0-.7.4c-.1.3,0,.6-.1.9a7,7,0,0,1-.3,1.4v.8c0,.1.1.1.2.2s.1.2-.1.3l-.5.3-.4.3a.5.5,0,0,0,0,.5l.5.6.5.5c.1.2.2.4.5.4a.7.7,0,0,0,.6-.4c.4-.5,1-.5,1.4-1s0-.8.1-1.3a2.3,2.3,0,0,1,.3-1.1c0-.2.2-.4.2-.6S305,62.7,304.8,62.7Z" transform="translate(-4.8 6.9)"/>
    <path class="cls-2" d="M303.5,58.6c.1-.2,0-.3-.1-.4a1.3,1.3,0,0,1-.3-.5c-.2-.2-.7-.8-1-.7l-.4.3c-.3.1-.2-.1-.1-.2a.8.8,0,0,1,.2-.5c.1-.1.3-.1.4-.3s-.2-.9-.4-.8-.3.3-.4.4a.9.9,0,0,1-1.1.4c0-.1,0-.3-.2-.3s-.2.3-.2.5-.3-.7-.7-.4-.1.3-.2.4-.3.2-.5.3a.9.9,0,0,0-.3.6c-.1.2-.2.3-.4.2s-.5-.5-.9-.3a1.1,1.1,0,0,0-.2.5c0,.2.1.5.1.7s.3,0,.5,0,.3.2.3.5v1.1c-.1.1-.1,0-.2,0h-.2a.4.4,0,0,1-.1.3.4.4,0,0,1-.4-.3c-.2-.1-.2.1-.3.3s.1.3.3.4a.9.9,0,0,0,1.1,0,2.3,2.3,0,0,1,.7-.7l1.3-.6,1.9-.5C302.2,58.9,303.2,59.2,303.5,58.6Z" transform="translate(-4.8 6.9)"/>
    <path class="cls-2" d="M298.9,53.7a1.6,1.6,0,0,0-.3,1.5c.1.4,1.2.1,1.6.1h1.3c.6-.1.7-.7,1-1.1s.9-.7.9-1.3,0-.4-.2-.6a1.5,1.5,0,0,0-.5-.6,2,2,0,0,0-1.5.1l-1.3.9A5.2,5.2,0,0,0,298.9,53.7Z" transform="translate(-4.8 6.9)"/>
    <path class="cls-2" d="M298.9,62.7c-.2.2-.1.2-.2.5s-.4.6-.3.9.6.7.8,1.1.1.8.4,1.1.3.2.4.1a6.3,6.3,0,0,0,.4-.9c.2-.5.7-.7,1-1.1a1.7,1.7,0,0,0,.1-.7,2.4,2.4,0,0,1,.2-.8,1.4,1.4,0,0,0-.2-.6.6.6,0,0,0-1-.1c-.3.2-.2.4,0,.6s.4.2.1.3-.4,0-.6,0a.6.6,0,0,1-.5-.5c0-.2,0-.2.2-.3s.3-.2.1-.4-.4,0-.5-.2-.1-.5-.4-.5-.2.3-.1.5.5.5.5.8S299.1,62.6,298.9,62.7Z" transform="translate(-4.8 6.9)"/>
    <path class="cls-2" d="M300.3,68.1l-.6-.3-1.2-.5c-.5-.2-.8-.3-1.2.1l-.4.3c-.2.1-.5.3-.5.5s.5.5.8.6l.9.7c.3.3.5.9,1,.9s.5-.3.8-.5l.8-.5a.8.8,0,0,0,.2-.9C300.8,68.3,300.4,68.2,300.3,68.1Z" transform="translate(-4.8 6.9)"/>
  </g>
  <g id="MANHATTAN" class="cls-5">
    <path class="cls-2" d="M223.5-4.5c-.3-.1-.9-.5-1.3-.3s-.1.5-.3.8-.8,0-1-.2a2.1,2.1,0,0,1-.4-1.1,1.2,1.2,0,0,0-1.2-1.3c-.3-.1-.5.1-.7.4a5.2,5.2,0,0,0-1,1.1,2.6,2.6,0,0,0-.7,1.1,4.8,4.8,0,0,0,0,1.2,6.2,6.2,0,0,1-.6,2.6l-1.5,2.8-2.1,3.8A6.5,6.5,0,0,1,211.4,8a1.7,1.7,0,0,0-.8.6,1.3,1.3,0,0,0-.2,1.3c.2.8.8,1.2.7,2s-.7,1.8-.9,2.6-.6,2.3-1,3.3a17.7,17.7,0,0,1-1.6,3.4c-.7,1.1-1.5,2.1-2.2,3.1a.5.5,0,0,1-.2.4c-.2.1-.3,0-.4,0s-.3.7-.5.9-.7.3-.8.5.3.3.3.6-.4.8-.5,1a5.7,5.7,0,0,0-.8,1.3l-.6,1.5-1.3,2.3a14.6,14.6,0,0,0-1.7,3,3.2,3.2,0,0,0-.3.9,13,13,0,0,1-.8,1.7c-.5.8-.8,1.6-1.3,2.3l-.6,1.3a12.7,12.7,0,0,0-1,1.2l-.5,1.2-1.3,2.3a3.5,3.5,0,0,1-.5.8c-.2.2-.3.1-.6.1s-.8-.1-.7.3.5.1.6.4-.4.5-.7.8-.1.3-.2.4l-.4.5c-.3.4.2.6.2,1s-.2.4-.4.2-.2-.3-.2-.5-.7,1-1,1.4-.4.3-.3.6.5.4.2.7-.7.1-.6.4.7.2.3.4-.7-.2-.6.2.7.1.7.4-.9,0-1-.1-.1.4,0,.6.4.1.4.4-1.1-.5-1,.1.5.1.5.3-.4,0-.6.1a.4.4,0,0,0-.4.4c0,.3.3.3.5.4s-1.6,0-1.3.8.7,0,.3.3-.2.1-.3.2-.2.2-.3.4a2.6,2.6,0,0,0-.7,1.1c0,.2-.1.5-.1.6s.3.3.4.5a.9.9,0,0,1-.1.7c-.2.2-.4.4-.6.2s-.1-.4-.4-.4a2.5,2.5,0,0,1-.6,1.4c-.4.7.2.8.5,1.2s-.1.8-.5,1.2a2.5,2.5,0,0,0-.6,2.2,3,3,0,0,1-.2,1c-.1.4-.1.5.1.7l.5.6c.1.4-.2.4-.5.5s-.3.4.1.5.8-.1.9.2-.4.4-.6.5-.5.2-.6.6-.4.8-.3,1.2,1.3.1,1.1.8-1.8.1-1.3.5.6,0,.5.4a1.5,1.5,0,0,1-.6.5c-.5.6.9.8,1.2,1.1s.1.3-.2.4-1,.1-1.2.4-.1.9-.2,1.2-.7,3-.7,4.6-.1,1.2-.2,1.9-.3.9-.4,1.4A12.4,12.4,0,0,1,180,88c0,.2-.2.8-.1,1s.7.2,1,.1.6.1.5.5-.6.2-.5.7.3.5.4.7a1.5,1.5,0,0,0,1.3,1c.4.1.5,0,.8-.3s.6-.6.8-.2,0,.5.5.4-.6-1.2.3-1.4.3,1.5,1.4.6a5.7,5.7,0,0,0,1.9-2.2c.1-.4-.1-.6-.2-.9s.2-.5.6-.7l1.4-.8,1.7-.3h.5c.3,0,.3,0,.3.3s-.2.6.2.8.8-.3,1.1-.4a4.1,4.1,0,0,1,1.6-.3l1.3-.3a2.4,2.4,0,0,0,1.1-.6,2.3,2.3,0,0,0,.8-1.1l.7-1.8a14.5,14.5,0,0,0,.8-3.6c0-.1-.1-.2,0-.3h.1c.1-.2.1-.5.2-.8a7.7,7.7,0,0,1,.2-1.5,2.4,2.4,0,0,0-1-2.2c-.3-.3-.7-.5-.4-.8s.9-.1,1.1-.3-1.3-.3-.9-.9,1.2.1,1-.8-.5-.7-.5-1.2a.8.8,0,0,1,.2-.7c.3-.5.1-1,.1-1.6a3.9,3.9,0,0,1,.5-1.4,18.1,18.1,0,0,1,1.9-2.9c.7-1.1,1.4-2.2,2.2-3.3s2-2.6,3-3.9l1.2-1.8a12.5,12.5,0,0,1,2.1-3l1.1-1.2c.2-.3.7-.6.7-1s-.3-.7-.4-1a5.6,5.6,0,0,0-.4-1.2,1.6,1.6,0,0,1-.2-1c.1-1,1.4-1.6,1.9-2.3a2.4,2.4,0,0,0,.6-1.1,3.3,3.3,0,0,1,.7-1.3l1.6-1.3a5.2,5.2,0,0,0,1.1-1,2.3,2.3,0,0,0,.3-1.6,14.1,14.1,0,0,0-.1-2,5.9,5.9,0,0,0-1.3-2.3l-.7-.9c-.3-.3-.1-.5-.1-1V28.9a12.8,12.8,0,0,1-.1-1.9,17.1,17.1,0,0,0,.1-3.2c-.1-1.2-.4-2.4-.6-3.6a14.7,14.7,0,0,1,0-2.1,5.4,5.4,0,0,1,.5-2.1,9.4,9.4,0,0,0,.7-2.2h0a3.8,3.8,0,0,1,.3-1,6.7,6.7,0,0,1,.6-1.2l.6-1.4c.3-.5.4-1,.7-1.4a21.4,21.4,0,0,0,2-4c.1-.3.2-1,.4-1.1s.3.1.6-.1l.6-.6.8-.9c.1-.2.3-.2.4-.6s-.2-.4-.5-.5.6-.3.8-.4a2.3,2.3,0,0,0,1-.7,4.5,4.5,0,0,0,.7-3C225.4-4,224.2-4.2,223.5-4.5Z" transform="translate(-4.8 6.9)"/>
    <path class="cls-2" d="M224,38l-2.9-2.8-1.9.2c.6.8-.3,1.5-.3,2.4v1.6a3.4,3.4,0,0,1-.6,1.5,5.2,5.2,0,0,1-2,1.9c-.4.3-.6.4-.7.8s-.3.7-.4,1.1,1.4,1.5,2,1.8a2,2,0,0,1,.8.4c.1.1.2.3.4.4h.4a1.5,1.5,0,0,0,1.2-.7,4.3,4.3,0,0,0,.9-1c.3-.4.2-1,.3-1.5a5.6,5.6,0,0,1,1.6-2.5c.5-.5,1.6-1.1,1.7-1.8S223.5,38.5,224,38Z" transform="translate(-4.8 6.9)"/>
    <path class="cls-2" d="M214,46.7a1.1,1.1,0,0,0-.3,1.4c0,.2.1.6.3.6s.4-.4.5-.6.8-.4.7-.8S214.4,46.5,214,46.7Z" transform="translate(-4.8 6.9)"/>
    <path class="cls-2" d="M212.5,51.5l-.4.5a1,1,0,0,0-.4.5,9.4,9.4,0,0,1-1.2,2.2l-2,2.8-1.8,2.3a12.8,12.8,0,0,0-1.5,2.5,6.7,6.7,0,0,1-.6,1.2,3.4,3.4,0,0,0-.1,1c.8.1,1.5-1.1,1.9-1.7s1.8-1.9,2.5-2.9,2.3-4.1,3.5-6a6.3,6.3,0,0,0,1.3-2,2.8,2.8,0,0,0,.1-.9v-.2C213.7,50,212.7,51.4,212.5,51.5Z" transform="translate(-4.8 6.9)"/>
    <path class="cls-2" d="M203.3,64.6c-.1,0-.1.2-.1.3h0l-.4.3-.4.3c-.2.2-.2.2-.2.4s-.1.5,0,.6h.4c.1-.1.1-.4.2-.6s.7-.3.7-.7S203.5,64.5,203.3,64.6Z" transform="translate(-4.8 6.9)"/>
    <path class="cls-2" d="M182,95.5a1.7,1.7,0,0,0-1.2-.4l-.8.5-.8.7-.5.9a3.1,3.1,0,0,1-.7.9l-.7.5-.5.5c0,.1-.1.4-.1.6a1.1,1.1,0,0,0,.2.6,8.7,8.7,0,0,0,1.1.9c.2.1.5.1.6-.1l.8-.6,1.4-1.1,1.5-.7a1.8,1.8,0,0,0,.9-.6.4.4,0,0,0,.1-.3,2.1,2.1,0,0,0,0-.8C183.3,96.2,182.5,95.9,182,95.5Z" transform="translate(-4.8 6.9)"/>
    <path class="cls-2" d="M172.7,92.3l-.3-.2-.3-.4c0-.1,0-.2-.2-.3a.9.9,0,0,0-.7-.1c-.2.1-.2.2-.2.4a.5.5,0,0,0,.4.6l.4.6c.2.2.3.3.5.2l.6-.2c.2-.1.3-.4.1-.5Z" transform="translate(-4.8 6.9)"/>
    <path class="cls-2" d="M171.3,92.9l-.3-.2c-.1,0-.1-.1-.1-.2s-.3-.1-.4,0l-.3.2c0,.2,0,.3-.1.4s-.3.3-.2.5.4.3.5.4.2.4.4.4.3-.1.4-.3a.4.4,0,0,1,.1-.3v-.3h0C171.7,93.4,171.4,93,171.3,92.9Z" transform="translate(-4.8 6.9)"/>
    <path class="cls-2" d="M170.2,97.4l-.6-.5a.9.9,0,0,0-.5-.3c-.2.1-.3.5-.5.6s-.3.1-.3.3.3.4.5.6l.5.5c.2.2.2.5.5.6l.6-.8c.2-.1.5-.2.4-.5S170.4,97.5,170.2,97.4Z" transform="translate(-4.8 6.9)"/>
    <path class="cls-2" d="M224.3-6.6l-.8,1c.7,0,2.9.7,3,2.6l.5-1.8C227.2-6.2,225.2-7.6,224.3-6.6Z" transform="translate(-4.8 6.9)"/>
  </g>
</svg>
