<svg id="Layer_1" data-name="Layer 1" xmlns="http://www.w3.org/2000/svg" viewBox="0 0 1009.61 998.3"><defs><style>.cls-1{fill:#35a7ff;}.cls-2{fill:#c6e0c6;}.cls-3{fill:#ff5964;}.cls-4{fill:#2e3192;}.cls-5{fill:#ffaf87;}.cls-6{fill:#f9f94e;}.cls-7{fill:#fff;}</style></defs><title>Artboard 1</title><rect id="Water" class="cls-1" width="1009.6" height="998.3"/><g id="New_Jersey" data-name="New Jersey"><path class="cls-2" d="M.22.2v736h2.7c0-1,.12-.69.38-1,2.5-3,13.19,1.16,16.38,1.33,2,.11,6.14.69,7.92-.3s2.23-4.45,4.26-5c3.88-1.11,6.76,6.12,8.69,8.27,3.7,4.14,8.1,4.19,13.18,2.51,4-1.32,10.11-2.3,13.1-5.28,1.68-1.68,8.52-11.08,9.44-3,.1.9-.65,2.1-.83,3a1.17,1.17,0,0,0,0,.65c.5,1.18,2.73,1.08,3.58,2.23,1.58,2.15-.49,4.73,1.64,6.59.67.58,2.45.92,3.33,1.53,1.18.82,2.19,1.75,3.33,2.7,2.33,1.92,3.06,4.4,4.66,6.34,1.08-4.22,4-8,5.6-11.95,1.22-3.05-.74-3.72-1.94-5.79-1.56-2.65-1.58-3.44-4.38-5-5.56-3.21-2.54-6.84-2.54-12.15s-.52-10.83,0-16.08a13.84,13.84,0,0,1,.77-3.61c.39-.88,1.89-1.73,2-2.74.46-3.59-3.75-3.18-5.85-3.63-2.34-.5-3.89-1.32-6.39,0-2.8,1.47-3.83,5.62-7.34,5.81-2.45.13-7.22-3.63-4.52-6.11,1.61-1.46,2.21,2.23,3,2.48,2.23.7,2.48-1.49,3.33-2.73,1.78-2.64,4.34-4.84,7.52-5.26,3.58-.46,4.21,3.88,7.69,3,2.13-5.27-4.49-6.55-2.09-11.89,1.38-3.11,4.09-5.29,5.47-8.54.73-1.69,2.86-6.51,1.12-7.86s-5.76.83-6.73,2.25c-1.58,2.35-1.54,5.33-3,7.84-1.31,2.31-2.86,4.37-5.55,4.92-3.62.75-4.35-1-6.6-2.78-6.09-4.81-9.22,5.63-15,5-1.38-2.06-.22-5.59-1.15-8-1-2.65-3.13-4.6-5-6.66a29.5,29.5,0,0,1-4.63-5.81c-1.23-2.21-1.88-3.89-4-5.27s-6.3-1.62-7.79-3.68c-2.44-3.4,1.78-2,3.5-.75,4,2.83,8.07,5.16,12.06,8s4.91,6.89,7,10.9c.64,1.23,2.17,5.69,3.54,6.11,2,.6,3.2-2.73,4.16-4.18s2.19-4.66,4.16-4.46,2.55,3.71,3.6,5c4.26,5.19,7.8,2.31,10.07-2.48,1.56-3.35,1.13-8.27,5.21-10s7,3.71,11.08,2.24,6.08-7.25,6.64-10.88c1-6.61,6.36-6.26,10-10.42,1.27-1.43,1-1-.06-2.28-1.68-2-3.66-1.87-5.48-.57-2.36,1.7-2.26,3.83-5.27,4.45-2.07.41-5.55.28-7.28-.55-2.46-1.18-2.91-3.2-3.26-5.56-.48-3.23-.88-3.33-3.54-5.06-3.65-2.36-10.26-4.1-9.77-9.37.19-2.15,2-4.55,1.11-7s-3.43-2.66-3.89-5.19c-.52-2.81,2.48-4.56,2.21-6.94-.28-2.6-3.15-2.93-5.26-3-2.78-.15-5.36.57-7.44-1.64S65,592.85,64.28,590c-.58-2.47-1.2-5-1.68-7.47-.24-1.18-.65-1.7-.24-2.85.59-1.56,1.87-1.26,2-3.25.17-3.47-3.71-5.73-4.69-8.84,2.78-.6,6.92,9,5.86,11.05-1.42,2.73-2.52,2.18-1.65,5.52.58,2.18.76,4.48,1.31,6.68,1.27,5.07,4,8.22,9.16,8,2.61-.1,4.31,0,6.17,1.88,2.21,2.2,1.68,2.71.48,5.06-.78,1.51-1.94,4.29-1.18,6.12,1,2.53,3,2.35,3.4,5.26.73,5.37-3.83,8.32,2.28,11.3,4.16,2,8.69,3.32,10.42,8.11.85,2.37.28,4.53,3.11,5.27,2.35.63,4.43-.54,6.09-1.66s3.21-3.09,4.81-4.09c2.87-1.8,3.72-.68,5.19,1.31,2.15,2.9,2.24,1.66,4.67-.06,2.08-1.5,3.89-1.08,6.37-1.53,2.78-.5,4.69-1.88,7-3.33,1.89-1.18,3.89-3.46,6.1-4,2.78-.64,6.35.84,8.76-1.39,1.55-1.43,2.68-4.54,4-6.31,1.15-1.55,2.18-4,4.15-4.79s5.26.58,6.47-1.63c2-3.71-3.71-2.71-4.47-5-.35-1.07,1.21-2,.75-3.07-.56-1.24-2.35-.78-3.3-1.09-4.58-1.5-7.76-5.38-11.37-8.32-1.68-1.4-11.5-8.48-3.39-7.5,4.71.59,8.72,5.65,12.33,8.53,2.39,1.92,7.22,7.36,10.48,7,8.74-.93,3.61-20.32,15.25-18.31,2.93.52,5.69,3.72,8.84,2.33,2.58-1.11,3.57-5.06,5.17-7.12,2.89-3.72,9.07-8.47,7.87-14-3-1.53-5.81-4.18-8.87-5.89a48,48,0,0,1-8.79-5.89c-2.76-2.45-5.17-5.25-7.75-7.76-2.2-2.16-4.65-3.59-6.53-6-1.33-1.73-1.93-4.54.9-5.54,2.1-.73,4,1.51,5.36,2.69,3.81,3.4,8.08,6.34,12,9.59,2.4,2,4.88,3.66,7.24,5.54,2.53,2,2.81,2.87,4.51-.35,2.73-5.15,7.52-9.56,9.65-15,1.27-3.22-.67-3.62-2.73-6-1.58-1.83-2.4-4.94-4.08-6.49s-5-2-7.36-2.8a44.83,44.83,0,0,1-9-4.71c-1.91-1.19-4.59-2.24-6.17-3.76-1.87-1.76-2.15-4.14,1.33-4.14,5.4,0,10.85,4.51,15,7.44,3.88,2.7,9.29,3.35,12.28,6.92a31.49,31.49,0,0,1,3.55,6.1c.55,1.18,1.34,5.7,2.69,6.12l.15.23c3.2-1.69,5.61-6.52,7.76-9.38,2.7-3.6,6.09-6.64,8.44-10.35s2.81-7.86,4.26-11.59,2.63-7.65,1.46-11.58c-1-3.41-2.49-6.65-2.84-10.33s-1.23-7.73-1.14-11.59c.21-6.29,1.74-12.2,3.4-18.09,1.55-5.42,2.22-11,3.4-16.56.21-1.05.44-2.08.71-3.11,1-4,1.7-11.95-1.6-15.08s-8.94-2.45-13-1.66c-8.11,1.53-18,1-25.31,5.14-1.87,1-3,3-4.1,5.09-1.42,2.68-2.71,5.53-5.29,6.77-1.66.84-4.71.19-6.71.27-5.26.23-12.08,1.33-16.92-1.1-2.37-1.2-2.9-3.21-4.11-5.56-1.55-3-3.15-6.14-4.76-9.17-3.11-5.79-3.9-12.73-3.8-19.22,0-2.93.05-6.14.35-9,.35-3.38,2.12-6.49,3.18-9.72,1.47-4.43,3.13-9,5-13.31,2.86-6.76,7.31-13.24,9.3-20.19,1.83-6.36,6-10.72,9.64-16.15,4.91-7.34,7.64-15.24,10.53-23.3,1.95-5.41,3.6-10.75,6.26-15.87,2-3.8,5.53-7.71,4.79-12.4-.9-5.75-3.76-10.32-2.73-16.61.45-2.7,1.85-5.46,2.17-8.38.29-2.74.13-6.19,1.66-8.35,3.68,2,4.43,11.32,2.71,14.68-1,1.88-3.29,2.41-3.82,4.49-.49,1.9.56,4.58.56,6.66a10.68,10.68,0,0,0,1.6,6.39,8.53,8.53,0,0,1,.83,6.44c-1.7,5.08-4.81,9.32-6.26,14.63-1.86,6.8-5.13,13.27-8.11,19.68s-5.77,13.15-8.72,19.77c-2.87,6.47-5,12.83-8.42,18.85-5.34,9.48-10.72,18.13-14,28.58a36.32,36.32,0,0,0-1.33,7.64c-.52,5.28-1.15,12.3-.07,17.54.95,4.58,4.18,9.14,6.23,13.32,2.59,5.29,5.54,6.39,11.32,6.37,4.49,0,9.65.05,13.58-1.93a6.21,6.21,0,0,0,2.46-2.23c1.8-2.68,2.05-6.47,5-8.8,2.08-1.63,5.9-2.4,8.33-3.13,2.95-.88,5.86-2.21,9-2.76,5.43-.95,14-2.27,19.31-.5,3.74,1.25,7.84,6.21,9.09,9.93C245,428,242.33,433.59,241,438c-.1.33-.2.68-.27,1-1.1,4.58-.33,9.39-.81,14.25-.52,5.23-1.5,8.67,1,13.6,1.8,3.49,4.28,10.58,8.76,4.89,1.29-1.65,2-4.66,4.29-5.26,3-.76,3.55,2.4,5.88,3.15,3.22,1,9.85-8.09,10.76-10.64,1.05-2.94.47-6.19.62-9.28a79.94,79.94,0,0,1,1.33-9.72,29,29,0,0,1,7.13-14.77c4.64-5,9.15-6.29,15.67-7.27A32.09,32.09,0,0,0,301,416.6a24.53,24.53,0,0,0,3.23-1.41c4-2.13,8.6-4.83,7.5-10.21-1.26-6.1-9.6-3.69-14.14-3.32a15.79,15.79,0,0,1-15.25-9.21c-1.9-4.32-2.76-5.6-.63-9.95,1.36-2.74,3.07-5.41,4.27-8.29A75.28,75.28,0,0,0,290.45,357c1-6.31-3.05-10.24-3.93-16.08A27.25,27.25,0,0,1,290.13,322c2.35-3.78,6.89-5.56,8.94-9a79.37,79.37,0,0,0,6.51-13.83c1.83-5.33,3.46-13.61,9.79-14.91,6-1.25,8.53-1.43,12.18-6.79,3.88-5.7,8.52-10.76,15.06-13.17,10.34-3.84,21.92-1.26,32.94-2.49,4.64-.54,8.43-4.18,10.2-8.33,1.56-3.67,4.4-9.55,2.85-13.58-2.62-6.87-13-16.49-8.54-24.68,2.71-5,8.93-4.39,10.95-10.29,1.58-4.57.73-8.93-.54-13.29-1.41-4.81-3.31-9.62-3-14.72.33-5.37,2.85-9.83,3.95-14.81.08-.4.16-.81.23-1.23.35-2.18,1-4.54-.37-6.43-1.48-2.06-4-2.13-5.12-4.72-2.07-4.86.33-10.2-2.37-15.11-1.64-3-3.91-5.23-4.37-8.59a50.5,50.5,0,0,1-.1-8.61c.11-3.44.61-3.34,2.26-6,1.8-2.81-1-4.27-3.26-5.25-3.26-1.4-5.56-2.3-5.83-6.39-.25-3.77,1.34-4.87,4.17-6.46a18.69,18.69,0,0,0,8.83-10.15c-1.89-.64-4.81-.37-6.29-1.78s-1.56-5.25-1.78-7.43c-.27-2.69-.5-4.71,1.23-6.92s4.18-3.8,6-5.84c3.23-3.55,3.9-8.91,5.5-13.3a62.54,62.54,0,0,1,8.17-15.46c2.41-3.36,6.37-8.39,2.65-12.28-2.52-2.63-9.64-6.35-5.26-10.81,2.11,4.48,6.34,7.49,8.64,11.92,1.1,2.1,2.14,5.52,1.39,8.06-.51,1.73-2.41,3.34-3.53,4.75a80.7,80.7,0,0,0-8.19,12.42c-1.16,2.2-2.39,4-2.71,6.39-.15,1.17.21,2.45,0,3.61-.25,1.37-1,1.65-1.4,2.83-.93,2.82.39,4-2.43,5.81-1.36.88-4,1.58-5,3.06s-1,4.4-.88,6c.21,2.63,1.58,3.27,3.66,4.65s3.32,1.83,3,4.79a14.81,14.81,0,0,1-2.23,5.88A34.4,34.4,0,0,1,382,95.47c-1.23,1.38-4.84,3.4-4.51,5.49.78,4.9,9.31,1.42,8.36,8.63-.55,4-3.46,8.32-2.53,12.46,1.09,4.86,3.39,8.91,4.8,13.58.9,3-.7,6.25.36,9.18,1.31,3.69,5.75,5.49,7,9.41.92,2.88-.1,4.22-1.15,6.6a10.69,10.69,0,0,0-.58,1.88c-.83,3.86-.35,9.63,1.8,12,1.65,1.8,3.55,2.5,4.78,4.84s2.13,4.91,3.81,7.09c3.1,4.08,10.82,4,15.26,2.23,2.75-1.13,4.26-3.89,5.14-7.05a45.42,45.42,0,0,0,1.24-9.26c.4-7.7,2.44-14.81,3.81-22.4a34.43,34.43,0,0,1,2.63-8.89c1.48-3.09,1.16-3.69.35-6.9-1.9-7.53,6.29-8.36,11.51-11,4.43-2.22,5.85-6.84,9.66-9.54.78,4.49-2.73,7.62-5.49,10.7-1.64,1.83-3,3.48-3.63,5.84-.67,2.63-.74,3.85-3,5.63-3.57,2.84-7.47,4.71-7.34,9.4.12,4.38-1.88,8.27-3,12.7a69.76,69.76,0,0,0-2,8.12c-.37,2.72,0,5.58-.5,8.24a72.5,72.5,0,0,1-1.8,8,22.46,22.46,0,0,1-3.74,7.86c-3.1,3.85-8.86,3.56-13.6,2.93-5-.67-7.86-3.41-10.2-7.42-1.18-2-2.88-7.71-5-8.58-.67,2.1.1,4.45-.32,6.65s-1.54,3.29-1.4,5.81a9.39,9.39,0,0,0,.24,1.53c.93,3.81,4,6.57,3.38,11s-5.66,7.47-7.83,11c-2.67,4.39-4.85,8.73-1.94,13.38,2.18,3.48,5.31,6.75,6.42,10.82.9,3.28-.46,7.69-1.09,11-1.49,8.1-6.45,14.71-14.42,17.29-6,1.95-12.33.88-18.54,1.8a106.75,106.75,0,0,0-16.14,4.24c-6.94,2.17-8.54,7.34-13,12.48a14.68,14.68,0,0,1-6.88,4.78c-1.86.62-7.92.75-6.94,4,1.42.92,5.29,2.27,6,3.93,1.12,2.7-2.24,3-4.11,3.61-5,1.62-5.32,4.05-8,8.11-5.64,8.62-15,15.23-17,25.46-.87,4.5.25,6.36,1.87,10.59A27.35,27.35,0,0,1,296,357.27c-.32,2.3-1.33,4.16-2,6.34-.55,1.85-.34,3.1-.59,5.05-.6,4.59-4.44,8-5.37,12.59-.77,3.85-2.86,10.12,1.05,12.87,3.69,2.6,11.85,1.26,16.07.6,2.62-.43,5.48-1.56,7.73,0a11.15,11.15,0,0,1,3.52,5.06c1.72,5.54-1.8,10.43-5.2,14.41-2.45,2.9-5.74,4.14-9.23,5.33-1,.31-2,.65-3,1-4.65,1.64-7,3.76-10.62,7.14-4.43,4.12-7.14,9.65-9.09,15.29-2.08,6,.13,12.58-1.38,18.88-1.23,5.22-5.33,5.72-8.82,9-2.45,2.28-8.37,6.82-8.06,10.48.07.68,2,1,1.37,2.78-.52,1.4-2,.85-2.8,1.7-2.15,2.38.68,4,1.38,6.32,1,3.21-1.73,6.33-1,9.44,1,4.09,7,2.28,6.52,6.21-.4,3.18-5.38,5-7.76,6.27-3.93,2.12-4.42,6.26-7,9.69-1,1.28-3.42,3.08-3.27,4.72.17,1.83,4.61,2.39,2.72,5-1.15,1.56-4.65.93-6.24,2.76a5.89,5.89,0,0,0-1.15,6.06c5.84-.46-1.51,8.81-2,10.29-1.73,5.25-4.11,11.4-7.82,15.84-3.28,3.92-10.07,6.53-10.75,11.64-.33,2.43,2.8,14.11-2.71,11.87-1.27-.52-.65-2.45-2.78-1.83-.88,2-4.48,4.89-4.78,6.89-.3,1.83,1.2,1.14,1.4,2.78s-1.18,2.18-2.23,3.31c-1.67,1.82-2.79,6.38-4.76,7.44-1.53.85-3-.61-4.34.95-.69.79-.6,2.15-1,3.07s-1.53,2.22-2.15,3.36c-1.61,3-3.83,5.63-5.09,8.77-.94,2.3-.62,4.77-1.68,7-1.2,2.55-2.63,3.89-.82,6.87,1.12,1.85,4,3.93,6.31,3.33s2.8-3.48,4.71-4.38c2.1-1,5.74-.25,8-.25h9.91c7.13,0,13.28-.59,19.23-4.49A10.78,10.78,0,0,0,245,630a9.68,9.68,0,0,0,1.33-2.48c.25-1.11-.58-2.72-.32-3.61,1.77-6,8.39,1.46,11.39,2.21s5.17.91,7.79,2.48c2.38,1.41,3.16,2.35,6.09,2.51,3.13.18,5.06-1.25,7.77-2.23,3-1.09,5.93-1.71,8.89-3.06,5.18-2.33,10.52-4.45,10.53-10.82,0-6.06-5.92-6-6.1-11.35-.1-3.06-1.14-13.73-6.95-10.83-1.37.7-1.28,2.55-2.76,3.29a12.69,12.69,0,0,1-5,.07c-4-1.3-4-4.33-2.82-7.26-1.9-.94-4-.57-5.74-2-.65-.54-1.23-2.45-2.05-2.66-1.86-.43-1.13,1-2.08,1.42-4.36,1.91-10-3.3-5.42-7.08s12.18,1.55,16.16,3.9c5.87,3.44,13,4.11,19.35,6.66a75.19,75.19,0,0,1,10.39,5.1c2.06,1.22,4.34,2,6.46,3.13s3.07,2.68,4.76,3.93c3.72,2.73,8.8,2,10.7-2.4a6.21,6.21,0,0,0,.83-2.71c0-1.86.23-1-1.17-2.06-2.81-2.13-7.19-2.77-10.28-4.67-5.76-3.52-11.1-7.57-17.21-10.61-2.95-1.47-5.87-3-8.8-4.38-2-1-5.71-2.54-6.89-4.43,2.05-1.81,11.66-2.86,13.5-.21s-.73,3.34,3.06,5.27c2.61,1.33,5.43,2.7,8.09,3.88a115.17,115.17,0,0,1,15.21,8c1.52,1,3.76,3.26,5.54,3.53,2.7.41,3.57-2.79,4.2-5.28a9.53,9.53,0,0,1,1.05-1.79c-3-.22-6.21-2.52-8.72-3.89-3.66-2-7.24-4-10.95-5.82s-10.87-4.31-9.94-9.17c3.53-.17,6,1.15,8.82,2.78,1.05.6,3.55,3.28,4.45,3.28,1.32,0,2.54-2.72,2.16-4.11-2.63-.72-3.53-1-3.07-4,.24-1.61,1.09-1.21.27-2.73-.53-1-2-1.29-2.61-2.29-1.67-2.61.13-3.5,2.41-1.55,1.93,1.62,2,4,4.73,1.33,4.77-4.71-2.14-7.74-5.56-9.79-2.85-1.71-11.72-9-3.82-9.63,6.34-.56,8,8.53,13.2,7.72,1.92-3.93.89-10,.89-14.38,0-2.74-.21-3.67,2.49-4.17,1.75-.33,5.91,1.49,4.94-1.89-3.21-.75-8.4-.14-6.82-4.48,2.06-5.73,3.79.33,6.82,0,0-5.79,5.4,1,6.23,2.26,1.74,2.76,2.63,7.58,6,7.78,1.48.08,3.38-.3,4.16-1.66,1.28-2.23-.51-2.2-1.33-3.68-1.15-2.11-1.31-1.1.43-2.51s3.15-2.23,5.33-1.78c1.83.36,1.95,2.28,4,.26,1.27-1.26,3.54-5.34,2.49-6.8-1.27-1.75-5.29-1.22-2-3.8,2-1.53,4.62-1.55,6.6-3.61a36.77,36.77,0,0,0,4.44-6.39c1.08-1.8,4.11-4.68,4.43-6.64.58-3.56-3.79-2.4-3.86-4.15-.08-2.38,6.37-.75,7.52-.51a49.44,49.44,0,0,0,12.17.73c.63-4.1-11.9-3.84-14.45-4.13-1.56-.18-12.55-2.19-10.76-4.11,1.41-1.53,4.46,1.05,6.12-1.36,1-1.44,1.4-5.21,3.88-2,1.66,2.13.45,3.4,3.54,4.51,1.7.6,4.8,1.43,6.73,1.05,2.51-.5,4-3.15,4.77-5.28,1.17-3.16,1.07-3,4.38-4.09,2.36-.77,3.88-2.6.88-4-2.13-1-5,.25-7.24-1,1.3-2.88,4.36-1.09,6.63-2,4.59-1.9-1.25-2.28-2.25-3.28,1.28-1.34,5.2.07,5.59-1.93.5-2.48-3.82-1.81-5.27-1.94-2.52-.24-4.66-1.82-1.68-3.68s4,1.25,6.39,1.18c3-.09,2.89-2.73,1.31-4.08-2.05-1.75-4.06-1.17-6.31-2-3.26-1.25-.55-2.35,2-2.5,2-.11,5.06,0,6.37-1.73s.5-2.44-1.16-4c-.29-.28-1.47-.71-1.62-1-.41-.73-.13-1.3-.35-2s1.09-.56.09-1.6c-.57-.58-2.15.18-2.52-.25-1.24-1.48.52-2,1.67-2.79a18.25,18.25,0,0,0,5.82-6.73c1.82-3.13-1.93-4.92-4.49-5.67,1.19-2.3,4.46-3.3,6.11-5.43,1.46-1.92,1.41-4.18.89-6.84-1.06-5.43-3.88-8.59-1.39-13.88.39-.83.5-2.38,1.16-3.06.87-.87,2-.4,2.73-1.1,1.72-1.7,1-4.66-1.11-5.91s-5-.17-6.94-1.3c-2.62-1.53-1.75-2.94.83-3.61,2-.53,8.79.66,8.55-2.73a11.15,11.15,0,0,1-2.68-.65c.09-2.7,4.48-.52,4.63-3.23a16.79,16.79,0,0,0-3.24-.67c.8-2.48,4.91-.68,5.19-3.23-4.46-.73-5.21-2.82-1.85-6.07,1.07-1,2.8-1.7,3.5-3.18,2-4.39.36-10.1,4.77-13.18,1.37-.95,3.45-1.5,4.52-2.81,1.56-1.92.34-3.5,1.61-5.31-1.25-1.5-2.68-2.73-4-4.13,2.48-1.33,4.16,2.32,6.64,2,4.11-.57-1-2.45-1.88-3.31-3-2.95,1.84-1.59,3.61-2,1.22-.3,1.63,0,2.28-1.36.93-2-.49-1.22-.62-2.8-.23-2.61,1.95-4,3.28-6.11s2.25-4.06,3.38-6a33.45,33.45,0,0,1,4.09-5.7c.38-.4,2.2-1.73,2.25-2.14.18-1.47-1.54-1.48-1.63-2.78-.17-2.25,2.92-3.43,4.17-5,1.14-1.4,1.65-4.58,3.3-5.29,2.48-1.08,4.21,2.49,5.57-1.1.42-1.1.4-2.3.77-3.11.55-1.2,1.39-1.83,1.39-3.21-8.15-2.52,4.32-17.31,6.65-21.14,1.54-2.53,2-2.74,4.77-3.33,2.35-.5,4.81-1.23,2.43-3.24-.74-.65-2,.08-2.43-.9-.68-1.38.63-2.3,1.4-2.8,2-1.26,4.46.3,5.74-2.21,1.75-3.36-2.08-1.55-3.61-3.53s.77-4.21,2-5.63c1.58-1.76,3.58-3.14,4.91-5.07s.92-4.21,2.3-6.31c1.67-2.48,3.66-4.39,5-7.21,1.12-2.31,2-4.91,3.38-7.25,3-5.21,4.36-10.94,6.81-16.1,1.46-3.08,1.54-2.88-.54-5.49-1.78-2.19-1.69-3.53.27-5.81.92-1.06,5.89-3.26,5.93-4.17,0-2.33-5.08-.47-4.2-4.17.42-1.78,3.28-2.71,4.65-3.67a19.94,19.94,0,0,0,5.91-6c2.64-4.34,6.49-9.22,7.82-14.19,1.24-4.63-.12-9.94,1.6-14.43,1.27-3.38,5-.6,6.6-3.62,1.25-2.33-.65-3.88-1-5.87-.85-4.8,5.09-11.95,6.87-16.31,2.49-6.08,5-11.79,7.43-17.76,2.16-5.31,3.11-11,5.06-16.51,4.41-12.33,11.86-24.32,15.21-37,1.47-5.58,1.37-11.52,2.86-17.11A127.5,127.5,0,0,1,568,15.91,105.94,105.94,0,0,0,573.53.2Z"/><path class="cls-2" d="M81.23,751.67A5.85,5.85,0,0,1,78.72,749c-.34-1,.28-2,0-3a5.19,5.19,0,0,0-1.38-2.4,1.39,1.39,0,0,0-2.23.39,8.09,8.09,0,0,0-.34,2.69c-.09,1.78-.25,3.77.61,5.34.19.36.78,1.76,0,1.81-.48,0-.92-1.38-1.18-1.75a4.94,4.94,0,0,1-.63-4.69c.83-2.5-.15-5.17.11-7.72.07-.81.44-2,.54-3.07a2.5,2.5,0,0,0-.79-2.4c-2.88-2.16-3.61,1.65-3.87,3.4-.6,3.7-2.37,5-6,6.09-6.32,1.93-12.93,3.16-19.5,2.52-3.51-.36-4.4-1.23-6-4-1.25-2.08-2.25-3.63-5.05-4.13-3.43-.58-5.86,1.83-8.95,2.6a17.7,17.7,0,0,1-8.53-.07c-2.56-.63-5-1.49-7.49-2.17-1.22-.34-5.1-1.28-5.1-2.28H.22V851.31h0V888.2h0v46.28c3-2.69,5.2-6.06,7.53-8.9,1.7-2.06,3.66-4.41,4.19-7.14.62-3.09-1.54-3.44-2.79-5.52-3.38-5.58-.66-13.48-2.25-19.45-.81-3.12-2.65-1.62-4.43-3.32a2.18,2.18,0,0,1-.9-1.95h0s0-.52.05-.82c.23-2,.63-1.19,1.68-2.5,1.91-2.38,1.48-3.38,1.65-6.66.19-3.67.36-7.37.56-11.1,0-.9.58-2.17.3-3.07-.42-1.19-2-1.64-2.3-3-.46-2-.6-3.94-1.16-5.87a14.51,14.51,0,0,1-.62-3.89h0c0-.24,0-.47,0-.7.13-1.68.81-3.28.83-5A32.69,32.69,0,0,1,3,841.44c.23-1.77,1.17-5.73,3.88-4.75.77.27,1.1,1.38,1.78,1.64,1.68.69,3.36-1.37,4.41-2.32a17.55,17.55,0,0,0,2.5-2.28,4.55,4.55,0,0,0,.73-2.82c-.12-1.06-1.28-1.14-2.23-1.59A2.77,2.77,0,0,1,12.32,827a4.64,4.64,0,0,1,.88-3.84c2-2.58,5.08.36,7.08,1.48a24.24,24.24,0,0,1,6,4.39c.42.45,1.48,1.43,1.25,2.15-.38,1.14-2.5-.67-3-1.1-1.54-1.3-3.18-2.43-4.78-3.58-1.33-1-2.47-2-4.16-2.05-1.84,0-2.06,1.45-1.24,2.72,1,1.5,2.93,1.9,3.87,3.31s-.14,3.32-.89,4.4c-1.33,1.93-3.62,2.39-5.26,3.94a4.07,4.07,0,0,1-2.32,1.37c-1.27.23-1.82-.29-2.74-1s-2.39.66-2.78,1.74c-.46,1.37-.21,3.11-.43,4.54a32.66,32.66,0,0,0-.6,6.69c.07,1,.15,3.84,1.09,4.51,1.18.83,1.84-3,2.07-3.7.74-2.21,1.54-4.51,3.9-5.41a38.66,38.66,0,0,1,6.11-1.24c5.81-1.1,9.63-4,13.86-7.89,3.45-3.2,8-9.37,12.77-10.08,6.4-1,7.94,2.79,12.2,6.12,8.93,6.94,18.74-5.13,18.3-13.86a67.58,67.58,0,0,0-.83-7.78c-.31-2-2-7.25,2.22-5.27,1.38.63,1,2.49,2.79,2.23,1.2-.17,1.7-1.6,2-2.5,1-3.64-1.42-7.41-1.35-11.08a62.47,62.47,0,0,1,1.6-13c1.15-4.89,1-10.71,3.54-15,2.17-3.77,7.06-7.57,3.68-12C85.61,754.17,83.15,753.06,81.23,751.67Z"/></g><g id="NY"><path class="cls-2" d="M1009,775.2c-4.54,0-9.12.26-13.75.26-8.37,0-17,.47-25.23-.65-7.12-.94-14.43-1.95-21.45-3.53-4-.9-8.11-1.39-12.14-2.2-.8-.17-1.58-.32-2.36-.44s-1.65-.34-2.47-.57a12.38,12.38,0,0,0-5.41-.82c-2.56.45-2.74,2.83-4.19,4.54-1,1.25-2.66,2.88-4.34,3.15s-3-1.7-4.36-1.18c-.46.18-.72.87-1,1.25a13.09,13.09,0,0,1-2.33,2.19,18.74,18.74,0,0,0-3.74,3.48c-.89,1.25-1.37,2.68-2.53,3.81-.83.8-2.6,1.63-1.91,3.17.31.71,2,1.88,2.78,2.34,1.49,1,1.46,0,2.53-1.06s2.63-1.6,4.21-2.23c2.71-1.1,5.29-2.51,8.09-3.36a24.87,24.87,0,0,1,7.65-.83c4.71,0,10.2-.92,14.36,1.54,3.3,2,5.89,2.55,9.51,1.5,1.92-.55,3.79-1.13,5.67-1.66,1.72-.49,2.4,0,3.88.8,4.38,2.26,9.8,2.56,14.7,2.81,3,.15,6.12,0,9.15.27,2.76.23,5.35,1,8.14,1A48.09,48.09,0,0,1,1002,790c2.3.53,4.56.23,6.92,1.23h.27V774.9l.38.3Z"/><path class="cls-2" d="M1004.66,701.47a13.27,13.27,0,0,1,1.76-1.92,5.91,5.91,0,0,1,2.91-1.35h-.11v-570h-.4c-3.6,2-15.82-7.16-19.56-9.17-4.56-2.45-17.28-10.84-22.9-7.14-2,1.3-2,6.38-3.7,8.23-2.31,2.49-6.46,2.61-9.62,1.67-6.71-2-15.17-4.92-9.55,5,2.74,4.8,5.69,16.34,3.76,22-2.33,6.89-12.45,6.77-17.92,9.5-8.33,4.16,4.19,9.92,8.31,12.68,7.39,4.95,8,9.64,7.08,18.18-.32,3.16-.1,11.56,4.94,10.77.21-4.23-3-18.69,4.13-15.25,1.63.78,2.21,3.2,3.83,4,1.21.59,3.56.44,4.91.51,4.46.21,5.79-1.77,9.67-2.92,9.2-2.73,2.54,11.15,9.15,12.48,2.61.54,6.81-2.27,8-4.55,2-3.77-1.23-6.16-.46-9.52,2.83-.65,4.71,3.24,6.08,5.32,2.41,3.71,2.71,5.54.58,9.19-3,5.14-6.7,10.14-6.33,16.63.25,4.72,2.68,8.47,4,12.76,1,3.15.5,7.44-.48,10.54-.57,1.78-1,3.29-3.11,3.52-2.8.32-2.08-1.84-3.92-2.74-3.68-1.83-7.17,19.92-7.94,22.92-.64,2.63-1.43,5.94-.85,8.75.54,2.55,3.1,2.8,5,4.19.23,2.6-1.41,2.08-1.83,3.93-.48,2.19,1.72,1.78,2.3,3.33,1,2.46-1.81,2.36-3.29,1.66-1.87-.86-3.22-3.22-4-5.06a60.3,60.3,0,0,1-4.42-16.37,17.58,17.58,0,0,1,.37-6.29c.58-1.87,1.48-3,1.3-5.16a17.89,17.89,0,0,0-2.32-7.28,55.48,55.48,0,0,1-3.29-7.27c-2-4.8-5.18-9.17-8.17-13.33-2.69-3.75-5.06-4.53-9.46-5.4-1.76-.35-4.39-.3-5.69-1.66s-1.25-3.43-2.9-4.74c-2.76-2.22-4.77.15-7.42-.93-2.92-1.2-5.85-5-8.19-7a97.06,97.06,0,0,0-9.16-6.9c-3-2-5.54-2.47-7.55-5.68-.9-1.41-3.43-7.2-5.81-5.09-1.26,1.15-1.35,4.43-2,6-.87,2.08-2.2,2.68-4,3.8-4.59,2.83-1.31,6.29,1.7,9.08,4.38,4.06,5.26,8.19,6,13.9.6,4.33-1,7.74-3.26,11.3s-5.66,3.61-9.4,4.78c-4.06,1.23-6.66,4.51-9.34,7.7-2.51,3-.48,5.38.9,8.27s1.23,6.05,3.26,8.73c.67.91,1.66,1.46,2.25,2.39a31.89,31.89,0,0,1,1.3,3.25,26.72,26.72,0,0,0,2.59,4.81c1.83,2.43,4.5,1.93,6.93,2.77,3.13,1.1,2.28,4.18,2.28,7a43.1,43.1,0,0,0,.21,6c.41,2.81,1.54,5.44,1.88,8.27s-.4,5.91.21,8.79c.33,1.55.57,3.88,1.46,5.22s2.78,2,4,3.26c1.34,1.45,1,2.68,2.48,3.75.66.48,4.51,2,2.55,3.36l79.5,66.72,4.71,30.86L984.38,443,945,457.63l6.66,26.95,1,77.39-4,7.59,0,21.06c.77,1.48,1.35-.83,1.18,2.56-.06,1.31-.86,1.65-1.56,2.58-.85,1.11-.31,2.56.18,3.76a13.34,13.34,0,0,0,2.2,3.63c.94.93.95,2.07,1.75,3.14s1.74,1.12,1.58,2.6c-.07.62-.42,1.08-.54,1.68a16.5,16.5,0,0,0,0,2.63,10.39,10.39,0,0,0,.75,4.34c.42.91,1.24,1.38.78,2.49-.38.93-1.76,1.22-2.46,1.76a8,8,0,0,1-4.05,1.35,27.26,27.26,0,0,0-5.51,1.78c-2.88,1.1-6.11.71-8.95,1.85a10.23,10.23,0,0,0-5.85,5.1l.82.63a24.24,24.24,0,0,1,11.33-2.81c2.18-.1,4.46.24,6.62-.05a20.73,20.73,0,0,0,5.33-1.16c1.21-.5,3.52-2.06,4.41-.07.43,1-.5,2.33-.11,3.16,1.3,2.83,7.35-3.9,8.42-3.94a2.58,2.58,0,0,1-1.55,2.81c-1.17.71-2.07,1.55-3.15,2.35-1.71,1.25-3.41.7-5.11,0a5.45,5.45,0,0,0-3.2,0,46.88,46.88,0,0,0-6.34,2.25c-3.46,1.49-7,3.08-10.53,4.23-2.42.79-6.06.72-5.17,4.15.85,3.19,3.5,6,5.15,8.84,1.35,2.34,2.54,5.08,4.92,6.53,3.13,1.91,5.64,2.1,8.86.23a35.8,35.8,0,0,1,8.08-3.82c2.23-.69,4.63-1.7,7-1.58.42,1.49-5.42,4-6.61,4.77-1.94,1.25-3.76,2.5-5.74,3.66.76,2.85,3.23,5.36,3.83,8.39-1.28.19-2-2-2.61-2.8a10.56,10.56,0,0,1-1.75-2.82c-.33-.84-.53-1.79-1.45-2.07a12.29,12.29,0,0,0-3,0,7.2,7.2,0,0,0-5,1.6c-.68.51-1.31.86-1.89,1.31-.86.69-.77,1.25-.32,2.31.87,2.06,2.87,3.76,2.82,6.1-.08,3.25-3-2.35-3.41-3.24a4.82,4.82,0,0,0-1.8-2.26c-.73-.4-1.48-.21-2.28-.42-2.35-.63,1.26-2.51,2.28-2.91,1.21-.48,3.83-1.5,4.27-2.91s-2.21-2.32-3.22-3c-3.42-2.27-2.47-7.54-6.85-8.87-1-.29-1.91-.67-2.84-1s-1.18-.19-1.35.27c-.1.29-.15.7-.29,1.2-.29,1.23-.4,2.5-.64,3.74s-.88,1.64-.82,2.91a6.71,6.71,0,0,1,2.28,1.46c.69,1,.44,1.25,1.87,1.47.9.13,1.64.18,2.08,1a1.94,1.94,0,0,1-.62,2.62c-1,.69-1.28.54-.35,1.49.36.35.44.16.65.71a5.56,5.56,0,0,1,0,1.47c0,1.27-.07,2-1.25,2.37a8.55,8.55,0,0,1-2.6.31c-1,0-2.46-.16-3.11-1s-.26-2.25.12-3c.58-1.1,1.6-1.22.7-2.46a1.47,1.47,0,0,0-2.4-.37c-1.33,1.16-2.43,3.43-3.49,4.91a4.05,4.05,0,0,0-.85,2.49,3.56,3.56,0,0,0,.56,2c.25.59.19,1.4.57,1.9.7.88,2.66.54,3.63.54a3.5,3.5,0,0,0,1.68-.14c.63-.39.31-.74.52-1.3s1-2,1.89-1.3c1.75,1.26-1.93,5.09-3.24,5.46-1.12.3-4.9-.45-5.21,1.22-.13.7,1,1.46,1.38,1.86a4.49,4.49,0,0,1,1.57,2.12c.26,1,.66,5.22-1.27,5-.9-1.62.4-3.65-.63-5.28-1.21-1.94-3.2-3.25-5.53-2.4a9.67,9.67,0,0,0-3.83,2.72c-.66.93-.93,2.29-1.76,3.18-1.69,1.81-4.63,1.19-6.87,1.38-2.83.23-4,2.58-5.34,4.67a66.87,66.87,0,0,1-4.73,6,1.48,1.48,0,0,1-2.4.18c-.79-.66-.77-1.73-1.45-2.39-2.2-2.12-1.47,2.67-1.77,3.54s-1.21,1.15-1.81,1.85A20.31,20.31,0,0,0,883,704a5,5,0,0,0-.7,1.51,2.71,2.71,0,0,0,.3,1.85c1,1.94,4,2.39,5.77,3.52,2.12,1.34,5.38,1.65,7.91,1.44,3-.25,3.28-3.58,5.44-5.1s2.76,2.72,2.91,4c.27,2.47-2.83,4.3-4.76,5.13-.64.27-1.33.51-2,.78l0,0c.89.22,1.83,1.43,2.36,2.12,1,1.25,1.2,2.71,3,1.71,1.5-.85,3.11-1.73,4.57-2.68.56-.38,1-.84,1.51-1.26a39.94,39.94,0,0,1,3.53-2c.88-.53,2.49-1.51,3.51-.78a14.22,14.22,0,0,1,4.19,5.89,48.81,48.81,0,0,0,3.51,7.42,52.64,52.64,0,0,0,3.92,5.28,14.32,14.32,0,0,0,1.8,1.85,4.61,4.61,0,0,0,1.11.85c.29.12,1,.1,1.1.16l.1,22.2-7.72-.39.4.31c1.28.88,2.84,1.4,4,2.38,2.11,1.76,2.94,5.08,5.7,6,3,1,6.09-1.34,6.44-4.35.26-2.18-.59-3.6-1.13-5.59a22.47,22.47,0,0,1-.75-6.06,14.74,14.74,0,0,1,1.28-6.37c.85-1.77,2.88-3.26,4.42-4.48a23.69,23.69,0,0,0,4.39-4.61c1-1.37,2.2-3.15,3.78-3.86,1.13-.5,2.41-.25,3.56-.69.93-.34,2.47-1.91,3-.71,1.2,2.83-3.71,6.53-5.47,7.76-1.42,1-2.84,1.91-4.25,2.88a17,17,0,0,0-4,4.23c-1.39,1.89-1.53,4.8-1.76,7.12a18.57,18.57,0,0,0-.2,3.52,6.58,6.58,0,0,0,1.88,3.8c2,2.42,4.82,3.17,7.8,3.92a28.56,28.56,0,0,0,5.43.93,44.22,44.22,0,0,1,5.28.18,31.35,31.35,0,0,0,8.32.52c4.76-.45,10.2-.35,14.71,1.45,1.93.78,4,1.58,5.84,2.45,1.3.6,2,1.25,3.39,1.46,4.51.65,8.86-1.21,12.86-1.26V743.61h0c-.5-.6-1.52-.8-2.17-1.45a11.21,11.21,0,0,0-2.69-2c-1-.51-2-.33-3.09-.6s-1.58-1.62-2.58-1.66c-1.82-.08-2.94,3.53-3.51,4.82-1.1,2.41-2.14,2.77-4.7,3a22.42,22.42,0,0,0-6.69,1.81c-1.22.48-2.53.55-3.71,1.13-.9.42-1.43,1-2.49.7-.19-1.71,2.07-2.37,3.3-3.1a18.55,18.55,0,0,1,6-2.16c1.91-.43,4.51-1,5.56-3s-.71-2.75-1.68-4.17c-1.31-1.91-3.44-4.34-3.86-6.66-.55-3.14,1.53-4.28,3.4-6.25,1.44-1.55,6.29-6.44,3.59-8.31-.73-.51-1.75-.7-2.48-1.28a8.37,8.37,0,0,1-1.52-1.83c-.64-.93-1-1.21-.72-2.31.2-.84.6-1.83.88-2.72.77-2.33,1.15-5.39-1.2-6.7a17.48,17.48,0,0,0-6.21-2.51c-1-.16-2.54.11-3.38-.54-1.13-.88.49-.88.9-1.77s-.25-1.82,1.13-1.55c.82.14,1.15,1.06,1.9,1.44,2.28,1.15,5.1-.35,7.08,1.81,1.47,1.6,3.94,4.18,3.69,6.53s-2.13,5.44-.18,7.39A11,11,0,0,0,997,713.8c1.26.44,1.91-.22,2.71-1s1.78-1.63,2-2.93.63-2.46.83-3.68c.17-1-.23-2,.33-3C1003.26,702.42,1004.08,702.08,1004.66,701.47Z"/><path class="cls-2" d="M882.69,36.7c.6-2.58-1.07-2.62-3.11-2.91-3.49-.52-6.59-2.27-5.21-6.51.51-1.53,2.9-3,2.77-4.73-.22-2.41-2.86-1.18-4.18-.83s-4.11,1.12-3.74-1.48c.18-1.35,2.65-3.2,3.37-4.36,1.07-1.7,1.45-3.93,2.5-5.63s2.71-2.49,4-3.77A21.57,21.57,0,0,0,882.9.2H620a20.07,20.07,0,0,1-.55,3.15c5.26,1.51,86.74,37.23,90.64,36.48.6-1.68.5-3.7,1.23-5.23s2.36-1.6,3.18-3.1-.11-2.73.2-4.16c.5-2.23,2.22-1.46,3.55-2.77,2.78-2.75-1.52-6,3.29-7.69,4.53-1.57,3.35,4.42-.58,4.87,1.12,1.19,2.73,1.45,3.73,2.67,1.48,1.83,2.08,2.72,2.5-.27.36-2.56,1.1-2.78,2.86-.78a7.65,7.65,0,0,0,4,2.76,5.46,5.46,0,0,1,2.12,1.35c.68.86.17,1.5.63,2.34,1.12,2,2.56.52,4.36.46,5.37-.17,1.57,5.69,3.55,7.87,1.53,1.7,3.81,1.91,2.34,5-.58,1.21-1.56,1.13-1.51,2.71s.92,1.27,1.81,2.33c1.6,1.93,0,4.35,2.18,5.74,1,.6,25.87,10.26,28,10-.25-1.8-2.92-2.74-.8-3.71,1.36-.62,4.35.07,5.55.63,5.85,2.68,45,16.43,48.34,17.88l.07.06c.76-.81,1-.17,2-.66.62-.32.85-1.13,1.61-1.45-.23,2.08.71,1.8,1.91,2.46s1.73,1.72,2.51,2.07c.82-1.72.14-4.15,1.65-5.6,1.3-1.26,3.4-.68,3.75-2.69.48-2.8-3.17-1.25-3.14-3.55,0-1.54,4.13-5,5.18-6.17.08,1.51-.53,3.16,1.48,3,1.28-.06,2.08-1.54,3-2.48a17.5,17.5,0,0,0,4.86-8c.88-2.88,3.65-4.87,3.83-8.05.28-4.5,2.36-7.29,7-7-.14,1.54-2.2,2.74-2.94,4.11-1.14,2.11-1,4.49-1.6,6.72a20,20,0,0,1-2,5.54c-1,1.65-2.63,2.7-3.55,4.41-1.93,3.6.09,7.76,4.32,5.81,2.51-1.14,9.15-4,7.65-7.7-.75-1.87-2.51-2.4-.1-4.31,1.61-1.29,3.39-.22,4.94-1.09,3.67-2.06-3.82-5.27,2.53-6.4,4.93-.89,2.17-3.87,4.38-7.28C880.8,39.06,882.28,38.48,882.69,36.7Z"/></g><g id="QUEENS"><path class="cls-3" d="M998.63,416.57l-4.71-30.86L914.45,319l-.05,0c-3.07,2-5-5.74-9-.9-2.3,2.81-2.32,7.11-3.69,10.24-.8,1.86-1.14,3.06-.2,5s2.23,3,2.55,5.19c.4,2.88-.87,1.76-2.75,3.18s-1.79,3-.63,4.58c.65.88,1,.58,1.25,1.86a10.39,10.39,0,0,1,0,3.73c-.67,2.91-2.27,2-4.16.55-3.18-2.5-5.63-5.76-8.22-8.86-3.25-3.87-6.74-7.61-8.64-12.35-2.16-5.49-3.36-11.2-5.83-16.69a14.86,14.86,0,0,0-2.86-4.68c-.5-.5-2.91-1.45-3-2.06-.2-1.5,3.18-1.62,4-2.3,1.57-1.33,1-3.41.47-5.17a22.82,22.82,0,0,0-4.1-7.76c-1.45-1.91-2.44-4.23-3.83-6.16-2-2.78-8.2-3.64-11-2-1.63,1-2.66,3-1.41,4.23,1.49,1.5,3.07.61,2.9,3.71-.49,9.62-13.33,7-19.52,5.86-2.58-.47-7.3-1.15-6.07-5,.58-1.86,2.16-1.66.89-3.79-1.48-2.48-3.71-1.55-6-2.23-2.48-.73-4.48-2.61-7-3.16-2.25-.5-4-.92-5.57,1-1.17,1.39-1.28,2.83-3.51,2.37.08-1.38.06-4.43-2.12-3.73-1.69.55-1.57,3-4,1.31-1.35-.94-1-3.09-2.65-3.74-2.36-.95-1.71,2.18-3.76,2.23-1.8.05-2.5-3-3.8-4.16a22.39,22.39,0,0,0-6-4.2c-3.77-1.56-5.5,2.05-8.11,4.46-1.05,1-4.13,3.53-4.63.82-1.48-.15-2.55,2.25-3.71,2.88s-3.71.56-2.74,2.91c.74,1.8,2.88,1.23,3.39,3.35s-1.36,3.44-2.73,4.72-3.53,2.4-4.41,4.16-.93,3.95-2.86,5.1c-2.44,1.45-3.38-.07-4.58-2.05-.7-1.15-2.63-2.9-2.72-4.24-.12-2.25,1.3-1.1,2.41-2.13s.84-2.57.14-3.92-2.1-2-2.8-3.28-.38-3.18-1.58-4.44c-2.93-3.13-4.49.15-5.5,2.68-.41,1-.91,2.71-2.28,2.91-1.91.27-1.38-1.6-2.66-2.48-1.34,1.13-2,2.91-3.54,3.78a13.3,13.3,0,0,1-4.58,1.25c-2.91.28-2.94-1.25-5.18-2.35a2.83,2.83,0,0,0-4.18,1.77c-1.59,4.52,3.72,5.92,4,9.53.13,2-1,2.8-2.49,3.68a57,57,0,0,1-5.21,3.13c-1.5.66-4,.55-4.8,2.35-.9,2.09.85,3.89,2.14,5.14S721,318,723,318.39c2.51.45,4.52-1.46,7.28-1,6.06.91.49,5.57,2.23,8.83.75,1.38,2.68,1.65,3.35,3,1.21,2.49-.87,4.84-1.95,6.87a16.23,16.23,0,0,1-1.35,2.74c-.9,1.12-1.69,1-1.72,2.67s1.39,5,2.1,6.66a8.63,8.63,0,0,0,4.67,4.77c2.11,1.09,4.24,2.85,6.57,3.43,1.18.28,2.83-.28,3.3,1.18.58,1.83-2.91,5-4.2,6-3.69,2.58-8.05,3.78-11.75,6.34-5.29,3.68-11.45-1.44-15.58-4.84-2.41-2-8.56-7-7.92-11.09a3.45,3.45,0,0,1-.28-.26,3.08,3.08,0,0,0,.27.25,3.79,3.79,0,0,1,.82-1.81,17.63,17.63,0,0,1,5-3.28,4.72,4.72,0,0,1,4.68.85c1.4,1.05,2.15,3.36,3.37,4.1.63.38,1.62.81,1.84-.42.12-.63-1.07-1.7-1.45-2.28-1-1.53-2-2.9-3.09-4.38-1.52-2.22.22-1.75,1.22-3.78,2.39-4.88-6.31-6.57-9.27-8.9-2.3-1.8-4.26-4-6.71-5.66a85.91,85.91,0,0,0-9.07-5.16c-4.41-2.31-8.2-4.61-13.2-2.5a30.28,30.28,0,0,1-9.35,2.08c-2.3.24-4.41-.11-5,2.3-1,4,5.26,9.6,0,11.82a20,20,0,0,1-5.66,1.41h0a7.22,7.22,0,0,1-2.53-.18l-.06.11-4.74.77h0l4.72-.76,0-.12a3.21,3.21,0,0,1-2.37-1.86c-.43-1.05,0-3.11.12-4.53l-4.09-5.28h0l4.09,5.3c0-.24,0-.45.06-.64.09-2.36,1.14-1.74,1.87-3.52,1-2.4-2.08-3.67-3.53-4.65a25.78,25.78,0,0,1-4.59-4.14c-3-3.13-6.89-.7-10.17,1.13-2.16,1.2-1.74,1.85-2.15,4.11-.28,1.68-1.55,4-3.27,2.5-2.8-2.36,1.51-9.09,3.72-10.45,3.18-1.95,8.71-1.08,10.79-4.73,1.64-2.83-.4-4.26-2.7-5.48s-4.4-2.68-6.6-3.94-5.68-1-4,2.18c.61,1.14,2.13,1.32,1.51,2.86-.68,1.74-2.09.79-3-.19-2-2.22-2.4-4.83-4.79-6.88-1.91-1.61-5.21-3.94-7.21-2.06-1,.93-1.59,2.88-2.57,4a14.5,14.5,0,0,1-4,3.13,9.74,9.74,0,0,0-4.09,3.27c-1,1.64-1.19,3.7-2.15,5.41-3.22,5.88-9.88,8.81-15.52,12.37l-1.12.73c-2.49,1.68-5.81,5.66-8.8,2.35-1.37-1.5-6.2-8-7.42-2.75-.5,2.1.35,3.45-1,5.39-.91,1.27-2.51,2.18-3.09,3.6a6,6,0,0,0-.54,2.21c-.15,3.13,3,4.26,5.54,6.23,4.89,3.69-8.27,7.17-10.3,9.13-4.21,4.08-6.38,9.72-9.36,14.67-1.41,2.34-3.36,4.07-4.91,6.19-1.33,1.8-1.58,4.23-2.73,6.14-1.58,2.61-3.32,5.19-4.79,7.89a54.88,54.88,0,0,1-5.09,8.51c-1.72,2.09-4,3.54-5.51,5.82-2.88,4.31-5.8,9.9-6.26,15.08-.22,2.44-.4,5.24-.42,8,1.47-.13,3.3-1.56,4.58-2.08a23.25,23.25,0,0,0,5.31-2.46c3.81-2.63,8.24-4.31,12.8-2.58,3.84,1.45,7.42,4.07,11,6.1a27.13,27.13,0,0,1,4.41,2.91c1.43,1.21,2.26,3.29,3.21,4.87a72.35,72.35,0,0,0,5,8.19,7.28,7.28,0,0,0,3.36,2.22,23.18,23.18,0,0,0,5.18,1.78,33.59,33.59,0,0,1,4.11.58,11.08,11.08,0,0,1,5.61,4c3.09,3.95,4.42,9.07,5.71,13.83.16.6.31,1.21.48,1.82a6,6,0,0,1,0,2.82c-.22,1.57.51,1.39,1.49,2a2,2,0,0,1,.44,2.66c-.81,1.11-2.62.71-3.39,1.78a2.62,2.62,0,0,0,0,2.6c.56.75,1.69.85,2.29,1.54a30.45,30.45,0,0,0,1.78,2.53c.63.62,1.7,1.1,2.1,1.93s-.12,2,.18,2.95,1.75,1.06,1.88,1.87c.18,1.09-1.68,1.14-2.39,1.42-1.39.57-.85,1.3.31,1.95a47.74,47.74,0,0,1,4.64,3.41c.72.52,1.32,1.07,2,1.64,1,.83,2,.46,3,.94a13.43,13.43,0,0,1,2.28,2.07,20.8,20.8,0,0,1,2.42,3c1.33,1.76,1.86,1.38,3.86,1.48.45,1.74-2.83,1.38-3.53,2-1.12,1,.83,1.76,1.65,1.91s1.91-.07,2.61.43a4.24,4.24,0,0,1,1.25,1.85c0,.85-1.56,1.11-2.22,1.64-.48.39-1.83,1.08-1.66,1.62.36,1.13,3.86,1.39,4.83,1.77,1.36.52,2,1.59,3,2.57,1.82,1.78,4.41,2.78,6.18,4.58s-3.71,2.41-3.16,4.86c1.18.65,2.56.88,3.76,1.58,1,.56,1.93,1,2.88,1.58a11.19,11.19,0,0,1,2.11,1.83c1.27,1.25.22.78-.63,1.6s0,1.91.71,2.48c1,.77,1.24.88,1.56,2.08s.31,1.16-.45,2.06-.75,1.31.16,1.91c.45.28,1.25.35,1.56.78s.09.92.21,1.35a10.77,10.77,0,0,0,1.53,3.26c.78,1.1,2,1.85,2.71,3,.63.91,1,1.91,1.58,2.79,1.8.2,1.71-2.77,2.17-3.82.28-.66.88-.91,1.34-1.46s.55-1.47,1.23-1.56a24.24,24.24,0,0,0,1.68,4.17c.31.57.41,1.22,1.12.95s1.38-1.87,2.12-2.33a17.87,17.87,0,0,1,3.09-1.3c1.49-.59,1.73-1.68,2.68-2.82a17.18,17.18,0,0,1,4.16-3.27,26.83,26.83,0,0,0,3.76-3.1,34.71,34.71,0,0,1,3.13-2.28c2.22-1.62,3.45-3.9,5.33-5.84a27,27,0,0,1,4.94-3.83c2.1-1.35,4.78-1.87,7.11-2.64,1.18-.39,2.71-1.36,4-1.33,1.93,0,1.76,1.72,1.76,3.24a36.58,36.58,0,0,0,.17,5.23c.33,2.24,1.3,4.39,1.78,6.63.58,2.63.73,5.31,1.48,7.93a44.76,44.76,0,0,1,1.12,6.92,4.76,4.76,0,0,0,.46,1.85c.4.53.37.4,1.1.46,1.1.1,1.91-.25,2.49.93a6.75,6.75,0,0,1,.23,2.91c0,1.47.29,1.13,1.35,1.58,2.2.91,2.08,4.38,2.2,6.35a11.31,11.31,0,0,0,1,4.33,19.4,19.4,0,0,1,1.21,5.94c.12,1.23.67,4,2.23,2.14.54-.61.89-1.93,1.6-2.31,1.15-.62,1.38.79,1.43,1.73.05,1.2-.45,2.09-.43,3.22a7.87,7.87,0,0,0,1,3.08A27.67,27.67,0,0,1,720.9,587a14.53,14.53,0,0,1,.41,3.29c.19,1.69,2.78,5.07,1.7,6.61a3.71,3.71,0,0,1-3.06.8c-.87-.3-1.08-1.5-2.05-1.23a4.41,4.41,0,0,0-1.72,1.85c-.39,1.32,1,1.63,1.89,2.29,1.43,1.09,2.17,3.49.09,4.35-.9.36-1.21,0-2.07-.09a3.06,3.06,0,0,0-2.31.83c-.73.55-1.26,1.47-2.06,1.9s-2.05.43-3,.83c-.48.2-1.81.91-1.56,1.62s1.88.83,2.38,1.09c1.61.85.7,2.37,1.21,3.7,4.23.7,8.36,5.69,10.67,8.75,1.42,1.83,1.86,3.64,4,4.86,1.11.63,1.83,1.1,2.91.23.86-.68,1.33-2.1,2.36-2.63,1.41-.76,2.15,0,2.5,1.4.45,1.81-.32,2.36-1.78,3.21-2.4,1.4-4.46,2.9-2.87,5.83a27.21,27.21,0,0,0,5.26,6.24c2.38,2.22,4.53.26,7-.65,1.72-.63,3.69-1.61,5.58-1.56,1.71,0,2.49,1.45,3.51,2.6.48.55.91,1.33,1.76,1.28,1.07-.06,1.05-.92,1.4-1.8a6.65,6.65,0,0,1,1.34-2.4c.84-.85,1.09-.83,1.4-1.93a7.45,7.45,0,0,0,.17-3.54c-.52-2.33-.58-4.68-1.18-7.06A127.22,127.22,0,0,1,752,613.07c-.35-2.51-.69-5.06-1.14-7.56-.24-1.31-.6-3.24-.14-4.54.53-1.53,1.83-1.6,2.08,0,.19,1.23-.41,2.63-.53,3.84a33.7,33.7,0,0,0,0,5.41,6.67,6.67,0,0,0,1.28,3.08,29.67,29.67,0,0,1,2.2,6.39,61.25,61.25,0,0,1,1.23,7.21c.41,2.27.57,5.21,2.65,6.4a5.18,5.18,0,0,0,3.45.5c.44-.08,1-.43,1.41-.53s1.15,0,1.66-.13a1.78,1.78,0,0,0,1.25-2.37c-.65-2.29-1.5-.15-2.22.57-1.32,1.33-6.82.83-4.56-1.35,2.06-2,4.49-.1,4.69-3.74s-1.29-6.93-2.19-10.46a14.44,14.44,0,0,1-.72-4.61c.06-1.23.75-3.52,1.68-1.63,1.11,2.25,0,5.53,1,8,.85,2.24,1.87,4.5,2.61,6.85a8.92,8.92,0,0,0,2.53,3.54l.24-.23c1.11-1.55,2.36-2.86,2.28-4.91-.12-3.71-1.87-7.49-2.8-11.08-.26-1-.51-1.94-.78-2.92.28,1,.54,2,.8,3,.93,3.59,2.68,7.34,2.8,11.06.08,2-1.17,3.34-2.28,4.89l-.24.23a15.48,15.48,0,0,1,1.49,1.71,12.13,12.13,0,0,0,2.11,2.63c1.46,1.14,2.14.6,2.85-.83.31-.65.29-1.18,1.14-1.25,1.07-.08.65.34,1,1,.52,1.08.52,2.33,2,1.15,2.38-2,.41-4.63-.6-7.14a23.06,23.06,0,0,1-.83-15.12,45.93,45.93,0,0,1,3.15-7c.94-1.81,2-1.83,3.9-2l.1-3.87h0l-.11,3.87c.32,1.37-.82,1.67-1.66,2.46a12.62,12.62,0,0,0-2.3,3.6c-1.49,2.81-2.53,4.73-2.53,8,0,5.36,2.1,11.67,5.83,15.51a60.72,60.72,0,0,0,9.46,7.9c3.23,2.2,6.21,4.74,9.45,6.94s6.86,3.71,10.19,5.69c10.48,6.23,20.6,13.05,31.27,18.92,5.47,3,11.13,5.77,16.11,9.59,1.85,1.42,3.74,2.53,5.61,3.91,1.31,1,3.76,2.9,3.36,4.84-.28,1.28-1.52,2.43-2,3.73a9.57,9.57,0,0,0-.41,3.1c0,2.46-.17,3.94-1.8,5.89-1,1.21-2.42,2.11-3.07,3.58-.73,1.66.64,2.11,2.13,1.84a6.19,6.19,0,0,0,4.15-3,18.1,18.1,0,0,1,2-2.92c.23-.32.48-.64.72-1,1-1.25,1.73-2.56,2.79-3.76a23.78,23.78,0,0,0,4.67-6.89,5.22,5.22,0,0,0,.21-3c-.25-1-1-1.86-.83-2.92.13-1.37,1.56-2.07,2.58-2.89,1.23-1,2.37-2.08,3.57-3.09a48.3,48.3,0,0,1,8.84-5.53c3.46-1.76,6.77-3.8,10.34-5.37a29,29,0,0,1,5.59-1.91,5.59,5.59,0,0,0,2-.48,7.88,7.88,0,0,0,1.7-2.64,25.09,25.09,0,0,0,2-3.57c.81-2.25-.5-5.25-1-7.48-.63-3-2.48-5.47-4.48-7.71a29.71,29.71,0,0,0-4.46-3.38,21.81,21.81,0,0,1-3.85-3.83c-.36-.46-.94-.86-1.07-1.39a3.72,3.72,0,0,1,.7,0h0c2,.17,3.4,1.78,4.9,3.51,1,1.24,2.23,2.5,3.41,3.65s2.3,1.8,3.34,2.81c2.2,2.12,2.36,4.38,2.84,7.18.2,1.12.12,3.29,1.39,3.43s3.43-1.39,4.48-2.17a6.39,6.39,0,0,0,2.2-3,17.92,17.92,0,0,0,.72-6.2c0-3.4-.44-8,2.74-10.09.21-.13.43-.28.67-.4l-.82-.63a10.28,10.28,0,0,1,5.85-5.11c2.85-1.13,6.07-.75,8.95-1.85a28,28,0,0,1,5.52-1.78,7.89,7.89,0,0,0,4-1.35c.7-.53,2.08-.83,2.46-1.76.45-1.09-.36-1.58-.78-2.48a10.41,10.41,0,0,1-.75-4.34,15.42,15.42,0,0,1,0-2.63c.12-.6.47-1.06.54-1.68.16-1.48-.83-1.58-1.58-2.6s-.81-2.22-1.75-3.15a13,13,0,0,1-2.2-3.63c-.5-1.19-1-2.64-.18-3.76.69-.93,1.5-1.26,1.56-2.57.17-3.4-.41-1.09-1.18-2.57l0-21,4-7.59-1-77.4-6.66-26.94L984.37,443Zm-298-72c-.44,1.11-.46,2.18-1.83,2.28-1.13.08-2.06-.92-3-1.38a42.37,42.37,0,0,1-3.83-2.17c-1.26-.74-2-1.54-3.54-1.34a11.35,11.35,0,0,0-3.7,1.69c-3.47,1.9-6.94,4-10.27,6.11a47,47,0,0,0-4.46,3.41c-1.07.87-2.75,2.1-4.14,1.3h0c1.4.8,3.08-.43,4.14-1.3a47.51,47.51,0,0,1,4.47-3.41c3.32-2.13,6.78-4.21,10.27-6.11a11.12,11.12,0,0,1,3.69-1.69c1.57-.21,2.28.59,3.54,1.34a43.79,43.79,0,0,0,3.83,2.17c1,.46,1.9,1.46,3,1.38,1.37-.1,1.38-1.17,1.83-2.28s.88-1.34,1.59-.44C701.47,343.27,701.09,343.39,700.6,344.61Zm65,255.13a20,20,0,0,1-1.33-6.54h0c-.11,2,.64,4.31,1.33,6.54a27.45,27.45,0,0,0,1.19,3A25.26,25.26,0,0,1,765.59,599.74Zm50.93-8.39c-1.33.38-2.76.68-4.06,1.16-3.15,1.15-3.49,3-3.8,6.13-.14,1.49-.22,4.15-1.95,4.46,1.71-.33,1.79-3,1.93-4.46.32-3.1.65-5,3.8-6.12,1.3-.48,2.73-.79,4.06-1.17a11.07,11.07,0,0,1,1.27-.28A10.74,10.74,0,0,0,816.52,591.35Z"/><path class="cls-3" d="M930.84,735.62a4.41,4.41,0,0,1-1.11-.86,13,13,0,0,1-1.8-1.84,52.64,52.64,0,0,1-3.92-5.28,49.79,49.79,0,0,1-3.51-7.42,14.22,14.22,0,0,0-4.19-5.89c-1-.73-2.63.25-3.51.79a35.4,35.4,0,0,0-3.53,2c-.54.42-.95.89-1.52,1.26-1.45,1-3.06,1.83-4.56,2.68-1.81,1-2-.47-3-1.71-.53-.69-1.47-1.91-2.36-2.12l0-.05a10.91,10.91,0,0,0-4.06,2.32c-.87.87-2.43,4.52-3.83,4.52-.07,0-.21,0-.3.06-.1-1.71,3.38-4.09,1.87-5.84s-4.72-1.57-6.44-2.65-1.65-3.18-3-4.48-3.12.29-4.54.52a35.3,35.3,0,0,1-5.44,0c-2.18,0-3.42-.05-3.42,2.38a10.64,10.64,0,0,0,0,2.82c.32,1,1.67,2,2.43,2.53,1.63,1.2,4.74,2.36,5.34,4.44.52,1.72-1,2.85-1.36,4.33-.39,1.73-.35,3.66-.7,5.44-.27,1.27.41,2.12.83,3.23a14.4,14.4,0,0,1,.83,3.38c.17,1.89-.83,4.31-.13,6.1.77,2,3.56,1.72,3.34,4.34-2.27.4-2.61-2.7-4.67-1.93a20.17,20.17,0,0,0-2.39,1.34c-.94.54-1.21,1-1.78.09a33,33,0,0,1-3.4-5.83c-.38-1-.32-1.94-1.68-1.78a3.55,3.55,0,0,0-2.27,1.37c-1.41,2.19-.79,5-4,5.62-1.33.25-3.11.15-3.94-1-1-1.41-.18-2.7,1-3.57,2.43-1.78,5.69-2,7.76-4.37s2.53-5.82,4-8.64c1.14-2.11,3-5.13,1.77-7.44a7.56,7.56,0,0,0-5.36-4c-1.28-.32-2.58-.88-3.84-1.13s-2,.19-2.82,1.23a34.54,34.54,0,0,0-2.3,3.13,11.91,11.91,0,0,0-1.23,3.65c-.48,1.78-1.73,2.73-3.23,3.72-.89.6-2.82,1.25-2.09,2.62s2.26,1.58,1.55,3.53c-.57,1.58-2,2.81-3.1,4a15.66,15.66,0,0,0-2.7,3.49,29,29,0,0,1-2.14,4.06c-.75,1-1.87,1.7-2.22,2.91-.32,1.05-.32,2.33-.53,3.41-.14.61-.06,2.55-.54,3-.93.9-.91-1.83-.91-2.49a6.67,6.67,0,0,1,.41-3.24,6.87,6.87,0,0,0,.94-2.39,16.6,16.6,0,0,1,.11-3c.63-1.91,2.64-4.11,4-5.52s2.73-2.42,2-4.82c-.32-1-1.5-2.29-2.68-1.94s-.95,1.55-1.35,2.51c-1.15,2.78-3.78,4.27-6.16,5.91a40.18,40.18,0,0,1-4.79,2.58,8.2,8.2,0,0,1-3.9,1,24.42,24.42,0,0,1-4.61-.29c-1.16-.23-2.18-.75-3.34-1.08-1.82-.5-5-.91-5.58,1.39-.73,2.62-1,5,.29,7.53.74,1.42,1.71,2.72,2.49,4.11.54.93,1.66,2.6,1.45,3.71-1.76.4-3.46-3.56-4-4.87-.79-1.9-2-3-4.19-2.27-1.67.6-3.05,3.65-1.77,5.18.75.9,2.51,1.35,3.49,2a7.1,7.1,0,0,1,2.11,1.78c.87,1.35-.27,1.38-1.33.8-.8-.45-1.43-1.12-2.18-1.63-1.78-1.25-3.36-3.35-5.71-2.33-2,.88-2.68,3.18-4.38,4.46-1,.76-2.47,1.23-3.61,1.9a48.45,48.45,0,0,0-4.16,2.77,76.09,76.09,0,0,0-6.56,5c-.22.18-.6.79-.87.91-.91.37-.38-.2-1.13-.58-1-.52-2.18,0-3,.6a20.58,20.58,0,0,1-6.06,2.45,53.71,53.71,0,0,0-8.62,3.79c-2.76,1.35-5.67,2.35-8.49,3.51a32.15,32.15,0,0,1-8.42,2c-2.93.33-5.71.81-8.67.37s-5.4-2.79-8.64-1.74a18.72,18.72,0,0,0-6,3.84,80.57,80.57,0,0,1-7.31,5.35c-6.89,4.77-13.69,9.7-20.67,14.4-2.52,1.71-5,3.21-7.67,4.79-1.81,1.1-3.73,2.06-5.64,3-2.11,1-5.38,2.53-7.47,1a2.37,2.37,0,0,0-2.55-.48c-1.18.38-1.5,1.5-2.47,2.06-1.46.83-1.26-1-1.76-1.88-.74-1.25-1.42-.52-2.4.08-1.57.94-3.11,2.37-5,2.62-2.49.34-3.6-2.3-5.82-2.91s-3.68,2.34-5,3.74c-1.63,1.65-2.81,3.67-4.43,5.39-1.2,1.29-3.79,3.28-5.72,3-1.1-.2-1.72-1-3-.85-1,.1-1.17.57-2,1a8.46,8.46,0,0,1-6.76-.08c-2.13-1-3.83-2.81-6-3.63-1.66-.6-2.93.63-4.29,1.5-1.74,1.08-3.43,2.21-5.26,3.13-2.47,1.23-4.83,3.12-7.59,3.57a2.83,2.83,0,0,1-1.5,0c-.49-.22-.53-.77-1-.85-.87-.17-1.72.87-2.72.83s-1.31-.83-2.16-1-1.81.67-2.49,1.05c-2.84,1.52-5.23,3-8.53,3.46a54.1,54.1,0,0,0-9.54,2.37c-5.6,1.91-4.61,9.85-4.62,14.56,0,2.61,1.31,5.38,2.48,7.7.37.74,1.1,2.34,1.86,2.73,1.42.73,2.38-.62,3.4-1.33,1.86-1.33,4.32-1.66,6.46-2.39,3.29-1.13,6.65-2.58,9.83-4a83.23,83.23,0,0,1,10.12-3.86c3.55-1.1,7.24-1.13,10.8-2.06,5.92-1.53,12.07-2.4,18-4.15,1.43-.41,2.88-1.45,4.27-1.76,2.06-.49,2.09,3.64,4.68,2.91.83-.24,1.58-1.07,2.4-1.43,1.25-.57,2.54-1,3.76-1.65a56.2,56.2,0,0,1,11.13-4.44c4.88-1.39,9.76-3,14.69-4.15a86.36,86.36,0,0,0,21.16-8.7c3-1.65,5.75-4,8.91-5.2.66-.25,1.83-.91,2.54-.45s.4,1.24,1.35,1.39,1.1-.54,1.68-1.14c1.92-2,5.08-2.68,7.57-3.77a133.53,133.53,0,0,0,12.49-6.68c6.38-3.66,12.92-7,19.48-10.32l10-5.09a37.06,37.06,0,0,1,7-2.9c2.35-.66,4.73-1.26,7.06-2,4-1.25,7.92-2.76,11.85-4.15,3.45-1.2,7-1.9,10.54-3,4.62-1.44,9.28-2.84,14-4,4.27-1,8.07-3.43,12.46-4.15,3.48-.56,6.76-1.68,10.21-2.28,2.43-.41,4.69-1.36,7.07-2a30.89,30.89,0,0,0,6.64-2.3c2.05-1.08,4.73-1.24,7-1.93,2.88-.86,5.73-1.35,8.66-2,3.43-.75,8.37-3.28,11.83-1.41a24.11,24.11,0,0,0,10.39,2.76c2,.12,4,0,6,0a25.09,25.09,0,0,0,5.42-.2c4.38-1.05,8.14-3.67,11.73-6.26a45.62,45.62,0,0,1,5-3.58c1.48-.79,3.51-2.43,5.21-2.53,1.29-.07,2.44,1.21,3.49,2.06l7.72.4-.1-22.2C931.83,735.68,931.13,735.72,930.84,735.62Z"/><path class="cls-3" d="M829.17,697.27a16.94,16.94,0,0,0-3.3,4.88c-.87,2.08-1.85,4.07-2.9,6.07-.64,1.21-1.72,2.55-2.55,3.95a6.55,6.55,0,0,0-1.13,3.48c.1,3.63,6.75,1.73,9,2.29,1.52.37,3.11,2.15,4.17,3.18a5.62,5.62,0,0,1,2,4.76,8.11,8.11,0,0,0,.12,1.66,1.79,1.79,0,0,0,.83,1.29c1.42.68,2.7-1.47,3.26-2.35,2.1-3.28,6.13-5.06,9.11-7.49,2.71-2.23,5.46-4.26,8.22-6.4.87-.67,1.74-1.19,1.86-2.29.15-1.41-1.34-2.68-2.29-3.58a24.11,24.11,0,0,1-4.4-5c-.85-1.37-1.58-2.82-2.36-4.25a20.54,20.54,0,0,0-2.2-3.76c-.63-.75-1.43-1.41-2.08-2.13s-1.12-1.55-2.05-1.81a6.09,6.09,0,0,1-2.82-1.11c-1.38-1.13-4.31-3.25-5.07-.23-.67,2.68,3.75,2.61,3.4,4.34a3.55,3.55,0,0,1-3.75-.88c-.37-.48-.59-2.27-1.31-2.37-.88-.11-.48.82-.53,1.28a8.15,8.15,0,0,1-.83,2.48A15.83,15.83,0,0,1,829.17,697.27Z"/><path class="cls-3" d="M829.27,724a10.82,10.82,0,0,0-7.09-3.26,6.32,6.32,0,0,0-3.73,1.56c-1.89,1.38-4.21,3-5,5.26a4.78,4.78,0,0,0-.27,2.08,8.21,8.21,0,0,0,5.19,6.59c1.35.5,2.69,1.62,4.16,1.55s2.78-1,4.11-1.45c1.7-.56,3.48-.28,4.53-1.93a7.67,7.67,0,0,0,1.56-4.72,4.77,4.77,0,0,0-.41-1.61A13.28,13.28,0,0,0,829.27,724Z"/><path class="cls-3" d="M828,679.94a31.51,31.51,0,0,0-3.1-1.62c-2-1-4.46-1.6-6.57-.45-2.61,1.4-3.71,4-5.52,6.14-1.63,2-4.4,2.52-5.72,4.66-1.48,2.39-.68,4.48.66,6.74a26.45,26.45,0,0,1,1.94,3.07,19.75,19.75,0,0,1,.73,3.26c.53,2,2.5,3.08,3.06,5a14.05,14.05,0,0,1,.6,4.23c0,1.14-.13,3.24,1.56,3,1-.13,1.65-1.08,2.1-2.09a11.9,11.9,0,0,0,.6-1.72,82.27,82.27,0,0,0,2.3-9.6c.25-1.52.5-2.67-.63-3.82-.6-.62-1.54-1.13-1.34-2.1,1.95-.39,2.4,2.07,3.5,3,.72.64.76.45.87-.53s-.11-1.68,0-2.53c.14-1.5.11-2.68,1.24-3.81.62-.62,2.35-1.76,2.26-2.72-1.18-.25-3.36.17-4.31-.63-1.26-1.08.9-1.91,1.83-2.08s2.2,0,3.1-.76c.69-.59.87-1.55,1.58-2.23.38-.39.86-.32.83-1S828.51,680.24,828,679.94Z"/><path class="cls-3" d="M802.38,688.32c1.31-2.05.83-3.71-.25-5.84-1.2-2.4-.68-5.34-1.86-7.72-.84-1.69-2.39-3.08-3.32-4.72-.79-1.36-3-3.19-4.54-2.12-1.27.81-1.3,3-1.42,4.33-.07,1-.3,2.9.13,3.83l.19.32c.47.7,1.35,1.23,1.8,1.88a4.55,4.55,0,0,0,1.53,1.7c.78.43,2,.45,2.22,1.53.46,2.15-4.4-.57-3.57,2,.35,1.06,1.74,2,2.22,3a4.05,4.05,0,0,1,.48,2c-.12.83-.56.75-1.22,1.16-.29.93,1,1.5,1.43,2.17a25.82,25.82,0,0,0,1.12,2.4,11.91,11.91,0,0,1,1.93,3.1c.5,1.43.88,2.88,1.31,4.33.55,1.8,1.61,4.53,3.45,5.43,1.11.57,1.91-.17,1.86-1.31,0-1-.7-1.43-1.31-2.12-2.06-2.26-2.75-4.95-3.18-7.9-.38-2.59-.89-4.76.75-7C802.21,688.57,802.31,688.45,802.38,688.32Z"/><path class="cls-3" d="M800,732h-.33c-.9.1-1.37,1.1-1.95,1.68-1.08,1-2.62,1.7-3.51,2.93a3.06,3.06,0,0,0-.6,1.5c-.38,2.75,2.4,6.12,3.63,8,1.12,1.68,2.49,4.68,4.94,4.38s2.13-5,2.36-7c.11-.82.81-2.7.17-3.31-1-.94-2.08.21-2.55-1.45S803,732,800,732Z"/><path class="cls-3" d="M755.53,704.27a3.55,3.55,0,0,1-1.31.11c-.9-.08-.84-.64-1.39-.82-1.16-.38-1.19.63-1.47,1.46-.39,1.1-1.36,2.3.15,3.05,1.34.66,2.31.62,3.29,1.76.81.95,1.91,1.9,2.08,3.1a18.87,18.87,0,0,1,0,2.71c.06,1.37.17,4.12,2,4.25,1.09.08,2.58-2.22,3.12-3.11.81-1.42.86-3.18,1.81-4.61,1.19-1.81,3.29-4.53,5.19-2.17,1.19,1.52,2.11,4,3.84,5,2,1.14,2.41-2.84,3.43-4.09.7.58.3,2.2.51,3.1.34,1.53,1.54,2.75,2.19,4.16s1.26,2.67,1.78,4.07c.36.92.53,2.75,1.53,3.21s2.56-.52,3.42.21c1.11,1-.39,1.85-1.26,2.16-2.34.88-4,2.66-2.3,4.94,1.46,1.9,1.12,3.89-.18,5.78-.73,1-2.7,2.68-2.28,4.08.48,1.63,3.09.78,2.91,2.59-.11,1.08-1,1.28-1.89,1.57a4.62,4.62,0,0,0-2.19,1.54c-.53.6-.87,1.35-1.65.41-.48-.59-.28-1.55-.31-2.25-1.66.2-3.35.45-5,.7a6.08,6.08,0,0,0-3.33,1.18,7.06,7.06,0,0,1-2.59,1.51c-2,.57-4.51,1-5.11,3.35-.79,3.09,3.23,3.59,5.13,4.18,1.68.5,4.77,2.43,6.51,1,.73-.63,1-2.77,2.09-2.64.88.09,1.21,2.11,1.75,2.74a2.1,2.1,0,0,0,2.59.56,19.56,19.56,0,0,0,3.6-2c1.48-1.06,2.59-2.62,4-3.76,1-.78,2.53-1.11,3.32-2.19,1.16-1.63.69-4.81.54-6.71A13.48,13.48,0,0,1,790,741c.19-1.09.6-2.13.88-3.23.08-.37.16-.74.21-1.12.19-1.21.12-2.79.65-3.91a7.92,7.92,0,0,1,2.91-3.06c1.68-1.14,4-3.15,2.3-5.48-1-1.33-3.56-.66-4.36-2-.35-.59-.13-3,.43-3.41.82-.56,1.49.29,1.63-1.17.11-1-.68-1.78-.64-2.67.11-2,3.94.33,4.19-2,.3-2.79-3.46-1.35-4.49-2.08-.62-.43-1-1.35-1.53-1.9a8.24,8.24,0,0,1-1.77-2.58,18,18,0,0,0-.72-1.84c-.26-.44-.75-.59-.62-1.17.19-1,2.64-.74,3.5-1,1.79-.45,2.48-1.81,3.05-3.41.44-1.2.89-2.06-.14-3.09a4.6,4.6,0,0,0-3.07-1.38c-1.32-.06-1.76,0-2.55.91-.5.6-1.11,1.35-1.84.77s-.52-2.48-.62-3.43a5.52,5.52,0,0,0-.85-2.2c-.21-.35-.78-.93-.85-1.3-.45-2.59,4.17.12,4.92.25s1.9.4,2.28-.51a4.89,4.89,0,0,0-.31-2.92,14.1,14.1,0,0,0-1.74-2.49,3.52,3.52,0,0,0-.74-1c-.43-.31-1.3-.19-1.47-.73-.39-1.18,1.46-1,2-1.68.85-1.08-.13-2.54-.81-3.4-1.07-1.42-1.78-2.8-3.4-3.47a5.26,5.26,0,0,1-3-2.49,8.42,8.42,0,0,1-1.14-2c0-.55.9-.85,1.35-1.1.68-.41,2.4-.7,2.83-1.33.62-.87-.35-1.85-.91-2.4a17,17,0,0,1-1.67-2c-.67-.84-1.58-1.48-2.21-2.4a7.88,7.88,0,0,1-1.06-3.62c-.15-2.15-.08-4.13-1.54-5.83a4.2,4.2,0,0,0-1.67,3.45,5.35,5.35,0,0,0,0,1.44c.14.34.71.5.83.82.43,1.2-1.85,3.56-2.72,4.28a7,7,0,0,1-3.13,1c-1.69.2-2.36-1.43-3-2.7a11.66,11.66,0,0,0-3.09-4.33c-.92-.72-1.92-2-3.2-1.71a4.79,4.79,0,0,0-2.74,2.26c-.67,1.2-.27,1.65.48,2.71a23.74,23.74,0,0,1,2.06,3.73c.65,1.39.85,2.9,1.45,4.33a9.28,9.28,0,0,1,1.12,3.49c.06,1.85-.92,2.85-1.75,4.38s-.89,4.15-2.51,5.12c-.56.36-2.07.36-2.2,1.23-.15,1.08,1.95.73,2.53,1.46a2.13,2.13,0,0,1-.45,2.7c-.8.91-1.78,1.39-2.26,2.61s-.6,2.48-.93,3.66a70,70,0,0,1-2.74,7.29c-1.07,2.61,2.37,2.73,2.4,5C757.53,703.35,756.58,704,755.53,704.27Z"/><path class="cls-3" d="M803.48,731a2,2,0,0,0,2.74.74c.31-.25.38-.75.67-1.07a6.43,6.43,0,0,1,1.2-.8,4.61,4.61,0,0,0,1.76-2.61c.6-1.93-.51-2.8-2.32-2.81v-.05c-1.41.46-3,3.17-3.55,4.2A3.66,3.66,0,0,0,803.48,731Z"/><path class="cls-3" d="M759.26,735.14c.87-.49.94-.89,2-.89a18.65,18.65,0,0,0,2.9-.06,4.28,4.28,0,0,0,2.23-.91c.62-.47,1.44-.72,2-1.19s.57-1,1.28-.53.67,1.83,1.38,2.43,1.54-.07,2.2-.4a32.2,32.2,0,0,0,3.51-1.42c.93-.6,1.48-1.24,1.08-2.28-.33-.86-.66-1.76-1.06-2.65a25.13,25.13,0,0,0-1.38-3c-.48-.86-1.17-1.5-1.67-2.33-.35-.61-1-2.43-1.86-1.91-.72.41-.7,1.76-.7,2.44,0,1.79,1.18,4.75-.62,6-1.08.76-1.88,0-2.36-1-.23-.5-.28-1-.47-1.55a5.49,5.49,0,0,0-.83-1.22,4.88,4.88,0,0,1-.46-1.38,7.73,7.73,0,0,0-1.48-3c-.87-1-1.18-.13-1.61.78s-1.13,1.25-1.75,2a9.76,9.76,0,0,0-1.65,3,2.82,2.82,0,0,1-1.86,2.11c-.5.23-1.52.69-1.17,1.46.14.31.62.26.8.45.35.33.29.67.29,1.13C758.07,732.28,757,736.41,759.26,735.14Z"/><path class="cls-3" d="M745.55,755.88a12.88,12.88,0,0,0-5.85,5.91c-1.35,2.4,2.76,6.1,5.22,5.64.7-.13.9-1.28,1.56-1.74a19.15,19.15,0,0,1,1.89-.87c.88-.48,1.29-.62,1.33-1.65,0-.75-.55-1.86-.08-2.58a1.85,1.85,0,0,1,2.86,0c.95,1.1.51,2.93.15,4.15a4.79,4.79,0,0,0,.28,3.62c.68,1.92.8,4.48,3.3,4.53s4.59-.08,6.47-2c2.12-2.14,4.81-3.73,4.61-7.05s-5.46-3.39-7.63-4.75c-2.67-1.68-3.44-5.62-6.41-6.84a2.54,2.54,0,0,0-3,.56A21.2,21.2,0,0,1,745.55,755.88Z"/></g><g id="The_Bronx" data-name="The Bronx"><path class="cls-4" d="M848.54,169.35c.93-1.9,7-.4,4.67-3.71-.68-1-2.43-1.19-3.36-1.8a3.72,3.72,0,0,1-1.63-3c-.25-1.86.11-4.19-.67-5.94-.65-1.47-2.13-1.95-3.51-2.5a7.53,7.53,0,0,1-4.26-4,21.79,21.79,0,0,1-1.68-5.62c-.2-1.62.2-3.2-.31-4.71-1.25-3.71-4.73-1.62-6,1-1.49,3,.21,5.79,1.91,8.18,1.35,1.9,4.23,5,4,7.46-.11,1.3-1.39,2.4-2,3.56a10.66,10.66,0,0,1-2.12,3.18c-2.34,2.36-.37,3.63,1.08,6,.9,1.5,1.82,3.08,2.57,4.66,1,2.15,1.14,4.48,2.24,6.58.9,1.69,2.26,2.51,3.55,3.86,1.08,1.1,1.49,2.66,2.12,4,1,2.35,3.24,7,5.43,2.31.69-1.39,1-2.91,2.08-4.12.78-.92,1.64-1.35,1.9-2.64.49-2.56-1.48-5.19-3-7.07C850.39,173.57,847.26,171.86,848.54,169.35Z"/><path class="cls-4" d="M829.49,256c-3.23-1.62-5.83-4.08-9.37-4.86s-8-2.63-9.72-6.28c-.74-1.51-.31-3.11-1.3-4.74-.85-1.35-2.44-2.81-2.47-4.54,4.65-.37,3.9,4.66,5.79,7.67,2.53,4,5.36.29,8.16-1.4,3.44-2.08,5.94-4.29.81-6.65-3.52-1.62-9.1-2.57-11-6.11-2.23-4.05-1.48-8.94-3.6-12.89-.77-1.44-1.73-3.39-3.68-3.12s-2.62,2.78-3.74,3.91-3,2.56-4.33,1.51c-1-.78-1.31-4.71-.73-5.84.68-1.3,3.1-1.3,3.57-2.68.68-2-3.23-3.93-4.28-5.31a15.23,15.23,0,0,1-2.57-7.24c-.47-3.32-1.4-8-.62-11.4.54-2.31,1.9-1.4,3.18-2.84,1.1-1.25.45-3-.06-4.26a9.52,9.52,0,0,0-1.2-2.3c-.76-1-2.27-2.36-3.16-3.28-.75-.76-1.79-1-2.63-1.66,3.69-3,5.41,4.81,8.25,3.09,3.63-2.21-1.62-6.84-3.24-8.1a7,7,0,0,1-1.81-1.65c-.69-1.17,0-1.46-.2-2.5s0-1-.83-1.83c-.37-.36-2.34-.3-1.81-1.3s4,.67,4.4-1.81c.23-1.35-1.9-1.5-3-2.58-1.93-2-1.13-2.73,0-4.54.87-1.5,1.45-2.73,0-4s-3.19-.5-2.92-3.26a5.84,5.84,0,0,1,3.38-4.33c2.21-1.08,3.61-.4,3.89-3.11.23-2.1-.53-3.95-2.53-4.6-1.71-.53-4.67-.45-5.52,1.22-.64,1.2-.17,4.54-3,3.31-3.25-1.42,4.27-5.34,3.54-8.11-.41-1.63-2.51-2.16-2.91-4s-.11-4.08-.21-5.82c-.25-4.08-3.25-5.48-4.63-9.09-1.78-4.66-3.06-9.45-.62-14,1.91-3.53,4.28-6.24,4.81-10.2.32-2.26-.53-9,1.85-10.15,5.51,7-1.38,13.06-2.41,19.77-.37,2.38.53,2.91,2,4.54,1.31,1.45,2.1,2.65-.33,3.33-2,.57-3.07,0-3.84,2.43a6.19,6.19,0,0,0,1,4.84c.58,1,2,3.37,3.11,3.72,2.26.68,1.75-2.13,3.66-1.82,0,3.6,2.57-.15,3.15-.64,2.07-1.72,2.63.54,2,2.44-.19.67-.9,1.22-1,1.92-.13,1,.62,1.73.41,2.71-.26,1.36-2.47,2.08-2.29,3.54.22,1.68,2.73,1.33,3.13,3.11.29,1.37-.95,3.9,1.83,3.08.69-.2.38-1.2,1.49-1.41s1.58.36,2.29,1.08c1.22,1.28,1.8,3.41,2.74,4.94s2.11,2.78,3.05,4.23c.61,1,2.27,4.18,3.15,1.81.55-1.48-1.1-3.34-.2-5s3.25-2.72,4.17-.59-.84,4-1.47,5.61a18.73,18.73,0,0,0-.83,5.61c0,2.08.88,3.4,1.61,5.21s.88,3.46,1.67,5.05c1.6,3.24,4.46,5.17,6.24,8.1.72,1.17,1.07,3.95,2.55,2.05.94-1.22.61-4,1.39-5.46s2.4-2.51,2.78-4.33c.48-2.29-1-2.89-2-4.41-3.13-4.39,1.58-5.67,4.53-7.87s2.5-5.28,4.41-8.09c1.3-1.9,2.51-2.33,2.66-4.81.13-2.16.25-4.27.42-6.4.31-4.07.23-8.34,4.56-9.81,3.16-1.08,8-2.13,9.17-5.62.4-1.22.56-4.5-1.25-4.55s-2,3.83-4.16,2.85c-.85-.36-.84-3.53-1.25-4.41s-1.35-.3-.85-1.83c.18-.55,1.86-1.48,2.31-1.83,2.69-2,5.56-5.29,2.49-8.57-1.71-1.83-3.48-1.23-5.61-1.66-2.33-.47-1.41-2.32-3.33-2.92-2.45-.76-7.75,4.88-7.07,7.28.28,1,1.33.61,1.66,1.3.67,1.34-.31,1.44-.85,2.46-1,1.83-.65,3-1,5-.41,2.2-1.63,1.75-3.26,3a14,14,0,0,0-3.81,4.91c-2,3.56-3.45,8.14-6.08,11.25-3.06,3.59-5.89-1.68-7.37-4.2s-5.67-5.17-5.44-8.23c3.51-.12,4.66,6.1,7.65,6.22,2.24.09,1.51-2.58,1.3-4-.06-.47-.55-1.93-.1-2.3,1.1-.91,1,.72,1.52,1,3.63,2.43,4.23-4.21,5.41-6.64,1-2,2.49-1.56,4.11-3s.81-3.13,1.08-5.16,2.1-2.88,2.51-5-.18-3.15,1.23-5A12,12,0,0,0,829.75,81c.33-.72.23-1.6.73-2.18a.48.48,0,0,1,.12-.1l-.06-.07c-3.33-1.45-42.49-15.19-48.34-17.87-1.2-.57-4.19-1.25-5.56-.63-2.11,1,.55,1.91.8,3.71-2.13.26-27-9.39-28-10-2.23-1.4-.58-3.81-2.18-5.74-.88-1.07-1.76-.71-1.81-2.33s.93-1.5,1.52-2.71c1.46-3.08-.82-3.3-2.35-5-2-2.18,1.83-8-3.55-7.87-1.79.07-3.24,1.57-4.36-.45-.46-.85,0-1.48-.63-2.34A5.21,5.21,0,0,0,734,26.11a7.71,7.71,0,0,1-4-2.76c-1.76-2-2.49-1.79-2.86.78-.42,3-1,2.1-2.49.26-1-1.21-2.62-1.48-3.73-2.66,3.92-.45,5.1-6.44.58-4.88-4.81,1.65-.52,4.95-3.3,7.69-1.33,1.32-3.05.54-3.55,2.77-.31,1.43.55,2.78-.2,4.16s-2.46,1.6-3.17,3.08-.63,3.52-1.23,5.21c-3.9.75-85.39-35-90.65-36.54-.25,1-.5,2.1-.64,3.12-.61,4.23-.44,8.49-1.22,12.71-.71,3.93-2.28,7.61-3.36,11.42-1.23,4.34-2,9.25-3.58,13.38-2.93,7.53-6.18,14.72-8.34,22.59-1.18,4.31-2.46,8.72-3.89,13-.63,1.81-1.81,3.78-1.67,5.76.18,2.61,2.31,3.43,4.1,5a31.2,31.2,0,0,1,3.44,4.11,9.34,9.34,0,0,0,4.89,3.12c2.09.45,3.6.18,5.86.66a19.58,19.58,0,0,1,6.89,3.37c6.74,5.47,1.58,14.77-1.38,20.68a102.94,102.94,0,0,1-14.92,22.05c-4.15,4.67-7.69,9.14-10.37,14.93-1.58,3.43-2.73,7.33-4.76,10.51-1.46,2.29-3.07,4.34-4,6.9a21.44,21.44,0,0,0-.89,3.13c-.68,3.2-.93,6.56-1.91,9.67a80.21,80.21,0,0,0-2.8,10.42c-.78,4.39.62,7.79,1.87,12,1.16,4,2.32,8.66,1.89,12.82-.37,3.63-.21,7.92-1.13,11.45a53.12,53.12,0,0,0-2.23,13.3v.15c0,4.53,3.21,7.87,5.61,11.4s4.71,6.84,7,10.08c0,0,.06.06.1.09l8.32-.73,12,11.91a2.37,2.37,0,0,1,.67-.45c1.26-.58,3.91.27,5.21.42,2.4.26,3.3,0,5-1.87a20.87,20.87,0,0,0,3.13-5.35,33.67,33.67,0,0,1,5.56-8c3.29-3.83,5.81-6.64,11.08-7.85,7.26-1.69,13,.49,17.63,6.09,1.46,1.76,2.39,4.14,4,5.76,2.07,2.09,3.16.94,5.16-1.05s3.19-3.3,6.2-2.5c2.25.6,5.45,2,6.58,4.15s.63,3.26,3.9,2.94c6.54-.62,13.31-9.3,11-16.08-.33-1-1.16-1.29-1.68-2.06a32.14,32.14,0,0,1-1.56-3.23c-.8-1.69-1.72-3.23-2.53-4.89s-1.32-3.14-3-4.11-4-1.9-6-2.91c-3.26-1.68-8.85-3.48-9.47-7.91-.35-2.63,1.74-2.1,3.13-.63,1.58,1.68,2.53,3.9,4.32,5.43,3.37,2.86,8.17.81,11.35,4.52,2.78,3.27,3.29,7.93,8.32,9.06,2.21.48,4.6-.27,6.66-.88,1.16-.37,4.49-2.09,5.66-1.12s.23,4.41.11,5.64c-.26,2.82-.43,4.95,1,7.32,1.11,1.82,1.91,4.32,3.32,5.81,1.7,1.84,3.87,1,6.15.17,3-1.08,11.3-1.43,11.18-5.77-.07-1.9-2-3.93-3.34-5.21-1.09-1-3.9-2.38-4.2-4-.4-1.93,2.2-2.59,1.72-4.79-.36-1.61-2.36-2.93-3.76-3.74-1.95-1.15-4.07-1.58-5.61-3.36-.8-.95-3-4.53-.62-4.53,1.78,0,2.09,3.67,3.33,4.72s3.4.92,5,1.45c2.43.85,4.56,7.26,7.31,6.31,1.35-.48,2.26-4.59,2.49-5.83a16.31,16.31,0,0,1,2.43-6.89c2.26-3.37,7.59-5,6.51-9.8-.42-1.91-1.6-3.59-2-5.59s-1.12-4.25-1.52-6.43c-.13-.73-1.75-7.72-.63-8.3s3.34,4.09,3.71,5.08c1.52,4,3.11,8.7,3.16,13,0,3.57-2,6.22-2.28,9.56-.3,3.6.4,7,.4,10.56s-.07,6.12,1.61,9.2c2.48,4.51,3.84,9.52,10.5,8.32,2.73-.48,3-3,2.67-5.66-.17-1.69-1.2-4.77-.06-6.4,1.05-1.47,3.87-1.5,5.51-1.45,2.73.08,5.5,1.44,8.14.46,2.43-.88,4.31-3.11,6.62-4.31,4.53-2.33,11.1-3.83,15.3-.53,3.73,2.93,7.09,5.84,10.89,8.58,1.55,1.14,3,2.53,5,2.87,2.51.45,4.23.41,6.66,1.71,3.34,1.78,6.17,4.51,9.55,6.19,2.93,1.45,9.09,1.77,7.36-3.18C837,257.18,832.25,257.4,829.49,256Z"/><path class="cls-4" d="M692.16,298.76a4.11,4.11,0,0,0-1.31-.78,14.54,14.54,0,0,1-3-2.7c-.86-.9-1.08-1.38-2.23-.56a2.68,2.68,0,0,0-1.06,1c-.15.36.09,1.17-.28,1.46-.61.5-.5-.73-.57-1.2a19.29,19.29,0,0,0-.38-2.53c-1.55-5.51-7.64-6.39-12.11-8.25a14.9,14.9,0,0,1-2.9-1.83,29.92,29.92,0,0,1-3-1.93,9.37,9.37,0,0,1-1.46-2c-.3-.48-.75-1.88-1.25-2.15-1-.53-1.41,1.19-1.73,1.77a5.18,5.18,0,0,1-1.71,1.68,3.41,3.41,0,0,0-1.75,2.45c-.2,1.29-.48,2.59-.68,3.91a41.28,41.28,0,0,1-.87,4.32c-.33,1.25-.85,2.42-1.19,3.65a2.15,2.15,0,0,0,.72,2.61c.82.84,1.89,1.32,2.7,2.1,1.64,1.58,1.47,4.23,3.3,5.64a7.3,7.3,0,0,0,3.58,1.27c1.81.35,3.54.71,5.32,1.23,1.62.46,3.1,1.23,4.69,1.68a14.28,14.28,0,0,0,3.58.2c2.53,0,5,.37,7.55.15a10.47,10.47,0,0,0,2.74-.52,1.86,1.86,0,0,0,1.45-1.58c.59-2.08,2.73-1.41,3.94-2.84s-.18-3.31-1-4.55C692.85,299.93,692.58,299.25,692.16,298.76Z"/><path class="cls-4" d="M648.62,283.74c-.7-.22-1.29,0-1.91-.47s-.92-1.08-1.47-1.56a1.47,1.47,0,0,0-1.22-.47c-.81,0-1,.42-1.38,1.07s-1.07.4-1.71.7c-.81.38.27,1.26.73,1.46s1.08.13,1.53.47.53,1,1.06,1.26a8,8,0,0,0,1.75.9c.89.2.89-.75,1.56-1.1s1.5-.12,1.86-.6S649.22,283.9,648.62,283.74Z"/><path class="cls-4" d="M642.34,279.22a1.57,1.57,0,0,0,1,0c.37-.18.63-.75.84-1.07a18.22,18.22,0,0,1,1.72-2,5.63,5.63,0,0,1,1.75-1.44,5.35,5.35,0,0,0,1.75-1c.4-.42.18-.94-.35-1.15a5.94,5.94,0,0,1-1.91-.77,4.61,4.61,0,0,1-1.62-1.94c-.23-.55-.36-1.15-.63-1.69a1.16,1.16,0,0,0-2,.2c-.2.5,0,.8-.45,1.23s-1.11.79-1.63,1.25a2.34,2.34,0,0,1-.91.6c-.44.12-1.12,0-1.44.38s0,.92.42,1.19a4.91,4.91,0,0,1,1.25,1.24,1.39,1.39,0,0,1,.35,1.4c-.28.78-.86.43-1.48.63s-.86.67-.46,1.1,1.55.55,2.19.87A7.12,7.12,0,0,0,642.34,279.22Z"/><path class="cls-4" d="M879.9,142.43c-3.43-2.09-4.39-5.59-6.27-9-.59-1.05-1.68-2.26-3.08-1.7-1.17.47-.9,1.9-1.63,2.81-1.1,1.37-2.28,1.35-2.4,3.3a19.57,19.57,0,0,0,.41,4.16c.18,1.22-.16,2.5.22,3.68s1.76,1.93,2.14,3.11c.44,1.4-.93,2.36-1.43,3.46-1.46,3.25,2.4,3.34,2.53,6.11.08,1.53-.77,1.56-1.23,2.78s.1,2.52,1,3.57c1.31,1.58,3.11,4.31,5.28,4.61a12,12,0,0,0,2.32,0c.21-1.23-1.39-2.06-2.16-2.78a14.07,14.07,0,0,1-2.36-3c-1.89-3.08,1.34-3,2-5.43.4-1.42-.1-2.25-.35-3.56a31,31,0,0,1-.17-4.51c-.15-2.91,1.65-4.13,4.4-4.26.82-.05,3.31.61,3.89,0C884.24,144.38,880.71,142.93,879.9,142.43Z"/></g><g id="Staten_Island" data-name="Staten Island"><path class="cls-5" d="M368.5,732.14c-2.3-1.78-4.41-4.69-6.34-6.93s-3.91-3.82-5.31-6.52c-1.28-2.49-1.43-6.06-3.16-8.29-.9-1.16-3.62-1.89-3.66-3.49s2.41-1.13,2.51-2.67-2.18-2.45-3.3-2.7-3.81,0-2.54-1.8c.71-1,2-.77,2.34-2.22.3-1.28-.61-2.71-1.35-3.65-2.29-2.94-5.35-5.8-6.69-9.43a12.27,12.27,0,0,1-.14-5.33,53.49,53.49,0,0,0,.28-7.29c0-3.23-.27-6.36-.27-9.6s.3-6.52-.13-9.67c-.55-3.89.28-8.22-1.85-11.67a6.52,6.52,0,0,0-3.57-2.73c-.84-.25-3.05.25-3.65-.42s.27-2.84-.23-3.77c-.66-1.29-2.19-.8-3.33-1.22s-1.66-1.53-2.59-2.41-1.57-.85-2.95-.42c-2.53.77-3.16,4.4-6.24,2.39-.83-.56-1.85-2.51-2.91-2.66-1.27-.18-3.25,1.72-4.28,2.34a51.51,51.51,0,0,1-4.88,2.28c-1.88.89-3.52,2.12-5.37,3.09a28.57,28.57,0,0,1-6.53,2.58,10.07,10.07,0,0,1-6.74-.54,13.31,13.31,0,0,0-6.89-1.56c-3.74,0-7.55-.12-11,1.5a34.27,34.27,0,0,1-4.44,2.14c-1.5.49-3,.67-4.53,1a13.77,13.77,0,0,0-7.78,4.65c-1.43,1.75-2.82,3.31-5.2,3.83-.84.16-1.89-.1-2.69.28-.45.22-.76.83-1.28,1.08-1.36.72-3.8.12-5.12-.51-1.62-.76-1.59-2.29-2.93-3.33a11,11,0,0,0-6.05-1.95c-2,0-4.79-.18-6.67.7-1.15.55-.88.7-1.43,1.67-1.15,2-2.36,1.68-4.28,2.21-1.25.35-1.63,1-1.55,2.35a1.57,1.57,0,0,1-.53,0c-1.4-.1.37-2.47-2.26-2.08a4,4,0,0,0-3.15,2.23c-.4.93-.05,2.44-1.12,3.07s-2.15-.73-3.29-1.12c-.85-.29-3.57-1.29-4.41-.56-1,.89.75,4-1.3,4.41-1.7.36-1.8-1.61-2.15-2.74-.42-1.31-1.78-3.22-3.45-1.83-.68.58-.23,1.53-.51,2.2a1.85,1.85,0,0,1-2.63.73c-1.15-.55-1.75-2.28-2.36-3.23a3.92,3.92,0,0,0-3.33-2.05,14.94,14.94,0,0,0-4.16-.28c-2,.36-.59,2.54-2.39,3.19-2,.75-1.43-1.17-1.21-2.16a3.32,3.32,0,0,0-.83-3.4c-1.22-1-2.68-.25-3.9-.93s-.55-2.18-1.56-3c-1.37-1-1.17,1.32-1.77,1.68-.78.5-2.26-.23-3.16.3-.05.85,0,1.73-.05,2.6-2,.15-1.05-1.59-2.08-2.49-1.38-1.19-1.93.77-2.88,1.12-2,.77-.94-1.84-1-2.79,0-1.54-1.64-2.54-2.78-3.57s-3.31-4.16-4.95-2.79c-.37.3-.69,1.34-1,1.79-.4.65-.91,1.18-1.35,1.81s-2.53,3.65-3.79,2.37c-.77-.78.67-3.13.53-4.18-.18-1.41-1.1-3.44-2.66-2.36s-1.13,2.11-3.31,2.23c-1.29,0-2.78-.25-3.43,1.1-.45.95-.13,2.43-.18,3.44-1.49.31-1.09-2-3.08-1.91-1.13.07-4.18.89-4.11,2.36,0,1,3,2.72.86,4.2-1.41,1-2.33-1.2-3.19-1.75-2.35-1.51-5,2.12-7,3.26-1.52.9-2.7,1.55-3.16,3.33-.64,2.38.06,3.92-1.62,6-2.75,3.46-7.19,6.44-8.52,11a40.65,40.65,0,0,0-1.25,7.05,39.56,39.56,0,0,1-.52,4.46,23.08,23.08,0,0,0-.31,8.84c.35,1.72,1.63,3.07.42,4.56-.52.64-1,.32-1.1,1.27a4.75,4.75,0,0,0,.4,1.68,17.51,17.51,0,0,0,1.28,3.56c.88,1.25,2.63,1.42,3.89,2,1.65.73,2.58,2.38,4,3.48s3.59,2.06,3.71,4-1.23,3.84-1.66,5.65a14.74,14.74,0,0,1-2.85,5.41c-1,1.26-1.9,2.78-1.46,4.48a18.58,18.58,0,0,0,1.69,3.21c1.22,2.41,2.4,5.53,1.54,8.29-.41,1.27-1.09,2.36-1.42,3.67-1,3.73-1.72,7.59-2.9,11.25a17.62,17.62,0,0,1-6.82,9.71,9.15,9.15,0,0,0-4,6c-.38,2.73.92,4.87,1.4,7.44a11.63,11.63,0,0,1-.23,4.48c-.5,2.25-3.28,6-1,8.19.89.88,3,1.1,4.17,1.38a24.12,24.12,0,0,0,4.82.29c3.12.1,6.81.31,9.24,2.34a17.24,17.24,0,0,0,3.59,2.6c1.52.74,3.48.44,5,1.28s1.3,2.31-.15,3.16a4.73,4.73,0,0,1-4.69,0c-2-1.16-5.61-4.94-8.07-4.43-2.73.57-2.15,5.9-2.76,7.93-.92,3.09-3.9,5.6-6.83,6.8s-7.89-1.11-10,1.62-1.42,6.37-3.16,9.34-3.69,6.65-2.39,10.06c.6,1.55,1.3,2.08.69,3.76-.5,1.35-1.42,2.68-2.05,4a19.8,19.8,0,0,1-3.91,5.51c-.77.72-1.7,1.13-2.47,1.83s-1.18,1.62-1.91,2.28c-1.25,1.13-2.67.8-4.17.67-3.92-.37-7.14-.75-10.43-2.79-2.29-1.39-6.06-2.76-8.64-1.24-3.24,1.91-5.2,5.84-7.59,8.64-1.74,2-5.4-.64-5.44,2.77,0,1.47.22,2.19-1,3.16a17.92,17.92,0,0,0-4.12,4.66c-.94,1.46-2.29,3.61-4.34,3.28-1.7-.27-1.9-1.61-3.48-.31-1.08.9-1.83,2.15-2.94,3.08s-3.15,2.15-3.55,3.75.42,2.83,1,4.16a23.62,23.62,0,0,0,2.35,5c1.14,1.55,2.61,2.09.71,3.57-1.5,1.14-2.13,1.21-1.53,3.18a7.28,7.28,0,0,0,2.46,3.47c.94.75,3.25,1.33,3.9,2.35s.2,3.38.58,4.63c.48,1.53,2,3.48,1.95,5.08-.07,1.45-1.45,2.88-2,4.19a12.29,12.29,0,0,1-2.23,3.73c-.74.92-2.27,2.58-2.06,3.88.4,2.25,5.43,4.51,2.93,7.17-.4.42-1.23.24-1.51.74s.24,1.36.36,1.82a7.49,7.49,0,0,0,2.4,4.1c1.28,1,2,1,.85,2.68-1.76,2.5-4.66-1.44-6,1.79-.52,1.29-.27,2.76-.87,4.07-1.23,2.71-1.83-.79-2.88-1.6-1.88-1.49-3.53,1.21-4.76,2.32-1.43,1.31-2.94,2.5-4.34,3.8s-2.31,2.47-2.41,4.46.13,4.73-.93,6.51C9,959.59,7,959.78,6.48,961.58a15.14,15.14,0,0,0,.24,6.89,47.44,47.44,0,0,0,2.81,6.43c1.11,2.3,2,5,3.5,7s3.64,3.16,5.19,5.05c1.12,1.35,2.55,5.09,4.78,4.71s1.36-3.53,2.76-4.28c1.64-.9,1.36,2.82,2.18,3.4,1.94,1.4,6.36-.65,7.82-2a37.57,37.57,0,0,0,3.74-4.49,17.59,17.59,0,0,1,4-3.06c1.25-.83,2.5-1.68,3.72-2.57,2.48-1.83,5.72-3.84,8.9-2.7,1.87.67,3.58,5.16,6.49,3.73,1.25-.61,1.3-2.32,1.8-3.31.93-1.86,2.75-1.45,4.44-1,3.77,1.07,6-.54,8.94-2.51s5.31-3.59,6.52-7.08a22.69,22.69,0,0,1,6.73-9.68c3.36-2.93,6.71-4,11.13-4.18,1.44-.06,2.28.19,3.23-.93.67-.78,1.55-3,2.47-1.14.54,1.18-.49,2.34.54,3.44,1.24,1.31,3.09,1,4.56,1.66,1.22.58,1.44,2.07,2.67,2.53,3.74,1.43,8.9-7.16,10.63-9.6a47.59,47.59,0,0,0,3.2-6.23c1-2,2.73-3.08,4.51-4.33,1.6-1.13,3-2.36,4.58-3.54,1.23-.93,3.16-2.06,4.28-1,1.29,1.22,1.36,3.83,3.69,3.48,1.43-.22,2.43-1.52,3.49-2.37,3.06-2.43,6.08-3.29,6.54-7.6,1.87-.14,2.14,1,3,2.43,1.2,2.09,1.44.8,2.55-.33s2.63-1.5,4-2.15a31.84,31.84,0,0,0,6.27-4.59,69.59,69.59,0,0,1,7.74-5.61c2.39-1.46,4.63-3.17,7-4.61,3.44-2,7.11-3.31,10.75-4.89,2.6-1.13,4.29-1.79,5.94-4.18.85-1.23,1.9-2.35,2.78-3.57a11.87,11.87,0,0,1,.9-1.39c.23-.21.71-.33.91-.56a26.35,26.35,0,0,1,1.82-2.31c1.53-1.43,3-2.43,2.62-4.86-.18-1.27-1.25-1.65-1.63-2.78a10.13,10.13,0,0,1,.1-4c.42-1.67,1.32-1.32,2.65-1.8s1.25-1.38,1.25-2.78c0-3.49,3.18-2.26,5.51-2.94,1.89-.56,2.11-2.82,3.66-3.8,2.33-1.46,5.34,0,7.44,1.23s5.79,5,5.44,7.62c-.42,3-3.21,5.19-5,7.5-1.07,1.35-2,2.9-2.86,4.28a13.11,13.11,0,0,1-3.58,3.35c-2.41,1.73-5.52.93-8.4.93-2,0-2.4.41-3.32,2.21a5,5,0,0,0-.7,3.77c.75,2.51,3.5,5.64,5.08,7.75,2,2.66,4,.32,5.77-1.28,5.94-5.39,9.16-13,14.27-19.12a37.2,37.2,0,0,1,5.27-4.92c1.63-1.29,2.72-1.39,4.61-2s3.15-2,4.68-3c1.71-1.2,3.4-2.37,5-3.72a32.1,32.1,0,0,0,7.45-9.08c1.7-3.12,3.92-5.24,6.38-7.62,1-1,2.75-6.58,4-3.46.39.9.35,3.49,1.85,2.63.64-.37,1-2.34,1.37-3,.95-1.72,2.26-3.32,3.31-5a20.37,20.37,0,0,0,2-5.46c.45-1.54,1-3.14,2.88-3.58,1.43-.31,2.36,1.1,3.68.5,1.11-.5,1.81-2.14,2.46-3.15.95-1.45,2.12-2.83,3.23-4.21a36.7,36.7,0,0,0,3.46-5.8c1-1.93,1.55-3.26,3.35-4.49a18.9,18.9,0,0,0,4.14-4.68,54.52,54.52,0,0,1,4.51-5.52c8-8.29,15.58-17.19,24.8-24.18,2.61-2,4.38-5.1,6.49-7.58a27.23,27.23,0,0,0,3.66-6,14,14,0,0,1,4.89-5.34c2.37-1.65,6-2.95,7.76-5.28,1.38-1.86,2.29-4.15,3.51-6.13a46.54,46.54,0,0,0,3.56-6.1c1.23-2.93,2.25-6,3.23-8.87a24,24,0,0,1,1.45-3.83c.75-1.41,2.26-2.84,2.3-4.48C373.94,734,370.08,733.37,368.5,732.14Z"/><path class="cls-5" d="M100.11,729.47a11.8,11.8,0,0,0,1.63,2.92c.77,1.19,1.44,2.44,2.15,3.67,1,1.8,2.5,3.38,3.63,5.13.43.66,2,3.84,3,2.28.4-.62.17-1.84.38-2.57s.87-1.43,1.08-2.23c.52-1.8-1-3.61-1.71-5.17s-1.85-3.28-2.46-5a6.7,6.7,0,0,1,.33-5.61c1.13-1.78,2-4.17,3.56-5.56.64-.57,1.15-.76.85-1.73a6.56,6.56,0,0,0-1.68-2.35,4.41,4.41,0,0,0-1.87-.9c-.76-.2-1.59,0-2.32-.26s-.84-1-1.42-1.21c-.83-.33-1.4.74-1.79,1.31a14.73,14.73,0,0,0-1.77,3,12.67,12.67,0,0,0-.45,4.13c-.08,1.44,0,2.91,0,4.34C101.19,725.7,99.51,727.4,100.11,729.47Z"/><path class="cls-5" d="M95.52,811c.65,0,1.1-.78,1.51-1.2a10.24,10.24,0,0,1,1.81-1.39,4.83,4.83,0,0,1,2.78-.39c1,0,3.35.81,4.17.06.43-.4.44-1.56.53-2.14.15-1,0-2,.08-3a30.71,30.71,0,0,1,.63-4.49,20.77,20.77,0,0,1,.94-2,.43.43,0,0,0,0,0c.34-.52.6-1-.06-1.43a4,4,0,0,0-2.07-.21,8.88,8.88,0,0,0-2.76.37c-.9.31-1.71.89-2.63.54s-1.3-.87-2.3-.73c-.79.1-1.09.51-1.46,1.21-1.13,2.14-1.37,4.42-2,6.68-.58,2-1.22,4.43-.6,6.52C94.27,810,94.67,811,95.52,811Z"/></g><g id="Brooklyn"><path class="cls-6" d="M682.32,770.17C680.12,765,679,759.4,677,754.24c-1.32-3.45-3.2-6.68-4.25-10.22-.8-2.68-.26-6.46-2.21-8.67-1.45-1.65-4.76-1.3-6.88-1.29-3.49,0-7.1-.31-10.56,0-2,.17-3.71,2.2-5.39,2.06-2.15-.14-2.52-2.42-1.4-4s3.84-2.22,5.48-3.36c1.84-1.29,3.36-3.06,5.49-3.94,1.86-.77,3.74-.58,5.83-.58,5.53,0,2.5-3.4.61-6.08-2.29-3.31-3.86-7-6.22-10.3a113.49,113.49,0,0,1-6.93-11.5c-1-1.85-2.08-3.41.05-4.58a4.51,4.51,0,0,1,5.68,1.4c1.13,1.51,1,3.59,3.53,2.94s2.66-2.75,2.66-4.74c0-1.6-.85-4.12-.1-5.6,1.3-2.58,2.35,0,4.24,0,1.59,0,3.2-4.68,4.5-5.82,1-.89,1.68-2.47,2.8-3.09.19-.1,1.14,1.33,2,.83.57-.33.52-2.2.63-2.76a14.62,14.62,0,0,1,4.18-7.69c2.16-2.2,2.29-.24,4.67.57s2.75-1.51,2-3.49c-.56-1.61-2.78-2.51-3.92-3.8a15,15,0,0,1-2.72-4.7,62,62,0,0,1,7.47,6.22c.64.62,3.42,3.66,4.15,3.5s1.7-3.37,2.46-4.13c1.87-1.88,7.69-3.15,7.12-6.46-.41-2.38-3.26-4.18-4.82-5.79a20.39,20.39,0,0,1-4.72-6.61c-.76-1.78-2.36-4.32-2-6.35,2.23-.44,4.94,2.53,6.07,4.13.74,1,1.29,2.48,2.65,2.65,1.06.12,1.88-.75,2.74-1.29,2-1.3,3.6-2.36,3.5-5-.11-2.11-1.88-4.24-2.77-6.19,1.6,0,3.83,4.14,4.46,5.52,1,2.1,0,4.54,1.23,6.66.86,1.55,1.09,1.5,2.33.53a6.53,6.53,0,0,1,3.34-1.39c1.24-.23,3-.65,3.75-1.77s.69-3.41.69-4.86a35.46,35.46,0,0,1-.13-4c.13-1.31.83-2.06.73-3.41-.25-2.81-2-6.86-4.25-8.62-1.27-1-5.67-2.2-5.21-4.48a5.11,5.11,0,0,1,1.23.1c-.52-1.33.4-2.85-1.22-3.69-.49-.27-2.16-.54-2.38-1.1s1.08-1.42,1.56-1.62c.93-.4,2-.35,3-.83s1.33-1.35,2.07-1.9a3,3,0,0,1,2.31-.83c.84.1,1.16.45,2.06.08,2.08-.85,1.35-3.26-.08-4.34-.84-.67-2.28-1-1.9-2.3a4.57,4.57,0,0,1,1.72-1.84c1-.27,1.18.93,2.05,1.23a3.73,3.73,0,0,0,3.06-.8c1.09-1.53-1.51-4.93-1.69-6.61a15.27,15.27,0,0,0-.4-3.3,26.34,26.34,0,0,0-1.32-2.66,8,8,0,0,1-1-3.08c0-1.13.48-2,.43-3.23,0-.92-.28-2.34-1.43-1.72-.71.38-1.06,1.69-1.6,2.31-1.56,1.86-2.11-.92-2.22-2.15a19.83,19.83,0,0,0-1.22-5.94,11.12,11.12,0,0,1-1-4.32c-.12-2,0-5.45-2.2-6.35-1.06-.44-1.33-.11-1.35-1.58a6.74,6.74,0,0,0-.23-2.91c-.58-1.18-1.39-.83-2.49-.93-.73-.07-.7.07-1.1-.47a4.9,4.9,0,0,1-.47-1.84,45.06,45.06,0,0,0-1.11-6.93c-.75-2.61-.9-5.29-1.48-7.92-.48-2.25-1.45-4.39-1.78-6.64a36.53,36.53,0,0,1-.17-5.23c0-1.51.17-3.19-1.76-3.23-1.27,0-2.8.94-4,1.33-2.34.77-5,1.29-7.11,2.63a27.9,27.9,0,0,0-4.94,3.83c-1.89,1.95-3.11,4.24-5.33,5.85a33.35,33.35,0,0,0-3.13,2.28,27.35,27.35,0,0,1-3.76,3.09,17.26,17.26,0,0,0-4.16,3.29c-1,1.13-1.19,2.23-2.68,2.81a18,18,0,0,0-3.1,1.3c-.73.46-1.45,2.08-2.11,2.33s-.82-.39-1.12-.95a24.24,24.24,0,0,1-1.68-4.17c-.68.08-.82,1.08-1.23,1.57s-1.06.79-1.35,1.44c-.44,1.05-.36,4-2.16,3.83-.56-.88-1-1.88-1.58-2.8-.76-1.14-1.93-1.89-2.71-3a10.77,10.77,0,0,1-1.53-3.26c-.12-.43.08-1-.21-1.35s-1.11-.5-1.56-.78c-.91-.6-.91-1-.17-1.91s.75-.9.46-2.07-.59-1.3-1.57-2.07c-.73-.57-1.56-1.63-.7-2.48s1.9-.35.63-1.6a11.56,11.56,0,0,0-2.11-1.83c-.95-.54-1.93-1-2.88-1.58-1.2-.69-2.58-.93-3.77-1.58-.54-2.45,5-3,3.17-4.86s-4.37-2.79-6.18-4.58c-1-1-1.66-2-3-2.57-1-.38-4.46-.63-4.83-1.77-.17-.53,1.18-1.23,1.67-1.61.66-.53,2.18-.8,2.21-1.65a4.1,4.1,0,0,0-1.24-1.85c-.71-.49-1.82-.28-2.62-.43s-2.76-.88-1.64-1.91c.7-.65,4-.29,3.52-2-2-.09-2.52.29-3.86-1.46a19.68,19.68,0,0,0-2.41-3,13,13,0,0,0-2.28-2.06c-1-.48-2-.12-3-.95-.67-.57-1.26-1.12-2-1.63a46.88,46.88,0,0,0-4.64-3.41c-1.17-.65-1.7-1.39-.32-1.95.72-.28,2.59-.33,2.4-1.43-.14-.8-1.61-1.07-1.88-1.86s.25-2.07-.18-2.95-1.47-1.31-2.1-1.93c-.81-.77-1.08-1.73-1.79-2.53s-1.73-.8-2.28-1.55a2.62,2.62,0,0,1,0-2.6c.77-1.06,2.58-.66,3.38-1.78a2,2,0,0,0-.43-2.66c-1-.65-1.71-.47-1.49-2a6,6,0,0,0,0-2.83c-.17-.6-.32-1.22-.49-1.81-1.28-4.76-2.61-9.89-5.7-13.84a11.08,11.08,0,0,0-5.61-4,35.65,35.65,0,0,0-4.11-.58,22.06,22.06,0,0,1-5.18-1.78,7.39,7.39,0,0,1-3.36-2.21,71.71,71.71,0,0,1-5-8.19c-1-1.58-1.79-3.66-3.22-4.88a29,29,0,0,0-4.41-2.91c-3.58-2-7.16-4.64-11-6.09-4.56-1.74-9-.05-12.8,2.57a23.71,23.71,0,0,1-5.31,2.47c-1.28.51-3.11,1.94-4.58,2.08a51.32,51.32,0,0,0,.68,10.1c.77,3.88,2.45,7,2.45,11.07,0,4.64-2.21,8-4.63,12-2.54,4.13-3.86,8.83-5.84,13.24-1.58,3.57-4.46,7.49-5.15,11.36a15.53,15.53,0,0,0,.59,7c.78,2.28,2.24,4.16,3.32,6.31.63,1.25,2.68,5.66,1.32,6.89-2.38,2.13-4.66-3.2-4.84-4.56-.32-2.32-.37-4.28-1.42-6.41-.52-1.05-1.89-4.69-3.34-4.41-1.07.2-2.36,3.73-3.15,4.63-3.08,3.49-8.19,6.31-12.81,6.61-4.28.29-10.84,1-14.67-.79-1.6-.76-3.33-1.88-5.37-.81-1.68.86-1.74,3.09-2.74,4.51-1.29,1.84-3.13,3.06-4.31,5a15.06,15.06,0,0,0-2.08,7c-.58,6-2.79,10.83-6,16-2.86,4.56-5.59,9.33-9.87,12.78s-8.89,6.24-13.5,9.3c-3.49,2.33-8.27,4.7-9.67,8.77-1.21,3.58-1.53,7.31,1.67,10,1.68,1.39,3.74,2.4,5.54,3.74,4,3,7.12,4.31,7.87,9.58.55,3.89-.83,8.16-5.56,6.44-3.5-1.25-2.33-4.46-2.7-7.27-.35-2.6-2.43-6.19-5.59-5.61-.45,1.78,1.55,3.3,2.31,4.71a10,10,0,0,1,1.2,5.46c-.17,2-.73,2.92.42,4.75.88,1.4,2.29,3.08,3.94,3.54,3.28.9,6.68-2.89,9-4.76,1.68-1.36,3.89-2.56,5.21-4.36,1.18-1.6,1.81-3.45,3.06-5,.65-.8,1-1.67,2.1-1.62,1.58,2.78-1,4.79-1.85,7.26-.2.55-1,2.79-.21,3.29,1.15.74,1.68-1.94,2-2.53,1.74-2.86,3.58-2.44,6.26-3.52s2.36-4.46,4.79-5.55c.15,2.24-1.26,4.2-1,6.17,0-.33,2.28.71,2.53,1.41a3.16,3.16,0,0,1-.64,2.7c-1.32,1.15-3.76.1-5.23-.15-1.17-.18-1.9-.7-2.31.88-.74,2.8,3.09,2.57,4,4.17S464,598.07,462.3,598c-2-.07-2.11-2.5-3.56-3.48-1.72-1.15-3,.37-2.21,2.23s3.31,2,.75,3.11c-3,1.27-4.28-1.38-6.36-2.9-2.73-2-6.14-.39-8.79,1.62-2.2,1.68-4.56,3.69-1.47,5.62s5,1.45,4.76,5.43c-3.66.88-3.51-.76-6-2.49s-1,.88-2.53,1.94c-2.51,1.7-1.64-2.35-3.11-2.76-1.17-.32-3.18,3-4,3.74-2.94,2.73-6.32,5.54-8.47,8.91-1.58,2.51-1.21,2.74,1.09,3.77,1,.47,4.56,2.81,2.67,4.36-1.16,1-3-1.33-4.39-.78-1.63.68-1.4,3.37-1.2,4.76.25,1.76,1.5,2.69-.67,3.32s-3.18-1.15-4.41-2.48c-1.56-1.71-2.88-1.88-4.75,0a5.85,5.85,0,0,0-1.45,4.1c.32,4,6.22,3,5.59,7.26a55.07,55.07,0,0,0-6-2,3.87,3.87,0,0,0-3.9,1.81c-2.36,3-2.86,6.8-4.89,9.92-2.16,3.31-2.75,7.07-4.39,10.63s-3.5,6.91-4.78,10.52c-1.1,3.11-1,6.31-1,9.57,0,3.54-.08,7.1,0,10.65.17,6.82,3.36,13.4,5.94,19.54,1.5,3.54,2.88,6.89,4.61,10.22a9.67,9.67,0,0,1,1.1,5c0,1.41-.28,3.11,1.22,3.73.06-2.16.45-3.48,2.89-2.23,1.78.92,3.41,2.4,5.29,3.3s3.63,2.38,5.58,3.28c2.71,1.25,5.76,1.35,8.59,2,10.45,2.24,21.52,2.92,28.66,12,1.93,2.48,4.81,8,8.07,8.76,0-5,7.44-3.11,6.69.23-.33,1.49-3.68,1.49-2.88,3.55.93,2.39,4.31-.32,5.76-.19.45,2.9-2.34,3.26-2.88,5.39-.48,2,1.6,3,1.22,5-2,.47-5.34.64-5.79,3.15s2.23,5,3.95,6.24c2.27,1.67,5.24,2,8.15,1.87,1.26-.07,3.16-1.44,4.12-1.25,1.23.23,1.55,5.09,3.27,6.3,2.14,1.52,4.44,1.85,4.19,5.11-2.3.58-2.82-2.62-5.23-1.48-.49.26-.61,1-1.39,1.31-1.07.41-2.78-.11-3.75-.4-1.93-.59-3.49-1.82-5.41-2.45a34.93,34.93,0,0,0-7.86-1.26c-1.09-.1-2.24.08-3.36,0a5.83,5.83,0,0,1-2.11-.46c-.53-.4-.12-1.42-.53-1.7a3.2,3.2,0,0,0-2.8-.13c-1.19.62-.59,1.3-1.28,2-1.37,1.46-3.32.78-5.2,1.49a15.72,15.72,0,0,0-5.59,3.86c-1.36,1.57-1.75,2.82-.82,4.68.46.86,1.24,1.5,1.47,2.49s-.38,2-.22,2.92c.42,2.28,2.18,2.37,4.15,2.71,3,.52,5.73.35,8.38,2,1.93,1.2,3,3.22,4.93,4.36a16.85,16.85,0,0,0,8,1.93,122.91,122.91,0,0,0,22.62-1.52c4.71-.69,8.64-2.69,13.11-4.06,4.64-1.41,9.42-1.71,14.18-2.54,6.62-1.15,13.32-1.92,19.92-3.18,2.93-.57,5.76-1.61,8.72-1.57a69.41,69.41,0,0,0,10.1-.22c3.92-.54,7.76-1.39,11.62-2.06,4.36-.74,9.24-1.91,13.65-1.68.6,5.41,5.83-.54,5.66-3.77a18.49,18.49,0,0,0-1.47-6.08c-1.11-2.35-2.74-2.24-5.14-2.24-2.65,0-6.32.64-8.85,0-4.22-1.09,3.5-1.66,4.83-1.66,5.21,0,9.77-.28,13.68-3.78,4.1-3.7,9.82.39,14.18,2.36,2.6,1.17,5.15,2.56,7.68,3.88,1.68.85,3.17,2.2,5.2,1.88.05-1.08,0-2.2.07-3.28,3-.55,4.49,4.45,7.21.55,2.51-3.58-.84-4.33-2.5-7-.5-.82-1.62-3.47-.6-4.38,1.78-1.62,2.39,1.69,3.07,2.31,1.62,1.42,3.22.27,4.5-1a6.8,6.8,0,0,1,3.86-2.37c.47-1.91-2.27-2.37-2.23-4.09,4-1,3.1,6.56,8.29,3.29,1.37-.85,2.56-3,4.36-2.49,2.16.58,1.16,4.13,2,5.87,1.63,3.27,6.82,5.14,4.16,9.89-.87,1.58-2.81,1.85-4.52,1.52-2.33-.49-2.61-2.37-4.36-3.65-1.13-.83-4-1.85-4.79.1-1,2.63,3.64,4.11,5.25,4.79,2.18.92,4.32,1.58,6,3.28,1.3,1.31,2.11,2.93,3.46,4.26,3.3,3.19,8.26-1.47,11.89-3,5.05-2.1,10.28-2.63,15.37-4.56,3.15-1.21,8.42-2.06,8.79-5.71.27-2.53-1-4.67-1.66-7A78.74,78.74,0,0,0,682.32,770.17Z"/><path class="cls-6" d="M709.73,768.7c-1.44-2.63-3.69-4-6.27-5.34-1.52-.77-3.78-3-5.27-1.7-1.29,1.13-2.15,2.5-3.61,3.56-1.09.77-2.73,1.57-2.92,2.95-.33,2.31,2.6,4,2.6,6.44,0,.8-.27,2.31.65,2.31s1.18-1,1.8-1.46c1.36-1,3,0,4.11-1.17.14-.16,2-3.06,2.36-2.48,1.35,2.49-1.79,4.63-3,6.37a28.53,28.53,0,0,1-3.43,4.75c-.65.61-1.35.76-1.47,1.76-.11,1.27,1.3,2.13,2,3.15,1.39,2.17,1.48,5.24,1.91,7.78,2.16.3,3.11-2.35,4-3.85,1-1.75,1.9-3.56,2.91-5.31,1.75-3,4.08-5.52,5.46-8.73.69-1.57,1-2.62.2-4.18S710.59,770.25,709.73,768.7Z"/><path class="cls-6" d="M706.39,724.55c1.05-.73,1.91-.6,2.14-2.18a2.29,2.29,0,0,0-.95-2.45c-.6-.5-1-2.38-1.83-2.14-.67.16-.67,1.31-.79,1.81-.25,1-1,1.56-1.13,2.58-.1.7-.5,6.7,1.36,5.31C705.85,727,705.39,725.26,706.39,724.55Z"/><path class="cls-6" d="M700.89,702.12a8.83,8.83,0,0,0,3.18-1.8c2.11-2.33.26-7.29.93-10.19.38-1.65,1.13-2.86,1.22-4.61a11.18,11.18,0,0,0-.31-4.21c-1.12-3.1-3.18-4-5.91-2.2-1,.7-1.93,1.61-3,2.34-2.38,1.72-4.83,3.33-7.11,5.21a15.35,15.35,0,0,0-4,4.31c-.77,1.48-1.14,3.25-1.8,4.81a86.89,86.89,0,0,0-3.38,10.39c-.38,1.32-.6,2.57.8,3.3a3.83,3.83,0,0,0,3.77-.38,28.23,28.23,0,0,1,4.3-2.48c2.12-.8,4.24-1.5,6.36-2.35C697.6,703.6,699.25,702.86,700.89,702.12Z"/><path class="cls-6" d="M703.2,738.21c1.21-.1.68-.6,1-1.56.26-.72.94-.83,1.23-1.48.35-.82-1.67-2.72-2.32-2.88-.91-.23-1.69,1-1.93,1.76-.13.42.19,1-.13,1.35s-.73.1-1,.38C698.51,737.33,702.14,738.29,703.2,738.21Z"/><path class="cls-6" d="M698.93,715.31c-.2-1-1.35-1.92-2-2.7s-2.11-3.69-2.69-1.58,0,4.31-.55,6.34,0,2.72,1.36,4.22a10.08,10.08,0,0,1,1.59,2.43c.83.87,1.14,2.8,1.31,3.84s.86,2.19,2,1.22c.61-.52.4-1.39.57-2.06a15.47,15.47,0,0,1,1-2,3.19,3.19,0,0,0-.35-3.32c-.63-.9-4.73-3.11-3.82-4.62C697.87,716.25,699.26,716.9,698.93,715.31Z"/><path class="cls-6" d="M699.79,753.71c1.36-.08,1.49-2.34,1.44-3.56-.06-1.42-1.1-1.65-2-2.68-2-2.39-1.33-5.05-1.66-7.9-.11-1-.78-2.23-1.81-1.05-.67.75-.47,2.7-.38,3.68a28.11,28.11,0,0,1,.13,4.31C695.44,748.52,696.94,753.88,699.79,753.71Z"/><path class="cls-6" d="M757.72,666.37c-1.56-1-3.34.06-4.71,1s-2.66,1.37-3.92,2.17c-1.75,1.08-3.4,2.23-5.23,3.14-.85.42-2,.92-1.75,2,.25,1.26,2.22,2.56,2.9,3.67.77,1.28,1.4,2.62,2.08,4,.51,1,.76,2.82,1.56,3.67,2.63,2.76,3.73-4.69,4.4-6a21.44,21.44,0,0,1,3.07-5.25c1.18-1.32,2.82-2.44,3.47-4.13C760.15,669.13,758.9,667.16,757.72,666.37Z"/><path class="cls-6" d="M752.41,714.38c-1.88.13-2.81,2.65-4.82,1.27a14.82,14.82,0,0,1-3.37-3.76,3.22,3.22,0,0,1,.81-4.26c.8-.54,3.48-.48,2.28-2.26-.79-1.16-3-1.38-4.29-1.43a4,4,0,0,0-3.68,2.33c-.8,1.49-.12,3.46-.37,5.09-.36,2.48-1.25,4.94-1.74,7.41a15.52,15.52,0,0,0-.11,2.83,5.51,5.51,0,0,0,0,1.72c.19.4.64.46.94.77.89,1,.43,1.26-.62,1.76a14.22,14.22,0,0,0-2.52,1.62c-.68.56-1.34,1.31-1.94,1.89a1.66,1.66,0,0,0-.35,2.4,14,14,0,0,0,3.11,3.33,23,23,0,0,1,2.38,3c.79,1,1.4,2,2.76,2,1.62,0,2.56-1.21,3.43-2.38,1.83-2.43,5.54-2.68,7.46-5,1.64-2,.22-4.79.43-7.08a33.93,33.93,0,0,1,1.56-6.34,14.53,14.53,0,0,0,1.15-3.32C755,714.56,753.66,714.3,752.41,714.38Z"/><path class="cls-6" d="M745.25,692.23c.6-1.12.16-1.61-.64-2.4a24.6,24.6,0,0,1-1.74-2.25c-1.06-1.35-3.46-4.53-5.42-4-1,.25-1.26,1.27-2.07,1.58-1.36.57-1-.58-.62-1.34a11.52,11.52,0,0,1,1-2.4c.56-.73,1.81-.78,2.26-1.48.75-1.1-.78-5-2.3-4.57-.73.24-1.36,1.74-1.86,2.31-1.13,1.26-4.06,3.28-5.76,1.78-.54-.45-.27-1.22-1.1-1.37-1.52-.26-1.33,1.61-1.37,2.58-1.95.45-1.41-3.9-3.63-2.27-.85.64-.79,1.77-1.43,2.52a13,13,0,0,1-2.4,1.74,5.49,5.49,0,0,0-2,3.13c-.36,1.15-.65,1.53-1.78.9-1.51-.85-2.9-2.86-4.89-1.55a3.65,3.65,0,0,0-1.33,3,7.88,7.88,0,0,0,.8,3.31c.6.73,1.49.16,2.41.3,1.37.2,1.66,1.31,1.78,2.56s0,2.85,0,4.25c0,.36.18,1.39,0,1.72-.32.52-.67.24-1.12.4a2,2,0,0,0-1,.52c-.28.33-.28,1.06-.7,1.26-.82.39-1.95-1-2.22-1.66-1-.15-1.23.8-1.33,1.58a2.08,2.08,0,0,0,1.39,2.5c1.93,1,4.24,1.31,5.85-.32a14.4,14.4,0,0,1,4-3.38,48.4,48.4,0,0,1,6.79-3.21c3.51-1.18,7.17-1.91,10.7-3.08C738.46,693.93,743.47,695.5,745.25,692.23Z"/><path id="Brooklyn3" class="cls-6" d="M720.29,665.43c-1.53,2-2.85,5.84-1.9,8.39.9,2.34,7,.35,9.07.2,2.35-.17,4.83.31,7.14-.19,2.95-.62,3.61-3.9,5.33-6,2.06-2.54,4.56-3.69,4.89-7.29a3.92,3.92,0,0,0-.91-3.19,16.26,16.26,0,0,0-3-3.15c-2-1.36-6-.47-7.92.78a78.94,78.94,0,0,0-7,4.53A32,32,0,0,0,720.29,665.43Z"/><path id="Brooklyn2" class="cls-6" d="M720.36,714.76c-1.07.6-.92,1.12-1,2.26-.17,1.76-2.55,3.43-1.87,5.08.87,2.11,3.08,3.82,4.25,5.86,1.08,1.88.48,4.62,2.2,6,.84.68,1.86,1.37,2.57.42.9-1.19,1.42-3.32,2-4.71,1.11-2.55,3.93-3.63,5.2-6a10.77,10.77,0,0,0,.71-3.65,44.56,44.56,0,0,1,1-4.49,5.26,5.26,0,0,0-.79-3.14c-1.19-2.2-4.14-2-5.87-.42-1.3,1.16-.87,2,.21,3,.77.73,2,1.3.65,1.86a4.89,4.89,0,0,1-3.52-.39c-1.34-.54-2.17-.84-2.54-2.27-.28-1.16.07-1.4.95-1.89s1.57-1.11.55-2.08c-.75-.7-1.94-.24-2.66-1.14s-.73-2.58-1.93-2.71c-1.36-.15-1.28,1.68-1,2.6.45,1.68,3.15,2.55,2.9,4.27C722.17,714.39,721.26,714.26,720.36,714.76Z"/><path id="Brooklyn1" class="cls-6" d="M727.69,744c-1.09-.58-2.16-1.11-3.32-1.59-2.12-.88-4.28-1.61-6.31-2.66-2.57-1.31-4.13-1.63-6.51.28a25.81,25.81,0,0,1-2.22,1.78c-.91.6-2.44,1.37-2.59,2.62-.27,2,2.81,2.61,4.13,3.28a23.72,23.72,0,0,1,4.92,3.73c1.91,1.72,2.83,4.84,5.59,4.95,1.64.07,2.92-1.53,4.17-2.46,1.45-1.08,3.14-1.66,4.52-2.85,1.19-1,2-3.59,1.12-5.09C730.61,745.07,728.63,744.52,727.69,744Z"/></g><g id="MANHATTAN"><path id="Manhattan9" class="cls-7" d="M612.51,101.82c-1.43-.6-3.81-2.2-5.49-1.53-1.48.6-.42,2.33-1.42,3.35s-3.48.16-4.41-.7c-1.3-1.23-1.32-3-1.39-4.73a5.64,5.64,0,0,0-5.1-5.68c-1.6-.11-2.26.75-3.24,1.84-1.4,1.54-3,3-4.26,4.67a13.88,13.88,0,0,0-2.91,4.86,21.86,21.86,0,0,0-.15,4.86,25.85,25.85,0,0,1-2.49,11,115.75,115.75,0,0,1-6.26,12.12c-3.07,5.21-5.79,10.63-9,15.81-1.5,2.41-3.1,5.48-5.55,7.06-1.39.91-2.39,1.2-3.44,2.68a5.67,5.67,0,0,0-.87,5.44c1.12,3.13,3.51,5.09,3.3,8.52-.24,3.71-3,7.44-4.17,11-1.46,4.71-2.39,9.49-4.16,14.13a72.91,72.91,0,0,1-6.76,14.25c-3,4.51-6.37,8.74-9.08,13.35-.34.56-.59,1.26-1.22,1.53s-1.14-.08-1.63.17c-1.52.76-1.25,2.59-2.12,3.74-.73,1-3.05,1.07-3.44,2.18s1.46,1,1.49,2.36c.06,1.15-1.78,3.35-2.34,4.33-1.08,1.82-2.4,3.48-3.3,5.39-1,2.12-1.63,4.43-2.71,6.51-1.65,3.2-3.22,6.47-5.13,9.54-2.6,4.16-5.71,8.42-7.59,13-.52,1.23-.7,2.45-1.11,3.71A41.54,41.54,0,0,1,503,284c-1.82,3.19-3.33,6.55-5.2,9.72-1,1.74-1.69,3.72-2.86,5.4s-2.84,3-3.94,5c-.93,1.73-1.5,3.66-2.35,5.41-1.55,3.26-3.61,6.28-5.34,9.42a15.34,15.34,0,0,1-2,3.48c-.85.87-1.64.7-2.88.7-.67,0-3.12-.37-2.78,1,.18.68,2.08.76,2.54,1.66,1,2-1.81,2.29-2.81,3.46a8.36,8.36,0,0,0-1,1.95c-.47.9-1.26,1.23-1.75,1.94-1.19,1.82,1,2.78.8,4.45a1.1,1.1,0,0,1-1.83.81c-.46-.3-.73-1.51-.81-2-2.6-.47-2.7,4.16-4,5.69-.77.93-1.61,1.48-1.32,2.74s1.89,1.57.6,2.73c-.58.54-2.86.47-2.38,1.85.25.68,3,.82,1.27,1.67-.82.38-3.07-1-2.4.69.41,1,2.68.78,2.71,2,0,1.87-3.53-.08-4-.5-.07.62-.42,1.77-.05,2.35.46.77,1.81.42,1.53,1.63-.87.17-4.56-2.11-4,.42.67.1,2,.55,1.93,1.41-.16,1.27-1.75.17-2.5.29a2,2,0,0,0-1.66,2.08c.19,1.16,1.37,1,2.05,1.68.77,2.58-6.56-.27-5.64,3,.81.5,3.29.3,1.64,1.68-.26.25-1.23.27-1.66.55a5.18,5.18,0,0,0-1.28,1.61,17.12,17.12,0,0,0-2.73,5.06,7.93,7.93,0,0,0-.5,2.45c.2.91,1.23,1.16,1.63,1.95a3.6,3.6,0,0,1-.45,3.11c-.53.85-1.68,1.78-2.61.95-.72-.63-.27-2-1.67-2.06.09,2.43-1.18,4.36-2.34,6.22-1.72,2.73.81,3.29,2,5,1.88,2.67-.23,3.31-1.91,4.92-2.86,2.76-3.08,5.93-2.9,9.6a10.67,10.67,0,0,1-.73,4.3c-.53,1.55-.37,1.76.68,2.81a7,7,0,0,1,1.85,2.6c.48,1.83-.9,1.53-2,2.08-1.36.71-1.18,1.69.29,1.94,1.08.19,3.31-.1,3.91,1.2.71,1.53-1.74,1.63-2.65,1.85-2,.43-1.95.85-2.38,2.5-.38,1.45-1.93,3.67-1.53,5.27.51,2.07,5.8.3,5,3.3-.81.23-7.74.33-5.66,2.25.88.81,2.38-.25,2,1.56-.27,1.12-1.68,1.67-2.26,2.31-2.28,2.55,3.74,3.45,5.12,4.48,1.58,1.2.42,1.4-1,1.66s-4.34.39-5.09,1.67c-.67,1.13-.6,4-.73,5.37-.72,6.45-3,12.75-3.33,19.26a65.38,65.38,0,0,1-.83,8c-.36,2-1.15,3.94-1.5,6-.4,2.33-1,4.51-1.57,6.84-.23,1-1.21,3.48-.7,4.52.74,1.47,2.95.69,4.15.46s3,0,2.13,1.77c-.63,1.3-2.48.82-2,2.92a28.12,28.12,0,0,0,1.69,3.32,6.72,6.72,0,0,0,1.64,2.4,7,7,0,0,0,3.76,1.89c1.91.2,2.36-.3,3.43-1.63.83-1.05,2.67-2.31,3.64-.73.77,1.28,0,2.25,2.22,2,3.94-.55-2.58-5.16,1-6.11,3.21-.84,1.43,6.45,5.89,2.65,3-2.61,7-5.54,8.29-9.54.46-1.51-.62-2.29-.87-3.64-.38-1.93.84-2.46,2.32-3.13,2.16-.95,4.07-2.4,6.29-3.25a25.77,25.77,0,0,1,6.94-1.39,12.33,12.33,0,0,1,2.2-.14c1.26.14,1.18-.06,1.26,1.27s-.6,2.78,1,3.41,3.21-1.3,4.68-1.7a24.67,24.67,0,0,1,6.55-1c2,0,3.81-.87,5.73-1.45a12.71,12.71,0,0,0,4.61-2.36A10.64,10.64,0,0,0,507,480c1-2.52,2.16-5,3.2-7.49,2-4.88,2.29-10.35,3-15.55,0-.28-.1-.68,0-1s.55-.53.55-.55a19.82,19.82,0,0,0,.7-3.48c.32-2.15.77-4.24,1-6.39.37-4-1.37-6.89-4.36-9.5-1-.92-2.62-1.79-1.39-3.07s3.57-.4,4.6-1.43c-.87-.61-5.54-1.41-4.09-3.71,1.17-1.81,5.48.4,4.56-3.48-.44-1.91-2.09-3-2.22-5.27a3.66,3.66,0,0,1,.83-2.88c1.39-1.9.52-4.22.56-6.56,0-2.18,1.13-4.1,1.93-6.1,1.89-4.66,5.41-8.25,8.19-12.38,3.11-4.66,6-9.52,9.26-14.05,4.06-5.6,8.72-10.83,12.8-16.37a87.78,87.78,0,0,0,4.92-7.69c2.7-4.61,5.29-9.14,9.1-12.93a64.15,64.15,0,0,0,4.46-5.14c1-1.15,3.13-2.57,3.16-4.11,0-1.35-1.27-3.15-1.7-4.41-.57-1.62-.94-3.2-1.64-4.78a7.73,7.73,0,0,1-1-4.41c.68-4.31,5.8-6.59,8.28-9.7a17.73,17.73,0,0,0,2.53-4.57c.83-2.06,1.32-4.14,2.87-5.82,2-2.12,4.46-3.71,6.7-5.51,1.7-1.33,3.6-2.4,4.88-4.23s1-4.41,1-6.67c0-2.72.26-5.66-.27-8.27-.74-3.67-3.14-6.79-5.43-9.77a46.49,46.49,0,0,0-3.56-3.85c-1.33-1.43-1.21-2.41-1.21-4.34V243.27c0-2.58-.12-5.19.11-7.75.44-4.61,1.14-9.2.79-13.85-.41-5.09-1.68-10.07-2.23-15.14a60.71,60.71,0,0,1,0-8.74,23.57,23.57,0,0,1,2.2-9.06,42.79,42.79,0,0,0,3.06-9.52s0-.08,0-.11a17.63,17.63,0,0,1,1-4.58c.8-1.71,2-3.05,2.61-4.86a50.47,50.47,0,0,1,2.85-6.21c1-1.93,1.61-4,2.69-5.86,3.22-5.6,6.88-10.78,8.71-17.05.35-1.19.52-3.87,1.53-4.65s1.49.58,2.55-.07c.91-.54,1.63-2.06,2.43-2.81a48.31,48.31,0,0,0,3.35-3.64c.83-1,1.68-1.17,1.82-2.47.19-1.53-.68-1.94-1.92-2.53.78-.91,2.36-1,3.46-1.44a10.09,10.09,0,0,0,4-3c2.37-3.09,3.85-9,2.95-12.88C620.41,103.85,615.17,103,612.51,101.82Z"/><path id="Manhattan9-2" data-name="Manhattan9" class="cls-7" d="M614.32,282.2l-12-11.91L594,271c2.53,3.68-1,6.31-1.25,10.15-.11,2.35.21,4.74,0,7.09s-1.37,4.31-2.66,6.34a21.1,21.1,0,0,1-8.22,8c-1.84,1-2.53,1.46-3.06,3.52-.42,1.67-1.4,2.8-1.89,4.36-1.19,4,6.21,6.64,8.83,7.83a16.3,16.3,0,0,1,3.21,1.6c.58.43,1.07,1.46,1.7,1.78a4,4,0,0,0,1.7.38c2,0,3.95-1.4,5.17-2.81s2.9-2.9,4-4.4c1.22-1.73.84-4.2,1.25-6.26.83-4,3.86-7.68,6.71-10.76,1.88-2,6.87-4.5,7.24-7.53C616.92,288.23,612.24,284.15,614.32,282.2Z"/><path id="Manhattan8" class="cls-7" d="M572,319.15c-1.89,1-2,4.22-1.41,6,.26.83.41,2.43,1.48,2.5,1.24.06,1.65-1.68,2.19-2.4.92-1.2,3.23-2.06,2.67-3.79S573.56,318.32,572,319.15Z"/><path id="Manhattan7" class="cls-7" d="M565.71,339.56a9.23,9.23,0,0,0-1.89,1.85,13.77,13.77,0,0,0-1.4,2.31A58.34,58.34,0,0,1,557,353c-2.83,3.88-5.47,7.91-8.28,11.77-2.46,3.4-5.14,6.61-7.62,10s-5.17,6.72-6.48,10.58c-.62,1.8-1.73,3.33-2.45,5.1a10.45,10.45,0,0,0-.48,4.41c3.38.3,6.38-5,8.09-7.42,3.13-4.45,7.41-8,10.47-12.45,5.59-8.13,9.78-17.11,15.13-25.37,1.87-2.86,4.44-5.11,5.29-8.54a15.63,15.63,0,0,0,.62-3.68,5,5,0,0,0-.1-1C570.58,333.23,566.62,338.91,565.71,339.56Z"/><path id="Manhattan6" class="cls-7" d="M526.66,394.93c-.29.12-.44.8-.44,1.26v0c0,.53-1.1,1-1.56,1.36s-1.27.94-1.87,1.45-.91.79-.91,1.72a6.81,6.81,0,0,0,0,2.3,1.39,1.39,0,0,0,1.81.16c.51-.57.12-1.8.56-2.48.82-1.32,3-1.32,3.36-3C527.75,397.14,527.4,394.63,526.66,394.93Z"/><path id="Manhattan5" class="cls-7" d="M436.25,526.28c-1.24-1-3.46-2.21-5.14-1.67a11.1,11.1,0,0,0-3.4,2.22,30.53,30.53,0,0,0-3.28,2.81c-1.05,1.18-1.48,2.75-2.31,4.08a10.81,10.81,0,0,1-2.83,3.47c-1.05.74-2,1.6-3.05,2.4a6.82,6.82,0,0,0-2,1.81,8.09,8.09,0,0,0-.71,2.77,2.76,2.76,0,0,0,1.13,2.52c1.45,1.29,2.59,3.06,4.41,3.86a2.5,2.5,0,0,0,2.82-.35,19,19,0,0,1,3.15-2.57c2.16-1.43,3.89-3.28,6.07-4.73a35.2,35.2,0,0,1,6.16-3c1.25-.53,3.13-1.33,4-2.44a3.13,3.13,0,0,0,.5-1.23,17.47,17.47,0,0,0-.07-3.71C441.53,529.47,438.3,528,436.25,526.28Z"/><path id="Manhattan4" class="cls-7" d="M396.69,512.58a12.2,12.2,0,0,1-1.16-.88c-.53-.4-1.16-.65-1.43-1.32s-.09-.91-.67-1.36a3.66,3.66,0,0,0-3.13-.49c-.89.3-1,1-1,1.75,0,1.28.65,1.82,1.6,2.6a23,23,0,0,1,2.08,2.54,1.88,1.88,0,0,0,2.11.74,10.62,10.62,0,0,0,2.48-.72,1.58,1.58,0,0,0,.25-2.41C397.59,512.83,397,512.78,396.69,512.58Z"/><path id="Manhattan3" class="cls-7" d="M390.57,515.47a5.93,5.93,0,0,1-1.23-.89c-.29-.33-.22-.67-.42-1.05-.38-.73-1.06-.58-1.68-.08a4.52,4.52,0,0,0-1,1.15c-.25.46-.19,1-.49,1.51s-1.34,1.27-1.16,2c.25.9,1.73,1.45,2.35,2s.76,1.48,1.6,1.66,1.28-.78,1.58-1.48c.18-.43.24-.91.41-1.36s.6-.82.79-1.25l0,0C392.25,517.32,391,515.75,390.57,515.47Z"/><path id="Manhattan2" class="cls-7" d="M385.92,534.37a12.43,12.43,0,0,1-2.56-2.07c-.48-.51-1.15-1.48-2-1.15s-1.32,1.77-2,2.4-1.47.49-1.5,1.45,1.21,1.7,2,2.18a9.32,9.32,0,0,1,2.4,2.49c.6.77.93,1.94,1.83,2.43.17,0,2.55-3.19,2.8-3.39.72-.6,1.9-1,1.63-2.15C388.36,535.55,386.72,534.85,385.92,534.37Z"/><path id="Manhattan1" class="cls-7" d="M615.86,92.92l-3.29,3.87c2.65.24,12,3,12.68,11.36l1.8-7.74C628.24,94.62,619.56,88.37,615.86,92.92Z"/></g></svg>