<?xml version="1.0" encoding="utf-8"?>
<!-- Generator: Adobe Illustrator 15.0.0, SVG Export Plug-In . SVG Version: 6.00 Build 0)  -->
<!DOCTYPE svg PUBLIC "-//W3C//DTD SVG 1.1//EN" "http://www.w3.org/Graphics/SVG/1.1/DTD/svg11.dtd">
<svg version="1.1"
	 id="NYC" xmlns:svg="http://www.w3.org/2000/svg" inkscape:version="0.47 r22583" sodipodi:docname="New_York_City_location_Manhattan.svg" xmlns:dc="http://purl.org/dc/elements/1.1/" xmlns:rdf="http://www.w3.org/1999/02/22-rdf-syntax-ns#" xmlns:sodipodi="http://sodipodi.sourceforge.net/DTD/sodipodi-0.dtd" xmlns:inkscape="http://www.inkscape.org/namespaces/inkscape" xmlns:cc="http://creativecommons.org/ns#"
	 xmlns="http://www.w3.org/2000/svg" xmlns:xlink="http://www.w3.org/1999/xlink" x="0px" y="0px" width="1407.2px"
	 height="1391.4px" viewBox="366.1 293.1 1407.2 1391.4" enable-background="new 366.1 293.1 1407.2 1391.4" xml:space="preserve">
<defs>
	
	
		<inkscape:perspective  inkscape:vp_y="0 : 1000 : 0" inkscape:vp_x="0 : 247.2 : 1" sodipodi:type="inkscape:persp3d" inkscape:vp_z="500 : 247.2 : 1" id="perspective144" inkscape:persp3d-origin="250 : 164.8 : 1">
		</inkscape:perspective>
</defs>
<g id="Layer_12">
	<rect id="Water" x="366.1" y="293.1" fill="#35A7FF" width="1009.6" height="998.3"/>
</g>
<g id="NJ">
	<path id="path88" fill="#C6E0C6" d="M366.1,293.1h573.5c-1.2,5.5-3.3,10.7-5.5,15.8c-2.3,5.4-4,11.1-5.5,16.7
		c-1.5,5.6-1.4,11.5-2.9,17.1c-3.3,12.7-10.8,24.7-15.2,37c-1.9,5.5-2.9,11.2-5.1,16.5c-2.4,6-4.9,11.7-7.4,17.8
		c-1.8,4.4-7.7,11.5-6.9,16.3c0.4,2,2.2,3.5,1,5.9c-1.6,3-5.3,0.2-6.6,3.6c-1.7,4.5-0.4,9.8-1.6,14.4c-1.3,5-5.2,9.9-7.8,14.2
		c-1.5,2.5-3.5,4.3-5.9,6c-1.4,1-4.2,1.9-4.6,3.7c-0.9,3.7,4.2,1.8,4.2,4.2c0,0.9-5,3.1-5.9,4.2c-2,2.3-2,3.6-0.3,5.8
		c2.1,2.6,2,2.4,0.5,5.5c-2.4,5.2-3.8,10.9-6.8,16.1c-1.3,2.3-2.3,4.9-3.4,7.3c-1.3,2.8-3.3,4.7-5,7.2c-1.4,2.1-0.9,4.3-2.3,6.3
		c-1.3,1.9-3.3,3.3-4.9,5.1c-1.3,1.4-3.6,3.6-2,5.6c1.5,2,5.4,0.2,3.6,3.5c-1.3,2.5-3.8,0.9-5.7,2.2c-0.8,0.5-2.1,1.4-1.4,2.8
		c0.5,1,1.7,0.2,2.4,0.9c2.4,2-0.1,2.7-2.4,3.2c-2.8,0.6-3.2,0.8-4.8,3.3c-2.3,3.8-14.8,18.6-6.6,21.1c0,1.4-0.8,2-1.4,3.2
		c-0.4,0.8-0.3,2-0.8,3.1c-1.4,3.6-3.1,0-5.6,1.1c-1.6,0.7-2.2,3.9-3.3,5.3c-1.2,1.5-4.3,2.7-4.2,5c0.1,1.3,1.8,1.3,1.6,2.8
		c0,0.4-1.9,1.7-2.2,2.1c-1.5,1.6-3,3.8-4.1,5.7c-1.1,2-2.1,4-3.4,6c-1.3,2.1-3.5,3.5-3.3,6.1c0.1,1.6,1.5,0.8,0.6,2.8
		c-0.6,1.3-1.1,1.1-2.3,1.4c-1.8,0.4-6.6-0.9-3.6,2c0.9,0.9,6,2.7,1.9,3.3c-2.5,0.3-4.2-3.3-6.6-2c1.3,1.4,2.7,2.6,4,4.1
		c-1.3,1.8,0,3.4-1.6,5.3c-1.1,1.3-3.1,1.9-4.5,2.8c-4.4,3.1-2.8,8.8-4.8,13.2c-0.7,1.5-2.4,2.1-3.5,3.2c-3.4,3.2-2.6,5.3,1.8,6.1
		c-0.3,2.5-4.4,0.7-5.2,3.2c1.1,0.1,2.2,0.3,3.2,0.7c-0.1,2.7-4.5,0.5-4.6,3.2c0.9,0.3,1.8,0.5,2.7,0.6c0.2,3.4-6.5,2.2-8.6,2.7
		c-2.6,0.7-3.4,2.1-0.8,3.6c1.9,1.1,4.8,0,6.9,1.3c2.1,1.2,2.8,4.2,1.1,5.9c-0.7,0.7-1.9,0.2-2.7,1.1c-0.7,0.7-0.8,2.2-1.2,3.1
		c-2.5,5.3,0.3,8.5,1.4,13.9c0.5,2.7,0.6,4.9-0.9,6.8c-1.6,2.1-4.9,3.1-6.1,5.4c2.6,0.7,6.3,2.5,4.5,5.7c-1.6,2.8-3.1,4.9-5.8,6.7
		c-1.1,0.8-2.9,1.3-1.7,2.8c0.4,0.4,1.9-0.3,2.5,0.3c1,1-0.3,1-0.1,1.6c0.2,0.7-0.1,1.2,0.3,2c0.1,0.3,1.3,0.7,1.6,1
		c1.7,1.6,2.4,2.3,1.2,4c-1.3,1.7-4.3,1.6-6.4,1.7c-2.5,0.1-5.2,1.2-1.9,2.5c2.2,0.9,4.3,0.3,6.3,2c1.6,1.3,1.7,4-1.3,4.1
		c-2.4,0.1-3.5-3-6.4-1.2c-3,1.9-0.8,3.4,1.7,3.7c1.4,0.1,5.8-0.5,5.3,1.9c-0.4,2-4.3,0.6-5.6,1.9c1,1,6.8,1.4,2.2,3.3
		c-2.3,0.9-5.3-0.9-6.6,2c2.3,1.3,5.1,0,7.2,1c3,1.4,1.5,3.2-0.9,4c-3.3,1.1-3.2,0.9-4.4,4.1c-0.8,2.1-2.3,4.8-4.8,5.3
		c-1.9,0.4-5-0.4-6.7-1c-3.1-1.1-1.9-2.4-3.5-4.5c-2.5-3.2-2.9,0.6-3.9,2c-1.7,2.4-4.7-0.2-6.1,1.4c-1.8,1.9,9.2,3.9,10.8,4.1
		c2.5,0.3,15.1,0,14.4,4.1c-3.9,0.2-8.4,0-12.2-0.7c-1.1-0.2-7.6-1.9-7.5,0.5c0.1,1.7,4.4,0.6,3.9,4.1c-0.3,2-3.3,4.8-4.4,6.6
		c-1.4,2.2-2.7,4.5-4.4,6.4c-2,2.1-4.6,2.1-6.6,3.6c-3.3,2.6,0.7,2,2,3.8c1,1.5-1.2,5.5-2.5,6.8c-2,2-2.1,0.1-4-0.3
		c-2.2-0.4-3.5,0.3-5.3,1.8c-1.7,1.4-1.6,0.4-0.4,2.5c0.8,1.5,2.6,1.4,1.3,3.7c-0.8,1.4-2.7,1.7-4.2,1.7c-3.4-0.2-4.3-5-6-7.8
		c-0.8-1.3-6.3-8.1-6.2-2.3c-3,0.4-4.8-5.7-6.8,0c-1.6,4.3,3.6,3.7,6.8,4.5c1,3.4-3.2,1.6-4.9,1.9c-2.7,0.5-2.5,1.4-2.5,4.2
		c0,4.4,1,10.5-0.9,14.4c-5.2,0.8-6.9-8.3-13.2-7.7c-7.9,0.7,1,7.9,3.8,9.6c3.4,2.1,10.3,5.1,5.6,9.8c-2.7,2.6-2.8,0.3-4.7-1.3
		c-2.3-1.9-4.1-1.1-2.4,1.6c0.6,1,2.1,1.3,2.6,2.3c0.8,1.5,0,1.1-0.3,2.7c-0.5,3,0.4,3.2,3.1,4c0.4,1.4-0.8,4.1-2.2,4.1
		c-0.9,0-3.4-2.7-4.4-3.3c-2.9-1.6-5.3-2.9-8.8-2.8c-0.9,4.9,6.3,7.4,9.9,9.2c3.7,1.8,7.3,3.8,10.9,5.8c2.5,1.4,5.8,3.7,8.7,3.9
		c-0.3,0.4-0.9,1.3-1,1.8c-0.6,2.5-1.5,5.7-4.2,5.3c-1.8-0.3-4-2.5-5.5-3.5c-4.8-3-10-5.7-15.2-8c-2.7-1.2-5.5-2.6-8.1-3.9
		c-3.8-1.9-1.2-2.5-3.1-5.3c-1.8-2.6-11.5-1.6-13.5,0.2c1.2,1.9,4.9,3.4,6.9,4.4c2.9,1.4,5.9,2.9,8.8,4.4c6.1,3,11.5,7.1,17.2,10.6
		c3.1,1.9,7.5,2.5,10.3,4.7c1.4,1.1,1.1,0.2,1.2,2.1c0,1.1-0.4,1.8-0.8,2.7c-1.9,4.4-7,5.1-10.7,2.4c-1.7-1.2-2.7-2.8-4.8-3.9
		c-2.1-1.1-4.4-1.9-6.5-3.1c-3.4-2-6.7-3.7-10.4-5.1c-6.4-2.6-13.5-3.2-19.4-6.7c-4-2.3-11.6-7.7-16.2-3.9c-4.6,3.8,1.1,9,5.4,7.1
		c1-0.4,0.2-1.8,2.1-1.4c0.8,0.2,1.4,2.1,2,2.7c1.7,1.4,3.8,1,5.7,2c-1.2,2.9-1.2,6,2.8,7.3c0.8,0.3,4.2,0.3,5-0.1
		c1.5-0.7,1.4-2.6,2.8-3.3c5.8-2.9,6.8,7.8,6.9,10.8c0.2,5.4,6.1,5.3,6.1,11.3c0,6.4-5.4,8.5-10.5,10.8c-3,1.3-5.9,2-8.9,3.1
		c-2.7,1-4.6,2.4-7.8,2.2c-2.9-0.2-3.7-1.1-6.1-2.5c-2.6-1.6-4.9-1.8-7.8-2.5c-3-0.7-9.6-8.2-11.4-2.2c-0.3,0.9,0.6,2.5,0.3,3.6
		c-0.2,1-0.9,1.7-1.3,2.5c-1.3,2.4-2.2,3.2-4.5,4.7c-6,3.9-12.1,4.4-19.2,4.4c-3.3,0-6.6,0-9.9,0c-2.3,0-6-0.7-8.1,0.3
		c-1.9,0.9-2.5,3.9-4.7,4.4c-2.3,0.6-5.2-1.5-6.3-3.3c-1.8-3-0.4-4.3,0.8-6.9c1.1-2.2,0.7-4.7,1.7-7c1.3-3.1,3.5-5.8,5.1-8.8
		c0.6-1.1,1.6-2.3,2.1-3.4c0.5-0.9,0.4-2.3,1.1-3.1c1.4-1.6,2.8-0.1,4.3-1c2-1.1,3.1-5.6,4.8-7.4c1.1-1.1,2.4-1.5,2.2-3.3
		c-0.2-1.6-1.7-1-1.4-2.8c0.3-2,3.9-4.8,4.8-6.9c2.1-0.6,1.5,1.3,2.8,1.8c5.5,2.2,2.4-9.4,2.7-11.9c0.7-5.1,7.5-7.7,10.8-11.6
		c3.7-4.4,6.1-10.6,7.8-15.8c0.5-1.5,7.8-10.7,2-10.3c-0.8-2.2-0.3-4.4,1.1-6.1c1.6-1.8,5.1-1.2,6.2-2.8c1.9-2.6-2.5-3.2-2.7-5
		c-0.1-1.6,2.3-3.4,3.3-4.7c2.6-3.4,3.1-7.6,7-9.7c2.4-1.3,7.4-3.1,7.8-6.3c0.5-3.9-5.5-2.1-6.5-6.2c-0.8-3.1,1.9-6.2,1-9.4
		c-0.7-2.3-3.5-3.9-1.4-6.3c0.8-0.8,2.3-0.3,2.8-1.7c0.6-1.7-1.3-2.1-1.4-2.8c-0.3-3.7,5.6-8.2,8.1-10.5c3.5-3.2,7.6-3.7,8.8-9
		c1.5-6.3-0.7-12.8,1.4-18.9c1.9-5.6,4.7-11.2,9.1-15.3c3.6-3.4,6-5.5,10.6-7.1c1-0.3,2-0.7,3-1c3.5-1.2,6.8-2.4,9.2-5.3
		c3.4-4,6.9-8.9,5.2-14.4c-0.5-1.6-2-4-3.5-5.1c-2.2-1.6-5.1-0.4-7.7,0c-4.2,0.7-12.4,2-16.1-0.6c-3.9-2.7-1.8-9-1-12.9
		c0.9-4.6,4.8-8,5.4-12.6c0.3-1.9,0-3.2,0.6-5c0.6-2.2,1.6-4,2-6.3c0.5-3.9,0.2-8.9-1.2-12.4c-1.6-4.2-2.7-6.1-1.9-10.6
		c2-10.2,11.3-16.8,17-25.5c2.6-4.1,3-6.5,8-8.1c1.9-0.6,5.2-0.9,4.1-3.6c-0.7-1.7-4.6-3-6-3.9c-1-3.3,5.1-3.4,6.9-4
		c2.8-0.9,4.7-2.3,6.9-4.8c4.5-5.1,6.1-10.3,13-12.5c5.2-1.6,10.7-3.4,16.1-4.2c6.2-0.9,12.5,0.1,18.5-1.8c8-2.6,12.9-9.2,14.4-17.3
		c0.6-3.4,2-7.8,1.1-11.1c-1.1-4.1-4.2-7.3-6.4-10.8c-2.9-4.6-0.7-9,1.9-13.4c2.2-3.6,7.2-6.6,7.8-11.1c0.7-4.4-2.4-7.1-3.4-11
		c-0.1-0.5-0.2-1-0.2-1.5c-0.1-2.5,1-3.6,1.4-5.8c0.4-2.2-0.3-4.5,0.3-6.6c2.1,0.9,3.8,6.5,5,8.6c2.3,4,5.2,6.8,10.2,7.4
		c4.7,0.6,10.5,0.9,13.6-2.9c1.7-2.1,2.9-4.9,3.7-7.9c0.8-2.7,1.3-5.5,1.8-8c0.5-2.7,0.1-5.5,0.5-8.2c0.4-2.8,1.3-5.4,2-8.1
		c1.1-4.4,3.1-8.3,3-12.7c-0.1-4.7,3.8-6.6,7.3-9.4c2.2-1.8,2.3-3,3-5.6c0.6-2.4,2-4,3.6-5.8c2.8-3.1,6.3-6.2,5.5-10.7
		c-3.8,2.7-5.2,7.3-9.7,9.5c-5.2,2.6-13.4,3.4-11.5,11c0.8,3.2,1.1,3.8-0.4,6.9c-1.3,2.9-2.1,5.7-2.6,8.9
		c-1.4,7.6-3.4,14.7-3.8,22.4c-0.1,2.6-0.4,6.1-1.2,9.3c-0.9,3.2-2.4,5.9-5.1,7.1c-4.4,1.8-12.2,1.8-15.3-2.2
		c-1.7-2.2-2.5-4.7-3.8-7.1c-1.2-2.3-3.1-3-4.8-4.8c-2.1-2.3-2.6-8.1-1.8-12c0.1-0.7,0.3-1.3,0.6-1.9c1-2.4,2.1-3.7,1.1-6.6
		c-1.2-3.9-5.7-5.7-7-9.4c-1.1-2.9,0.5-6.1-0.4-9.2c-1.4-4.7-3.7-8.7-4.8-13.6c-0.9-4.1,2-8.5,2.5-12.5c1-7.2-7.6-3.7-8.4-8.6
		c-0.3-2.1,3.3-4.1,4.5-5.5c1.6-1.8,2.9-3.8,4.1-5.8c1.1-1.8,2-3.7,2.2-5.9c0.3-3-0.9-3.4-3-4.8c-2.1-1.4-3.4-2-3.7-4.6
		c-0.1-1.6,0-4.7,0.9-6c1-1.5,3.6-2.2,5-3.1c2.8-1.8,1.5-3,2.4-5.8c0.4-1.2,1.1-1.5,1.4-2.8c0.2-1.2-0.1-2.4,0-3.6
		c0.3-2.4,1.5-4.2,2.7-6.4c2.4-4.5,4.9-8.3,8.2-12.4c1.1-1.4,3-3,3.5-4.8c0.7-2.5-0.3-6-1.4-8.1c-2.3-4.4-6.5-7.4-8.6-11.9
		c-4.4,4.5,2.7,8.2,5.3,10.8c3.7,3.9-0.2,8.9-2.6,12.3c-3.5,4.9-6.1,9.8-8.2,15.5c-1.6,4.4-2.3,9.8-5.5,13.3c-1.9,2-4.3,3.6-6,5.8
		c-1.7,2.2-1.5,4.2-1.2,6.9c0.2,2.2,0.3,6,1.8,7.4c1.5,1.4,4.4,1.1,6.3,1.8c-1.8,4.5-4.3,7.6-8.8,10.2c-2.8,1.6-4.4,2.7-4.2,6.5
		c0.3,4.1,2.6,5,5.8,6.4c2.2,1,5.1,2.4,3.3,5.3c-1.6,2.6-2.1,2.5-2.3,6c-0.1,2.9-0.3,5.8,0.1,8.6c0.5,3.4,2.7,5.6,4.4,8.6
		c2.7,4.9,0.3,10.3,2.4,15.1c1.1,2.6,3.6,2.7,5.1,4.7c1.3,1.9,0.7,4.2,0.4,6.4c-0.1,0.4-0.1,0.8-0.2,1.2c-1.1,5-3.6,9.4-3.9,14.8
		c-0.3,5.1,1.6,9.9,3,14.7c1.3,4.4,2.1,8.7,0.5,13.3c-2,5.9-8.2,5.2-11,10.3c-4.4,8.2,5.9,17.8,8.5,24.7c1.5,4-1.3,9.9-2.8,13.6
		c-1.8,4.1-5.6,7.8-10.2,8.3c-11,1.2-22.6-1.3-32.9,2.5c-6.5,2.4-11.2,7.5-15.1,13.2c-3.6,5.4-6.2,5.5-12.2,6.8
		c-6.3,1.3-8,9.6-9.8,14.9c-1.5,4.5-4.1,9.8-6.5,13.8c-2,3.4-6.6,5.2-8.9,9c-3.6,5.8-4.6,12.2-3.6,18.9c0.9,5.8,4.9,9.8,3.9,16.1
		c-0.9,5.6-2.2,11.8-4.4,17.2c-1.2,2.9-2.9,5.5-4.3,8.3c-2.1,4.3-1.3,5.6,0.6,10c2.5,5.7,8.8,9.7,15.2,9.2
		c4.5-0.4,12.9-2.8,14.1,3.3c1.1,5.4-3.5,8.1-7.5,10.2c-1.1,0.6-2.1,1-3.2,1.4c-1.8,0.6-3.7,1-5.6,1.4c-6.5,1-11,2.3-15.7,7.3
		c-3.8,4.1-6.1,9.3-7.1,14.8c-0.6,3.2-1.1,6.4-1.3,9.7c-0.1,3.1,0.4,6.3-0.6,9.3c-0.9,2.5-7.5,11.7-10.8,10.6
		c-2.3-0.7-2.9-3.9-5.9-3.1c-2.3,0.6-3,3.6-4.3,5.3c-4.5,5.7-7-1.4-8.8-4.9c-2.5-4.9-1.5-8.4-1-13.6c0.5-4.9-0.3-9.7,0.8-14.2
		c0.1-0.3,0.2-0.7,0.3-1c1.3-4.4,4-10,2.4-14.7c-1.2-3.7-5.3-8.7-9.1-9.9c-5.3-1.8-13.9-0.4-19.3,0.5c-3.1,0.5-6,1.9-9,2.8
		c-2.4,0.7-6.3,1.5-8.3,3.1c-3,2.3-3.2,6.1-5,8.8c-0.6,0.9-1.4,1.7-2.5,2.2c-3.9,2-9.1,1.9-13.6,1.9c-5.8,0-8.7-1.1-11.3-6.4
		c-2-4.2-5.3-8.7-6.2-13.3c-1.1-5.2-0.5-12.3,0.1-17.5c0.3-2.8,0.5-5.1,1.3-7.6c3.3-10.5,8.6-19.1,14-28.6c3.4-6,5.5-12.4,8.4-18.9
		c2.9-6.6,5.7-13.3,8.7-19.8c3-6.4,6.2-12.9,8.1-19.7c1.4-5.3,4.6-9.6,6.3-14.6c0.7-2.2,0.1-4.6-0.8-6.4c-1.3-2.5-1.6-3.3-1.6-6.4
		c0-2.1-1.1-4.8-0.6-6.7c0.5-2.1,2.9-2.6,3.8-4.5c1.7-3.4,1-12.7-2.7-14.7c-1.5,2.2-1.4,5.6-1.7,8.4c-0.3,2.9-1.7,5.7-2.2,8.4
		c-1,6.3,1.8,10.9,2.7,16.6c0.7,4.7-2.8,8.6-4.8,12.4c-2.7,5.1-4.3,10.5-6.3,15.9c-2.9,8.1-5.6,16-10.5,23.3
		c-3.6,5.4-7.8,9.8-9.6,16.1c-2,7-6.4,13.4-9.3,20.2c-1.8,4.3-3.5,8.9-5,13.3c-1.1,3.2-2.8,6.3-3.2,9.7c-0.3,2.9-0.3,6.1-0.3,9
		c-0.1,6.5,0.7,13.4,3.8,19.2c1.6,3,3.2,6.2,4.8,9.2c1.2,2.3,1.7,4.4,4.1,5.6c4.8,2.4,11.7,1.3,16.9,1.1c2-0.1,5,0.6,6.7-0.3
		c2.6-1.2,3.9-4.1,5.3-6.8c1.1-2.1,2.2-4,4.1-5.1c7.4-4.1,17.2-3.6,25.3-5.1c4.1-0.8,9.7-1.5,13,1.7c3.3,3.1,2.6,11.1,1.6,15.1
		c-0.3,1-0.5,2.1-0.7,3.1c-1.2,5.5-1.8,11.1-3.4,16.6c-1.7,5.9-3.2,11.8-3.4,18.1c-0.1,3.9,0.8,7.8,1.1,11.6
		c0.3,3.7,1.8,6.9,2.8,10.3c1.2,3.9,0,7.9-1.5,11.6c-1.4,3.7-2,8-4.3,11.6c-2.3,3.7-5.7,6.8-8.4,10.4c-2.1,2.9-4.6,7.7-7.8,9.4
		c0-0.1-0.1-0.2-0.1-0.2c-1.3-0.4-2.1-4.9-2.7-6.1c-0.9-2-2.2-4.5-3.5-6.1c-3-3.6-8.4-4.2-12.3-6.9c-4.2-2.9-9.6-7.5-15-7.4
		c-3.5,0-3.2,2.4-1.3,4.1c1.6,1.5,4.3,2.6,6.2,3.8c2.9,1.8,5.9,3.6,9,4.7c2.4,0.8,5.6,1.1,7.4,2.8c1.7,1.5,2.5,4.7,4.1,6.5
		c2.1,2.4,4,2.8,2.7,6c-2.1,5.4-6.9,9.9-9.7,15c-1.7,3.2-2,2.4-4.5,0.4c-2.4-1.9-4.8-3.6-7.2-5.5c-3.9-3.2-8.2-6.2-12-9.6
		c-1.3-1.2-3.3-3.4-5.4-2.7c-2.8,1-2.2,3.8-0.9,5.5c1.9,2.4,4.3,3.9,6.5,6c2.6,2.5,5,5.3,7.8,7.8c2.8,2.5,5.6,4.1,8.8,5.9
		c3.1,1.7,5.8,4.4,8.9,5.9c1.2,5.5-5,10.3-7.9,14c-1.6,2.1-2.6,6-5.2,7.1c-3.1,1.4-5.9-1.8-8.8-2.3c-11.6-2-6.5,17.4-15.2,18.3
		c-3.3,0.4-8.1-5.1-10.5-7c-3.6-2.9-7.6-7.9-12.3-8.5c-8.1-1,1.7,6.1,3.4,7.5c3.6,2.9,6.8,6.8,11.4,8.3c1,0.3,2.7-0.1,3.3,1.1
		c0.5,1.1-1.1,2-0.7,3.1c0.8,2.3,6.5,1.3,4.5,5c-1.2,2.2-4.6,0.9-6.5,1.6c-2,0.8-3,3.2-4.1,4.8c-1.3,1.8-2.4,4.9-4,6.3
		c-2.4,2.2-6,0.7-8.8,1.4c-2.2,0.5-4.2,2.8-6.1,4c-2.3,1.4-4.2,2.8-7,3.3c-2.5,0.4-4.3,0-6.4,1.5c-2.4,1.7-2.5,3-4.7,0.1
		c-1.5-2-2.3-3.1-5.2-1.3c-1.6,1-3.1,3-4.8,4.1c-1.7,1.1-3.7,2.3-6.1,1.7c-2.8-0.7-2.3-2.9-3.1-5.3c-1.7-4.8-6.3-6.1-10.4-8.1
		c-6.1-3-1.5-5.9-2.3-11.3c-0.4-2.9-2.3-2.7-3.4-5.3c-0.8-1.8,0.4-4.6,1.2-6.1c1.2-2.3,1.7-2.9-0.5-5.1c-1.9-1.9-3.6-2-6.2-1.9
		c-5.2,0.2-7.9-3-9.2-8c-0.5-2.2-0.7-4.5-1.3-6.7c-0.9-3.3,0.2-2.8,1.6-5.5c1.1-2-3.1-11.7-5.9-11.1c1,3.1,4.9,5.4,4.7,8.8
		c-0.1,2-1.4,1.7-2,3.3c-0.4,1.1,0,1.7,0.2,2.8c0.5,2.5,1.1,5,1.7,7.5c0.7,2.9,0.7,6.3,2.9,8.6c2.1,2.2,4.7,1.5,7.4,1.6
		c2.1,0.1,5,0.5,5.3,3c0.3,2.4-2.7,4.1-2.2,6.9c0.5,2.5,3,2.8,3.9,5.2c0.9,2.5-0.9,4.9-1.1,7c-0.5,5.3,6.1,7,9.8,9.4
		c2.7,1.7,3.1,1.8,3.5,5.1c0.4,2.4,0.8,4.4,3.3,5.6c1.7,0.8,5.2,1,7.3,0.5c3-0.6,2.9-2.7,5.3-4.4c1.8-1.3,3.8-1.4,5.5,0.6
		c1.1,1.3,1.3,0.8,0.1,2.3c-3.6,4.2-9,3.8-10,10.4c-0.6,3.6-2.6,9.4-6.6,10.9c-4,1.5-7.1-3.9-11.1-2.2c-4.1,1.7-3.6,6.7-5.2,10
		c-2.3,4.8-5.8,7.7-10.1,2.5c-1.1-1.3-1.7-4.8-3.6-5c-2-0.2-3.3,3.1-4.2,4.5c-1,1.4-2.1,4.8-4.2,4.2c-1.4-0.4-2.9-4.9-3.5-6.1
		c-2.1-4-3.1-8.2-7-10.9c-4-2.8-8-5.1-12.1-8c-1.7-1.2-5.9-2.6-3.5,0.7c1.5,2.1,5.8,2.3,7.8,3.7c2.1,1.4,2.7,3.1,4,5.3
		c1.3,2.3,2.9,3.9,4.6,5.8c1.9,2.1,4,4,5,6.7c0.9,2.4-0.2,6,1.1,8c5.8,0.7,8.9-9.8,15-5c2.2,1.8,3,3.5,6.6,2.8
		c2.7-0.5,4.2-2.6,5.6-4.9c1.4-2.5,1.4-5.5,3-7.8c1-1.4,4.9-3.7,6.7-2.2c1.7,1.3-0.4,6.2-1.1,7.9c-1.4,3.2-4.1,5.4-5.5,8.5
		c-2.4,5.3,4.2,6.6,2.1,11.9c-3.5,0.9-4.1-3.5-7.7-3c-3.2,0.4-5.7,2.6-7.5,5.3c-0.8,1.2-1.1,3.4-3.3,2.7c-0.8-0.2-1.4-3.9-3-2.5
		c-2.7,2.5,2.1,6.2,4.5,6.1c3.5-0.2,4.5-4.3,7.3-5.8c2.5-1.3,4-0.5,6.4,0c2.1,0.5,6.3,0,5.8,3.6c-0.1,1-1.6,1.9-2,2.7
		c-0.4,0.9-0.7,2.6-0.8,3.6c-0.5,5.2,0,10.8,0,16.1c0,5.3-3,8.9,2.5,12.2c2.8,1.6,2.8,2.4,4.4,5c1.2,2.1,3.2,2.7,1.9,5.8
		c-1.6,4-4.5,7.7-5.6,11.9c-1.6-1.9-2.3-4.4-4.7-6.3c-1.1-1-2.1-1.9-3.3-2.7c-0.9-0.6-2.7-1-3.3-1.5c-2.1-1.9-0.1-4.4-1.6-6.6
		c-0.8-1.1-3.1-1-3.6-2.2c-0.1-0.2-0.1-0.4,0-0.6c0.2-0.8,0.9-2.1,0.8-2.9c-0.9-8.1-7.8,1.3-9.4,3c-3,3-9.1,4-13.1,5.3
		c-5.1,1.7-9.5,1.6-13.2-2.5c-1.9-2.1-4.8-9.4-8.7-8.3c-2,0.6-2.5,4-4.3,5c-1.8,1-5.9,0.4-7.9,0.3c-3.2-0.2-13.9-4.4-16.4-1.4
		c-0.3,0.3-0.4,0.6-0.4,0.9h-2.9L366.1,293.1L366.1,293.1z"/>
	<path id="path108" fill="#C6E0C6" d="M453.2,1049.2c3.4,4.4-1.5,8.2-3.7,12c-2.5,4.3-2.4,10.1-3.5,15c-1,4.2-1.5,8.6-1.6,13
		c-0.1,3.7,2.3,7.4,1.3,11.1c-0.3,0.9-0.7,2.3-1.9,2.5c-1.8,0.3-1.4-1.6-2.8-2.2c-4.3-2-2.5,3.2-2.2,5.3c0.4,2.5,0.7,5.1,0.8,7.8
		c0.4,8.7-9.4,20.8-18.3,13.9c-4.3-3.3-5.8-7.1-12.2-6.1c-4.8,0.7-9.3,6.9-12.8,10.1c-4.2,3.9-8.1,6.8-13.9,7.9
		c-1.9,0.4-4.3,0.6-6.1,1.2c-2.4,0.9-3.2,3.2-3.9,5.4c-0.2,0.7-0.9,4.5-2.1,3.7c-0.9-0.7-1-3.5-1.1-4.5c-0.1-2.3,0.3-4.4,0.6-6.7
		c0.2-1.4,0-3.2,0.4-4.5c0.4-1.1,1.7-2.6,2.8-1.7c0.9,0.7,1.5,1.3,2.7,1c1.1-0.2,1.6-0.6,2.3-1.4c1.6-1.6,3.9-2,5.3-3.9
		c0.7-1.1,1.7-3.1,0.9-4.4c-0.9-1.4-2.9-1.8-3.9-3.3c-0.8-1.3-0.6-2.7,1.2-2.7c1.7,0,2.8,1.1,4.2,2c1.6,1.1,3.2,2.3,4.8,3.6
		c0.5,0.4,2.6,2.2,3,1.1c0.2-0.7-0.8-1.7-1.2-2.1c-1.6-1.7-3.9-3.2-6-4.4c-2-1.1-5-4.1-7.1-1.5c-0.9,1.1-1.1,2.5-0.9,3.8
		c0.3,1.3,0.6,1.8,1.8,2.4c0.9,0.5,2.1,0.5,2.2,1.6c0.1,0.9-0.2,2.1-0.7,2.8c-0.6,0.9-1.7,1.5-2.5,2.3c-1,0.9-2.7,3-4.4,2.3
		c-0.7-0.3-1-1.4-1.8-1.6c-2.7-1-3.6,3-3.9,4.7c-0.2,1.4-0.4,2.8-0.4,4.2c0,1.7-0.7,3.3-0.8,5c0,0.2,0,0.5,0,0.7h-1.7v-115.4h2.9
		c0,1.5,3.9,2.1,5.1,2.4c2.5,0.7,4.9,1.7,7.5,2.3c2.7,0.7,5.7,0.7,8.5,0.1c3.1-0.8,5.5-3.2,9-2.6c2.8,0.5,3.8,2.1,5,4.1
		c1.6,2.7,2.5,3.6,6,3.9c6.6,0.6,13.2-0.6,19.5-2.5c3.7-1.1,5.4-2.4,6-6.1c0.3-1.7,1-5.6,3.9-3.4c0.7,0.5,0.9,1.4,0.8,2.4
		c-0.1,1.1-0.5,2.3-0.5,3.1c-0.3,2.6,0.7,5.2-0.1,7.7c-0.5,1.7-0.4,3.2,0.6,4.7c0.3,0.4,0.7,1.8,1.2,1.7c0.8,0,0.2-1.5,0-1.8
		c-0.9-1.6-0.7-3.6-0.6-5.3c0-0.8,0-1.9,0.3-2.7c0.4-0.9,1.5-1,2.2-0.4c0.6,0.5,1.2,1.6,1.4,2.4c0.3,0.9-0.3,2,0,3
		c0.4,1.2,1.4,1.9,2.5,2.7C449.3,1046.2,451.7,1047.3,453.2,1049.2z"/>
	<path id="path110" fill="#C6E0C6" d="M375.3,1206c1.2,2.1,3.4,2.4,2.8,5.5c-0.5,2.7-2.5,5.1-4.2,7.1c-2.3,2.8-4.8,6.2-7.6,8.9
		v-46.3h1.6c0,0.8,0.2,1.3,0.9,2c1.8,1.7,3.6,0.2,4.4,3.3C374.6,1192.5,371.9,1200.4,375.3,1206z"/>
	<path id="path112" fill="#C6E0C6" d="M371.9,1157.2c0.3,0.9-0.3,2.2-0.3,3.1c-0.2,3.7-0.4,7.4-0.6,11.1c-0.2,3.3,0.3,4.3-1.6,6.7
		c-1,1.3-1.4,0.5-1.7,2.5c0,0.3,0,0.6,0,0.8h-1.6v-36.9h1.7c0,1.3,0.3,2.7,0.6,3.9c0.6,1.9,0.7,3.9,1.2,5.9
		C370,1155.5,371.5,1156,371.9,1157.2z"/>
</g>
<g id="NY">
	<path id="path6" fill="#C6E0C6" d="M1375.7,1068v15.8h-0.6c-2.4,0-4.6-0.5-6.9-1c-3-0.7-6.5-0.9-9.6-0.9c-2.8,0-5.4-0.8-8.1-1
		c-3-0.2-6.1-0.1-9.2-0.3c-4.9-0.2-10.3-0.5-14.7-2.8c-1.5-0.8-2.2-1.3-3.9-0.8c-1.9,0.5-3.8,1.1-5.7,1.7c-3.6,1.1-6.2,0.5-9.5-1.5
		c-4.2-2.5-9.7-1.5-14.4-1.5c-2.7,0-5.1,0-7.7,0.8c-2.8,0.8-5.4,2.3-8.1,3.4c-1.6,0.6-3,1-4.2,2.2c-1.1,1.1-1,2-2.5,1.1
		c-0.7-0.5-2.5-1.6-2.8-2.3c-0.7-1.5,1.1-2.4,1.9-3.2c1.2-1.1,1.6-2.6,2.5-3.8c1-1.4,2.4-2.4,3.7-3.5c0.9-0.7,1.6-1.3,2.3-2.2
		c0.3-0.4,0.5-1.1,1-1.2c1.4-0.5,2.8,1.4,4.4,1.2c1.7-0.3,3.3-1.9,4.3-3.2c1.4-1.7,1.6-4.1,4.2-4.5c1.8-0.3,3.7,0.3,5.4,0.8
		c0.8,0.2,1.6,0.4,2.5,0.6c0.8,0.1,1.6,0.3,2.4,0.4c4,0.8,8.1,1.3,12.1,2.2c7,1.6,14.3,2.5,21.5,3.5c8.3,1.1,16.9,0.6,25.2,0.6
		c4.6,0,9.2-0.1,13.7-0.4L1375.7,1068L1375.7,1068L1375.7,1068z"/>
	<path id="path8" fill="#C6E0C6" d="M1375.7,1036.7v24.9c-4.4,0-8.5,1.9-13.1,1.3c-1.4-0.2-2.3-0.9-3.6-1.5
		c-1.9-0.9-3.9-1.7-5.8-2.4c-4.5-1.8-10-1.9-14.7-1.5c-2.9,0.3-5.5,0-8.3-0.5c-1.7-0.3-3.5-0.1-5.3-0.2c-1.8-0.1-3.7-0.5-5.4-0.9
		c-3-0.7-5.8-1.5-7.8-3.9c-1-1.1-1.8-2.3-1.9-3.8c-0.1-1.2,0.1-2.4,0.2-3.5c0.2-2.3,0.4-5.2,1.8-7.1c1.2-1.6,2.3-3.1,4-4.2
		c1.4-1,2.8-1.9,4.2-2.9c1.8-1.2,6.7-4.9,5.5-7.8c-0.5-1.2-2,0.4-3,0.7c-1.1,0.4-2.4,0.2-3.6,0.7c-1.6,0.7-2.8,2.5-3.8,3.9
		c-1.3,1.8-2.7,3.2-4.4,4.6c-1.5,1.2-3.6,2.7-4.4,4.5c-1,1.9-1.3,4.2-1.3,6.4c0,2.1,0.2,4.1,0.7,6.1c0.5,2,1.4,3.4,1.1,5.6
		c-0.3,3-3.4,5.4-6.4,4.3c-2.8-0.9-3.6-4.3-5.7-6c-1.2-1-2.7-1.5-4-2.4c-0.1-0.1-0.3-0.2-0.4-0.3l7.7,0.4l-0.1-22.2
		c-0.1-0.1-0.8,0-1.1-0.2c-0.4-0.2-0.8-0.5-1.1-0.8c-0.6-0.5-1.2-1.2-1.8-1.8c-1.4-1.6-2.8-3.5-3.9-5.3c-1.5-2.2-2.5-5-3.5-7.4
		c-0.9-2.2-2.3-4.5-4.2-5.9c-1-0.7-2.6,0.3-3.5,0.8c-1.1,0.7-2.5,1.2-3.5,2c-0.5,0.4-1,0.9-1.5,1.3c-1.5,0.9-3.1,1.8-4.6,2.7
		c-1.8,1-2-0.5-3-1.7c-0.5-0.7-1.5-1.9-2.4-2.1l0,0c0.7-0.3,1.4-0.5,2-0.8c1.9-0.8,5-2.7,4.8-5.1c-0.1-1.3-0.8-5.5-2.9-4
		c-2.2,1.5-2.4,4.8-5.4,5.1c-2.5,0.2-5.8-0.1-7.9-1.4c-1.8-1.1-4.8-1.6-5.8-3.5c-0.3-0.7-0.4-1.3-0.3-1.8c0.1-0.5,0.4-1,0.7-1.5
		c0.4-0.6,0.8-1.6,1.2-2.1c0.6-0.7,1.5-0.8,1.8-1.8c0.3-0.9-0.4-5.7,1.8-3.5c0.7,0.7,0.7,1.7,1.4,2.4c0.9,0.8,1.7,0.7,2.4-0.2
		c1.6-1.9,3.3-3.9,4.7-6c1.4-2.1,2.5-4.4,5.3-4.7c2.2-0.2,5.2,0.4,6.9-1.4c0.8-0.9,1.1-2.2,1.8-3.2c0.8-1.1,2.6-2.3,3.8-2.7
		c2.3-0.8,4.3,0.5,5.5,2.4c1,1.6-0.3,3.7,0.6,5.3c1.9,0.3,1.5-3.9,1.3-5c-0.3-1-0.8-1.4-1.6-2.1c-0.4-0.4-1.5-1.2-1.4-1.9
		c0.3-1.7,4.1-0.9,5.2-1.2c1.3-0.4,5-4.2,3.2-5.5c-0.9-0.7-1.7,0.6-1.9,1.3c-0.2,0.6,0.1,0.9-0.5,1.3c-0.4,0.3-1.2,0.1-1.7,0.1
		c-1,0-2.9,0.3-3.6-0.5c-0.4-0.5-0.3-1.3-0.6-1.9c-0.3-0.8-0.6-1.1-0.6-2.1c0.1-1.1,0.2-1.6,0.8-2.5c1.1-1.5,2.2-3.7,3.5-4.9
		c0.9-0.7,1.7-0.6,2.4,0.4c0.9,1.2-0.1,1.4-0.7,2.5c-0.4,0.8-0.7,2.3-0.1,3c0.6,0.8,2.2,0.9,3.1,1c0.9,0,1.8,0,2.6-0.3
		c1.2-0.4,1.2-1.1,1.2-2.4c0-0.4,0.1-1.1,0-1.5c-0.2-0.5-0.3-0.4-0.6-0.7c-0.9-0.9-0.7-0.8,0.3-1.5c0.8-0.6,1.1-1.6,0.6-2.6
		c-0.4-0.8-1.2-0.9-2.1-1c-1.4-0.2-1.2-0.5-1.9-1.5c-0.5-0.6-1.6-1.1-2.3-1.5c-0.1-1.3,0.6-1.8,0.8-2.9c0.2-1.2,0.4-2.5,0.6-3.7
		c0.1-0.5,0.2-0.9,0.3-1.2c0.2-0.5,0.4-0.6,1.3-0.3c0.9,0.4,1.9,0.7,2.8,1c4.4,1.3,3.4,6.6,6.8,8.9c1,0.7,3.7,1.5,3.2,3
		c-0.4,1.4-3.1,2.4-4.3,2.9c-1,0.4-4.6,2.3-2.3,2.9c0.8,0.2,1.5,0,2.3,0.4c0.9,0.5,1.4,1.4,1.8,2.3c0.4,0.9,3.3,6.5,3.4,3.2
		c0-2.3-1.9-4-2.8-6.1c-0.5-1.1-0.5-1.6,0.3-2.3c0.6-0.4,1.2-0.8,1.9-1.3c1.6-1.3,2.8-1.5,5-1.6c0.9,0,2.2-0.2,3,0
		c0.9,0.3,1.1,1.2,1.4,2.1c0.4,1.1,1,1.9,1.7,2.8c0.6,0.8,1.3,3,2.6,2.8c-0.6-3-3.1-5.5-3.8-8.4c2-1.2,3.8-2.4,5.7-3.7
		c1.2-0.8,7-3.3,6.6-4.8c-2.3-0.1-4.7,0.9-7,1.6c-3,0.9-5.4,2.2-8.1,3.8c-3.2,1.9-5.7,1.7-8.9-0.2c-2.4-1.5-3.6-4.2-4.9-6.5
		c-1.6-2.8-4.3-5.6-5.1-8.8c-0.9-3.4,2.7-3.4,5.2-4.1c3.6-1.1,7.1-2.7,10.5-4.2c2-0.9,4.2-1.7,6.3-2.2c1-0.3,2.2-0.4,3.2,0
		c1.7,0.7,3.4,1.2,5.1,0c1.1-0.8,2-1.6,3.1-2.3c1.3-0.8,1.6-1.3,1.6-2.8c-1.1,0-7.1,6.8-8.4,3.9c-0.4-0.8,0.5-2.2,0.1-3.2
		c-0.9-2-3.2-0.4-4.4,0.1c-1.7,0.7-3.5,0.9-5.3,1.2c-2.2,0.3-4.4,0-6.6,0c-3.9,0.1-8,0.8-11.3,2.8l-0.8-0.6c1.1-2.5,3.3-4.1,5.8-5.1
		c2.8-1.1,6.1-0.7,9-1.8c1.9-0.7,3.5-1.5,5.5-1.8c1.6-0.3,2.7-0.4,4-1.3c0.7-0.5,2.1-0.8,2.5-1.8c0.5-1.1-0.4-1.6-0.8-2.5
		c-0.6-1.3-0.8-2.9-0.8-4.3c0-0.8-0.2-1.8,0-2.6c0.1-0.6,0.5-1.1,0.5-1.7c0.2-1.5-0.8-1.6-1.6-2.6c-0.8-1.1-0.8-2.2-1.7-3.1
		c-0.9-0.9-1.7-2.4-2.2-3.6c-0.5-1.2-1-2.6-0.2-3.8c0.7-0.9,1.5-1.3,1.6-2.6c0.2-3.4-0.4-1.1-1.2-2.6l0-21.1l4-7.6l-1-77.4
		l-6.7-26.9l39.4-14.7l14.3-26.4l-4.7-30.9l-79.5-66.7c2-1.3-1.9-2.9-2.6-3.4c-1.5-1.1-1.1-2.3-2.5-3.7c-1.2-1.3-3-1.8-4-3.3
		c-0.9-1.3-1.1-3.7-1.5-5.2c-0.6-2.9,0.2-5.9-0.2-8.8c-0.3-2.8-1.5-5.5-1.9-8.3c-0.3-2-0.2-4-0.2-6c0-2.8,0.9-5.9-2.3-7
		c-2.4-0.8-5.1-0.3-6.9-2.8c-1.1-1.5-1.9-3.2-2.6-4.8c-0.5-1-0.7-2.3-1.3-3.2c-0.6-0.9-1.6-1.5-2.2-2.4c-2-2.7-1.9-5.8-3.3-8.7
		c-1.4-2.9-3.4-5.3-0.9-8.3c2.7-3.2,5.3-6.5,9.3-7.7c3.7-1.2,7.2-1.2,9.4-4.8c2.2-3.6,3.9-7,3.3-11.3c-0.8-5.7-1.7-9.8-6-13.9
		c-3-2.8-6.3-6.3-1.7-9.1c1.8-1.1,3.1-1.7,4-3.8c0.7-1.6,0.8-4.9,2-6c2.4-2.1,4.9,3.7,5.8,5.1c2,3.2,4.6,3.7,7.6,5.7
		c3.1,2.1,6.3,4.4,9.2,6.9c2.3,2.1,5.3,5.8,8.2,7c2.6,1.1,4.7-1.3,7.4,0.9c1.6,1.3,1.7,3.5,2.9,4.7c1.3,1.4,3.9,1.3,5.7,1.7
		c4.4,0.9,6.8,1.6,9.5,5.4c3,4.2,6.2,8.5,8.2,13.3c1.1,2.6,1.9,4.9,3.3,7.3c1.2,2.1,2.1,4.8,2.3,7.3c0.2,2.1-0.7,3.3-1.3,5.2
		c-0.6,1.8-0.5,4.3-0.4,6.3c0.6,5.6,2.3,11.1,4.4,16.4c0.7,1.8,2.1,4.2,3.9,5.1c1.5,0.7,4.2,0.8,3.3-1.7c-0.6-1.6-2.8-1.1-2.3-3.3
		c0.4-1.8,2.1-1.3,1.8-3.9c-1.9-1.4-4.4-1.6-5-4.2c-0.6-2.8,0.2-6.1,0.8-8.8c0.8-3,4.3-24.7,7.9-22.9c1.8,0.9,1.1,3.1,3.9,2.7
		c2.1-0.2,2.5-1.7,3.1-3.5c1-3.1,1.5-7.4,0.5-10.5c-1.3-4.3-3.8-8-4-12.8c-0.4-6.5,3.3-11.5,6.3-16.6c2.1-3.6,1.8-5.5-0.6-9.2
		c-1.4-2.1-3.2-6-6.1-5.3c-0.8,3.4,2.5,5.8,0.5,9.5c-1.2,2.3-5.4,5.1-8,4.6c-6.6-1.3,0-15.2-9.2-12.5c-3.9,1.1-5.2,3.1-9.7,2.9
		c-1.3-0.1-3.7,0.1-4.9-0.5c-1.6-0.8-2.2-3.2-3.8-4c-7.1-3.4-3.9,11-4.1,15.2c-5,0.8-5.3-7.6-4.9-10.8c0.9-8.5,0.3-13.2-7.1-18.2
		c-4.1-2.8-16.6-8.5-8.3-12.7c5.5-2.7,15.6-2.6,17.9-9.5c1.9-5.7-1-17.2-3.8-22c-5.6-9.9,2.8-7,9.6-5c3.2,0.9,7.3,0.8,9.6-1.7
		c1.7-1.8,1.7-7,3.7-8.3c5.6-3.7,18.3,4.6,22.9,7.1c3.7,2,16,11.4,19.6,9.1h0.8v569.7h-0.3c-0.8,0.6-2,0.9-2.9,1.6
		c-0.8,0.6-1.1,1.4-1.8,2.1c-0.6,0.6-1.4,1-1.8,1.7c-0.6,0.9-0.2,1.9-0.3,3c-0.2,1.2-0.6,2.4-0.8,3.7c-0.2,1.3-1.1,2-2,2.9
		c-0.8,0.8-1.5,1.5-2.7,1c-1-0.3-2.4-1.5-3.1-2.2c-1.9-1.9-0.1-5.1,0.2-7.4c0.3-2.3-2.2-4.9-3.7-6.5c-2-2.2-4.8-0.7-7.1-1.8
		c-0.7-0.4-1.1-1.3-1.9-1.4c-1.4-0.3-0.8,0.8-1.1,1.6c-0.4,0.9-2,0.9-0.9,1.8c0.8,0.6,2.4,0.4,3.4,0.5c2.3,0.3,4.3,1.4,6.2,2.5
		c2.3,1.3,2,4.4,1.2,6.7c-0.3,0.9-0.7,1.9-0.9,2.7c-0.2,1.1,0.1,1.4,0.7,2.3c0.5,0.6,0.9,1.3,1.5,1.8c0.7,0.6,1.7,0.8,2.5,1.3
		c2.7,1.9-2.1,6.8-3.6,8.3c-1.9,2-3.9,3.1-3.4,6.3c0.4,2.3,2.5,4.7,3.9,6.7c1,1.4,2.7,2.3,1.7,4.2c-1,2-3.6,2.6-5.6,3
		c-2.3,0.5-4,0.9-6,2.2c-1.2,0.7-3.5,1.4-3.3,3.1c1.1,0.3,1.6-0.3,2.5-0.7c1.2-0.6,2.5-0.6,3.7-1.1c2.3-0.9,4.2-1.6,6.7-1.8
		c2.6-0.2,3.6-0.6,4.7-3c0.6-1.3,1.7-4.9,3.5-4.8c1,0,1.5,1.4,2.6,1.7c1.1,0.3,2.1,0.1,3.1,0.6c1,0.5,1.9,1.2,2.7,2
		c0.6,0.6,1.8,0.8,2.3,1.4L1375.7,1036.7L1375.7,1036.7z"/>
	<path id="path18" fill="#C6E0C6" d="M986.1,293.1H1249c-0.9,2.4-2,4.5-3.8,6.4c-1.2,1.3-3,2.3-4,3.9c-1,1.7-1.4,3.9-2.5,5.6
		c-0.7,1.2-3.2,3-3.4,4.4c-0.4,2.6,2.3,1.8,3.7,1.5c1.3-0.3,4-1.6,4.2,0.8c0.1,1.7-2.3,3.2-2.8,4.7c-1.4,4.2,1.7,6,5.2,6.5
		c2,0.3,3.7,0.3,3.1,2.9c-0.4,1.8-1.9,2.4-2.8,3.8c-2.2,3.4,0.5,6.4-4.4,7.3c-6.4,1.1,1.1,4.3-2.5,6.4c-1.6,0.9-3.3-0.2-4.9,1.1
		c-2.4,1.9-0.6,2.4,0.1,4.3c1.5,3.7-5.1,6.6-7.7,7.7c-4.2,1.9-6.2-2.2-4.3-5.8c0.9-1.7,2.5-2.8,3.5-4.4c1-1.6,1.6-3.7,2-5.5
		c0.6-2.2,0.5-4.6,1.6-6.7c0.7-1.4,2.8-2.6,2.9-4.1c-4.7-0.3-6.8,2.5-7.1,7c-0.2,3.2-2.9,5.2-3.8,8.1c-1.1,3.4-2.3,5.2-4.9,8
		c-0.9,0.9-1.7,2.4-3,2.5c-2,0.1-1.4-1.5-1.5-3c-1.1,1.2-5.1,4.6-5.2,6.2c0,2.3,3.6,0.7,3.1,3.5c-0.4,2-2.4,1.4-3.7,2.7
		c-1.5,1.4-0.8,3.9-1.6,5.6c-0.8-0.3-1.5-1.5-2.5-2.1c-1.2-0.7-2.1-0.4-1.9-2.5c-0.8,0.3-1,1.1-1.6,1.4c-1,0.5-1.2-0.1-2,0.7
		l-0.1-0.1c-3.3-1.4-42.5-15.2-48.3-17.9c-1.2-0.6-4.2-1.2-5.6-0.6c-2.1,1,0.5,1.9,0.8,3.7c-2.1,0.3-27-9.4-28-10
		c-2.2-1.4-0.6-3.8-2.2-5.7c-0.9-1.1-1.8-0.7-1.8-2.3c0-1.6,0.9-1.5,1.5-2.7c1.5-3.1-0.8-3.3-2.3-5c-2-2.2,1.8-8-3.5-7.9
		c-1.8,0.1-3.2,1.6-4.4-0.5c-0.5-0.8,0-1.5-0.6-2.3c-0.5-0.6-1.4-1.1-2.1-1.3c-2-0.8-2.5-1.1-4-2.8c-1.8-2-2.5-1.8-2.9,0.8
		c-0.4,3-1,2.1-2.5,0.3c-1-1.2-2.6-1.5-3.7-2.7c3.9-0.5,5.1-6.4,0.6-4.9c-4.8,1.6-0.5,4.9-3.3,7.7c-1.3,1.3-3,0.5-3.5,2.8
		c-0.3,1.4,0.5,2.8-0.2,4.2c-0.8,1.5-2.5,1.6-3.2,3.1c-0.7,1.5-0.6,3.5-1.2,5.2c-3.9,0.7-85.4-35-90.6-36.5
		C985.8,295.2,986,294.2,986.1,293.1z"/>
</g>
<g id="Airports">
	<path id="path14" fill="#FF5964" d="M1281.5,943.2c0.5,2.2,1.8,5.2,1,7.5c-0.5,1.3-1.3,2.4-2,3.6c-0.4,0.8-0.9,2.1-1.7,2.6
		c-0.6,0.4-1.3,0.3-2,0.5c-1.9,0.4-3.8,1.1-5.6,1.9c-3.6,1.6-6.9,3.6-10.3,5.4c-3,1.5-6.2,3.3-8.8,5.5c-1.2,1-2.3,2.1-3.6,3.1
		c-1,0.8-2.4,1.5-2.6,2.9c-0.1,1.1,0.6,2,0.8,2.9c0.3,1,0.2,2.1-0.2,3.1c-1,2.6-2.9,4.8-4.7,6.9c-1.1,1.2-1.8,2.5-2.8,3.8
		c-0.2,0.3-0.5,0.6-0.7,1c-0.8,0.9-1.5,1.9-2,2.9c-0.8,1.5-2.5,2.7-4.1,3c-1.5,0.3-2.9-0.2-2.1-1.8c0.6-1.5,2.1-2.4,3.1-3.6
		c1.6-1.9,1.8-3.4,1.8-5.9c0-1.1,0.1-2.1,0.4-3.1c0.4-1.3,1.7-2.4,2-3.7c0.4-1.9-2-3.9-3.4-4.8c-1.9-1.4-3.8-2.5-5.6-3.9
		c-5-3.8-10.6-6.6-16.1-9.6c-10.7-5.9-20.8-12.7-31.3-18.9c-3.3-2-6.9-3.5-10.2-5.7c-3.2-2.2-6.2-4.7-9.5-6.9
		c-3.4-2.3-6.6-5-9.5-7.9c-3.7-3.8-5.8-10.2-5.8-15.5c0-3.3,1-5.2,2.5-8c0.7-1.3,1.2-2.6,2.3-3.7c0.8-0.8,2-1.2,1.7-2.6l0.1-4.1
		c0.7,0,1.4,0,2.1,0.2c1.3,0.3,2.5,0.8,3.8,1c2.3,0.3,4.6-0.2,6.9-0.3c2.3-0.1,1.6,1,2.4,2.7c0.8,1.6,2.6,2.4,4.2,2.7
		c2.5,0.5,2.6-2.7,2.8-4.4c0.3-3.1,0.6-5,3.8-6.1c1.3-0.5,2.7-0.8,4.1-1.2c1.7-0.5,3.4-0.5,5.1-0.4c2.6,0.1,5.3,1,7.9,1.3
		c2.8,0.3,5.5,1,8.2,1.2c4.6,0.5,9.8,1.9,13.9,4.1c2,1.1,4,2.3,5.9,3.5c1.5,1,2.9,2.3,4.5,3.1c1.8,0.9,3.8,1.1,5.7,1.9
		c2,0.9,3.8,1.9,5.4,3.5c1.1,1.1,2.1,2.9,3.4,3.6c1.8,1,4.1,1,6.2,1.4c1.7,0.4,2.8,1.4,4.3,2.4c1.7,1.1,3.5,2.2,5.1,3.4
		c1.6,1.2,3.4,2.1,4.6,3.8c1.1,1.4,1.5,3,2.8,4.3c0.8,0.8,1.4,1.7,1.8,2.7c0.4,0.8,0.6,1.8,1.1,2.6c-0.2,0-0.5,0-0.8,0
		c0.1,0.5,0.6,0.9,1,1.4c1.2,1.4,2.3,2.7,3.8,3.8c1.5,1.1,3.2,2,4.5,3.4C1279,937.7,1280.9,940.2,1281.5,943.2z"/>
	<path id="path20" fill="#FF5964" d="M1247.2,990.9c0.2,0.7,0.2,1.4,0.1,2.1c-0.1,0.8-0.5,1.5-0.6,2.3c-0.1,0.7,0.2,1.3,0.1,2
		c0,0.4,0,0.8-0.2,1.2c-0.1,0.4-0.3,0.7-0.6,1c-0.7,0.6-1.2,1.3-1.8,1.9c-0.8,0.6-1.3,0.8-2.3,0.7c-0.7-0.1-1.4-0.5-2.1-0.6
		c-1-0.1-2,0-2.8-0.8c-0.4-0.4-0.8-1.1-0.6-1.7c0.2-0.5,0.8-1.1,1.1-1.5c0.4-0.5,0.9-1,1.2-1.6c0.3-0.5,0.5-1,0.8-1.5
		c0.2-0.3,0.4-0.5,0.7-0.8c0.8-0.7,1.6-1,2.3-1.9c0.5-0.7,0.9-1.6,1.5-2.2c0.6-0.5,1.4-0.9,2.1-0.6
		C1247,989.3,1247,990.2,1247.2,990.9z"/>
	<path id="path40" fill="#FF5964" d="M1152.6,889.9l-0.1,4.1c-1.9,0.2-3,0.4-3.9,2.2c-1.2,2.3-2.4,4.6-3.2,7
		c-1.5,4.9-1.1,10.4,0.8,15.1c1,2.5,3,5.2,0.6,7.1c-1.5,1.2-1.5-0.1-2-1.1c-0.3-0.6,0.1-1-1-1c-0.9,0.1-0.8,0.6-1.1,1.2
		c-0.7,1.4-1.4,2-2.8,0.8c-0.8-0.6-1.5-1.8-2.1-2.6c-0.5-0.6-1-1.2-1.5-1.7l0.2-0.2c1.1-1.5,2.4-2.9,2.3-4.9
		c-0.1-3.7-1.9-7.5-2.8-11.1c-0.5-2-1-4.1-1.8-6.1c-0.8-2.1-1.8-4-2.5-6.1c-0.7-2.2-1.4-4.4-1.3-6.7c1.6-0.1,3,1,4.2,1.9
		c1.6,1.1,3,1.6,5,1.9c3.6,0.5,7.6,0.2,11.2,0.2C1151.4,889.8,1152,889.8,1152.6,889.9z"/>
	<path id="path58" fill="#FF5964" d="M1088.4,644.1c0.4,0.6,1.6,1.6,1.5,2.3c-0.2,1.2-1.2,0.8-1.8,0.4c-1.2-0.7-2-3-3.4-4.1
		c-1.3-1-3-1.5-4.7-0.8c-1.3,0.5-4.2,2.2-5,3.3c-0.5,0.6-0.7,1.2-0.8,1.8c-0.5-0.4-1-1.1-1.4-1.6c-1.9-2.3-2.4-5.3-4.1-7.7
		c-0.9-1.3-1.3-1.4-1.9,0c-0.5,1.1-0.5,2.2-1.8,2.3c-1.1,0.1-2.1-0.9-3-1.4c-1.3-0.6-2.6-1.4-3.8-2.2c-1.3-0.7-2-1.5-3.5-1.3
		c-1.3,0.2-2.5,1.1-3.7,1.7c-3.5,1.9-6.9,4-10.3,6.1c-1.6,1-3,2.2-4.5,3.4c-1.1,0.9-2.7,2.1-4.1,1.3c-1.1-0.7-1.3-2.5-1.7-3.6
		c-0.5-1.4-1-2.9-1.4-4.4c-0.7-2.7-0.6-5.4-0.6-8.2c2.1-0.1,4.4-0.9,5.7-1.4c5.2-2.2-1-7.8,0-11.8c0.6-2.4,2.7-2.1,5-2.3
		c3.3-0.3,6.3-0.8,9.4-2.1c5-2.1,8.8,0.2,13.2,2.5c3,1.6,6.3,3.2,9.1,5.2c2.4,1.7,4.4,3.9,6.7,5.7c3,2.3,11.7,4,9.3,8.9
		c-1,2-2.7,1.6-1.2,3.8C1086.4,641.2,1087.4,642.6,1088.4,644.1z"/>
	<path id="path76" fill="#FF5964" d="M1025.8,631.2l0,0.1l-4.7,0.8c-1-1.1-7.1-7.2-7.1-7.2l5.5-5.4l4.1,5.3
		c-0.2,1.4-0.6,3.5-0.1,4.5C1023.8,630.4,1024.7,630.9,1025.8,631.2z"/>
</g>
<g id="Queens">
	<path id="path10" fill="#FF5964" d="M1360.1,678.8l4.7,30.9l-14.3,26.4l-39.4,14.7l6.7,26.9l1,77.4l-4,7.6l0,21.1
		c0.8,1.5,1.3-0.8,1.2,2.6c-0.1,1.3-0.9,1.6-1.6,2.6c-0.8,1.1-0.3,2.6,0.2,3.8c0.5,1.2,1.3,2.7,2.2,3.6c0.9,0.9,1,2.1,1.7,3.1
		c0.7,1,1.7,1.1,1.6,2.6c-0.1,0.6-0.4,1.1-0.5,1.7c-0.1,0.8,0,1.8,0,2.6c0,1.4,0.1,3,0.7,4.3c0.4,0.9,1.2,1.4,0.8,2.5
		c-0.4,0.9-1.8,1.2-2.5,1.8c-1.3,1-2.4,1.1-4,1.3c-2,0.3-3.7,1.1-5.5,1.8c-2.9,1.1-6.1,0.7-9,1.8c-2.5,1-4.7,2.6-5.8,5.1l0.8,0.6
		c-0.2,0.1-0.5,0.3-0.7,0.4c-3.2,2.1-2.7,6.7-2.7,10.1c0,2,0,4.3-0.7,6.2c-0.4,1.1-1.1,2.2-2.2,3c-1.1,0.8-3.1,2.3-4.5,2.2
		c-1.3-0.1-1.2-2.3-1.4-3.4c-0.5-2.8-0.6-5.1-2.8-7.2c-1-1-2.3-1.8-3.3-2.8c-1.2-1.1-2.3-2.4-3.4-3.6c-1.5-1.7-2.6-3.3-4.8-3.5
		c-0.5-0.7-0.8-1.8-1.1-2.6c-0.5-1-1.1-1.9-1.8-2.7c-1.3-1.3-1.7-2.9-2.8-4.3c-1.2-1.6-3-2.5-4.6-3.8c-1.6-1.3-3.4-2.3-5.1-3.4
		c-1.4-1-2.6-2-4.3-2.4c-2-0.5-4.3-0.4-6.2-1.4c-1.3-0.8-2.3-2.5-3.4-3.6c-1.5-1.6-3.4-2.6-5.4-3.5c-1.9-0.8-3.9-1.1-5.7-1.9
		c-1.6-0.8-3-2.1-4.5-3.1c-1.9-1.2-3.9-2.4-5.9-3.5c-4.1-2.2-9.3-3.6-13.9-4.1c-2.7-0.3-5.4-0.9-8.2-1.2c-2.6-0.3-5.3-1.2-7.9-1.3
		c-1.7-0.1-3.5,0-5.1,0.4c-1.3,0.4-2.8,0.7-4.1,1.2c-3.1,1.1-3.5,3-3.8,6.1c-0.2,1.7-0.2,4.9-2.8,4.4c-1.6-0.3-3.4-1.1-4.2-2.7
		c-0.8-1.6-0.1-2.8-2.4-2.7c-2.2,0.1-4.6,0.6-6.9,0.3c-1.3-0.2-2.5-0.7-3.8-1c-0.7-0.2-1.4-0.2-2.1-0.2c-0.6,0-1.1,0-1.7,0
		c-3.7,0-7.6,0.3-11.2-0.2c-1.9-0.3-3.4-0.7-5-1.9c-1.2-0.9-2.7-2-4.2-1.9c-0.1,2.4,0.6,4.5,1.3,6.7c0.7,2.1,1.7,4.1,2.5,6.1
		c0.7,1.9,1.2,4.1,1.8,6.1c0.9,3.6,2.7,7.4,2.8,11.1c0.1,2-1.2,3.4-2.3,4.9l-0.2,0.2c-1-1.1-2-2-2.5-3.5c-0.7-2.3-1.8-4.6-2.6-6.8
		c-1-2.5,0.1-5.8-1-8c-0.9-1.9-1.6,0.4-1.7,1.6c-0.1,1.6,0.3,3.1,0.7,4.6c0.9,3.5,2.4,6.7,2.2,10.5c-0.2,3.6-2.6,1.8-4.7,3.7
		c-2.3,2.2,3.2,2.7,4.6,1.3c0.7-0.7,1.6-2.9,2.2-0.6c0.3,1.2-0.2,2.1-1.2,2.4c-0.5,0.1-1.2,0-1.7,0.1c-0.5,0.1-1,0.5-1.4,0.5
		c-1.1,0.2-2.5,0.1-3.4-0.5c-2.1-1.2-2.2-4.1-2.7-6.4c-0.4-2.5-0.5-4.9-1.2-7.2c-0.6-2.1-1.1-4.3-2.2-6.4c-0.6-1.1-1.2-1.7-1.3-3.1
		c-0.1-1.7-0.1-3.7,0-5.4c0.1-1.2,0.7-2.6,0.5-3.8c-0.3-1.6-1.6-1.5-2.1,0c-0.5,1.3-0.1,3.2,0.1,4.5c0.5,2.5,0.8,5,1.1,7.6
		c0.7,5,1.6,9.7,2.8,14.6c0.6,2.4,0.7,4.7,1.2,7.1c0.2,1.1,0.1,2.4-0.2,3.5c-0.3,1.1-0.6,1.1-1.4,1.9c-0.7,0.7-1,1.5-1.3,2.4
		c-0.4,0.9-0.3,1.7-1.4,1.8c-0.8,0-1.3-0.7-1.8-1.3c-1-1.1-1.8-2.6-3.5-2.6c-1.9,0-3.9,0.9-5.6,1.6c-2.5,0.9-4.6,2.9-7,0.6
		c-1.9-1.7-4-4-5.3-6.2c-1.6-2.9,0.5-4.4,2.9-5.8c1.5-0.9,2.2-1.4,1.8-3.2c-0.3-1.4-1.1-2.2-2.5-1.4c-1,0.5-1.5,1.9-2.4,2.6
		c-1.1,0.9-1.8,0.4-2.9-0.2c-2.1-1.2-2.6-3-4-4.9c-2.3-3.1-6.4-8.1-10.7-8.8c-0.5-1.3,0.4-2.8-1.2-3.7c-0.5-0.3-2.2-0.5-2.4-1.1
		c-0.2-0.7,1.1-1.4,1.6-1.6c0.9-0.4,2.1-0.4,3-0.8c0.8-0.4,1.3-1.3,2.1-1.9c0.7-0.5,1.4-1,2.3-0.8c0.9,0.1,1.2,0.5,2.1,0.1
		c2.1-0.9,1.3-3.3-0.1-4.3c-0.8-0.7-2.3-1-1.9-2.3c0.2-0.5,1.3-1.7,1.7-1.8c1-0.3,1.2,0.9,2.1,1.2c0.8,0.3,2.6-0.2,3.1-0.8
		c1.1-1.5-1.5-4.9-1.7-6.6c-0.1-1.1,0-2.2-0.4-3.3c-0.3-1-0.9-1.8-1.3-2.7c-0.5-0.9-0.9-2-1-3.1c0-1.1,0.5-2,0.4-3.2
		c0-0.9-0.3-2.3-1.4-1.7c-0.7,0.4-1.1,1.7-1.6,2.3c-1.6,1.9-2.1-0.9-2.2-2.1c-0.2-1.9-0.4-4.2-1.2-5.9c-0.6-1.4-1-2.7-1-4.3
		c-0.1-2,0-5.4-2.2-6.3c-1.1-0.4-1.3-0.1-1.4-1.6c0-0.9,0.2-2.1-0.2-2.9c-0.6-1.2-1.4-0.8-2.5-0.9c-0.7-0.1-0.7,0.1-1.1-0.5
		c-0.3-0.4-0.4-1.3-0.5-1.8c-0.3-2.4-0.5-4.6-1.1-6.9c-0.7-2.6-0.9-5.3-1.5-7.9c-0.5-2.2-1.5-4.4-1.8-6.6c-0.2-1.7-0.2-3.5-0.2-5.2
		c0-1.5,0.2-3.2-1.8-3.2c-1.3,0-2.8,0.9-4,1.3c-2.3,0.8-5,1.3-7.1,2.6c-1.7,1.1-3.5,2.4-4.9,3.8c-1.9,1.9-3.1,4.2-5.3,5.8
		c-1,0.7-2.2,1.4-3.1,2.3c-1.2,1.1-2.3,2.2-3.8,3.1c-1.5,1-3,1.9-4.2,3.3c-0.9,1.1-1.2,2.2-2.7,2.8c-1.1,0.4-2.1,0.7-3.1,1.3
		c-0.7,0.5-1.5,2.1-2.1,2.3c-0.7,0.3-0.8-0.4-1.1-1c-0.7-1.3-1.3-2.8-1.7-4.2c-0.7,0.1-0.8,1.1-1.2,1.6c-0.5,0.5-1.1,0.8-1.3,1.5
		c-0.5,1.1-0.4,4-2.2,3.8c-0.6-0.9-0.9-1.9-1.6-2.8c-0.8-1.1-1.9-1.9-2.7-3c-0.6-1-1.3-2.2-1.5-3.3c-0.1-0.4,0.1-1-0.2-1.3
		c-0.3-0.4-1.1-0.5-1.6-0.8c-0.9-0.6-0.9-1-0.2-1.9c0.8-0.9,0.7-0.9,0.5-2.1c-0.3-1.2-0.6-1.3-1.6-2.1c-0.7-0.6-1.6-1.6-0.7-2.5
		c0.8-0.8,1.9-0.3,0.6-1.6c-0.6-0.6-1.3-1.4-2.1-1.8c-1-0.5-1.9-1-2.9-1.6c-1.2-0.7-2.6-0.9-3.8-1.6c-0.5-2.4,5-3,3.2-4.9
		c-1.8-1.8-4.4-2.8-6.2-4.6c-1-1-1.7-2-3-2.6c-1-0.4-4.5-0.6-4.8-1.8c-0.2-0.5,1.2-1.2,1.7-1.6c0.7-0.5,2.2-0.8,2.2-1.6
		c0-0.4-0.9-1.6-1.2-1.8c-0.7-0.5-1.8-0.3-2.6-0.4c-0.8-0.1-2.8-0.9-1.6-1.9c0.7-0.6,4-0.3,3.5-2c-2-0.1-2.5,0.3-3.9-1.5
		c-0.8-1.1-1.4-2.1-2.4-3c-0.6-0.6-1.5-1.7-2.3-2.1c-1-0.5-2-0.1-3-0.9c-0.7-0.6-1.3-1.1-2-1.6c-1.6-1.1-2.9-2.4-4.6-3.4
		c-1.2-0.6-1.7-1.4-0.3-1.9c0.7-0.3,2.6-0.3,2.4-1.4c-0.1-0.8-1.6-1.1-1.9-1.9c-0.3-0.9,0.2-2.1-0.2-2.9c-0.4-0.8-1.5-1.3-2.1-1.9
		c-0.8-0.8-1.1-1.7-1.8-2.5c-0.6-0.7-1.7-0.8-2.3-1.5c-0.5-0.6-0.5-2,0-2.6c0.8-1.1,2.6-0.7,3.4-1.8c0.6-0.8,0.4-2.1-0.4-2.7
		c-1-0.7-1.7-0.5-1.5-2c0.1-1.1,0.3-1.7,0-2.8c-0.2-0.6-0.3-1.2-0.5-1.8c-1.3-4.8-2.6-9.9-5.7-13.8c-1.5-1.9-3.3-3.4-5.6-4
		c-1.3-0.4-2.7-0.4-4.1-0.6c-1.8-0.3-3.5-1.1-5.2-1.8c-1.4-0.6-2.4-1-3.4-2.2c-2-2.5-3.4-5.5-5-8.2c-0.9-1.6-1.8-3.7-3.2-4.9
		c-1.3-1.1-2.9-2.1-4.4-2.9c-3.6-2-7.2-4.6-11-6.1c-4.6-1.7-9,0-12.8,2.6c-1.7,1.2-3.4,1.7-5.3,2.5c-1.3,0.5-3.1,1.9-4.6,2.1
		c0-2.8,0.2-5.6,0.4-8.1c0.5-5.2,3.4-10.8,6.3-15.1c1.5-2.3,3.8-3.7,5.5-5.8c2-2.5,3.6-5.7,5.1-8.5c1.5-2.7,3.2-5.3,4.8-7.9
		c1.1-1.9,1.4-4.3,2.7-6.1c1.5-2.1,3.5-3.8,4.9-6.2c3-4.9,5.1-10.6,9.4-14.7c2-2,15.2-5.4,10.3-9.1c-2.6-2-5.7-3.1-5.5-6.2
		c0-0.6,0.2-1.4,0.5-2.2c0.6-1.4,2.2-2.3,3.1-3.6c1.4-1.9,0.5-3.3,1-5.4c1.2-5.3,6.1,1.2,7.4,2.7c3,3.3,6.3-0.7,8.8-2.3
		c0.4-0.2,0.7-0.5,1.1-0.7c5.6-3.6,12.3-6.5,15.5-12.4c1-1.7,1.2-3.8,2.1-5.4c0.9-1.5,2.5-2.5,4.1-3.3c1.5-0.8,2.8-1.9,4-3.1
		c1-1.1,1.6-3,2.6-4c2-1.9,5.3,0.5,7.2,2.1c2.4,2,2.8,4.7,4.8,6.9c0.9,1,2.3,1.9,3,0.2c0.6-1.5-0.9-1.7-1.5-2.9
		c-1.7-3.2,1.9-3.4,4-2.2c2.2,1.3,4.3,2.7,6.6,3.9c2.3,1.2,4.3,2.6,2.7,5.5c-2.1,3.6-7.6,2.8-10.8,4.7c-2.2,1.4-6.5,8.1-3.7,10.5
		c1.7,1.5,3-0.8,3.3-2.5c0.4-2.3,0-2.9,2.1-4.1c3.3-1.8,7.2-4.3,10.2-1.1c1.6,1.6,2.7,2.9,4.6,4.1c1.4,1,4.5,2.2,3.5,4.6
		c-0.7,1.8-1.8,1.2-1.9,3.5c0,0.2,0,0.4-0.1,0.6l-4.1-5.3l-5.5,5.4c0,0,6.1,6.1,7.1,7.2l4.7-0.8l0-0.1c0.7,0.2,1.6,0.3,2.5,0.2
		c0,2.8-0.1,5.5,0.6,8.2c0.4,1.5,0.9,3,1.4,4.4c0.4,1.1,0.6,3,1.7,3.6c1.4,0.8,3.1-0.4,4.1-1.3c1.5-1.2,2.9-2.4,4.5-3.4
		c3.3-2.1,6.8-4.2,10.3-6.1c1.2-0.6,2.4-1.5,3.7-1.7c1.6-0.2,2.3,0.6,3.5,1.3c1.2,0.8,2.5,1.5,3.8,2.2c1,0.5,1.9,1.5,3,1.4
		c1.4-0.1,1.4-1.2,1.8-2.3c0.6-1.4,1-1.3,1.9,0c1.7,2.4,2.2,5.4,4.1,7.7c0.4,0.5,0.9,1.2,1.4,1.6c-0.6,4.1,5.5,9.1,7.9,11.1
		c4.1,3.4,10.3,8.5,15.6,4.8c3.7-2.6,8.1-3.8,11.7-6.3c1.3-0.9,4.8-4.1,4.2-6c-0.5-1.5-2.1-0.9-3.3-1.2c-2.3-0.6-4.5-2.3-6.6-3.4
		c-2.4-1.2-3.6-2.4-4.7-4.8c-0.7-1.6-2.1-4.9-2.1-6.7c0-1.7,0.8-1.5,1.7-2.7c0.6-0.8,0.9-1.8,1.3-2.7c1.1-2,3.2-4.4,1.9-6.9
		c-0.7-1.4-2.6-1.6-3.3-3c-1.7-3.3,3.8-7.9-2.2-8.8c-2.8-0.4-4.8,1.5-7.3,1c-2-0.4-3.8-2.2-5.2-3.6c-1.3-1.2-3-3-2.1-5.1
		c0.7-1.8,3.3-1.7,4.8-2.3c1.7-0.8,3.5-2.1,5.2-3.1c1.5-0.9,2.6-1.7,2.5-3.7c-0.2-3.6-5.6-5-4-9.5c0.6-1.8,2.2-2.7,4.2-1.8
		c2.2,1.1,2.3,2.6,5.2,2.3c1.4-0.1,3.4-0.6,4.6-1.2c1.5-0.9,2.2-2.6,3.5-3.8c1.3,0.9,0.7,2.7,2.7,2.5c1.4-0.2,1.9-1.9,2.3-2.9
		c1-2.5,2.6-5.8,5.5-2.7c1.2,1.3,0.8,3,1.6,4.4c0.7,1.3,2.1,2,2.8,3.3c0.7,1.3,1,2.8-0.1,3.9c-1.1,1-2.5-0.1-2.4,2.1
		c0.1,1.3,2,3.1,2.7,4.2c1.2,2,2.1,3.5,4.6,2c1.9-1.1,2-3.4,2.9-5.1c0.9-1.8,2.9-2.8,4.4-4.2c1.4-1.3,3.2-2.6,2.7-4.7
		c-0.5-2.1-2.7-1.5-3.4-3.3c-1-2.3,1.5-2.2,2.7-2.9c1.2-0.6,2.2-3,3.7-2.9c0.5,2.7,3.6,0.1,4.6-0.8c2.6-2.4,4.3-6,8.1-4.5
		c2.1,0.9,4.3,2.6,6,4.2c1.3,1.2,2,4.2,3.8,4.2c2.1,0,1.4-3.2,3.8-2.2c1.6,0.7,1.3,2.8,2.6,3.7c2.4,1.7,2.3-0.8,4-1.3
		c2.2-0.7,2.2,2.3,2.1,3.7c2.2,0.5,2.3-1,3.5-2.4c1.6-1.9,3.3-1.5,5.6-1c2.5,0.5,4.5,2.4,7,3.2c2.3,0.7,4.5-0.3,6,2.2
		c1.3,2.1-0.3,1.9-0.9,3.8c-1.2,3.8,3.5,4.5,6.1,5c6.2,1.1,19,3.8,19.5-5.9c0.2-3.1-1.4-2.2-2.9-3.7c-1.2-1.2-0.2-3.3,1.4-4.2
		c2.8-1.7,9-0.8,11,2c1.4,1.9,2.4,4.2,3.8,6.2c1.9,2.4,3.2,4.8,4.1,7.8c0.5,1.8,1.1,3.8-0.5,5.2c-0.8,0.7-4.2,0.8-4,2.3
		c0.1,0.6,2.5,1.6,3,2.1c1.3,1.3,2.1,3.1,2.9,4.7c2.5,5.5,3.7,11.2,5.8,16.7c1.9,4.7,5.4,8.5,8.6,12.4c2.6,3.1,5,6.4,8.2,8.9
		c1.9,1.5,3.5,2.4,4.2-0.6c0.2-1,0.3-2.7,0-3.7c-0.3-1.3-0.6-1-1.2-1.9c-1.2-1.6-1.3-3.1,0.6-4.6c1.9-1.4,3.1-0.3,2.7-3.2
		c-0.3-2.1-1.6-3.3-2.5-5.2c-0.9-1.9-0.6-3.1,0.2-5c1.4-3.1,1.4-7.4,3.7-10.2c4-4.8,5.9,2.9,9,0.9c0,0,0,0,0,0L1360.1,678.8z"/>
	<path id="path12" fill="#FF5964" d="M1298.1,1028.8l0.1,22.2l-7.7-0.4c-1.1-0.8-2.2-2.1-3.5-2.1c-1.7,0.1-3.7,1.7-5.2,2.5
		c-1.8,0.9-3.4,2.4-5,3.6c-3.6,2.6-7.4,5.2-11.7,6.3c-1.7,0.4-3.6,0.2-5.4,0.2c-2,0-4,0.1-6,0c-3.7-0.2-7.1-1-10.4-2.8
		c-3.5-1.9-8.4,0.7-11.8,1.4c-2.9,0.6-5.8,1.1-8.7,2c-2.3,0.7-4.9,0.9-7,1.9c-2.1,1.1-4.3,1.7-6.6,2.3c-2.4,0.6-4.6,1.6-7.1,2
		c-3.4,0.6-6.7,1.7-10.2,2.3c-4.4,0.7-8.2,3.1-12.5,4.1c-4.7,1.2-9.4,2.6-14,4c-3.5,1.1-7.1,1.8-10.5,3c-3.9,1.4-7.9,2.9-11.8,4.1
		c-2.3,0.7-4.7,1.3-7.1,2c-2.6,0.7-4.6,1.7-7,2.9c-3.3,1.7-6.7,3.4-10.1,5.1c-6.6,3.3-13.1,6.7-19.5,10.3c-4.1,2.4-8.1,4.8-12.5,6.7
		c-2.5,1.1-5.7,1.8-7.6,3.8c-0.6,0.6-0.8,1.3-1.7,1.1c-0.9-0.1-0.7-1-1.3-1.4c-0.7-0.5-1.9,0.2-2.5,0.4c-3.2,1.2-5.9,3.5-8.9,5.2
		c-6.6,3.7-13.8,6.9-21.2,8.7c-4.9,1.2-9.8,2.8-14.7,4.1c-4,1.1-7.5,2.5-11.1,4.4c-1.2,0.6-2.5,1.1-3.8,1.6
		c-0.8,0.4-1.6,1.2-2.4,1.4c-2.6,0.7-2.6-3.4-4.7-2.9c-1.4,0.3-2.8,1.3-4.3,1.8c-5.9,1.7-12.1,2.6-18,4.1c-3.6,0.9-7.3,1-10.8,2.1
		c-3.5,1.1-6.8,2.3-10.1,3.9c-3.2,1.4-6.5,2.9-9.8,4c-2.1,0.7-4.6,1.1-6.5,2.4c-1,0.7-2,2.1-3.4,1.3c-0.8-0.4-1.5-2-1.9-2.7
		c-1.2-2.3-2.5-5.1-2.5-7.7c0-4.7-1-12.6,4.6-14.6c3-1,6.4-1.9,9.5-2.4c3.3-0.5,5.7-1.9,8.5-3.5c0.7-0.4,1.7-1.1,2.5-1.1
		c0.9,0.1,1.2,0.9,2.2,1c1,0,1.8-1,2.7-0.8c0.5,0.1,0.5,0.6,1,0.9c0.4,0.2,1.1,0,1.5,0c2.8-0.5,5.1-2.3,7.6-3.6
		c1.8-0.9,3.5-2,5.3-3.1c1.4-0.9,2.6-2.1,4.3-1.5c2.2,0.8,3.9,2.6,6,3.6c1.8,0.9,4.9,1.1,6.8,0.1c0.8-0.5,1-0.9,2-1
		c1.3-0.1,1.9,0.6,3,0.9c1.9,0.3,4.5-1.7,5.7-2.9c1.6-1.7,2.8-3.7,4.4-5.4c1.4-1.4,2.9-4.4,5-3.7c2.2,0.6,3.3,3.3,5.8,2.9
		c1.9-0.2,3.4-1.7,5-2.6c1-0.6,1.7-1.3,2.4-0.1c0.5,0.8,0.3,2.7,1.8,1.9c1-0.6,1.3-1.7,2.5-2.1c1.2-0.4,1.7-0.1,2.5,0.5
		c2.1,1.5,5.4,0,7.5-1.1c1.9-0.9,3.8-1.9,5.6-3c2.6-1.6,5.1-3.1,7.7-4.8c7-4.7,13.8-9.6,20.7-14.4c2.5-1.7,5-3.4,7.3-5.3
		c1.7-1.5,3.8-3.1,6-3.8c3.2-1,5.7,1.3,8.6,1.7c3,0.4,5.7,0,8.7-0.4c3-0.4,5.6-0.9,8.4-2c2.8-1.2,5.7-2.2,8.5-3.5
		c2.8-1.4,5.6-2.9,8.6-3.8c2.2-0.6,4.2-1.2,6.1-2.4c0.8-0.6,2-1.1,3-0.6c0.7,0.4,0.2,1,1.1,0.6c0.3-0.1,0.6-0.7,0.9-0.9
		c2-1.8,4.4-3.4,6.6-4.9c1.3-1,2.7-1.9,4.2-2.8c1.1-0.7,2.6-1.1,3.6-1.9c1.7-1.3,2.3-3.6,4.4-4.5c2.3-1,3.9,1.1,5.7,2.3
		c0.7,0.5,1.4,1.2,2.2,1.6c1.1,0.6,2.2,0.6,1.3-0.8c-0.5-0.7-1.4-1.3-2.1-1.8c-1-0.6-2.7-1.1-3.5-2c-1.3-1.5,0.1-4.6,1.8-5.2
		c2.2-0.8,3.4,0.4,4.2,2.3c0.5,1.3,2.2,5.3,4,4.9c0.2-1.1-0.9-2.8-1.4-3.7c-0.8-1.4-1.7-2.7-2.5-4.1c-1.3-2.5-1-4.9-0.3-7.5
		c0.6-2.3,3.8-1.9,5.6-1.4c1.2,0.3,2.2,0.9,3.3,1.1c1.5,0.3,3.1,0.3,4.6,0.3c1.4,0,2.7-0.3,3.9-1c1.6-0.8,3.3-1.5,4.8-2.6
		c2.4-1.6,5-3.1,6.2-5.9c0.4-1,0.2-2.2,1.3-2.5c1.2-0.3,2.4,1,2.7,1.9c0.8,2.4-0.5,3.3-2,4.8c-1.4,1.4-3.4,3.6-4,5.5
		c-0.3,1,0,2-0.1,3c-0.1,0.9-0.5,1.6-0.9,2.4c-0.5,1-0.4,2.1-0.4,3.2c0,0.7,0,3.4,0.9,2.5c0.5-0.5,0.4-2.4,0.5-3
		c0.2-1.1,0.2-2.4,0.5-3.4c0.4-1.2,1.5-1.9,2.2-2.9c0.9-1.2,1.5-2.7,2.1-4.1c0.8-1.4,1.6-2.4,2.7-3.5c1.1-1.2,2.5-2.4,3.1-4
		c0.7-1.9-0.8-2.1-1.5-3.5c-0.7-1.4,1.2-2,2.1-2.6c1.5-1,2.7-1.9,3.2-3.7c0.4-1.4,0.5-2.5,1.2-3.6c0.7-1.1,1.5-2.1,2.3-3.1
		c0.8-1,1.4-1.5,2.8-1.2c1.3,0.2,2.6,0.8,3.8,1.1c2.4,0.6,4.2,1.8,5.4,4c1.2,2.3-0.6,5.3-1.8,7.4c-1.5,2.8-1.9,6.2-4,8.6
		c-2.1,2.4-5.3,2.6-7.8,4.4c-1.2,0.9-2,2.2-1,3.6c0.8,1.2,2.6,1.3,3.9,1c3.2-0.6,2.6-3.4,4-5.6c0.4-0.7,1.5-1.3,2.3-1.4
		c1.4-0.2,1.3,0.7,1.7,1.8c0.8,2,2.3,4.1,3.4,5.8c0.6,0.9,0.8,0.5,1.8-0.1c0.8-0.4,1.6-1,2.4-1.3c2.1-0.8,2.4,2.3,4.7,1.9
		c0.2-2.6-2.6-2.3-3.3-4.3c-0.7-1.8,0.3-4.2,0.1-6.1c-0.1-1.1-0.5-2.3-0.8-3.4c-0.4-1.1-1.1-2-0.8-3.2c0.3-1.8,0.3-3.7,0.7-5.4
		c0.3-1.5,1.9-2.6,1.4-4.3c-0.6-2.1-3.7-3.2-5.3-4.4c-0.8-0.6-2.1-1.6-2.4-2.5c-0.3-0.8,0-2,0-2.8c0-2.4,1.2-2.4,3.4-2.4
		c1.8,0,3.7,0.3,5.4,0c1.4-0.2,3.2-1.8,4.5-0.5c1.4,1.3,1.2,3.3,3,4.5c1.7,1.1,5.1,1.1,6.4,2.7c1.5,1.7-2,4.1-1.9,5.8
		c0.1,0,0.2-0.1,0.3-0.1c1.4,0,3-3.6,3.8-4.5c1.1-1.1,2.6-1.7,4.1-2.3l0,0.1c0.9,0.2,1.8,1.4,2.4,2.1c1,1.2,1.2,2.7,3,1.7
		c1.5-0.9,3.1-1.7,4.6-2.7c0.6-0.4,1-0.8,1.5-1.3c1-0.8,2.4-1.3,3.5-2c0.9-0.5,2.5-1.5,3.5-0.8c1.9,1.4,3.2,3.7,4.2,5.9
		c1.1,2.4,2,5.2,3.5,7.4c1.1,1.8,2.5,3.7,3.9,5.3c0.5,0.7,1.1,1.3,1.8,1.8c0.3,0.3,0.7,0.7,1.1,0.9
		C1297.3,1028.8,1298,1028.8,1298.1,1028.8z"/>
	<path id="path22" fill="#FF5964" d="M1221.6,999.8c1,0.9,2.4,2.2,2.3,3.6c-0.1,1.1-1,1.6-1.9,2.3c-2.8,2.1-5.5,4.2-8.2,6.4
		c-3,2.4-7,4.2-9.1,7.5c-0.6,0.9-1.8,3-3.3,2.3c-0.5-0.2-0.7-0.7-0.8-1.3c-0.1-0.6-0.1-1.2-0.1-1.7c0-2.2-0.4-3.2-2-4.8
		c-1.1-1-2.7-2.8-4.2-3.2c-2.2-0.6-8.9,1.3-9-2.3c0-1.2,0.5-2.3,1.1-3.5c0.8-1.4,1.9-2.7,2.5-3.9c1-2,2-4,2.9-6.1
		c0.8-2,1.9-3.3,3.3-4.9c1-1.1,1.7-2.7,2.3-4c0.4-0.8,0.7-1.6,0.8-2.5c0-0.5-0.3-1.4,0.5-1.3c0.7,0.1,0.9,1.9,1.3,2.4
		c0.8,1,2.6,1.3,3.8,0.9c0.4-1.7-4.1-1.7-3.4-4.3c0.8-3,3.7-0.9,5.1,0.2c1,0.8,1.6,0.8,2.8,1.1c0.9,0.3,1.5,1.1,2,1.8
		c0.6,0.7,1.5,1.4,2.1,2.1c1,1.1,1.5,2.5,2.2,3.8c0.8,1.4,1.5,2.9,2.4,4.3C1218.5,996.8,1219.9,998.2,1221.6,999.8z"/>
	<path id="path28" fill="#FF5964" d="M1198.8,1022.8c0.2,1.7-0.7,3.3-1.6,4.7c-1.1,1.6-2.8,1.4-4.5,1.9c-1.3,0.4-2.7,1.4-4.1,1.4
		c-1.5,0.1-2.8-1-4.2-1.5c-2.7-1-4.9-3.7-5.2-6.6c-0.1-0.7,0-1.4,0.3-2.1c0.8-2.2,3.1-3.9,5-5.3c1.1-0.8,2.3-1.6,3.7-1.6
		c2.5,0,5.3,1.4,7.1,3.3c1.2,1.2,2.4,2.5,3,4.1C1198.6,1021.7,1198.8,1022.2,1198.8,1022.8z"/>
	<path id="path30" fill="#FF5964" d="M1195.7,974.5c0,0.6-0.5,0.6-0.8,1c-0.7,0.7-0.9,1.6-1.6,2.2c-0.9,0.7-2,0.6-3.1,0.8
		c-0.9,0.2-3.1,1-1.8,2.1c1,0.8,3.1,0.4,4.3,0.6c0.1,1-1.6,2.1-2.3,2.7c-1.1,1.1-1.1,2.3-1.2,3.8c-0.1,0.8,0.1,1.7,0,2.5
		c-0.1,1-0.1,1.2-0.9,0.5c-1.1-1-1.5-3.4-3.5-3c-0.2,1,0.7,1.5,1.3,2.1c1.1,1.1,0.9,2.3,0.6,3.8c-0.5,3.3-1.4,6.4-2.3,9.6
		c-0.1,0.5-0.3,1.1-0.6,1.7c-0.5,1-1.1,2-2.1,2.1c-1.7,0.2-1.6-1.8-1.6-3c0-1.5-0.2-2.8-0.6-4.2c-0.6-1.9-2.5-3-3.1-5
		c-0.3-1.1-0.2-2.1-0.7-3.3c-0.5-1.2-1.3-2-1.9-3.1c-1.3-2.3-2.1-4.4-0.7-6.7c1.3-2.1,4.1-2.7,5.7-4.7c1.8-2.2,2.9-4.7,5.5-6.1
		c2.1-1.1,4.5-0.6,6.6,0.4c1.1,0.5,2.1,1,3.1,1.6C1194.6,973.3,1195.7,973.8,1195.7,974.5z"/>
	<path id="path32" fill="#FF5964" d="M1173.7,1017.6c1.8,0,2.9,0.9,2.3,2.8c-0.3,1.1-0.8,2-1.8,2.6c-0.4,0.3-0.9,0.4-1.2,0.8
		c-0.3,0.3-0.4,0.8-0.7,1.1c-0.8,0.6-2.4,0.2-2.7-0.7c-0.3-0.7,0.2-1.8,0.5-2.4C1170.6,1020.7,1172.2,1018,1173.7,1017.6
		L1173.7,1017.6z"/>
	<path id="path34" fill="#FF5964" d="M1172,998.9c0,1.1-0.8,1.9-1.9,1.3c-1.8-0.9-2.9-3.6-3.4-5.4c-0.4-1.5-0.8-2.9-1.3-4.3
		c-0.5-1.3-1.1-2-1.9-3.1c-0.6-0.8-0.6-1.6-1.1-2.4c-0.4-0.7-1.7-1.2-1.4-2.2c0.7-0.4,1.1-0.3,1.2-1.2c0.1-0.6-0.2-1.5-0.5-2
		c-0.5-1-1.9-1.9-2.2-3c-0.8-2.5,4,0.2,3.6-2c-0.2-1.1-1.4-1.1-2.2-1.5c-0.8-0.4-1.1-1-1.5-1.7c-0.4-0.6-1.3-1.2-1.8-1.9
		c-0.1-0.1-0.1-0.2-0.2-0.3c-0.4-0.9-0.2-2.8-0.1-3.8c0.1-1.3,0.1-3.5,1.4-4.3c1.6-1.1,3.8,0.8,4.5,2.1c0.9,1.6,2.5,3,3.3,4.7
		c1.2,2.4,0.7,5.3,1.9,7.7c1.1,2.1,1.6,3.8,0.3,5.8c-0.1,0.1-0.2,0.2-0.3,0.4c-1.6,2.3-1.1,4.4-0.7,7c0.4,2.9,1.1,5.6,3.2,7.9
		C1171.3,997.4,1172,997.9,1172,998.9z"/>
	<path id="path36" fill="#FF5964" d="M1170.8,1033.3c0.6,0.6-0.1,2.5-0.2,3.3c-0.2,2,0.2,6.7-2.4,7c-2.4,0.3-3.8-2.7-4.9-4.4
		c-1.2-1.8-4-5.2-3.6-8c0.1-0.5,0.3-1,0.6-1.5c0.9-1.2,2.4-1.9,3.5-2.9c0.6-0.6,1.1-1.6,1.9-1.7c0.1,0,0.2,0,0.3,0
		c3,0,1.7,5,2.2,6.7C1168.7,1033.5,1169.8,1032.3,1170.8,1033.3z"/>
	<path id="path38" fill="#FF5964" d="M1159.8,1004c1,0.7,4.8-0.7,4.5,2.1c-0.3,2.3-4.1,0-4.2,2c0,0.9,0.7,1.7,0.6,2.7
		c-0.1,1.5-0.8,0.6-1.6,1.2c-0.6,0.4-0.8,2.8-0.4,3.4c0.8,1.4,3.4,0.7,4.4,2c1.7,2.3-0.6,4.3-2.3,5.5c-1.1,0.8-2.3,1.8-2.9,3.1
		c-0.5,1.1-0.5,2.7-0.6,3.9c0,0.4-0.1,0.7-0.2,1.1c-0.3,1.1-0.7,2.1-0.9,3.2c-0.2,1.1,0,2.3,0.1,3.4c0.2,1.9,0.6,5.1-0.5,6.7
		c-0.8,1.1-2.3,1.4-3.3,2.2c-1.4,1.1-2.5,2.7-4,3.8c-1,0.7-2.5,1.5-3.6,1.9c-1,0.4-1.9,0.2-2.6-0.6c-0.5-0.6-0.9-2.7-1.7-2.7
		c-1.1-0.1-1.4,2-2.1,2.6c-1.7,1.5-4.8-0.5-6.5-1c-1.9-0.6-5.9-1.1-5.1-4.2c0.6-2.3,3.1-2.8,5.1-3.3c1-0.3,1.8-0.8,2.6-1.5
		c1.1-0.8,2-1,3.3-1.2c1.6-0.2,3.3-0.5,5-0.7c0,0.7-0.2,1.7,0.3,2.2c0.8,0.9,1.1,0.2,1.6-0.4c0.7-0.8,1.2-1.2,2.2-1.5
		c0.9-0.3,1.8-0.5,1.9-1.6c0.2-1.8-2.4-1-2.9-2.6c-0.4-1.4,1.6-3,2.3-4.1c1.3-1.9,1.6-3.9,0.2-5.8c-1.7-2.3,0-4.1,2.3-4.9
		c0.9-0.3,2.4-1.2,1.3-2.2c-0.9-0.7-2.5,0.2-3.4-0.2c-1-0.5-1.2-2.3-1.5-3.2c-0.5-1.4-1.2-2.7-1.8-4.1c-0.6-1.4-1.8-2.6-2.2-4.2
		c-0.2-0.9,0.2-2.5-0.5-3.1c-1,1.2-1.4,5.2-3.4,4.1c-1.7-1-2.7-3.4-3.8-5c-1.9-2.4-4,0.4-5.2,2.2c-1,1.4-1,3.2-1.8,4.6
		c-0.5,0.9-2,3.2-3.1,3.1c-1.9-0.1-2-2.9-2-4.2c0-0.9,0.2-1.8,0-2.7c-0.2-1.2-1.3-2.1-2.1-3.1c-1-1.1-1.9-1.1-3.3-1.8
		c-1.5-0.7-0.5-1.9-0.2-3c0.3-0.8,0.3-1.8,1.5-1.5c0.6,0.2,0.5,0.7,1.4,0.8c0.4,0,0.9,0,1.3-0.1c1.1-0.3,2-0.9,2-2.1
		c0-2.2-3.5-2.3-2.4-5c1-2.5,2-4.7,2.7-7.3c0.3-1.2,0.5-2.5,0.9-3.7c0.5-1.2,1.5-1.7,2.3-2.6c0.7-0.7,1.1-1.9,0.5-2.7
		c-0.6-0.7-2.7-0.4-2.5-1.5c0.1-0.9,1.6-0.9,2.2-1.2c1.6-1,1.7-3.6,2.5-5.1c0.8-1.5,1.8-2.5,1.7-4.4c0-1.4-0.6-2.2-1.1-3.5
		c-0.6-1.4-0.8-2.9-1.4-4.3c-0.6-1.3-1.2-2.6-2.1-3.7c-0.7-1.1-1.1-1.5-0.5-2.7c0.5-1,1.7-2,2.7-2.3c1.3-0.3,2.3,1,3.2,1.7
		c1.5,1.2,2.2,2.6,3.1,4.3c0.6,1.3,1.3,2.9,3,2.7c1-0.1,2.4-0.4,3.1-1c0.9-0.7,3.1-3.1,2.7-4.3c-0.1-0.3-0.7-0.5-0.8-0.8
		c-0.1-0.3,0-1.1,0-1.4c0.1-1.3,0.5-2.8,1.7-3.4c1.5,1.7,1.4,3.7,1.5,5.8c0.1,1.2,0.4,2.7,1.1,3.6c0.6,0.9,1.5,1.6,2.2,2.4
		c0.6,0.7,1,1.4,1.7,2c0.6,0.5,1.5,1.5,0.9,2.4c-0.4,0.6-2.1,0.9-2.8,1.3c-0.4,0.2-1.3,0.5-1.3,1.1c0,0.4,0.9,1.6,1.1,2
		c0.8,1.4,1.6,1.9,3,2.5c1.6,0.7,2.3,2,3.4,3.5c0.7,0.9,1.7,2.3,0.8,3.4c-0.5,0.6-2.3,0.5-2,1.7c0.2,0.5,1,0.4,1.5,0.7
		c0.4,0.3,0.5,0.6,0.7,1c0.6,0.9,1.3,1.5,1.7,2.5c0.3,0.7,0.6,2.2,0.3,2.9c-0.4,0.9-1.5,0.7-2.3,0.5c-0.7-0.1-5.4-2.8-4.9-0.2
		c0.1,0.4,0.6,1,0.9,1.3c0.4,0.7,0.8,1.4,0.8,2.2c0.1,1-0.2,2.7,0.6,3.4c0.7,0.6,1.3-0.2,1.8-0.8c0.8-0.9,1.2-1,2.5-0.9
		c1.2,0.1,2.2,0.5,3.1,1.4c1,1,0.6,1.9,0.1,3.1c-0.6,1.6-1.3,3-3,3.4c-0.9,0.2-3.3,0-3.5,1c-0.1,0.6,0.4,0.7,0.6,1.2
		c0.3,0.6,0.5,1.2,0.7,1.8c0.4,1,1,1.8,1.8,2.6C1158.8,1002.6,1159.2,1003.5,1159.8,1004z"/>
	<path id="path42" fill="#FF5964" d="M1144,1023c0.4,1-0.1,1.7-1.1,2.3c-1.1,0.7-2.4,0.9-3.5,1.4c-0.7,0.3-1.5,1-2.2,0.4
		c-0.7-0.6-0.5-1.9-1.4-2.4c-0.7-0.5-0.8,0.1-1.3,0.5c-0.6,0.5-1.4,0.7-2,1.2c-0.7,0.6-1.3,0.8-2.2,0.9c-0.9,0.1-1.9,0.1-2.9,0.1
		c-1.1,0-1.2,0.4-2,0.9c-2.2,1.3-1.2-2.9-1.2-3.9c0-0.5,0.1-0.8-0.3-1.1c-0.2-0.2-0.7-0.1-0.8-0.5c-0.4-0.8,0.7-1.2,1.2-1.5
		c1.1-0.4,1.5-1,1.9-2.1c0.3-1,1-2.1,1.6-2.9c0.6-0.8,1.3-1.1,1.7-2c0.4-0.9,0.7-1.7,1.6-0.8c0.8,0.9,1.1,1.9,1.5,3
		c0.1,0.4,0.2,1,0.5,1.4c0.3,0.5,0.6,0.7,0.8,1.2c0.2,0.5,0.2,1,0.5,1.5c0.5,1,1.3,1.7,2.4,1c1.8-1.3,0.6-4.2,0.6-6
		c0-0.7,0-2,0.7-2.4c0.9-0.5,1.5,1.3,1.9,1.9c0.5,0.8,1.2,1.5,1.7,2.3c0.5,1,1,2,1.4,3C1143.4,1021.2,1143.7,1022.1,1144,1023z"/>
	<path id="path44" fill="#FF5964" d="M1133.4,1056.9c0.2,3.3-2.5,4.9-4.6,7.1c-1.9,1.9-3.9,2.1-6.5,2c-2.5,0-2.6-2.6-3.3-4.5
		c-0.5-1.4-0.7-2.1-0.3-3.6c0.4-1.2,0.8-3-0.2-4.1c-0.7-0.8-2.2-0.9-2.9,0c-0.5,0.7,0.1,1.8,0.1,2.6c0,1-0.5,1.2-1.3,1.6
		c-0.5,0.3-1.4,0.5-1.9,0.9c-0.7,0.5-0.9,1.6-1.6,1.7c-2.5,0.5-6.6-3.2-5.2-5.6c1.4-2.6,3.2-4.7,5.9-5.9c1.7-0.8,3.2-1.9,4.7-3.1
		c1-0.9,1.8-1.1,3-0.6c3,1.2,3.7,5.2,6.4,6.8C1128,1053.5,1133.2,1053.6,1133.4,1056.9z"/>
</g>
<g id="The_Bronx">
	<path id="path24" fill="#38618C" d="M1217.8,468.3c1.5,1.9,3.4,4.5,2.9,7.1c-0.3,1.3-1.1,1.7-1.9,2.6c-1,1.2-1.4,2.7-2.1,4.1
		c-2.2,4.6-4.4,0-5.4-2.3c-0.6-1.3-1-2.9-2.1-4c-1.3-1.3-2.6-2.2-3.5-3.9c-1.1-2.1-1.3-4.4-2.2-6.6c-0.7-1.6-1.7-3.2-2.6-4.7
		c-1.5-2.4-3.4-3.7-1.1-6c1-1,1.5-1.9,2.1-3.2c0.6-1.2,1.8-2.3,2-3.6c0.2-2.5-2.7-5.6-4-7.5c-1.7-2.4-3.4-5.2-1.9-8.2
		c1.3-2.6,4.8-4.7,6-1c0.5,1.5,0.1,3.1,0.3,4.7c0.2,1.6,1,4.1,1.7,5.6c0.9,1.9,2.3,3.2,4.3,4c1.4,0.5,2.9,1,3.5,2.5
		c0.8,1.7,0.4,4.1,0.7,5.9c0.2,1.3,0.6,2.2,1.6,2.9c0.9,0.6,2.7,0.8,3.4,1.8c2.3,3.3-3.7,1.8-4.7,3.7
		C1213.4,465,1216.5,466.7,1217.8,468.3z"/>
	
		<path id="path26" sodipodi:nodetypes="cscssscsssssssssscscsssssssssscsscssscscsssssscsssscsssssssccssssssssssssssssscccsscssccsscssscssccssssccsscssssscscscsssscccsccssssscssccccssssscccsssscsccssssscccssssscscscsccssssccsscssscssssscscccssssssssssscscssssssssscsssc" fill="#38618C" d="
		M1213.1,395.8c1.8,0.1,1.6,3.3,1.2,4.5c-1.1,3.5-6,4.5-9.2,5.6c-4.3,1.5-4.2,5.7-4.6,9.8c-0.2,2.1-0.3,4.2-0.4,6.4
		c-0.1,2.5-1.4,2.9-2.7,4.8c-1.9,2.8-1.4,5.9-4.4,8.1c-2.9,2.2-7.7,3.5-4.5,7.9c1.1,1.5,2.5,2.1,2,4.4c-0.4,1.8-1.9,2.7-2.8,4.3
		c-0.8,1.5-0.4,4.2-1.4,5.5c-1.5,1.9-1.8-0.9-2.5-2c-1.8-2.9-4.6-4.9-6.2-8.1c-0.8-1.6-1-3.4-1.7-5c-0.7-1.8-1.6-3.1-1.6-5.2
		c0-1.7,0.2-4,0.8-5.6c0.6-1.7,2.3-3.6,1.5-5.6c-0.9-2.1-3.2-1.2-4.2,0.6c-0.9,1.7,0.7,3.5,0.2,5c-0.9,2.4-2.5-0.8-3.2-1.8
		c-0.9-1.4-2.1-2.7-3-4.2c-0.9-1.5-1.5-3.7-2.7-4.9c-0.7-0.7-1.2-1.3-2.3-1.1c-1.1,0.2-0.8,1.2-1.5,1.4c-2.8,0.8-1.5-1.7-1.8-3.1
		c-0.4-1.8-2.9-1.4-3.1-3.1c-0.2-1.5,2-2.2,2.3-3.5c0.2-1-0.5-1.7-0.4-2.7c0.1-0.7,0.8-1.2,1-1.9c0.6-1.9,0-4.2-2-2.4
		c-0.6,0.5-3.2,4.2-3.1,0.6c-1.9-0.3-1.4,2.5-3.7,1.8c-1.1-0.3-2.5-2.7-3.1-3.7c-0.9-1.4-1.4-3.2-1-4.8c0.8-2.5,1.8-1.9,3.8-2.4
		c2.4-0.7,1.6-1.9,0.3-3.3c-1.5-1.6-2.4-2.2-2-4.5c1-6.7,7.9-12.8,2.4-19.8c-2.4,1.1-1.5,7.9-1.8,10.2c-0.5,4-2.9,6.7-4.8,10.2
		c-2.4,4.5-1.2,9.3,0.6,14c1.4,3.6,4.4,5,4.6,9.1c0.1,1.7-0.2,4.1,0.2,5.8c0.4,1.8,2.5,2.3,2.9,4c0.7,2.8-6.8,6.7-3.5,8.1
		c2.8,1.2,2.3-2.1,3-3.3c0.9-1.7,3.8-1.7,5.5-1.2c2,0.6,2.8,2.5,2.5,4.6c-0.3,2.7-1.7,2-3.9,3.1c-1.6,0.8-3.2,2.4-3.4,4.3
		c-0.3,2.8,1.5,2,2.9,3.3c1.4,1.3,0.8,2.5,0,4c-1.1,1.8-1.9,2.6,0,4.5c1,1.1,3.2,1.2,2.9,2.6c-0.4,2.5-3.8,0.7-4.4,1.8
		c-0.5,1,1.4,0.9,1.8,1.3c0.9,0.8,0.6,0.7,0.8,1.8c0.2,1-0.5,1.3,0.2,2.5c0.5,0.7,1.2,1.1,1.8,1.6c1.6,1.3,6.9,5.9,3.2,8.1
		c-2.8,1.7-4.6-6.1-8.3-3.1c0.8,0.7,1.9,0.9,2.6,1.7c0.9,0.9,2.4,2.3,3.2,3.3c0.5,0.6,0.9,1.6,1.2,2.3c0.5,1.2,1.2,3,0.1,4.3
		c-1.3,1.4-2.6,0.5-3.2,2.8c-0.8,3.4,0.1,8.1,0.6,11.4c0.4,2.6,1,5.1,2.6,7.2c1.1,1.4,5,3.3,4.3,5.3c-0.5,1.4-2.9,1.4-3.6,2.7
		c-0.6,1.1-0.3,5.1,0.7,5.8c1.3,1,3.2-0.4,4.3-1.5c1.1-1.1,1.9-3.6,3.7-3.9c1.9-0.3,2.9,1.7,3.7,3.1c2.1,3.9,1.4,8.8,3.6,12.9
		c1.9,3.5,7.5,4.5,11.1,6.1c5.1,2.4,2.6,4.6-0.8,6.7c-2.8,1.7-5.6,5.4-8.2,1.4c-1.9-3-1.1-8-5.8-7.7c0,1.7,1.6,3.2,2.5,4.5
		c1,1.6,0.6,3.2,1.3,4.7c1.7,3.6,6.2,5.5,9.7,6.3c3.5,0.8,6.1,3.2,9.4,4.9c2.8,1.4,7.5,1.2,8.8,4.9c1.7,4.9-4.4,4.6-7.4,3.2
		c-3.4-1.7-6.2-4.4-9.6-6.2c-2.4-1.3-4.1-1.3-6.7-1.7c-2-0.3-3.4-1.7-5-2.9c-3.8-2.7-7.2-5.7-10.9-8.6c-4.2-3.3-10.8-1.8-15.3,0.5
		c-2.3,1.2-4.2,3.4-6.6,4.3c-2.6,1-5.4-0.4-8.1-0.5c-1.6-0.1-4.5,0-5.5,1.4c-1.1,1.6-0.1,4.7,0.1,6.4c0.3,2.7,0.1,5.2-2.7,5.7
		c-6.7,1.2-8-3.8-10.5-8.3c-1.7-3.1-1.6-5.7-1.6-9.2c0-3.5-0.7-7-0.4-10.6c0.3-3.3,2.3-6,2.3-9.6c0-4.3-1.6-9-3.2-13
		c-0.4-1-2.5-5.7-3.7-5.1c-1.1,0.6,0.5,7.6,0.6,8.3c0.4,2.2,1.1,4.4,1.5,6.4c0.4,2,1.6,3.7,2,5.6c1.1,4.8-4.2,6.4-6.5,9.8
		c-1.6,2.4-1.9,4.3-2.4,6.9c-0.2,1.2-1.1,5.3-2.5,5.8c-2.7,0.9-4.9-5.5-7.3-6.3c-1.6-0.5-3.6-0.3-5-1.4c-1.2-1.1-1.6-4.7-3.3-4.7
		c-2.3,0-0.2,3.6,0.6,4.5c1.5,1.8,3.7,2.2,5.6,3.4c1.4,0.8,3.4,2.1,3.8,3.7c0.5,2.2-2.1,2.9-1.7,4.8c0.3,1.6,3.1,2.9,4.2,3.9
		c1.3,1.3,3.3,3.3,3.3,5.2c0.1,4.3-8.2,4.7-11.2,5.8c-2.3,0.8-4.4,1.7-6.1-0.2c-1.4-1.5-2.2-4-3.3-5.8c-1.5-2.4-1.3-4.5-1-7.3
		c0.1-1.2,1-4.7-0.1-5.6c-1.2-1-4.5,0.7-5.7,1.1c-2.1,0.6-4.4,1.4-6.7,0.9c-5-1.1-5.5-5.8-8.3-9.1c-3.2-3.7-8-1.7-11.3-4.5
		c-1.8-1.5-2.7-3.7-4.3-5.4c-1.4-1.5-3.5-2-3.1,0.6c0.6,4.4,6.2,6.2,9.5,7.9c1.9,1,4.2,1.9,6,2.9c1.6,1,2.1,2.4,3,4.1
		c0.8,1.7,1.7,3.2,2.5,4.9c0.5,1,1,2.4,1.6,3.2c0.5,0.8,1.3,1.1,1.7,2.1c2.3,6.8-4.5,15.5-11,16.1c-3.3,0.3-2.7-0.8-3.9-2.9
		c-1.1-2.1-4.3-3.5-6.6-4.1c-3-0.8-4.2,0.5-6.2,2.5c-2,2-3.1,3.1-5.2,1c-1.6-1.6-2.6-4-4-5.8c-4.6-5.6-10.4-7.8-17.6-6.1
		c-5.3,1.2-7.8,4-11.1,7.9c-2.2,2.6-4.1,4.9-5.6,8c-0.9,1.9-1.7,3.8-3.1,5.4c-1.7,1.8-2.6,2.1-5,1.9c-1.3-0.1-3.9-1-5.2-0.4
		c-0.3,0.1-0.5,0.3-0.7,0.4l-12-11.9l-8.3,0.7c0,0,0,0-0.1-0.1c-2.3-3.2-4.6-6.7-6.9-10.1c-2.4-3.5-5.5-6.9-5.5-11.4
		c0-0.1,0-0.1,0-0.1c0.1-4.5,1-9.1,2.1-13.3c0.9-3.5,0.6-7.8,1-11.5c0.4-4.2-0.7-8.9-1.9-12.8c-1.2-4.2-2.7-7.6-1.9-12
		c0.6-3.6,1.7-6.9,2.8-10.4c1-3.1,1.2-6.5,1.9-9.7c0.2-1.1,0.5-2.1,0.9-3.1c1-2.6,2.6-4.6,4-6.9c2-3.2,3.2-7.1,4.8-10.5
		c2.7-5.8,6.2-10.3,10.4-14.9c5.9-6.7,10.9-14.1,14.9-22.1c3-5.9,8.1-15.2,1.4-20.7c-2-1.4-4.5-2.9-6.9-3.4
		c-2.3-0.5-3.8-0.2-5.9-0.7c-1.8-0.4-3.8-1.7-4.9-3.1c-1.1-1.5-2.1-2.9-3.4-4.1c-1.8-1.6-3.9-2.4-4.1-5c-0.1-2,1-3.9,1.7-5.8
		c1.4-4.2,2.7-8.6,3.9-12.9c2.2-7.9,5.4-15.1,8.3-22.6c1.6-4.1,2.3-9,3.6-13.4c1.1-3.8,2.7-7.5,3.4-11.4c0.8-4.2,0.6-8.5,1.2-12.7
		c0.1-1,0.4-2.1,0.6-3.1c5.3,1.5,86.7,37.3,90.6,36.5c0.6-1.7,0.5-3.7,1.2-5.2c0.7-1.5,2.4-1.6,3.2-3.1c0.7-1.4-0.1-2.7,0.2-4.2
		c0.5-2.2,2.2-1.4,3.5-2.8c2.8-2.7-1.5-6,3.3-7.7c4.5-1.6,3.3,4.4-0.6,4.9c1.1,1.2,2.7,1.4,3.7,2.7c1.5,1.8,2.1,2.7,2.5-0.3
		c0.4-2.6,1.1-2.8,2.9-0.8c1.4,1.7,1.9,2,4,2.8c0.7,0.3,1.6,0.7,2.1,1.3c0.7,0.9,0.2,1.5,0.6,2.3c1.1,2,2.6,0.5,4.4,0.5
		c5.4-0.2,1.6,5.7,3.5,7.9c1.5,1.7,3.8,1.9,2.3,5c-0.6,1.2-1.6,1.1-1.5,2.7c0,1.6,0.9,1.3,1.8,2.3c1.6,1.9,0,4.3,2.2,5.7
		c1,0.6,25.9,10.3,28,10c-0.2-1.8-2.9-2.7-0.8-3.7c1.4-0.6,4.4,0.1,5.6,0.6c5.8,2.7,45,16.4,48.3,17.9l0.1,0.1c0,0-0.1,0.1-0.1,0.1
		c-0.5,0.6-0.4,1.5-0.7,2.2c-0.4,0.9-1.2,1.5-1.7,2.2c-1.4,1.9-0.8,2.9-1.2,5c-0.4,2.1-2.2,2.8-2.5,5c-0.3,2,0.6,3.7-1.1,5.2
		c-1.6,1.4-3.1,0.9-4.1,3c-1.2,2.4-1.8,9.1-5.4,6.6c-0.5-0.3-0.4-2-1.5-1c-0.5,0.4,0,1.8,0.1,2.3c0.2,1.4,0.9,4-1.3,4
		c-3-0.1-4.1-6.3-7.7-6.2c-0.2,3.1,4,5.9,5.4,8.2c1.5,2.5,4.3,7.8,7.4,4.2c2.6-3.1,4.1-7.7,6.1-11.3c1.1-1.9,2-3.6,3.8-4.9
		c1.6-1.2,2.8-0.8,3.3-3c0.4-2,0.1-3.1,1-5c0.5-1,1.5-1.1,0.9-2.5c-0.3-0.7-1.4-0.3-1.7-1.3c-0.7-2.4,4.6-8,7.1-7.3
		c1.9,0.6,1,2.4,3.3,2.9c2.1,0.4,3.9-0.2,5.6,1.7c3.1,3.3,0.2,6.6-2.5,8.6c-0.5,0.3-2.1,1.3-2.3,1.8c-0.5,1.5,0.4,0.8,0.8,1.8
		c0.4,0.9,0.4,4,1.2,4.4C1211.1,399.6,1211.3,395.7,1213.1,395.8L1213.1,395.8z"/>
	<path id="path74" fill="#38618C" d="M1059.4,593.5c0.9,1.2,2.3,3.1,1,4.5c-1.2,1.4-3.3,0.8-3.9,2.8c-0.3,0.9-0.5,1.2-1.4,1.6
		c-0.8,0.3-1.8,0.4-2.7,0.5c-2.5,0.2-5-0.1-7.6-0.1c-1.2,0-2.4,0.1-3.6-0.2c-1.6-0.5-3.1-1.2-4.7-1.7c-1.8-0.5-3.5-0.9-5.3-1.2
		c-1.4-0.3-2.4-0.4-3.6-1.3c-1.8-1.4-1.7-4.1-3.3-5.6c-0.8-0.8-1.9-1.3-2.7-2.1c-0.9-0.9-1.1-1.4-0.7-2.6c0.3-1.2,0.9-2.4,1.2-3.6
		c0.4-1.4,0.6-2.8,0.9-4.3c0.2-1.3,0.5-2.6,0.7-3.9c0.2-1.2,0.8-1.7,1.8-2.4c0.7-0.5,1.3-0.9,1.7-1.7c0.3-0.6,0.7-2.3,1.7-1.8
		c0.5,0.3,0.9,1.7,1.2,2.1c0.4,0.7,0.9,1.5,1.5,2c0.9,0.8,2,1.3,3,1.9c1,0.7,1.8,1.4,2.9,1.8c4.5,1.9,10.6,2.7,12.1,8.3
		c0.2,0.8,0.3,1.7,0.4,2.5c0.1,0.5,0,1.7,0.6,1.2c0.4-0.3,0.1-1.1,0.3-1.5c0.2-0.5,0.7-0.7,1.1-1c1.1-0.8,1.4-0.3,2.2,0.6
		c0.9,0.9,1.8,2,3,2.7c0.5,0.3,1,0.4,1.3,0.8C1058.7,592.3,1059,593,1059.4,593.5z"/>
	<path id="path78" fill="#38618C" d="M1014.8,576.8c0.6,0.2,1.3,1.1,0.8,1.7c-0.4,0.5-1.3,0.3-1.9,0.6c-0.7,0.3-0.7,1.3-1.6,1.1
		c-0.6-0.1-1.2-0.6-1.7-0.9c-0.5-0.3-0.6-0.9-1.1-1.3c-0.5-0.3-1-0.3-1.5-0.5c-0.5-0.2-1.5-1.1-0.7-1.5c0.6-0.3,1.3,0.1,1.7-0.7
		c0.3-0.6,0.6-1,1.4-1.1c0.6,0,0.8,0.1,1.2,0.5c0.5,0.5,0.9,1.1,1.5,1.6C1013.5,576.8,1014.1,576.6,1014.8,576.8z"/>
	<path id="path80" fill="#38618C" d="M1015.1,565.7c0.5,0.2,0.7,0.7,0.3,1.1c-0.5,0.5-1.1,0.7-1.7,1c-0.7,0.3-1.2,0.9-1.8,1.4
		c-0.6,0.6-1.2,1.2-1.7,2c-0.2,0.3-0.5,0.9-0.8,1.1c-0.3,0.1-0.7,0-1,0c-0.6-0.1-1.1-0.6-1.7-0.9c-0.6-0.3-1.7-0.3-2.2-0.9
		c-0.4-0.4,0-0.9,0.5-1.1c0.6-0.2,1.2,0.1,1.5-0.6c0.2-0.5,0-1-0.3-1.4c-0.4-0.5-0.7-0.9-1.2-1.2c-0.4-0.3-0.8-0.6-0.4-1.2
		c0.3-0.4,1-0.3,1.4-0.4c0.4-0.1,0.6-0.3,0.9-0.6c0.5-0.5,1.1-0.8,1.6-1.2c0.5-0.4,0.2-0.7,0.5-1.2c0.3-0.8,1.6-1,2-0.2
		c0.3,0.5,0.4,1.1,0.6,1.7c0.3,0.9,0.9,1.4,1.6,1.9C1013.8,565.4,1014.5,565.4,1015.1,565.7z"/>
	<path id="path16" fill="#38618C" d="M1246,435.5c0.8,0.5,4.3,1.9,3.1,3.3c-0.6,0.6-3.1,0-3.9,0c-2.7,0.1-4.5,1.3-4.4,4.3
		c0.1,1.4-0.1,3.1,0.2,4.5c0.2,1.3,0.7,2.1,0.3,3.6c-0.7,2.4-3.9,2.3-2,5.4c0.7,1.1,1.4,2.1,2.4,3c0.8,0.7,2.4,1.5,2.2,2.8
		c-0.7,0.1-1.6,0.1-2.3,0c-2.2-0.3-4-3-5.3-4.6c-0.9-1-1.5-2.2-1-3.6c0.5-1.2,1.3-1.2,1.2-2.8c-0.1-2.8-4-2.9-2.5-6.1
		c0.5-1.1,1.9-2.1,1.4-3.5c-0.4-1.2-1.7-1.9-2.1-3.1c-0.4-1.2,0-2.5-0.2-3.7c-0.2-1.4-0.5-2.7-0.4-4.2c0.1-1.9,1.3-1.9,2.4-3.3
		c0.7-0.9,0.5-2.3,1.6-2.8c1.4-0.6,2.5,0.6,3.1,1.7C1241.6,429.9,1242.6,433.4,1246,435.5z"/>
</g>
<g id="Straten_Island">
	<path id="path102" fill="#FFAF87" d="M734.6,1025.2c1.6,1.2,5.4,1.9,5.4,4.3c0,1.6-1.5,3.1-2.3,4.5c-0.6,1.2-1,2.5-1.4,3.8
		c-1,2.9-2,5.9-3.2,8.9c-0.9,2.1-2.3,4.1-3.6,6.1c-1.2,2-2.1,4.3-3.5,6.1c-1.7,2.3-5.4,3.6-7.8,5.3c-2.1,1.5-3.8,3-4.9,5.3
		c-1.1,2.2-2,4.2-3.7,6c-2.1,2.5-3.9,5.6-6.5,7.6c-9.2,7-16.8,15.9-24.8,24.2c-1.6,1.6-3.2,3.7-4.5,5.5c-1.2,1.7-2.4,3.5-4.1,4.7
		c-1.8,1.2-2.3,2.6-3.3,4.5c-1.1,2-2,3.9-3.5,5.8c-1.1,1.4-2.3,2.8-3.2,4.2c-0.6,1-1.3,2.7-2.5,3.2c-1.3,0.6-2.2-0.8-3.7-0.5
		c-1.9,0.4-2.4,2-2.9,3.6c-0.6,1.9-1,3.7-2,5.5c-1.1,1.7-2.4,3.3-3.3,5c-0.4,0.6-0.7,2.6-1.4,3c-1.5,0.9-1.5-1.7-1.8-2.6
		c-1.3-3.1-3,2.5-4,3.5c-2.5,2.4-4.7,4.5-6.4,7.6c-1.8,3.3-4.5,6.6-7.5,9.1c-1.6,1.3-3.3,2.5-5,3.7c-1.5,1.1-2.9,2.5-4.7,3
		c-1.9,0.6-3,0.7-4.6,2c-1.8,1.4-3.8,3.1-5.3,4.9c-5.1,6.2-8.3,13.7-14.3,19.1c-1.8,1.6-3.8,3.9-5.8,1.3c-1.6-2.1-4.3-5.2-5.1-7.8
		c-0.4-1.4,0.1-2.6,0.7-3.8c0.9-1.8,1.3-2.2,3.3-2.2c2.9,0,6,0.8,8.4-0.9c1.3-1,2.6-1.9,3.6-3.3c0.9-1.4,1.8-2.9,2.9-4.3
		c1.8-2.3,4.6-4.5,5-7.5c0.4-2.7-3.2-6.3-5.4-7.6c-2.1-1.2-5.1-2.7-7.4-1.2c-1.5,1-1.8,3.2-3.7,3.8c-2.3,0.7-5.5-0.6-5.5,2.9
		c0,1.4,0.1,2.3-1.2,2.8c-1.3,0.5-2.2,0.1-2.6,1.8c-0.2,0.9-0.4,3.1-0.1,4c0.4,1.1,1.4,1.5,1.6,2.8c0.3,2.4-1.1,3.4-2.6,4.9
		c-0.8,0.7-1.1,1.6-1.8,2.3c-0.2,0.2-0.7,0.3-0.9,0.6c-0.3,0.3-0.6,1-0.9,1.4c-0.9,1.2-1.9,2.3-2.8,3.6c-1.6,2.4-3.3,3-5.9,4.2
		c-3.6,1.6-7.3,2.9-10.8,4.9c-2.4,1.4-4.6,3.1-7,4.6c-2.7,1.7-5.3,3.5-7.7,5.6c-2,1.7-4,3.5-6.3,4.6c-1.4,0.6-2.9,1.1-4,2.1
		c-1.1,1.1-1.3,2.4-2.5,0.3c-0.8-1.5-1.1-2.6-3-2.4c-0.5,4.3-3.5,5.2-6.5,7.6c-1.1,0.8-2.1,2.1-3.5,2.4c-2.3,0.3-2.4-2.3-3.7-3.5
		c-1.1-1.1-3,0.1-4.3,1c-1.5,1.2-3,2.4-4.6,3.5c-1.8,1.2-3.5,2.4-4.5,4.3c-1.1,2.1-1.8,4.3-3.2,6.2c-1.7,2.4-6.9,11-10.6,9.6
		c-1.2-0.5-1.4-1.9-2.7-2.5c-1.5-0.7-3.3-0.3-4.6-1.7c-1-1.1,0-2.3-0.5-3.4c-0.9-1.9-1.8,0.4-2.5,1.1c-0.9,1.1-1.8,0.9-3.2,0.9
		c-4.4,0.2-7.8,1.2-11.1,4.2c-3,2.6-5.4,5.9-6.7,9.7c-1.2,3.5-3.5,5.1-6.5,7.1c-3,2-5.2,3.6-8.9,2.5c-1.7-0.5-3.5-0.9-4.4,1
		c-0.5,1-0.5,2.7-1.8,3.3c-2.9,1.4-4.6-3.1-6.5-3.7c-3.2-1.1-6.4,0.9-8.9,2.7c-1.2,0.9-2.5,1.7-3.7,2.6c-1.4,0.9-3,1.8-4,3.1
		c-1.2,1.5-2.3,3.2-3.7,4.5c-1.5,1.3-5.9,3.4-7.8,2c-0.8-0.6-0.5-4.3-2.2-3.4c-1.4,0.7-0.4,3.9-2.8,4.3c-2.2,0.4-3.7-3.4-4.8-4.7
		c-1.6-1.9-3.7-3.1-5.2-5c-1.5-2.1-2.4-4.7-3.5-7c-1-2-2.2-4.3-2.8-6.4c-0.6-1.8-0.7-5.1-0.2-6.9c0.5-1.8,2.5-2,3.4-3.5
		c1.1-1.8,0.8-4.5,0.9-6.5c0.1-2,1-3.1,2.4-4.5c1.4-1.3,2.9-2.5,4.3-3.8c1.2-1.1,2.9-3.8,4.8-2.3c1,0.8,1.6,4.3,2.9,1.6
		c0.6-1.3,0.4-2.8,0.9-4.1c1.3-3.2,4.2,0.7,6-1.8c1.1-1.6,0.4-1.7-0.8-2.7c-1.3-1-2-2.6-2.4-4.1c-0.1-0.5-0.7-1.3-0.4-1.8
		c0.3-0.5,1.1-0.3,1.5-0.7c2.5-2.7-2.5-4.9-2.9-7.2c-0.2-1.3,1.3-3,2.1-3.9c1-1.3,1.6-2.2,2.2-3.7c0.5-1.3,1.9-2.7,2-4.2
		c0.1-1.6-1.5-3.5-1.9-5.1c-0.4-1.2,0.1-3.6-0.6-4.6c-0.6-1-3-1.6-3.9-2.3c-1.1-0.9-2-2.1-2.5-3.5c-0.6-2,0-2,1.5-3.2
		c1.9-1.5,0.4-2-0.7-3.6c-1.1-1.5-1.6-3.4-2.3-5c-0.5-1.3-1.3-2.6-1-4.2c0.4-1.6,2.3-2.7,3.5-3.7c1.1-0.9,1.9-2.2,2.9-3.1
		c1.6-1.3,1.8,0,3.5,0.3c2,0.3,3.4-1.8,4.3-3.3c1.3-1.9,2.3-3.2,4.1-4.7c1.2-1,0.9-1.7,1-3.2c0-3.4,3.7-0.7,5.4-2.8
		c2.4-2.8,4.3-6.7,7.6-8.6c2.6-1.5,6.3-0.1,8.6,1.2c3.3,2,6.5,2.4,10.4,2.8c1.5,0.1,2.9,0.5,4.2-0.7c0.7-0.7,1.2-1.6,1.9-2.3
		c0.8-0.7,1.7-1.1,2.5-1.8c1.6-1.6,2.9-3.5,3.9-5.5c0.6-1.3,1.6-2.6,2-4c0.6-1.7-0.1-2.2-0.7-3.8c-1.3-3.4,0.7-7.2,2.4-10.1
		c1.7-3,1-6.5,3.2-9.3c2.1-2.7,7-0.4,10-1.6c2.9-1.2,5.9-3.7,6.8-6.8c0.6-2,0-7.4,2.8-7.9c2.5-0.5,6.1,3.3,8.1,4.4
		c1.4,0.8,3.3,0.8,4.7,0c1.4-0.9,1.7-2.2,0.1-3.2c-1.5-0.8-3.4-0.5-5-1.3c-1.4-0.6-2.5-1.7-3.6-2.6c-2.4-2-6.1-2.2-9.2-2.3
		c-1.6-0.1-3.2,0.1-4.8-0.3c-1.2-0.3-3.3-0.5-4.2-1.4c-2.3-2.2,0.5-5.9,1-8.2c0.3-1.4,0.5-3,0.2-4.5c-0.5-2.6-1.8-4.7-1.4-7.4
		c0.4-2.6,2-4.6,4-6c3.6-2.5,5.5-5.6,6.8-9.7c1.2-3.7,1.9-7.5,2.9-11.3c0.3-1.3,1-2.4,1.4-3.7c0.9-2.8-0.3-5.9-1.5-8.3
		c-0.5-1-1.4-2.1-1.7-3.2c-0.4-1.7,0.5-3.2,1.5-4.5c1.2-1.6,2.4-3.4,2.8-5.4c0.4-1.8,1.8-3.8,1.7-5.6c-0.1-2-2.3-2.9-3.7-4
		c-1.4-1.1-2.4-2.7-4-3.5c-1.3-0.5-3-0.7-3.9-2c-0.6-0.8-0.9-2.6-1.3-3.6c-0.1-0.4-0.5-1.3-0.4-1.7c0.1-0.9,0.6-0.6,1.1-1.3
		c1.2-1.5-0.1-2.8-0.4-4.6c-0.6-2.9-0.3-6,0.3-8.8c0.3-1.5,0.4-2.9,0.5-4.5c0.2-2.3,0.6-4.9,1.2-7.1c1.3-4.6,5.8-7.6,8.5-11
		c1.7-2.1,1-3.7,1.6-6c0.5-1.8,1.6-2.4,3.2-3.3c2-1.1,4.6-4.8,7-3.3c0.9,0.5,1.8,2.7,3.2,1.7c2.2-1.5-0.8-3.2-0.9-4.2
		c-0.1-1.5,3-2.3,4.1-2.4c2-0.1,1.6,2.2,3.1,1.9c0-1-0.3-2.5,0.2-3.4c0.7-1.3,2.1-1.1,3.4-1.1c2.2-0.1,1.8-1.2,3.3-2.2
		c1.6-1.1,2.5,1,2.7,2.4c0.1,1.1-1.3,3.4-0.5,4.2c1.3,1.3,3.2-1.6,3.8-2.4c0.4-0.6,0.9-1.2,1.3-1.8c0.3-0.5,0.6-1.5,1-1.8
		c1.6-1.4,3.9,1.8,5,2.8c1.1,1,2.7,2,2.8,3.6c0,1-1,3.6,1,2.8c0.9-0.4,1.5-2.3,2.9-1.1c1,0.9,0.1,2.6,2.1,2.5c0-0.9,0-1.7,0-2.6
		c0.9-0.5,2.4,0.2,3.2-0.3c0.6-0.4,0.4-2.7,1.8-1.7c1,0.8,0.4,2.3,1.6,3c1.2,0.7,2.7-0.1,3.9,0.9c1,0.9,1.1,2.1,0.8,3.4
		c-0.2,1-0.8,2.9,1.2,2.2c1.8-0.6,0.4-2.8,2.4-3.2c1.2-0.2,3,0.1,4.2,0.3c1.6,0.2,2.4,0.6,3.3,2.1c0.6,0.9,1.2,2.7,2.4,3.2
		c1.1,0.5,2.2,0.2,2.6-0.7c0.3-0.7-0.2-1.6,0.5-2.2c1.7-1.4,3,0.5,3.4,1.8c0.4,1.1,0.5,3.1,2.1,2.7c2-0.4,0.3-3.5,1.3-4.4
		c0.8-0.7,3.6,0.3,4.4,0.6c1.1,0.4,2.3,1.7,3.3,1.1c1.1-0.6,0.7-2.1,1.1-3.1c0.5-1.2,1.8-2.1,3.1-2.2c2.6-0.4,0.9,2,2.3,2.1
		c0.2,0,0.4,0,0.5,0c-0.1-1.4,0.3-2,1.6-2.3c1.9-0.5,3.1-0.2,4.3-2.2c0.5-1,0.3-1.1,1.4-1.7c1.9-0.9,4.6-0.7,6.7-0.7
		c1.9,0,4.5,0.7,6,1.9c1.3,1,1.3,2.6,2.9,3.3c1.3,0.6,3.8,1.2,5.1,0.5c0.5-0.2,0.8-0.9,1.3-1.1c0.8-0.4,1.8-0.1,2.7-0.3
		c2.4-0.5,3.8-2.1,5.2-3.8c2.1-2.5,4.7-3.9,7.8-4.6c1.5-0.4,3-0.6,4.5-1.1c1.6-0.5,2.9-1.4,4.4-2.1c3.4-1.6,7.2-1.5,11-1.5
		c2.6,0,4.6,0.3,6.9,1.6c1.9,1,4.6,1,6.7,0.5c2.2-0.5,4.6-1.5,6.5-2.6c1.8-1,3.5-2.2,5.4-3.1c1.6-0.8,3.3-1.3,4.9-2.3
		c1-0.6,3-2.5,4.3-2.3c1.1,0.2,2.1,2.1,2.9,2.7c3.1,2,3.7-1.6,6.2-2.4c1.4-0.4,1.9-0.6,2.9,0.4c0.9,0.9,1.4,1.9,2.6,2.4
		c1.1,0.4,2.7-0.1,3.3,1.2c0.5,0.9-0.4,3,0.2,3.8c0.6,0.7,2.8,0.2,3.6,0.4c1.4,0.4,2.8,1.5,3.6,2.7c2.1,3.4,1.3,7.8,1.8,11.7
		c0.4,3.2,0.1,6.5,0.1,9.7c0,3.2,0.3,6.4,0.3,9.6c0,2.5,0,4.9-0.3,7.3c-0.2,1.6-0.4,3.8,0.1,5.3c1.3,3.6,4.4,6.5,6.7,9.4
		c0.7,0.9,1.6,2.4,1.3,3.6c-0.3,1.4-1.6,1.2-2.3,2.2c-1.3,1.8,1.4,1.5,2.5,1.8c1.1,0.2,3.4,1.2,3.3,2.7c-0.1,1.5-2.6,1-2.5,2.7
		c0,1.6,2.8,2.3,3.7,3.5c1.7,2.2,1.9,5.8,3.2,8.3c1.4,2.7,3.3,4.3,5.3,6.5C730.2,1020.5,732.3,1023.5,734.6,1025.2z"/>
	<path id="path104" fill="#FFAF87" d="M478.6,1008.7c0.3,1-0.2,1.2-0.9,1.7c-1.6,1.4-2.4,3.8-3.6,5.6c-1,1.6-0.9,3.8-0.3,5.6
		c0.6,1.7,1.7,3.3,2.5,5c0.7,1.6,2.2,3.4,1.7,5.2c-0.2,0.8-0.8,1.4-1.1,2.2c-0.2,0.7,0,1.9-0.4,2.6c-1,1.6-2.5-1.6-3-2.3
		c-1.1-1.8-2.6-3.3-3.6-5.1c-0.7-1.2-1.4-2.5-2.1-3.7c-0.6-0.9-1.3-1.8-1.6-2.9c-0.6-2.1,1.1-3.8,1.1-5.9c0-1.4-0.1-2.9,0-4.3
		c0.1-1.3-0.1-2.9,0.5-4.1c0.4-1.1,1.1-2,1.8-3c0.4-0.6,1-1.6,1.8-1.3c0.6,0.2,0.8,1,1.4,1.2c0.7,0.2,1.6,0.1,2.3,0.3
		c0.7,0.2,1.3,0.4,1.9,0.9C477.6,1006.9,478.4,1007.9,478.6,1008.7z"/>
	<path id="path106" fill="#FFAF87" d="M474.1,1089.4C474.1,1089.5,474.1,1089.5,474.1,1089.4c-0.3,0.7-0.8,1.4-0.9,2
		c-0.3,1.4-0.5,3-0.6,4.5c-0.1,1,0.1,2-0.1,3c-0.1,0.6-0.1,1.7-0.5,2.1c-0.8,0.7-3.2,0-4.2-0.1c-1,0-1.9-0.1-2.8,0.4
		c-0.6,0.4-1.3,0.9-1.8,1.4c-0.4,0.4-0.9,1.2-1.5,1.2c-0.8,0.1-1.2-1-1.5-1.6c-0.6-2.1,0-4.5,0.6-6.5c0.7-2.3,0.9-4.5,2-6.7
		c0.4-0.7,0.7-1.1,1.5-1.2c1-0.1,1.4,0.4,2.3,0.7c0.9,0.4,1.7-0.2,2.6-0.5c0.9-0.3,1.8-0.4,2.8-0.4c0.6,0,1.5-0.1,2.1,0.2
		C474.7,1088.4,474.4,1088.9,474.1,1089.4z"/>
</g>
<g id="Brooklyn">
	<path id="path60" fill="#F9F94E" d="M1087.4,883.4c0.2,1.7,2.8,5.1,1.7,6.6c-0.5,0.6-2.3,1.1-3.1,0.8c-0.9-0.3-1.1-1.5-2-1.2
		c-0.4,0.1-1.6,1.3-1.7,1.8c-0.4,1.3,1.1,1.6,1.9,2.3c1.4,1.1,2.2,3.5,0.1,4.3c-0.9,0.4-1.2,0-2.1-0.1c-0.9-0.1-1.6,0.3-2.3,0.8
		c-0.7,0.5-1.3,1.5-2.1,1.9c-0.9,0.5-2,0.4-3,0.8c-0.5,0.2-1.8,0.9-1.6,1.6c0.2,0.6,1.9,0.8,2.4,1.1c1.6,0.8,0.7,2.4,1.2,3.7
		c-0.4-0.1-0.8-0.1-1.2-0.1c-0.5,2.3,3.9,3.5,5.2,4.5c2.3,1.8,4,5.8,4.2,8.6c0.1,1.3-0.6,2.1-0.7,3.4c-0.1,1.3,0.1,2.7,0.1,4
		c0,1.4,0.2,3.7-0.7,4.9c-0.8,1.1-2.5,1.5-3.8,1.8c-1.5,0.3-2.2,0.5-3.3,1.4c-1.2,1-1.5,1-2.3-0.5c-1.2-2.1-0.2-4.6-1.2-6.7
		c-0.6-1.4-2.9-5.6-4.5-5.5c0.9,2,2.7,4.1,2.8,6.2c0.1,2.6-1.5,3.7-3.5,5c-0.9,0.5-1.7,1.4-2.7,1.3c-1.4-0.2-1.9-1.6-2.7-2.6
		c-1.1-1.6-3.8-4.6-6.1-4.1c-0.3,2,1.3,4.6,2,6.4c1.2,2.8,2.6,4.5,4.7,6.6c1.6,1.6,4.4,3.4,4.8,5.8c0.6,3.3-5.3,4.6-7.1,6.5
		c-0.8,0.8-1.6,3.9-2.5,4.1c-0.7,0.2-3.5-2.9-4.2-3.5c-2.4-2.3-4.8-4.3-7.5-6.2c0.5,1.6,1.6,3.5,2.7,4.7c1.1,1.3,3.4,2.2,3.9,3.8
		c0.7,2,0.2,4.2-2,3.5c-2.4-0.8-2.5-2.8-4.7-0.6c-2.2,2.2-3.6,4.7-4.2,7.7c-0.1,0.6-0.1,2.4-0.6,2.8c-0.8,0.5-1.8-0.9-2-0.8
		c-1.1,0.6-1.8,2.2-2.8,3.1c-1.3,1.1-2.9,5.8-4.5,5.8c-1.9,0-2.9-2.5-4.2,0c-0.7,1.5,0.1,4,0.1,5.6c0,2-0.3,4.1-2.7,4.7
		c-2.5,0.6-2.4-1.4-3.5-2.9c-1.3-1.7-3.7-2.5-5.7-1.4c-2.1,1.2-1.1,2.7,0,4.6c2.1,3.9,4.4,7.9,6.9,11.5c2.4,3.3,3.9,7,6.2,10.3
		c1.9,2.7,4.9,6.1-0.6,6.1c-2.1,0-4-0.2-5.8,0.6c-2.1,0.9-3.6,2.6-5.5,3.9c-1.6,1.1-4.2,1.7-5.5,3.4c-1.1,1.5-0.7,3.8,1.4,4
		c1.7,0.1,3.4-1.9,5.4-2.1c3.5-0.3,7.1,0,10.6,0c2.1,0,5.4-0.4,6.9,1.3c2,2.2,1.4,6,2.2,8.7c1.1,3.5,2.9,6.8,4.2,10.2
		c2,5.2,3.2,10.7,5.4,15.9c1.1,2.7,2.2,5.4,3,8.2c0.7,2.3,1.9,4.5,1.7,7c-0.4,3.6-5.6,4.5-8.8,5.7c-5.1,1.9-10.3,2.5-15.4,4.6
		c-3.6,1.5-8.6,6.2-11.9,3c-1.3-1.3-2.2-2.9-3.5-4.3c-1.7-1.7-3.8-2.4-6-3.3c-1.6-0.7-6.3-2.2-5.3-4.8c0.7-1.9,3.7-0.9,4.8-0.1
		c1.7,1.3,2,3.2,4.4,3.6c1.7,0.3,3.6,0.1,4.5-1.5c2.7-4.7-2.5-6.6-4.2-9.9c-0.9-1.7,0.1-5.3-2-5.9c-1.8-0.5-3,1.6-4.4,2.5
		c-5.2,3.3-4.3-4.3-8.3-3.3c0,1.7,2.7,2.2,2.2,4.1c-1.9,0.5-2.5,1-3.9,2.4c-1.3,1.3-2.9,2.4-4.5,1c-0.7-0.6-1.3-3.9-3.1-2.3
		c-1,0.9,0.1,3.6,0.6,4.4c1.7,2.7,5,3.4,2.5,7c-2.7,3.9-4.2-1.1-7.2-0.5c0,1.1,0,2.2-0.1,3.3c-2,0.3-3.5-1-5.2-1.9
		c-2.5-1.3-5.1-2.7-7.7-3.9c-4.4-2-10.1-6.1-14.2-2.4c-3.9,3.5-8.5,3.8-13.7,3.8c-1.3,0-9,0.6-4.8,1.7c2.5,0.6,6.2,0,8.9,0
		c2.4,0,4-0.1,5.1,2.2c0.8,1.6,1.4,4.3,1.5,6.1c0.2,3.2-5.1,9.2-5.7,3.8c-4.4-0.2-9.3,0.9-13.6,1.7c-3.9,0.7-7.7,1.5-11.6,2.1
		c-3.3,0.4-6.7,0.3-10.1,0.2c-3,0-5.8,1-8.7,1.6c-6.6,1.3-13.3,2-19.9,3.2c-4.8,0.8-9.5,1.1-14.2,2.5c-4.5,1.4-8.4,3.4-13.1,4.1
		c-7.5,1.1-15,1.8-22.6,1.5c-2.8-0.1-5.5-0.5-8-1.9c-1.9-1.1-3-3.2-4.9-4.4c-2.7-1.7-5.3-1.5-8.4-2c-2-0.3-3.7-0.4-4.1-2.7
		c-0.2-0.9,0.4-1.9,0.2-2.9c-0.2-1-1-1.6-1.5-2.5c-0.9-1.9-0.5-3.1,0.8-4.7c1.4-1.6,3.7-3.1,5.6-3.9c1.9-0.7,3.8,0,5.2-1.5
		c0.7-0.7,0.1-1.4,1.3-2c0.8-0.4,2.1-0.3,2.8,0.1c0.4,0.3,0,1.3,0.5,1.7c0.4,0.3,1.6,0.4,2.1,0.5c1.1,0.1,2.3-0.1,3.4,0
		c2.5,0.2,5.4,0.4,7.9,1.3c1.9,0.6,3.5,1.9,5.4,2.4c1,0.3,2.7,0.8,3.7,0.4c0.8-0.3,0.9-1.1,1.4-1.3c2.4-1.1,2.9,2.1,5.2,1.5
		c0.2-3.3-2-3.6-4.2-5.1c-1.7-1.2-2-6.1-3.3-6.3c-1-0.2-2.9,1.2-4.1,1.2c-2.9,0.2-5.9-0.2-8.1-1.9c-1.7-1.3-4.4-3.9-4-6.2
		c0.5-2.5,3.8-2.7,5.8-3.1c0.4-2-1.7-3-1.2-5c0.5-2.1,3.3-2.5,2.9-5.4c-1.4-0.1-4.8,2.6-5.8,0.2c-0.8-2.1,2.5-2.1,2.9-3.5
		c0.7-3.3-6.7-5.2-6.7-0.2c-3.3-0.8-6.1-6.3-8.1-8.8c-7.1-9.1-18.2-9.7-28.7-12c-2.8-0.6-5.9-0.7-8.6-2c-1.9-0.9-3.6-2.4-5.6-3.3
		c-1.9-0.9-3.5-2.4-5.3-3.3c-2.4-1.2-2.8,0.1-2.9,2.2c-1.5-0.6-1.2-2.3-1.2-3.7c0-2-0.2-3.3-1.1-5c-1.7-3.3-3.1-6.7-4.6-10.2
		c-2.6-6.1-5.8-12.7-5.9-19.5c-0.1-3.5,0-7.1,0-10.6c0-3.3-0.1-6.5,1-9.6c1.3-3.6,3.2-7,4.8-10.5c1.6-3.6,2.2-7.3,4.4-10.6
		c2-3.1,2.5-7,4.9-9.9c1.2-1.6,2-1.8,3.9-1.8c0.7,0,6,1.9,6,1.9c0.6-4.2-5.3-3.3-5.6-7.3c-0.1-1.4,0.5-3.2,1.4-4.1
		c1.9-1.9,3.2-1.7,4.8,0c1.2,1.3,2.2,3.1,4.4,2.5c2.2-0.6,0.9-1.6,0.7-3.3c-0.2-1.4-0.4-4.1,1.2-4.8c1.4-0.5,3.2,1.7,4.4,0.8
		c1.9-1.6-1.7-3.9-2.7-4.4c-2.3-1-2.7-1.3-1.1-3.8c2.1-3.4,5.5-6.2,8.5-8.9c0.8-0.8,2.9-4.1,4-3.7c1.5,0.4,0.6,4.5,3.1,2.8
		c1.6-1.1,0.1-3.6,2.5-1.9c2.4,1.7,2.3,3.4,6,2.5c0.2-4-1.8-3.6-4.8-5.4c-3.1-1.9-0.7-3.9,1.5-5.6c2.6-2,6.1-3.6,8.8-1.6
		c2.1,1.5,3.3,4.2,6.4,2.9c2.6-1.1,0-1.4-0.7-3.1c-0.8-1.9,0.5-3.4,2.2-2.2c1.5,1,1.5,3.4,3.6,3.5c1.7,0.1,3.6-1.9,2.7-3.5
		c-0.9-1.6-4.7-1.4-4-4.2c0.4-1.6,1.1-1.1,2.3-0.9c1.5,0.2,3.9,1.3,5.2,0.1c0.6-0.5,0.9-2,0.6-2.7c-0.3-0.7-2.5-1.7-2.5-1.4
		c-0.3-2,1.1-3.9,1-6.2c-2.4,1.1-2.2,4.5-4.8,5.5c-2.7,1.1-4.5,0.7-6.3,3.5c-0.3,0.6-0.9,3.3-2,2.5c-0.7-0.5,0-2.7,0.2-3.3
		c0.9-2.5,3.4-4.5,1.8-7.3c-1.1,0-1.4,0.8-2.1,1.6c-1.2,1.6-1.9,3.4-3.1,5c-1.3,1.8-3.5,3-5.2,4.4c-2.3,1.9-5.7,5.7-9,4.8
		c-1.6-0.5-3.1-2.1-3.9-3.5c-1.1-1.8-0.6-2.7-0.4-4.7c0.2-1.9-0.3-3.9-1.2-5.5c-0.8-1.4-2.8-2.9-2.3-4.7c3.2-0.6,5.2,3,5.6,5.6
		c0.4,2.8-0.8,6,2.7,7.3c4.7,1.7,6.1-2.6,5.6-6.4c-0.7-5.3-3.9-6.6-7.9-9.6c-1.8-1.3-3.9-2.3-5.5-3.7c-3.2-2.6-2.9-6.4-1.7-10
		c1.4-4.1,6.2-6.4,9.7-8.8c4.6-3.1,9.2-5.8,13.5-9.3c4.3-3.4,7-8.2,9.9-12.8c3.2-5.2,5.5-10,6-16c0.3-2.7,0.7-4.6,2.1-7
		c1.2-2,3-3.2,4.3-5c1-1.4,1.1-3.6,2.7-4.5c2-1.1,3.8,0.1,5.4,0.8c3.8,1.8,10.4,1.1,14.7,0.8c4.6-0.3,9.7-3.1,12.8-6.6
		c0.8-0.9,2.1-4.4,3.1-4.6c1.5-0.3,2.8,3.4,3.3,4.4c1.1,2.1,1.1,4.1,1.4,6.4c0.2,1.4,2.5,6.7,4.8,4.6c1.4-1.2-0.7-5.6-1.3-6.9
		c-1.1-2.1-2.5-4-3.3-6.3c-0.7-2-1-4.8-0.6-7c0.7-3.9,3.6-7.8,5.1-11.4c2-4.4,3.3-9.1,5.8-13.2c2.4-3.9,4.6-7.3,4.6-12
		c0-4.1-1.7-7.2-2.4-11.1c-0.6-3-0.7-6.6-0.7-10.1c1.5-0.1,3.3-1.6,4.6-2.1c1.9-0.7,3.6-1.3,5.3-2.5c3.8-2.6,8.2-4.3,12.8-2.6
		c3.8,1.4,7.4,4.1,11,6.1c1.5,0.8,3.1,1.8,4.4,2.9c1.4,1.2,2.3,3.3,3.2,4.9c1.6,2.7,3,5.7,5,8.2c0.9,1.2,2,1.6,3.4,2.2
		c1.7,0.7,3.4,1.5,5.2,1.8c1.4,0.2,2.8,0.2,4.1,0.6c2.3,0.6,4.2,2.1,5.6,4c3.1,3.9,4.4,9.1,5.7,13.8c0.2,0.6,0.3,1.2,0.5,1.8
		c0.3,1.1,0.1,1.8,0,2.8c-0.2,1.6,0.5,1.4,1.5,2c0.8,0.5,1,1.9,0.4,2.7c-0.8,1.1-2.6,0.7-3.4,1.8c-0.5,0.6-0.5,2,0,2.6
		c0.5,0.7,1.7,0.8,2.3,1.5c0.7,0.8,1,1.8,1.8,2.5c0.6,0.6,1.7,1.1,2.1,1.9c0.4,0.9-0.1,2,0.2,2.9c0.3,0.8,1.7,1.1,1.9,1.9
		c0.2,1.1-1.7,1.1-2.4,1.4c-1.4,0.6-0.9,1.3,0.3,1.9c1.7,1,3.1,2.3,4.6,3.4c0.7,0.5,1.3,1.1,2,1.6c1,0.8,2,0.5,3,1
		c0.8,0.4,1.6,1.5,2.3,2.1c1,0.9,1.6,1.9,2.4,3c1.3,1.7,1.9,1.4,3.9,1.5c0.5,1.7-2.8,1.4-3.5,2c-1.1,1,0.8,1.8,1.6,1.9
		c0.8,0.2,1.9-0.1,2.6,0.4c0.4,0.3,1.3,1.4,1.2,1.8c0,0.9-1.5,1.1-2.2,1.6c-0.5,0.4-1.8,1.1-1.7,1.6c0.4,1.1,3.9,1.4,4.8,1.8
		c1.4,0.5,2,1.6,3,2.6c1.8,1.8,4.4,2.8,6.2,4.6c1.9,1.9-3.7,2.4-3.2,4.9c1.2,0.6,2.6,0.9,3.8,1.6c1,0.6,1.9,1,2.9,1.6
		c0.8,0.5,1.5,1.2,2.1,1.8c1.3,1.2,0.2,0.8-0.6,1.6c-0.9,0.8,0,1.9,0.7,2.5c1,0.8,1.2,0.9,1.6,2.1c0.3,1.2,0.3,1.2-0.5,2.1
		c-0.7,0.9-0.7,1.3,0.2,1.9c0.5,0.3,1.2,0.4,1.6,0.8c0.3,0.4,0.1,0.9,0.2,1.3c0.3,1.1,0.9,2.3,1.5,3.3c0.8,1.1,1.9,1.9,2.7,3
		c0.6,0.9,1,1.9,1.6,2.8c1.8,0.2,1.7-2.8,2.2-3.8c0.3-0.6,0.9-0.9,1.3-1.4c0.4-0.5,0.5-1.5,1.2-1.6c0.4,1.4,1,2.9,1.7,4.2
		c0.3,0.6,0.4,1.2,1.1,1c0.7-0.3,1.4-1.9,2.1-2.3c1-0.6,2-0.9,3.1-1.3c1.5-0.6,1.7-1.7,2.7-2.8c1.1-1.4,2.7-2.3,4.2-3.3
		c1.5-0.9,2.5-1.9,3.8-3.1c1-0.9,2.1-1.5,3.1-2.3c2.2-1.6,3.4-3.9,5.3-5.8c1.4-1.5,3.2-2.7,4.9-3.8c2.1-1.3,4.8-1.9,7.1-2.6
		c1.2-0.4,2.7-1.4,4-1.3c1.9,0,1.8,1.7,1.8,3.2c0,1.7-0.1,3.5,0.2,5.2c0.3,2.2,1.3,4.4,1.8,6.6c0.6,2.6,0.7,5.3,1.5,7.9
		c0.7,2.3,0.8,4.6,1.1,6.9c0.1,0.5,0.2,1.4,0.5,1.8c0.4,0.5,0.4,0.4,1.1,0.5c1.1,0.1,1.9-0.2,2.5,0.9c0.4,0.8,0.2,2,0.2,2.9
		c0,1.5,0.3,1.1,1.3,1.6c2.2,0.9,2.1,4.4,2.2,6.3c0.1,1.6,0.4,2.9,1,4.3c0.8,1.8,1.1,4,1.2,5.9c0.1,1.2,0.7,4,2.2,2.1
		c0.5-0.6,0.9-1.9,1.6-2.3c1.1-0.6,1.4,0.8,1.4,1.7c0,1.2-0.4,2.1-0.4,3.2c0,1.1,0.5,2.1,1,3.1c0.4,0.8,1,1.7,1.3,2.7
		C1087.4,881.1,1087.3,882.3,1087.4,883.4z"/>
	<path id="path62" fill="#F9F94E" d="M1077.8,1066.6c0.8,1.6,0.5,2.6-0.2,4.2c-1.4,3.2-3.7,5.8-5.5,8.7c-1,1.7-1.9,3.6-2.9,5.3
		c-0.9,1.5-1.8,4.1-4,3.8c-0.4-2.5-0.5-5.6-1.9-7.8c-0.7-1-2.1-1.9-2-3.1c0.1-1,0.8-1.1,1.5-1.8c1.4-1.3,2.4-3.2,3.4-4.8
		c1.2-1.7,4.3-3.9,3-6.4c-0.3-0.6-2.2,2.3-2.4,2.5c-1.1,1.2-2.7,0.2-4.1,1.2c-0.6,0.4-0.8,1.5-1.8,1.5c-0.9,0-0.6-1.5-0.6-2.3
		c0-2.4-2.9-4.1-2.6-6.4c0.2-1.4,1.8-2.2,2.9-2.9c1.5-1.1,2.3-2.4,3.6-3.6c1.5-1.3,3.8,0.9,5.3,1.7c2.6,1.3,4.8,2.7,6.3,5.3
		C1076.7,1063.3,1077,1065.1,1077.8,1066.6z"/>
	<path id="path64" fill="#F9F94E" d="M1073.7,1013c0.8,0.7,1.1,1.2,1,2.4c-0.2,1.6-1.1,1.4-2.1,2.2c-1,0.7-0.5,2.4-1.2,2.9
		c-1.9,1.4-1.5-4.6-1.4-5.3c0.1-1,0.9-1.6,1.1-2.6c0.1-0.5,0.1-1.6,0.8-1.8C1072.8,1010.6,1073.1,1012.5,1073.7,1013z"/>
	<path id="path66" fill="#F9F94E" d="M1072,974.4c0.5,1.3,0.4,2.8,0.3,4.2c-0.1,1.7-0.8,3-1.2,4.6c-0.7,2.9,1.2,7.9-0.9,10.2
		c-0.9,0.9-2.1,1.3-3.2,1.8c-1.6,0.7-3.3,1.5-4.9,2.1c-2.1,0.8-4.2,1.5-6.4,2.3c-1.6,0.6-2.8,1.6-4.3,2.5c-1.2,0.7-2.5,1.1-3.8,0.4
		c-1.4-0.7-1.2-2-0.8-3.3c1-3.5,1.9-7.1,3.4-10.4c0.7-1.6,1-3.3,1.8-4.8c0.8-1.7,2.6-3.1,4-4.3c2.3-1.9,4.7-3.5,7.1-5.2
		c1-0.7,1.9-1.6,2.9-2.3C1068.9,970.4,1070.9,971.3,1072,974.4z"/>
	<path id="path68" fill="#F9F94E" d="M1069.3,1025.4c0.6,0.2,2.7,2.1,2.3,2.9c-0.3,0.6-1,0.8-1.2,1.5c-0.4,1,0.2,1.5-1.1,1.6
		c-1.1,0.1-4.7-0.9-3.1-2.4c0.3-0.3,0.8-0.1,1-0.4c0.3-0.4,0-0.9,0.1-1.3C1067.6,1026.4,1068.4,1025.2,1069.3,1025.4z"/>
	<path id="path70" fill="#F9F94E" d="M1067.3,1014.8c0.7,1,0.8,2.1,0.3,3.3c-0.3,0.7-0.8,1.3-1,2c-0.2,0.7,0,1.5-0.6,2.1
		c-1.1,1-1.8-0.2-2-1.2c-0.2-1-0.5-3-1.3-3.8c-0.4-0.9-0.9-1.7-1.6-2.4c-1.3-1.5-1.9-2.3-1.4-4.2c0.5-2,0-4.3,0.5-6.3
		c0.6-2.1,2.1,0.8,2.7,1.6c0.6,0.8,1.8,1.7,2,2.7c0.3,1.6-1.1,0.9-1.6,1.7C1062.6,1011.7,1066.7,1013.9,1067.3,1014.8z"/>
	<path id="path72" fill="#F9F94E" d="M1067.4,1043.2c0,1.2-0.1,3.5-1.4,3.6c-2.8,0.2-4.3-5.2-4.3-7.2c0.1-1.5,0-2.9-0.1-4.3
		c-0.1-1-0.3-2.9,0.4-3.7c1-1.2,1.7,0,1.8,1c0.3,2.8-0.4,5.5,1.7,7.9C1066.3,1041.6,1067.3,1041.8,1067.4,1043.2z"/>
	<path id="path46" fill="#F9F94E" d="M1123.8,959.5c1.2,0.8,2.4,2.8,1.9,4.2c-0.7,1.7-2.3,2.8-3.5,4.1c-1.4,1.6-2.2,3.4-3.1,5.3
		c-0.7,1.3-1.8,8.8-4.4,6c-0.8-0.8-1.1-2.6-1.6-3.7c-0.7-1.3-1.3-2.7-2.1-4c-0.7-1.1-2.6-2.4-2.9-3.7c-0.2-1.1,0.9-1.6,1.8-2
		c1.8-0.9,3.5-2.1,5.2-3.1c1.3-0.8,2.7-1.3,3.9-2.2C1120.5,959.5,1122.3,958.4,1123.8,959.5z"/>
	<path id="path48" fill="#F9F94E" d="M1118.5,1007.5c1.2-0.1,2.6,0.2,2.5,1.6c-0.1,1.1-0.8,2.2-1.1,3.3c-0.6,1.9-1.4,4.4-1.6,6.3
		c-0.2,2.3,1.2,5.1-0.4,7.1c-1.9,2.3-5.6,2.6-7.5,5c-0.9,1.2-1.8,2.3-3.4,2.4c-1.4,0-2-1-2.8-2c-0.8-1-1.5-2.1-2.4-3
		c-1.1-1.1-2.4-1.9-3.1-3.3c-0.6-1.1-0.4-1.6,0.4-2.4c0.6-0.6,1.3-1.3,1.9-1.9c0.8-0.6,1.6-1.2,2.5-1.6c1.1-0.5,1.5-0.8,0.6-1.8
		c-0.3-0.3-0.8-0.4-0.9-0.8c-0.2-0.4,0-1.3,0-1.7c0-1-0.1-1.9,0.1-2.8c0.5-2.5,1.4-4.9,1.7-7.4c0.2-1.6-0.4-3.6,0.4-5.1
		c0.7-1.4,2.1-2.4,3.7-2.3c1.3,0,3.5,0.3,4.3,1.4c1.2,1.8-1.5,1.7-2.3,2.3c-1.4,0.9-1.7,3.1-0.8,4.3c1,1.4,2,2.8,3.4,3.8
		C1115.7,1010.1,1116.7,1007.6,1118.5,1007.5z"/>
	<path id="path50" fill="#F9F94E" d="M1110.7,982.9c0.8,0.8,1.2,1.3,0.6,2.4c-1.8,3.3-6.8,1.7-9.7,2.6c-3.5,1.2-7.2,1.9-10.7,3.1
		c-2.4,0.8-4.6,2.1-6.8,3.2c-1.8,0.9-2.7,2-4,3.4c-1.6,1.6-3.9,1.3-5.9,0.3c-1.2-0.6-1.5-1.1-1.4-2.5c0.1-0.8,0.3-1.7,1.3-1.6
		c0.3,0.6,1.4,2.1,2.2,1.7c0.4-0.2,0.4-0.9,0.7-1.3c0.3-0.3,0.6-0.4,1-0.5c0.5-0.2,0.8,0.1,1.1-0.4c0.2-0.3,0-1.4,0-1.7
		c0-1.4,0.1-2.9,0-4.2c-0.1-1.2-0.4-2.4-1.8-2.6c-0.9-0.1-1.8,0.4-2.4-0.3c-0.5-0.5-0.8-2.5-0.8-3.3c0-1,0.4-2.4,1.3-3
		c2-1.3,3.4,0.7,4.9,1.6c1.1,0.6,1.4,0.2,1.8-0.9c0.4-1.3,0.8-2.3,2-3.1c0.7-0.6,1.8-1,2.4-1.7c0.6-0.7,0.6-1.9,1.4-2.5
		c2.2-1.6,1.7,2.7,3.6,2.3c0-1-0.1-2.8,1.4-2.6c0.8,0.1,0.6,0.9,1.1,1.4c1.7,1.5,4.6-0.5,5.8-1.8c0.5-0.6,1.1-2.1,1.9-2.3
		c1.5-0.5,3,3.5,2.3,4.6c-0.5,0.7-1.7,0.8-2.3,1.5c-0.5,0.7-0.7,1.6-1,2.4c-0.3,0.8-0.7,1.9,0.6,1.3c0.8-0.3,1.1-1.3,2.1-1.6
		c2-0.5,4.4,2.6,5.4,4C1109.6,981.4,1110,982.2,1110.7,982.9z"/>
	<path id="path52" fill="#F9F94E" d="M1110,950.4c0.8,1,1,1.8,0.9,3.2c-0.3,3.6-2.8,4.7-4.9,7.3c-1.7,2.1-2.4,5.4-5.3,6
		c-2.3,0.5-4.8,0-7.1,0.2c-2.1,0.1-8.2,2.1-9.1-0.2c-1-2.5,0.4-6.4,1.9-8.4c1.7-2.2,3.5-4.2,5.6-5.9c2.2-1.7,4.7-3.1,7-4.5
		c2-1.2,5.9-2.1,7.9-0.8C1108.1,948,1109.2,949.4,1110,950.4z"/>
	<path id="path54" fill="#F9F94E" d="M1100.8,1005.5c0.5,0.9,1,2.1,0.8,3.1c-0.3,1.5-0.9,2.9-1,4.5c-0.1,1.1-0.2,2.7-0.7,3.7
		c-1.3,2.4-4.1,3.5-5.2,6c-0.6,1.4-1.1,3.5-2,4.7c-0.7,1-1.7,0.3-2.6-0.4c-1.7-1.4-1.1-4.1-2.2-6c-1.2-2-3.4-3.7-4.2-5.9
		c-0.7-1.6,1.7-3.3,1.9-5.1c0.1-1.1,0-1.7,1-2.3c0.9-0.5,1.8-0.4,2-1.5c0.2-1.7-2.4-2.6-2.9-4.3c-0.2-0.9-0.3-2.7,1-2.6
		c1.2,0.1,1.3,1.9,1.9,2.7c0.7,0.9,1.9,0.4,2.7,1.1c1,1,0.2,1.7-0.5,2.1c-0.9,0.5-1.2,0.7-1,1.9c0.4,1.4,1.2,1.7,2.5,2.3
		c1,0.4,2.4,0.9,3.5,0.4c1.3-0.6,0.1-1.1-0.7-1.9c-1.1-1-1.5-1.9-0.2-3C1096.6,1003.5,1099.6,1003.3,1100.8,1005.5z"/>
	<path id="path56" fill="#F9F94E" d="M1097.3,1039.1c0.9,1.5,0.1,4.1-1.1,5.1c-1.4,1.2-3.1,1.8-4.5,2.8c-1.2,0.9-2.5,2.5-4.2,2.5
		c-2.8-0.1-3.7-3.2-5.6-5c-1.5-1.4-3.1-2.8-4.9-3.7c-1.3-0.7-4.4-1.3-4.1-3.3c0.2-1.2,1.7-2,2.6-2.6c0.8-0.5,1.5-1.2,2.2-1.8
		c2.4-1.9,3.9-1.6,6.5-0.3c2,1,4.2,1.8,6.3,2.7c1.2,0.5,2.2,1,3.3,1.6C1094.8,1037.6,1096.7,1038.2,1097.3,1039.1z"/>
</g>
<g id="Manhattan">
	<path id="path82" fill="#FFFFFF" d="M987.3,400.2c0.9,3.8-0.6,9.8-2.9,12.9c-1,1.3-2.5,2.3-4,3c-1.1,0.5-2.7,0.5-3.5,1.4
		c1.2,0.6,2.1,1,1.9,2.5c-0.1,1.3-1,1.5-1.8,2.5c-1.1,1.2-2.1,2.5-3.3,3.6c-0.8,0.7-1.5,2.3-2.4,2.8c-1.1,0.6-1.5-0.8-2.5,0.1
		c-1,0.8-1.2,3.5-1.5,4.6c-1.8,6.3-5.5,11.5-8.7,17.1c-1.1,1.9-1.7,3.9-2.7,5.9c-1.1,2-2.1,4-2.8,6.2c-0.6,1.8-1.8,3.1-2.6,4.9
		c-0.6,1.3-0.8,3.1-1,4.6c0,0,0,0.1,0,0.1c-0.6,3.3-1.7,6.4-3.1,9.5c-1.4,3.2-2,5.6-2.2,9.1c-0.1,2.9-0.3,5.9,0,8.7
		c0.5,5.1,1.8,10.1,2.2,15.1c0.3,4.6-0.4,9.2-0.8,13.8c-0.2,2.6-0.1,5.2-0.1,7.8c0,2.1,0,4.1,0,6.2c0,1.7,0,3.4,0,5.2
		c0,1.9-0.1,2.9,1.2,4.3c1.2,1.3,2.5,2.4,3.6,3.8c2.3,3,4.7,6.1,5.4,9.8c0.5,2.6,0.3,5.6,0.3,8.3c0,2.3,0.4,4.8-1,6.7
		c-1.3,1.8-3.2,2.9-4.9,4.2c-2.2,1.8-4.7,3.4-6.7,5.5c-1.5,1.7-2,3.8-2.9,5.8c-0.7,1.7-1.4,3.2-2.5,4.6c-2.5,3.1-7.6,5.4-8.3,9.7
		c-0.3,1.6,0.3,3,1,4.4c0.7,1.6,1.1,3.2,1.6,4.8c0.4,1.3,1.7,3.1,1.7,4.4c0,1.5-2.2,3-3.2,4.1c-1.5,1.8-2.8,3.5-4.5,5.1
		c-3.8,3.8-6.4,8.3-9.1,12.9c-1.5,2.6-3.1,5.2-4.9,7.7c-4.1,5.5-8.7,10.8-12.8,16.4c-3.3,4.5-6.1,9.4-9.3,14
		c-2.8,4.1-6.3,7.7-8.2,12.4c-0.8,2-1.9,3.9-1.9,6.1c0,2.3,0.8,4.7-0.6,6.6c-0.7,1-0.9,1.6-0.8,2.9c0.1,2.2,1.8,3.4,2.2,5.3
		c0.9,3.9-3.4,1.7-4.6,3.5c-1.4,2.3,3.2,3.1,4.1,3.7c-1,1-3.4,0.2-4.6,1.4c-1.2,1.3,0.4,2.1,1.4,3.1c3,2.6,4.7,5.5,4.4,9.5
		c-0.2,2.1-0.6,4.2-1,6.4c-0.2,1.2-0.4,2.5-0.7,3.5c0,0-0.5,0.3-0.5,0.5c-0.1,0.3,0,0.7,0,1c-0.7,5.2-1.1,10.7-3,15.5
		c-1,2.5-2.2,5-3.2,7.5c-0.8,2-1.7,3.5-3.4,4.8c-1.4,1.2-2.8,1.8-4.6,2.4c-1.9,0.6-3.7,1.4-5.7,1.4c-2.2,0-4.4,0.4-6.6,1
		c-1.5,0.4-3,2.4-4.7,1.7c-1.6-0.6-0.9-2.1-1-3.4c-0.1-1.3,0-1.1-1.3-1.3c-0.7-0.1-1.5,0.1-2.2,0.1c-2.3,0.2-4.8,0.5-6.9,1.4
		c-2.2,0.8-4.1,2.3-6.3,3.2c-1.5,0.7-2.7,1.2-2.3,3.1c0.3,1.3,1.3,2.1,0.9,3.6c-1.2,4-5.2,6.9-8.3,9.5c-4.5,3.8-2.7-3.5-5.9-2.6
		c-3.5,0.9,3,5.6-1,6.1c-2.2,0.3-1.4-0.7-2.2-1.9c-1-1.6-2.8-0.3-3.6,0.7c-1.1,1.3-1.5,1.8-3.4,1.6c-1.4-0.1-2.7-1-3.8-1.9
		c-0.8-0.7-1.2-1.5-1.6-2.4c-0.4-1-1.4-2.3-1.7-3.3c-0.5-2.1,1.3-1.6,2-2.9c0.8-1.7-1-2-2.1-1.8c-1.2,0.2-3.4,1-4.1-0.5
		c-0.5-1,0.5-3.5,0.7-4.5c0.5-2.3,1.2-4.5,1.6-6.8c0.3-2,1.1-3.9,1.5-6c0.5-2.7,0.7-5.3,0.8-8c0.3-6.5,2.6-12.8,3.3-19.3
		c0.1-1.3,0.1-4.2,0.7-5.4c0.7-1.3,3.7-1.4,5.1-1.7c1.4-0.3,2.5-0.5,1-1.7c-1.4-1-7.4-1.9-5.1-4.5c0.6-0.6,2-1.2,2.3-2.3
		c0.4-1.8-1.1-0.7-2-1.6c-2.1-1.9,4.8-2,5.7-2.2c0.8-3-4.5-1.2-5-3.3c-0.4-1.6,1.1-3.8,1.5-5.3c0.4-1.6,0.4-2.1,2.4-2.5
		c0.9-0.2,3.4-0.3,2.6-1.8c-0.6-1.3-2.8-1-3.9-1.2c-1.5-0.3-1.6-1.2-0.3-1.9c1-0.5,2.4-0.3,1.9-2.1c-0.2-0.9-1.2-1.9-1.8-2.6
		c-1-1.1-1.2-1.3-0.7-2.8c0.5-1.4,0.8-2.7,0.7-4.3c-0.2-3.7,0-6.8,2.9-9.6c1.7-1.6,3.8-2.2,1.9-4.9c-1.2-1.7-3.7-2.3-2-5
		c1.2-1.9,2.4-3.8,2.3-6.2c1.4,0.1,1,1.4,1.7,2.1c0.9,0.8,2.1-0.1,2.6-0.9c0.5-0.7,0.9-2.2,0.4-3.1c-0.4-0.8-1.4-1-1.6-1.9
		c-0.1-0.6,0.3-1.9,0.5-2.4c0.5-1.9,1.6-3.5,2.7-5.1c0.4-0.6,0.7-1.2,1.3-1.6c0.4-0.3,1.4-0.3,1.7-0.6c1.6-1.4-0.8-1.2-1.6-1.7
		c-0.9-3.3,6.4-0.4,5.6-3c-0.7-0.7-1.9-0.5-2-1.7c-0.1-1,0.8-1.9,1.7-2.1c0.7-0.1,2.3,1,2.5-0.3c0.1-0.9-1.3-1.3-1.9-1.4
		c-0.6-2.5,3.1-0.3,4-0.4c0.3-1.2-1.1-0.9-1.5-1.6c-0.4-0.6,0-1.7,0-2.3c0.5,0.4,4.1,2.4,4,0.5c0-1.2-2.3-1-2.7-2
		c-0.7-1.7,1.6-0.3,2.4-0.7c1.7-0.8-1-1-1.3-1.7c-0.5-1.4,1.8-1.3,2.4-1.8c1.3-1.2-0.3-1.5-0.6-2.7c-0.3-1.3,0.5-1.8,1.3-2.7
		c1.3-1.5,1.4-6.2,4-5.7c0.1,0.5,0.3,1.7,0.8,2c0.9,0.6,1.7,0.1,1.8-0.8c0.2-1.7-2-2.6-0.8-4.4c0.5-0.7,1.3-1,1.7-1.9
		c0.3-0.7,0.5-1.3,1-1.9c1-1.2,3.8-1.5,2.8-3.5c-0.5-0.9-2.4-1-2.5-1.7c-0.3-1.3,2.1-1,2.8-1c1.2,0,2,0.2,2.9-0.7
		c0.9-0.9,1.4-2.4,2-3.5c1.7-3.1,3.8-6.2,5.3-9.4c0.8-1.7,1.4-3.7,2.3-5.4c1.1-2,2.7-3.2,3.9-5c1.2-1.7,1.8-3.7,2.9-5.4
		c1.9-3.2,3.4-6.5,5.2-9.7c1.4-2.5,2.7-4.7,3.6-7.4c0.4-1.3,0.6-2.5,1.1-3.7c1.9-4.5,5-8.8,7.6-13c1.9-3.1,3.5-6.3,5.1-9.5
		c1.1-2.1,1.7-4.4,2.7-6.5c0.9-1.9,2.2-3.6,3.3-5.4c0.6-1,2.4-3.2,2.3-4.3c0-1.3-1.9-1.2-1.5-2.4c0.4-1.1,2.7-1.2,3.4-2.2
		c0.9-1.1,0.6-3,2.1-3.7c0.5-0.3,1.1,0,1.6-0.2c0.6-0.3,0.9-1,1.2-1.5c2.7-4.6,6.1-8.8,9.1-13.3c2.9-4.3,4.9-9.4,6.8-14.2
		c1.8-4.6,2.7-9.4,4.2-14.1c1.1-3.5,3.9-7.3,4.2-11c0.2-3.4-2.2-5.4-3.3-8.5c-0.7-2-0.3-3.8,0.9-5.4c1.1-1.5,2-1.8,3.4-2.7
		c2.5-1.6,4-4.6,5.5-7.1c3.2-5.2,5.9-10.6,9-15.8c2.3-4,4.4-7.9,6.3-12.1c1.6-3.7,2.5-7,2.5-11.1c0-1.6-0.2-3.4,0.1-4.9
		c0.4-1.7,1.8-3.5,2.9-4.9c1.3-1.7,2.9-3.1,4.3-4.7c1-1.1,1.6-1.9,3.2-1.8c3.1,0.2,5,2.8,5.1,5.7c0.1,1.7,0.1,3.5,1.4,4.7
		c0.9,0.9,3.3,1.8,4.4,0.7c1-1-0.1-2.7,1.4-3.3c1.7-0.7,4.1,0.9,5.5,1.5C981.3,396.1,986.5,397,987.3,400.2z"/>
	<path id="path84" fill="#FFFFFF" d="M980.5,575.3c-2.1,1.9,2.6,6,2.3,8.1c-0.4,3-5.4,5.5-7.2,7.5c-2.8,3.1-5.9,6.7-6.7,10.8
		c-0.4,2.1,0,4.5-1.2,6.3c-1.1,1.5-2.7,3-4,4.4c-1.2,1.4-3.2,2.8-5.2,2.8c-0.6,0-1.1-0.1-1.7-0.4c-0.6-0.3-1.1-1.3-1.7-1.8
		c-1-0.7-2.1-1.1-3.2-1.6c-2.6-1.2-10-3.9-8.8-7.8c0.5-1.6,1.5-2.7,1.9-4.4c0.5-2.1,1.2-2.5,3.1-3.5c3.7-2.1,6-4.4,8.2-8
		c1.3-2,2.4-3.9,2.7-6.3c0.2-2.3-0.1-4.7,0-7.1c0.2-3.8,3.8-6.5,1.2-10.2l8.3-0.7L980.5,575.3z"/>
	<path id="path86" fill="#FFFFFF" d="M943.1,614.5c0.6,1.7-1.7,2.6-2.7,3.8c-0.5,0.7-1,2.5-2.2,2.4c-1.1-0.1-1.2-1.7-1.5-2.5
		c-0.6-1.7-0.5-5,1.4-6C939.7,611.4,942.5,612.9,943.1,614.5z"/>
	<path id="path90" fill="#FFFFFF" d="M937.4,629.4c0.1,0.3,0.1,0.7,0.1,1c0,1.2-0.4,2.6-0.6,3.7c-0.9,3.4-3.4,5.7-5.3,8.5
		c-5.4,8.3-9.5,17.2-15.1,25.4c-3.1,4.5-7.3,8-10.5,12.5c-1.7,2.4-4.7,7.7-8.1,7.4c-0.1-1.6-0.1-3,0.5-4.4c0.7-1.8,1.8-3.3,2.4-5.1
		c1.3-3.9,4-7.3,6.5-10.6c2.5-3.4,5.2-6.6,7.6-10c2.8-3.9,5.5-7.9,8.3-11.8c2.2-2.9,3.8-6.1,5.4-9.3c0.4-0.8,0.9-1.6,1.4-2.3
		c0.5-0.7,1.1-1.3,1.9-1.8C932.8,632,936.7,626.3,937.4,629.4z"/>
	<path id="path92" fill="#FFFFFF" d="M892.1,689.3C892.1,689.3,892.1,689.3,892.1,689.3c0.1-0.5,0.2-1.2,0.5-1.3
		c0.7-0.3,1.1,2.2,1,2.7c-0.4,1.7-2.5,1.7-3.3,3c-0.4,0.7,0,1.9-0.6,2.5c-0.4,0.4-1.5,0.3-1.8-0.2c-0.3-0.5,0-1.7,0-2.3
		c0-0.9,0.2-1.1,0.9-1.7c0.6-0.5,1.2-1,1.8-1.4C891.1,690.3,891.9,689.8,892.1,689.3z"/>
	<path id="path94" fill="#FFFFFF" d="M807.8,825.6c0.1,1,0.3,2.5,0.1,3.7c-0.1,0.5-0.3,0.9-0.5,1.2c-0.8,1.1-2.7,1.9-4,2.4
		c-2.1,0.9-4.2,1.7-6.2,3c-2.2,1.4-3.9,3.3-6.1,4.7c-1.2,0.8-2.1,1.5-3.1,2.6c-0.7,0.7-1.8,0.8-2.8,0.4c-1.8-0.8-3-2.6-4.4-3.9
		c-0.8-0.7-1.2-1.4-1.1-2.5c0.1-0.9,0.3-2,0.7-2.8c0.4-0.8,1.3-1.2,2-1.8c1-0.8,2-1.7,3-2.4c1.3-0.9,2-2.1,2.8-3.5
		c0.8-1.3,1.3-2.9,2.3-4.1c0.9-1.1,2.2-1.9,3.3-2.8c1-0.8,2.1-1.8,3.4-2.2c1.7-0.5,3.9,0.6,5.1,1.7
		C804.4,821.1,807.7,822.6,807.8,825.6z"/>
	<path id="path96" fill="#FFFFFF" d="M764,806.1c0.7,0.6,0.5,2-0.2,2.4c-0.7,0.4-1.7,0.5-2.5,0.7c-1,0.2-1.5,0-2.1-0.7
		c-0.8-0.9-1.2-1.8-2.1-2.5c-0.9-0.8-1.6-1.3-1.6-2.6c0-0.8,0.1-1.4,1-1.7c1-0.3,2.3-0.1,3.1,0.5c0.6,0.5,0.5,0.8,0.7,1.4
		c0.3,0.7,0.9,0.9,1.4,1.3c0.4,0.3,0.7,0.6,1.2,0.9C763.2,805.9,763.7,805.9,764,806.1z"/>
	<path id="path98" fill="#FFFFFF" d="M757.4,810.8L757.4,810.8c-0.2,0.4-0.6,0.8-0.8,1.3c-0.2,0.4-0.2,0.9-0.4,1.4
		c-0.3,0.7-0.7,1.7-1.6,1.5c-0.8-0.2-1.1-1.1-1.6-1.7c-0.6-0.6-2.1-1.1-2.3-2c-0.2-0.7,0.8-1.4,1.2-2c0.3-0.5,0.2-1.1,0.5-1.5
		c0.2-0.4,0.7-0.9,1-1.1c0.6-0.5,1.3-0.6,1.7,0.1c0.2,0.4,0.1,0.7,0.4,1c0.3,0.4,0.8,0.6,1.2,0.9
		C757.1,808.8,758.4,810.4,757.4,810.8z"/>
	<path id="path100" fill="#FFFFFF" d="M754.7,829.7c0.3,1.2-0.9,1.5-1.6,2.1c-0.3,0.2-2.6,3.4-2.8,3.4c-0.9-0.5-1.2-1.7-1.8-2.4
		c-0.7-0.9-1.4-1.9-2.4-2.5c-0.8-0.5-2.1-1.1-2-2.2c0-1,0.9-0.9,1.5-1.4c0.6-0.6,1.1-2.1,2-2.4c0.8-0.3,1.5,0.6,2,1.1
		c0.7,0.8,1.6,1.5,2.6,2.1C752.9,827.9,754.5,828.6,754.7,829.7z"/>
	<path id="path2950" sodipodi:nodetypes="ccccc" fill="#FFFFFF" d="M978.7,389.9l3.3-3.9c3.7-4.6,12.4,1.7,11.2,7.5l-1.8,7.7
		C990.7,392.9,981.4,390.1,978.7,389.9z"/>
</g>
<sodipodi:namedview  objecttolerance="10" pagecolor="#ffffff" id="namedview138" borderopacity="1" showgrid="false" inkscape:cy="247.2" inkscape:cx="250" guidetolerance="10" bordercolor="#666666" gridtolerance="10" inkscape:zoom="1.5230583" inkscape:pageopacity="0" inkscape:pageshadow="2" inkscape:window-width="1680" inkscape:window-height="1000" inkscape:window-x="-8" inkscape:window-y="-8" inkscape:window-maximized="1" inkscape:current-layer="katman_1">
	</sodipodi:namedview>
</svg>
