<svg
	 x="0px" y="0px" width="800px" height="791px" viewBox="-0.8 -0.8 800 791">
<rect id="Water_1_" x="0" fill="#35A7FF" width="1009.6" height="998.3"/>
<path id="path88_1_" fill="#C6E0C6" d="M0,0h573.5c-1.2,5.5-3.3,10.7-5.5,15.8c-2.3,5.4-4,11.1-5.5,16.7c-1.5,5.6-1.4,11.5-2.9,17.1
	c-3.3,12.7-10.8,24.7-15.2,37c-1.9,5.5-2.9,11.2-5.1,16.5c-2.4,6-4.9,11.7-7.4,17.8c-1.8,4.4-7.7,11.5-6.9,16.3c0.3,2,2.2,3.5,1,5.9
	c-1.6,3-5.3,0.2-6.6,3.6c-1.7,4.5-0.4,9.8-1.6,14.4c-1.3,5-5.2,9.9-7.8,14.2c-1.5,2.5-3.5,4.3-5.9,6c-1.4,1-4.2,1.9-4.6,3.7
	c-0.9,3.7,4.2,1.8,4.2,4.2c0,0.9-5,3.1-5.9,4.2c-2,2.3-2,3.6-0.3,5.8c2.1,2.6,2,2.4,0.5,5.5c-2.4,5.2-3.8,10.9-6.8,16.1
	c-1.3,2.3-2.3,4.9-3.4,7.3c-1.3,2.8-3.3,4.7-5,7.2c-1.4,2.1-0.9,4.3-2.3,6.3c-1.3,1.9-3.3,3.3-4.9,5.1c-1.3,1.4-3.6,3.6-2,5.6
	c1.5,2,5.4,0.2,3.6,3.5c-1.3,2.5-3.8,0.9-5.7,2.2c-0.8,0.5-2.1,1.4-1.4,2.8c0.5,1,1.7,0.2,2.4,0.9c2.4,2-0.1,2.7-2.4,3.2
	c-2.8,0.6-3.2,0.8-4.8,3.3c-2.3,3.8-14.8,18.6-6.6,21.1c0,1.4-0.8,2-1.4,3.2c-0.4,0.8-0.3,2-0.8,3.1c-1.4,3.6-3.1,0-5.6,1.1
	c-1.6,0.7-2.2,3.9-3.3,5.3c-1.2,1.5-4.3,2.7-4.2,5c0.1,1.3,1.8,1.3,1.6,2.8c0,0.4-1.9,1.7-2.2,2.1c-1.5,1.6-3,3.8-4.1,5.7
	c-1.1,2-2.1,4-3.4,6c-1.3,2.1-3.5,3.5-3.3,6.1c0.1,1.6,1.5,0.8,0.6,2.8c-0.6,1.3-1.1,1.1-2.3,1.4c-1.8,0.4-6.6-0.9-3.6,2
	c0.9,0.9,6,2.7,1.9,3.3c-2.5,0.3-4.2-3.3-6.6-2c1.3,1.4,2.7,2.6,4,4.1c-1.3,1.8,0,3.4-1.6,5.3c-1.1,1.3-3.1,1.9-4.5,2.8
	c-4.4,3.1-2.8,8.8-4.8,13.2c-0.7,1.5-2.4,2.1-3.5,3.2c-3.4,3.2-2.6,5.3,1.8,6.1c-0.3,2.5-4.4,0.7-5.2,3.2c1.1,0.1,2.2,0.3,3.2,0.7
	c-0.1,2.7-4.5,0.5-4.6,3.2c0.9,0.3,1.8,0.5,2.7,0.6c0.2,3.4-6.5,2.2-8.6,2.7c-2.6,0.7-3.4,2.1-0.8,3.6c1.9,1.1,4.8,0,6.9,1.3
	c2.1,1.2,2.8,4.2,1.1,5.9c-0.7,0.7-1.9,0.2-2.7,1.1c-0.7,0.7-0.8,2.2-1.2,3.1c-2.5,5.3,0.3,8.5,1.4,13.9c0.5,2.7,0.6,4.9-0.9,6.8
	c-1.6,2.1-4.9,3.1-6.1,5.4c2.6,0.7,6.3,2.5,4.5,5.7c-1.6,2.8-3.1,4.9-5.8,6.7c-1.1,0.8-2.9,1.3-1.7,2.8c0.4,0.4,1.9-0.3,2.5,0.3
	c1,1-0.3,1-0.1,1.6c0.2,0.7-0.1,1.2,0.3,2c0.1,0.3,1.3,0.7,1.6,1c1.7,1.6,2.4,2.3,1.2,4c-1.3,1.7-4.3,1.6-6.4,1.7
	c-2.5,0.1-5.2,1.2-1.9,2.5c2.2,0.9,4.3,0.3,6.3,2c1.6,1.3,1.7,4-1.3,4.1c-2.4,0.1-3.5-3-6.4-1.2c-3,1.9-0.8,3.4,1.7,3.7
	c1.4,0.1,5.8-0.5,5.3,1.9c-0.4,2-4.3,0.6-5.6,1.9c1,1,6.8,1.4,2.2,3.3c-2.3,0.9-5.3-0.9-6.6,2c2.3,1.3,5.1,0,7.2,1
	c3,1.4,1.5,3.2-0.9,4c-3.3,1.1-3.2,0.9-4.4,4.1c-0.8,2.1-2.3,4.8-4.8,5.3c-1.9,0.4-5-0.4-6.7-1c-3.1-1.1-1.9-2.4-3.5-4.5
	c-2.5-3.2-2.9,0.6-3.9,2c-1.7,2.4-4.7-0.2-6.1,1.4c-1.8,1.9,9.2,3.9,10.8,4.1c2.5,0.3,15.1,0,14.4,4.1c-3.9,0.2-8.4,0-12.2-0.7
	c-1.1-0.2-7.6-1.9-7.5,0.5c0.1,1.7,4.4,0.6,3.9,4.1c-0.3,2-3.3,4.8-4.4,6.6c-1.4,2.2-2.7,4.5-4.4,6.4c-2,2.1-4.6,2.1-6.6,3.6
	c-3.3,2.6,0.7,2,2,3.8c1,1.5-1.2,5.5-2.5,6.8c-2,2-2.1,0.1-4-0.3c-2.2-0.5-3.5,0.3-5.3,1.8c-1.7,1.4-1.6,0.4-0.4,2.5
	c0.8,1.5,2.6,1.4,1.3,3.7c-0.8,1.4-2.7,1.7-4.2,1.7c-3.4-0.2-4.3-5-6-7.8c-0.8-1.3-6.3-8.1-6.2-2.3c-3,0.4-4.8-5.7-6.8,0
	c-1.6,4.3,3.6,3.7,6.8,4.5c1,3.4-3.2,1.6-4.9,1.9c-2.7,0.5-2.5,1.4-2.5,4.2c0,4.4,1,10.5-0.9,14.4c-5.2,0.8-6.9-8.3-13.2-7.7
	c-7.9,0.7,1,7.9,3.8,9.6c3.4,2.1,10.3,5.1,5.6,9.8c-2.7,2.6-2.8,0.3-4.7-1.3c-2.3-1.9-4.1-1.1-2.4,1.6c0.6,1,2.1,1.3,2.6,2.3
	c0.8,1.5,0,1.1-0.3,2.7c-0.5,3,0.4,3.2,3.1,4c0.4,1.4-0.8,4.1-2.2,4.1c-0.9,0-3.4-2.7-4.4-3.3c-2.9-1.6-5.3-2.9-8.8-2.8
	c-0.9,4.9,6.3,7.4,9.9,9.2c3.7,1.8,7.3,3.8,10.9,5.8c2.5,1.4,5.8,3.7,8.7,3.9c-0.3,0.4-0.9,1.3-1,1.8c-0.6,2.5-1.5,5.7-4.2,5.3
	c-1.8-0.3-4-2.5-5.5-3.5c-4.8-3-10-5.7-15.2-8c-2.7-1.2-5.5-2.6-8.1-3.9c-3.8-1.9-1.2-2.5-3.1-5.3c-1.8-2.6-11.5-1.6-13.5,0.2
	c1.2,1.9,4.9,3.4,6.9,4.4c2.9,1.4,5.9,2.9,8.8,4.4c6.1,3,11.5,7.1,17.2,10.6c3.1,1.9,7.5,2.5,10.3,4.7c1.4,1.1,1.1,0.2,1.2,2.1
	c0,1.1-0.4,1.8-0.8,2.7c-1.9,4.4-7,5.1-10.7,2.4c-1.7-1.2-2.7-2.8-4.8-3.9c-2.1-1.1-4.4-1.9-6.5-3.1c-3.4-2-6.7-3.7-10.4-5.1
	c-6.4-2.6-13.5-3.2-19.4-6.7c-4-2.3-11.6-7.7-16.2-3.9c-4.6,3.8,1.1,9,5.4,7.1c1-0.4,0.2-1.8,2.1-1.4c0.8,0.2,1.4,2.1,2,2.7
	c1.7,1.4,3.8,1,5.7,2c-1.2,2.9-1.2,6,2.8,7.3c0.8,0.3,4.2,0.3,5-0.1c1.5-0.7,1.4-2.6,2.8-3.3c5.8-2.9,6.8,7.8,6.9,10.8
	c0.2,5.4,6.1,5.3,6.1,11.3c0,6.4-5.4,8.5-10.5,10.8c-3,1.3-5.9,2-8.9,3.1c-2.7,1-4.6,2.4-7.8,2.2c-2.9-0.2-3.7-1.1-6.1-2.5
	c-2.6-1.6-4.9-1.8-7.8-2.5c-3-0.7-9.6-8.2-11.4-2.2c-0.3,0.9,0.6,2.5,0.3,3.6c-0.2,1-0.9,1.7-1.3,2.5c-1.3,2.4-2.2,3.2-4.5,4.7
	c-6,3.9-12.1,4.4-19.2,4.4c-3.3,0-6.6,0-9.9,0c-2.3,0-6-0.7-8.1,0.3c-1.9,0.9-2.5,3.9-4.7,4.4c-2.3,0.6-5.2-1.5-6.3-3.3
	c-1.8-3-0.4-4.3,0.8-6.9c1.1-2.2,0.7-4.7,1.7-7c1.3-3.1,3.5-5.8,5.1-8.8c0.6-1.1,1.6-2.3,2.1-3.4c0.5-0.9,0.4-2.3,1.1-3.1
	c1.4-1.6,2.8-0.1,4.3-1c2-1.1,3.1-5.6,4.8-7.4c1.1-1.1,2.4-1.5,2.2-3.3c-0.2-1.6-1.7-1-1.4-2.8c0.3-2,3.9-4.8,4.8-6.9
	c2.1-0.6,1.5,1.3,2.8,1.8c5.5,2.2,2.4-9.4,2.7-11.9c0.7-5.1,7.5-7.7,10.8-11.6c3.7-4.4,6.1-10.6,7.8-15.8c0.5-1.5,7.8-10.8,2-10.3
	c-0.8-2.2-0.3-4.4,1.1-6.1c1.6-1.8,5.1-1.2,6.2-2.8c1.9-2.6-2.5-3.2-2.7-5c-0.1-1.6,2.3-3.4,3.3-4.7c2.6-3.4,3.1-7.6,7-9.7
	c2.4-1.3,7.4-3.1,7.8-6.3c0.5-3.9-5.5-2.1-6.5-6.2c-0.8-3.1,1.9-6.2,1-9.4c-0.7-2.3-3.5-3.9-1.4-6.3c0.8-0.8,2.3-0.3,2.8-1.7
	c0.6-1.7-1.3-2.1-1.4-2.8c-0.3-3.7,5.6-8.2,8.1-10.5c3.5-3.2,7.6-3.7,8.8-9c1.5-6.3-0.7-12.8,1.4-18.9c1.9-5.6,4.7-11.2,9.1-15.3
	c3.6-3.4,6-5.5,10.6-7.1c1-0.3,2-0.7,3-1c3.5-1.2,6.8-2.4,9.2-5.3c3.4-4,6.9-8.9,5.2-14.4c-0.5-1.6-2-4-3.5-5.1
	c-2.2-1.6-5.1-0.4-7.7,0c-4.2,0.7-12.4,2-16.1-0.6c-3.9-2.7-1.8-9-1-12.9c0.9-4.6,4.8-8,5.4-12.6c0.3-1.9,0-3.2,0.6-5
	c0.6-2.2,1.6-4,2-6.3c0.5-3.9,0.2-8.9-1.2-12.4c-1.6-4.2-2.7-6.1-1.9-10.6c2-10.2,11.3-16.8,17-25.5c2.6-4.1,3-6.5,8-8.1
	c1.9-0.6,5.2-0.9,4.1-3.6c-0.7-1.7-4.6-3-6-3.9c-1-3.3,5.1-3.4,6.9-4c2.8-0.9,4.7-2.3,6.9-4.8c4.5-5.1,6.1-10.3,13-12.5
	c5.2-1.6,10.7-3.4,16.1-4.2c6.2-0.9,12.5,0.1,18.5-1.8c8-2.6,12.9-9.2,14.4-17.3c0.6-3.4,2-7.8,1.1-11.1c-1.1-4.1-4.2-7.3-6.4-10.8
	c-2.9-4.6-0.7-9,1.9-13.4c2.2-3.6,7.2-6.6,7.8-11.1c0.7-4.4-2.4-7.1-3.4-11c-0.1-0.5-0.2-1-0.2-1.5c-0.1-2.5,1-3.6,1.4-5.8
	c0.4-2.2-0.3-4.5,0.3-6.6c2.1,0.9,3.8,6.5,5,8.6c2.3,4,5.2,6.8,10.2,7.4c4.7,0.6,10.5,0.9,13.6-2.9c1.7-2.1,2.9-4.9,3.7-7.9
	c0.8-2.7,1.3-5.5,1.8-8c0.5-2.7,0.1-5.5,0.5-8.2c0.4-2.8,1.3-5.4,2-8.1c1.1-4.4,3.1-8.3,3-12.7c-0.1-4.7,3.8-6.6,7.3-9.4
	c2.2-1.8,2.3-3,3-5.6c0.6-2.4,2-4,3.6-5.8c2.8-3.1,6.3-6.2,5.5-10.7c-3.8,2.7-5.2,7.3-9.7,9.5c-5.2,2.6-13.4,3.4-11.5,11
	c0.8,3.2,1.1,3.8-0.4,6.9c-1.3,2.9-2.1,5.7-2.6,8.9c-1.4,7.6-3.4,14.7-3.8,22.4c-0.1,2.6-0.4,6.1-1.2,9.3c-0.9,3.2-2.4,5.9-5.1,7.1
	c-4.4,1.8-12.2,1.8-15.3-2.2c-1.7-2.2-2.5-4.7-3.8-7.1c-1.2-2.3-3.1-3-4.8-4.8c-2.1-2.3-2.6-8.1-1.8-12c0.1-0.7,0.3-1.3,0.6-1.9
	c1-2.4,2.1-3.7,1.1-6.6c-1.2-3.9-5.7-5.7-7-9.4c-1.1-2.9,0.5-6.1-0.4-9.2c-1.4-4.7-3.7-8.7-4.8-13.6c-0.9-4.1,2-8.5,2.5-12.5
	c1-7.2-7.6-3.7-8.4-8.6c-0.3-2.1,3.3-4.1,4.5-5.5c1.6-1.8,2.9-3.8,4.1-5.8c1.1-1.8,2-3.7,2.2-5.9c0.3-3-0.9-3.4-3-4.8
	c-2.1-1.4-3.4-2-3.7-4.6c-0.1-1.6,0-4.7,0.9-6c1-1.5,3.6-2.2,5-3.1c2.8-1.8,1.5-3,2.4-5.8c0.4-1.2,1.1-1.5,1.4-2.8
	c0.2-1.2-0.1-2.4,0-3.6c0.3-2.4,1.5-4.2,2.7-6.4c2.4-4.5,4.9-8.3,8.2-12.4c1.1-1.4,3-3,3.5-4.8c0.7-2.5-0.3-6-1.4-8.1
	c-2.3-4.4-6.5-7.4-8.6-11.9c-4.4,4.5,2.7,8.2,5.3,10.8c3.7,3.9-0.2,8.9-2.6,12.3c-3.5,4.9-6.1,9.8-8.2,15.5
	c-1.6,4.4-2.3,9.8-5.5,13.3c-1.9,2-4.3,3.6-6,5.8c-1.7,2.2-1.5,4.2-1.2,6.9c0.2,2.2,0.3,6,1.8,7.4c1.5,1.4,4.4,1.1,6.3,1.8
	c-1.8,4.5-4.3,7.6-8.8,10.2c-2.8,1.6-4.4,2.7-4.2,6.5c0.3,4.1,2.6,5,5.8,6.4c2.2,1,5.1,2.4,3.3,5.3c-1.6,2.6-2.1,2.5-2.3,6
	c-0.1,2.9-0.3,5.8,0.1,8.6c0.5,3.4,2.7,5.6,4.4,8.6c2.7,4.9,0.3,10.3,2.4,15.1c1.1,2.6,3.6,2.7,5.1,4.7c1.3,1.9,0.7,4.2,0.4,6.4
	c-0.1,0.4-0.1,0.8-0.2,1.2c-1.1,5-3.6,9.4-3.9,14.8c-0.3,5.1,1.6,9.9,3,14.7c1.3,4.4,2.1,8.7,0.5,13.3c-2,5.9-8.2,5.2-11,10.3
	c-4.4,8.2,5.9,17.8,8.5,24.7c1.5,4-1.3,9.9-2.8,13.6c-1.8,4.1-5.6,7.8-10.2,8.3c-11,1.2-22.6-1.3-32.9,2.5
	c-6.5,2.4-11.2,7.5-15.1,13.2c-3.6,5.4-6.2,5.5-12.2,6.8c-6.3,1.3-8,9.6-9.8,14.9c-1.5,4.5-4.1,9.8-6.5,13.8c-2,3.4-6.6,5.2-8.9,9
	c-3.6,5.8-4.6,12.2-3.6,18.9c0.9,5.8,4.9,9.8,3.9,16.1c-0.9,5.6-2.2,11.8-4.4,17.2c-1.2,2.9-2.9,5.5-4.3,8.3
	c-2.1,4.3-1.3,5.6,0.6,10c2.5,5.7,8.8,9.7,15.2,9.2c4.5-0.4,12.9-2.8,14.1,3.3c1.1,5.4-3.5,8.1-7.5,10.2c-1.1,0.6-2.1,1-3.2,1.4
	c-1.8,0.6-3.7,1-5.6,1.4c-6.5,1-11,2.3-15.7,7.3c-3.8,4.1-6.1,9.3-7.1,14.8c-0.6,3.2-1.1,6.4-1.3,9.7c-0.1,3.1,0.4,6.3-0.6,9.3
	c-0.9,2.5-7.5,11.7-10.8,10.6c-2.3-0.7-2.9-3.9-5.9-3.1c-2.3,0.6-3,3.6-4.3,5.3c-4.5,5.7-7-1.4-8.8-4.9c-2.5-4.9-1.5-8.4-1-13.6
	c0.5-4.9-0.3-9.7,0.8-14.2c0.1-0.3,0.2-0.7,0.3-1c1.3-4.4,4-10,2.4-14.7c-1.2-3.7-5.3-8.7-9.1-9.9c-5.3-1.8-13.9-0.4-19.3,0.5
	c-3.1,0.5-6,1.9-9,2.8c-2.4,0.7-6.3,1.5-8.3,3.1c-3,2.3-3.2,6.1-5,8.8c-0.6,0.9-1.4,1.7-2.5,2.2c-3.9,2-9.1,1.9-13.6,1.9
	c-5.8,0-8.7-1.1-11.3-6.4c-2-4.2-5.3-8.7-6.2-13.3c-1.1-5.2-0.5-12.3,0.1-17.5c0.3-2.8,0.5-5.1,1.3-7.6c3.3-10.5,8.6-19.1,14-28.6
	c3.4-6,5.5-12.4,8.4-18.9c2.9-6.6,5.7-13.3,8.7-19.8c3-6.4,6.2-12.9,8.1-19.7c1.4-5.3,4.6-9.6,6.3-14.6c0.7-2.2,0.1-4.6-0.8-6.4
	c-1.3-2.5-1.6-3.3-1.6-6.4c0-2.1-1.1-4.8-0.6-6.7c0.5-2.1,2.9-2.6,3.8-4.5c1.7-3.4,1-12.7-2.7-14.7c-1.5,2.2-1.4,5.6-1.7,8.4
	c-0.3,2.9-1.7,5.7-2.2,8.4c-1,6.3,1.8,10.9,2.7,16.6c0.7,4.7-2.8,8.6-4.8,12.4c-2.7,5.1-4.3,10.5-6.3,15.9
	c-2.9,8.1-5.6,16-10.5,23.3c-3.6,5.4-7.8,9.8-9.6,16.1c-2,7-6.4,13.4-9.3,20.2c-1.8,4.3-3.5,8.9-5,13.3c-1.1,3.2-2.8,6.3-3.2,9.7
	c-0.3,2.9-0.3,6.1-0.3,9c-0.1,6.5,0.7,13.4,3.8,19.2c1.6,3,3.2,6.2,4.8,9.2c1.2,2.3,1.7,4.4,4.1,5.6c4.8,2.4,11.7,1.3,16.9,1.1
	c2-0.1,5,0.6,6.7-0.3c2.6-1.2,3.9-4.1,5.3-6.8c1.1-2.1,2.2-4,4.1-5.1c7.4-4.1,17.2-3.6,25.3-5.1c4.1-0.8,9.7-1.5,13,1.7
	c3.3,3.1,2.6,11.1,1.6,15.1c-0.3,1-0.5,2.1-0.7,3.1c-1.2,5.5-1.8,11.1-3.4,16.6c-1.7,5.9-3.2,11.8-3.4,18.1
	c-0.1,3.9,0.8,7.8,1.1,11.6c0.3,3.7,1.8,6.9,2.8,10.3c1.2,3.9,0,7.9-1.5,11.6c-1.4,3.7-2,8-4.3,11.6c-2.3,3.7-5.7,6.8-8.4,10.4
	c-2.1,2.9-4.6,7.7-7.8,9.4c0-0.1-0.1-0.2-0.1-0.2c-1.3-0.4-2.1-4.9-2.7-6.1c-0.9-2-2.2-4.5-3.5-6.1c-3-3.6-8.4-4.2-12.3-6.9
	c-4.2-2.9-9.6-7.5-15-7.4c-3.5,0-3.2,2.4-1.3,4.1c1.6,1.5,4.3,2.6,6.2,3.8c2.9,1.8,5.9,3.6,9,4.7c2.4,0.8,5.6,1.1,7.4,2.8
	c1.7,1.5,2.5,4.7,4.1,6.5c2.1,2.4,4,2.8,2.7,6c-2.1,5.4-6.9,9.9-9.7,15c-1.7,3.2-2,2.4-4.5,0.4c-2.4-1.9-4.8-3.6-7.2-5.5
	c-3.9-3.2-8.2-6.2-12-9.6c-1.3-1.2-3.3-3.4-5.4-2.7c-2.8,1-2.2,3.8-0.9,5.5c1.9,2.4,4.3,3.9,6.5,6c2.6,2.5,5,5.3,7.8,7.8
	c2.8,2.5,5.6,4.1,8.8,5.9c3.1,1.7,5.8,4.4,8.9,5.9c1.2,5.5-5,10.3-7.9,14c-1.6,2.1-2.6,6-5.2,7.1c-3.1,1.4-5.9-1.8-8.8-2.3
	c-11.6-2-6.5,17.4-15.2,18.3c-3.3,0.4-8.1-5.1-10.5-7c-3.6-2.9-7.6-7.9-12.3-8.5c-8.1-1,1.7,6.1,3.4,7.5c3.6,2.9,6.8,6.8,11.4,8.3
	c1,0.3,2.7-0.1,3.3,1.1c0.5,1.1-1.1,2-0.7,3.1c0.8,2.3,6.5,1.3,4.5,5c-1.2,2.2-4.6,0.9-6.5,1.6c-2,0.8-3,3.2-4.1,4.8
	c-1.3,1.8-2.4,4.9-4,6.3c-2.4,2.2-6,0.7-8.8,1.4c-2.2,0.5-4.2,2.8-6.1,4c-2.3,1.4-4.2,2.8-7,3.3c-2.5,0.4-4.3,0-6.4,1.5
	c-2.4,1.7-2.5,3-4.7,0.1c-1.5-2-2.3-3.1-5.2-1.3c-1.6,1-3.1,3-4.8,4.1c-1.7,1.1-3.7,2.3-6.1,1.7c-2.8-0.7-2.3-2.9-3.1-5.3
	c-1.7-4.8-6.3-6.1-10.4-8.1c-6.1-3-1.5-5.9-2.3-11.3c-0.4-2.9-2.3-2.7-3.4-5.3c-0.8-1.8,0.4-4.6,1.2-6.1c1.2-2.3,1.7-2.9-0.5-5.1
	c-1.9-1.9-3.6-2-6.2-1.9c-5.2,0.2-7.9-3-9.2-8c-0.5-2.2-0.7-4.5-1.3-6.7c-0.9-3.3,0.2-2.8,1.6-5.5c1.1-2-3.1-11.7-5.9-11.1
	c1,3.1,4.9,5.4,4.7,8.8c-0.1,2-1.4,1.7-2,3.3c-0.4,1.1,0,1.7,0.2,2.8c0.5,2.5,1.1,5,1.7,7.5c0.7,2.9,0.7,6.3,2.9,8.6
	c2.1,2.2,4.7,1.5,7.4,1.6c2.1,0.1,5,0.5,5.3,3c0.3,2.4-2.7,4.1-2.2,6.9c0.5,2.5,3,2.8,3.9,5.2c0.9,2.5-0.9,4.9-1.1,7
	c-0.5,5.3,6.1,7,9.8,9.4c2.7,1.7,3.1,1.8,3.5,5.1c0.4,2.4,0.8,4.4,3.3,5.6c1.7,0.8,5.2,1,7.3,0.5c3-0.6,2.9-2.7,5.3-4.4
	c1.8-1.3,3.8-1.4,5.5,0.6c1.1,1.3,1.3,0.8,0.1,2.3c-3.6,4.2-9,3.8-10,10.4c-0.6,3.6-2.6,9.4-6.6,10.9c-4,1.5-7.1-3.9-11.1-2.2
	c-4.1,1.7-3.6,6.7-5.2,10c-2.3,4.8-5.8,7.7-10.1,2.5c-1.1-1.3-1.7-4.8-3.6-5c-2-0.2-3.3,3.1-4.2,4.5c-1,1.5-2.1,4.8-4.2,4.2
	c-1.4-0.4-2.9-4.9-3.5-6.1c-2.1-4-3.1-8.2-7-10.9c-4-2.8-8-5.1-12.1-8c-1.7-1.2-5.9-2.6-3.5,0.8c1.5,2.1,5.8,2.3,7.8,3.7
	c2.1,1.4,2.7,3.1,4,5.3c1.3,2.3,2.9,3.9,4.6,5.8c1.9,2.1,4,4,5,6.7c0.9,2.4-0.2,6,1.1,8c5.8,0.7,8.9-9.8,15-5c2.2,1.8,3,3.5,6.6,2.8
	c2.7-0.5,4.2-2.6,5.6-4.9c1.4-2.5,1.4-5.5,3-7.8c1-1.4,4.9-3.7,6.7-2.2c1.7,1.3-0.4,6.2-1.1,7.9c-1.4,3.2-4.1,5.4-5.5,8.5
	c-2.4,5.3,4.2,6.6,2.1,11.9c-3.5,0.9-4.1-3.5-7.7-3c-3.2,0.4-5.7,2.6-7.5,5.3c-0.8,1.2-1.1,3.4-3.3,2.7c-0.8-0.2-1.4-3.9-3-2.5
	c-2.7,2.5,2.1,6.2,4.5,6.1c3.5-0.2,4.5-4.3,7.3-5.8c2.5-1.3,4-0.5,6.4,0c2.1,0.5,6.3,0,5.8,3.6c-0.1,1-1.6,1.9-2,2.7
	c-0.4,0.9-0.7,2.6-0.8,3.6c-0.5,5.2,0,10.8,0,16.1c0,5.3-3,8.9,2.5,12.2c2.8,1.6,2.8,2.4,4.4,5c1.2,2.1,3.2,2.7,1.9,5.8
	c-1.6,4-4.5,7.7-5.6,11.9c-1.6-1.9-2.3-4.4-4.7-6.3c-1.1-1-2.1-1.9-3.3-2.7c-0.9-0.6-2.7-1-3.3-1.5c-2.1-1.9-0.1-4.4-1.6-6.6
	c-0.8-1.1-3.1-1-3.6-2.2c-0.1-0.2-0.1-0.4,0-0.6c0.2-0.8,0.9-2.1,0.8-2.9c-0.9-8.1-7.8,1.3-9.4,3c-3,3-9.1,4-13.1,5.3
	c-5.1,1.7-9.5,1.6-13.2-2.5c-1.9-2.1-4.8-9.4-8.7-8.3c-2,0.6-2.5,4-4.3,5c-1.8,1-5.9,0.4-7.9,0.3c-3.2-0.2-13.9-4.4-16.4-1.4
	c-0.3,0.3-0.4,0.6-0.4,0.9H0L0,0L0,0z"/>
<path id="path108_1_" fill="#C6E0C6" d="M87.1,756.1c3.4,4.4-1.5,8.2-3.7,12c-2.5,4.3-2.4,10.1-3.5,15c-1,4.2-1.5,8.6-1.6,13
	c-0.1,3.7,2.3,7.4,1.3,11.1c-0.3,0.9-0.7,2.3-1.9,2.5c-1.8,0.3-1.4-1.6-2.8-2.2c-4.3-2-2.5,3.2-2.2,5.3c0.4,2.5,0.7,5.1,0.8,7.8
	c0.4,8.7-9.4,20.8-18.3,13.9c-4.3-3.3-5.8-7.1-12.2-6.1c-4.8,0.7-9.3,6.9-12.8,10.1c-4.2,3.9-8.1,6.8-13.9,7.9
	c-1.9,0.4-4.3,0.6-6.1,1.2c-2.4,0.9-3.2,3.2-3.9,5.4c-0.2,0.7-0.9,4.5-2.1,3.7c-0.9-0.7-1-3.5-1.1-4.5c-0.1-2.3,0.3-4.4,0.6-6.7
	c0.2-1.4,0-3.2,0.4-4.5c0.4-1.1,1.7-2.6,2.8-1.7c0.9,0.7,1.5,1.3,2.7,1c1.1-0.2,1.6-0.6,2.3-1.4c1.6-1.6,3.9-2,5.3-3.9
	c0.7-1.1,1.7-3.1,0.9-4.4c-0.9-1.4-2.9-1.8-3.9-3.3c-0.8-1.3-0.6-2.7,1.2-2.7c1.7,0,2.8,1.1,4.2,2c1.6,1.1,3.2,2.3,4.8,3.6
	c0.5,0.4,2.6,2.2,3,1.1c0.2-0.7-0.8-1.7-1.2-2.1c-1.6-1.7-3.9-3.2-6-4.4c-2-1.1-5-4.1-7.1-1.5c-0.9,1.1-1.1,2.5-0.9,3.8
	c0.3,1.3,0.6,1.8,1.8,2.4c0.9,0.5,2.1,0.5,2.2,1.6c0.1,0.9-0.2,2.1-0.7,2.8c-0.6,0.9-1.7,1.5-2.5,2.3c-1,0.9-2.7,3-4.4,2.3
	c-0.7-0.3-1-1.4-1.8-1.6c-2.7-1-3.6,3-3.9,4.7c-0.2,1.4-0.4,2.8-0.4,4.2c0,1.7-0.7,3.3-0.8,5c0,0.2,0,0.5,0,0.7H0V736h2.9
	c0,1.5,3.9,2.1,5.1,2.4c2.5,0.7,4.9,1.7,7.5,2.3c2.7,0.7,5.7,0.7,8.5,0.1c3.1-0.8,5.5-3.2,9-2.6c2.8,0.5,3.8,2.1,5,4.1
	c1.6,2.7,2.5,3.6,6,3.9c6.6,0.6,13.2-0.6,19.5-2.5c3.7-1.1,5.4-2.4,6-6.1c0.3-1.7,1-5.6,3.9-3.4c0.7,0.5,0.9,1.4,0.8,2.4
	c-0.1,1.1-0.5,2.3-0.5,3.1c-0.3,2.6,0.7,5.2-0.1,7.7c-0.5,1.7-0.4,3.2,0.6,4.7c0.3,0.4,0.7,1.8,1.2,1.7c0.8,0,0.2-1.5,0-1.8
	c-0.9-1.6-0.7-3.6-0.6-5.3c0-0.8,0-1.9,0.3-2.7c0.4-0.9,1.5-1,2.2-0.4c0.6,0.5,1.2,1.6,1.4,2.4c0.3,0.9-0.3,2,0,3
	c0.4,1.2,1.4,1.9,2.5,2.7C83.2,753.1,85.6,754.2,87.1,756.1z"/>
<path id="path18_1_" fill="#C6E0C6" d="M620,0h262.9c-0.9,2.4-2,4.5-3.8,6.4c-1.2,1.3-3,2.3-4,3.9c-1,1.7-1.4,3.9-2.5,5.6
	c-0.7,1.2-3.2,3-3.4,4.4c-0.4,2.6,2.3,1.8,3.7,1.5c1.3-0.3,4-1.6,4.2,0.8c0.1,1.7-2.3,3.2-2.8,4.7c-1.4,4.2,1.7,6,5.2,6.5
	c2,0.3,3.7,0.3,3.1,2.9c-0.4,1.8-1.9,2.4-2.8,3.8c-2.2,3.4,0.5,6.4-4.4,7.3c-6.4,1.1,1.1,4.3-2.5,6.4c-1.6,0.9-3.3-0.2-4.9,1.1
	c-2.4,1.9-0.6,2.4,0.1,4.3c1.5,3.7-5.1,6.6-7.7,7.7c-4.2,1.9-6.2-2.2-4.3-5.8c0.9-1.7,2.5-2.8,3.5-4.4c1-1.6,1.6-3.7,2-5.5
	c0.6-2.2,0.5-4.6,1.6-6.7c0.7-1.4,2.8-2.6,2.9-4.1c-4.7-0.3-6.8,2.5-7.1,7c-0.2,3.2-2.9,5.2-3.8,8.1c-1.1,3.4-2.3,5.2-4.9,8
	c-0.9,0.9-1.7,2.4-3,2.5c-2,0.1-1.4-1.5-1.5-3c-1.1,1.2-5.1,4.6-5.2,6.2c0,2.3,3.6,0.7,3.1,3.5c-0.4,2-2.4,1.4-3.7,2.7
	c-1.5,1.4-0.8,3.9-1.6,5.6c-0.8-0.3-1.5-1.5-2.5-2.1c-1.2-0.7-2.1-0.4-1.9-2.5c-0.8,0.3-1,1.1-1.6,1.4c-1,0.5-1.2-0.1-2,0.7
	l-0.1-0.1c-3.3-1.4-42.5-15.2-48.3-17.9c-1.2-0.6-4.2-1.2-5.6-0.6c-2.1,1,0.5,1.9,0.8,3.7c-2.1,0.3-27-9.4-28-10
	c-2.2-1.4-0.6-3.8-2.2-5.7c-0.9-1.1-1.8-0.7-1.8-2.3c0-1.6,0.9-1.5,1.5-2.7c1.5-3.1-0.8-3.3-2.3-5c-2-2.2,1.8-8-3.5-7.9
	c-1.8,0.1-3.2,1.6-4.4-0.5c-0.5-0.8,0-1.5-0.6-2.3c-0.5-0.6-1.4-1.1-2.1-1.3c-2-0.8-2.5-1.1-4-2.8c-1.8-2-2.5-1.8-2.9,0.8
	c-0.4,3-1,2.1-2.5,0.3c-1-1.2-2.6-1.5-3.7-2.7c3.9-0.5,5.1-6.4,0.6-4.9c-4.8,1.6-0.5,4.9-3.3,7.7c-1.3,1.3-3,0.5-3.5,2.8
	c-0.3,1.4,0.5,2.8-0.2,4.2c-0.8,1.5-2.5,1.6-3.2,3.1c-0.7,1.5-0.6,3.5-1.2,5.2c-3.9,0.7-85.4-35-90.6-36.5
	C619.7,2.1,619.9,1.1,620,0z"/>
<path id="path14_1_" fill="#FF5964" d="M915.4,650.1c0.5,2.2,1.8,5.2,1,7.5c-0.5,1.3-1.3,2.4-2,3.6c-0.4,0.8-0.9,2.1-1.7,2.6
	c-0.6,0.4-1.3,0.3-2,0.5c-1.9,0.4-3.8,1.1-5.6,1.9c-3.6,1.6-6.9,3.6-10.3,5.4c-3,1.5-6.2,3.3-8.8,5.5c-1.2,1-2.3,2.1-3.6,3.1
	c-1,0.8-2.4,1.5-2.6,2.9c-0.1,1.1,0.6,2,0.8,2.9c0.3,1,0.2,2.1-0.2,3.1c-1,2.6-2.9,4.8-4.7,6.9c-1.1,1.2-1.8,2.5-2.8,3.8
	c-0.2,0.3-0.5,0.6-0.7,1c-0.8,0.9-1.5,1.9-2,2.9c-0.8,1.5-2.5,2.7-4.1,3c-1.5,0.3-2.9-0.2-2.1-1.8c0.6-1.5,2.1-2.4,3.1-3.6
	c1.6-1.9,1.8-3.4,1.8-5.9c0-1.1,0.1-2.1,0.4-3.1c0.4-1.3,1.7-2.4,2-3.7c0.4-1.9-2-3.9-3.4-4.8c-1.9-1.4-3.8-2.5-5.6-3.9
	c-5-3.8-10.6-6.6-16.1-9.6c-10.7-5.9-20.8-12.7-31.3-18.9c-3.3-2-6.9-3.5-10.2-5.7c-3.2-2.2-6.2-4.7-9.5-6.9c-3.4-2.3-6.6-5-9.5-7.9
	c-3.7-3.8-5.8-10.2-5.8-15.5c0-3.3,1-5.2,2.5-8c0.7-1.3,1.2-2.6,2.3-3.7c0.8-0.8,2-1.2,1.7-2.6l0.1-4.1c0.7,0,1.4,0,2.1,0.2
	c1.3,0.3,2.5,0.8,3.8,1c2.3,0.3,4.6-0.2,6.9-0.3c2.3-0.1,1.6,1,2.4,2.7c0.8,1.6,2.6,2.4,4.2,2.7c2.5,0.5,2.6-2.7,2.8-4.4
	c0.3-3.1,0.6-5,3.8-6.1c1.3-0.5,2.7-0.8,4.1-1.2c1.7-0.5,3.4-0.5,5.1-0.4c2.6,0.1,5.3,1,7.9,1.3c2.8,0.3,5.5,1,8.2,1.2
	c4.6,0.5,9.8,1.8,13.9,4.1c2,1.1,4,2.3,5.9,3.5c1.5,1,2.9,2.3,4.5,3.1c1.8,0.9,3.8,1.1,5.7,1.9c2,0.9,3.8,1.9,5.4,3.5
	c1.1,1.1,2.1,2.9,3.4,3.6c1.8,1,4.1,1,6.2,1.4c1.7,0.4,2.8,1.4,4.3,2.4c1.7,1.1,3.5,2.2,5.1,3.4c1.6,1.2,3.4,2.1,4.6,3.8
	c1.1,1.4,1.5,3,2.8,4.3c0.8,0.8,1.4,1.7,1.8,2.7c0.4,0.8,0.6,1.8,1.1,2.6c-0.2,0-0.5,0-0.8,0c0.1,0.5,0.6,0.9,1,1.4
	c1.2,1.4,2.3,2.7,3.8,3.8c1.5,1.1,3.2,2,4.5,3.4C912.9,644.6,914.7,647.1,915.4,650.1z"/>
<path id="path40_1_" fill="#FF5964" d="M786.4,596.8l-0.1,4.1c-1.9,0.2-3,0.4-3.9,2.2c-1.2,2.3-2.4,4.6-3.2,7
	c-1.5,4.9-1.1,10.4,0.8,15.1c1,2.5,3,5.2,0.6,7.1c-1.5,1.2-1.5-0.1-2-1.1c-0.3-0.6,0.1-1-1-1c-0.9,0.1-0.8,0.6-1.1,1.2
	c-0.7,1.4-1.4,2-2.8,0.8c-0.8-0.6-1.5-1.8-2.1-2.6c-0.5-0.6-1-1.2-1.5-1.7l0.2-0.2c1.1-1.5,2.4-2.9,2.3-4.9
	c-0.1-3.7-1.9-7.5-2.8-11.1c-0.5-2-1-4.1-1.8-6.1c-0.8-2.1-1.8-4-2.5-6.1c-0.7-2.2-1.4-4.4-1.3-6.7c1.6-0.1,3,1,4.2,1.9
	c1.6,1.1,3,1.6,5,1.9c3.6,0.5,7.6,0.2,11.2,0.2C785.3,596.7,785.9,596.7,786.4,596.8z"/>
<path id="path58_1_" fill="#FF5964" d="M722.3,351c0.4,0.6,1.6,1.6,1.5,2.3c-0.2,1.2-1.2,0.8-1.8,0.4c-1.2-0.7-2-3-3.4-4.1
	c-1.3-1-3-1.5-4.7-0.8c-1.3,0.5-4.2,2.2-5,3.3c-0.5,0.6-0.7,1.2-0.8,1.8c-0.5-0.4-1-1.1-1.4-1.6c-1.9-2.3-2.4-5.3-4.1-7.7
	c-0.9-1.3-1.3-1.4-1.9,0c-0.5,1.1-0.5,2.2-1.8,2.3c-1.1,0.1-2.1-0.9-3-1.4c-1.3-0.6-2.6-1.4-3.8-2.2c-1.3-0.7-2-1.5-3.5-1.3
	c-1.3,0.2-2.5,1.1-3.7,1.7c-3.5,1.9-6.9,4-10.3,6.1c-1.6,1-3,2.2-4.5,3.4c-1.1,0.9-2.7,2.1-4.1,1.3c-1.1-0.7-1.3-2.5-1.7-3.6
	c-0.5-1.4-1-2.9-1.4-4.4c-0.7-2.7-0.6-5.4-0.6-8.2c2.1-0.1,4.4-0.9,5.7-1.4c5.2-2.2-1-7.8,0-11.8c0.6-2.4,2.7-2.1,5-2.3
	c3.3-0.3,6.3-0.8,9.4-2.1c5-2.1,8.8,0.2,13.2,2.5c3,1.6,6.3,3.2,9.1,5.2c2.4,1.7,4.4,3.9,6.7,5.7c3,2.3,11.7,4,9.3,8.9
	c-1,2-2.7,1.6-1.2,3.8C720.3,348.1,721.3,349.5,722.3,351z"/>
<path id="path76_1_" fill="#FF5964" d="M659.6,338.1l0,0.1l-4.7,0.8c-1-1.1-7.1-7.2-7.1-7.2l5.5-5.4l4.1,5.3
	c-0.2,1.4-0.6,3.5-0.1,4.5C657.7,337.3,658.6,337.8,659.6,338.1z"/>
<path id="path10_1_" fill="#FF5964" d="M993.9,385.7l4.7,30.9L984.4,443l-39.4,14.7l6.7,26.9l1,77.4l-4,7.6l0,21.1
	c0.8,1.5,1.3-0.8,1.2,2.6c-0.1,1.3-0.9,1.6-1.6,2.6c-0.8,1.1-0.3,2.6,0.2,3.8c0.5,1.2,1.3,2.7,2.2,3.6c0.9,0.9,1,2.1,1.7,3.1
	c0.7,1,1.7,1.1,1.6,2.6c-0.1,0.6-0.4,1.1-0.5,1.7c-0.1,0.8,0,1.8,0,2.6c0,1.4,0.1,3,0.7,4.3c0.4,0.9,1.2,1.4,0.8,2.5
	c-0.4,0.9-1.8,1.2-2.5,1.8c-1.3,1-2.4,1.1-4,1.3c-2,0.3-3.7,1.1-5.5,1.8c-2.9,1.1-6.1,0.7-9,1.8c-2.5,1-4.7,2.6-5.8,5.1l0.8,0.6
	c-0.2,0.1-0.5,0.3-0.7,0.4c-3.2,2.1-2.7,6.7-2.7,10.1c0,2,0,4.3-0.7,6.2c-0.4,1.1-1.1,2.2-2.2,3c-1.1,0.8-3.1,2.3-4.5,2.2
	c-1.3-0.1-1.2-2.3-1.4-3.4c-0.5-2.8-0.6-5.1-2.8-7.2c-1-1-2.3-1.8-3.3-2.8c-1.2-1.1-2.3-2.4-3.4-3.6c-1.5-1.7-2.6-3.3-4.8-3.5
	c-0.5-0.7-0.8-1.8-1.1-2.6c-0.5-1-1.1-1.9-1.8-2.7c-1.3-1.3-1.7-2.9-2.8-4.3c-1.2-1.6-3-2.5-4.6-3.8c-1.6-1.3-3.4-2.3-5.1-3.4
	c-1.4-1-2.6-2-4.3-2.4c-2-0.5-4.3-0.4-6.2-1.4c-1.3-0.8-2.3-2.5-3.4-3.6c-1.5-1.6-3.4-2.6-5.4-3.5c-1.9-0.8-3.9-1.1-5.7-1.9
	c-1.6-0.8-3-2.1-4.5-3.1c-1.9-1.2-3.9-2.4-5.9-3.5c-4.1-2.2-9.3-3.6-13.9-4.1c-2.7-0.3-5.4-0.9-8.2-1.2c-2.6-0.3-5.3-1.2-7.9-1.3
	c-1.7-0.1-3.5,0-5.1,0.4c-1.3,0.4-2.8,0.7-4.1,1.2c-3.1,1.1-3.5,3-3.8,6.1c-0.2,1.7-0.2,4.9-2.8,4.4c-1.6-0.3-3.4-1.1-4.2-2.7
	c-0.8-1.6-0.1-2.8-2.4-2.7c-2.2,0.1-4.6,0.6-6.9,0.3c-1.3-0.2-2.5-0.7-3.8-1c-0.7-0.2-1.4-0.2-2.1-0.2c-0.6,0-1.1,0-1.7,0
	c-3.7,0-7.6,0.3-11.2-0.2c-1.9-0.3-3.4-0.7-5-1.9c-1.2-0.9-2.7-2-4.2-1.9c-0.1,2.4,0.6,4.5,1.3,6.7c0.7,2.1,1.7,4.1,2.5,6.1
	c0.7,1.9,1.2,4.1,1.8,6.1c0.9,3.6,2.7,7.4,2.8,11.1c0.1,2-1.2,3.4-2.3,4.9l-0.2,0.2c-1-1.1-2-2-2.5-3.5c-0.7-2.3-1.8-4.6-2.6-6.8
	c-1-2.5,0.1-5.8-1-8c-0.9-1.9-1.6,0.4-1.7,1.6c-0.1,1.6,0.3,3.1,0.7,4.6c0.9,3.5,2.4,6.7,2.2,10.5c-0.2,3.6-2.6,1.8-4.7,3.7
	c-2.3,2.2,3.2,2.7,4.6,1.3c0.7-0.7,1.6-2.9,2.2-0.6c0.3,1.2-0.2,2.1-1.2,2.4c-0.5,0.1-1.2,0-1.7,0.1c-0.5,0.1-1,0.5-1.4,0.5
	c-1.1,0.2-2.5,0.1-3.4-0.5c-2.1-1.2-2.2-4.1-2.7-6.4c-0.4-2.5-0.5-4.9-1.2-7.2c-0.6-2.1-1.1-4.3-2.2-6.4c-0.6-1.1-1.2-1.7-1.3-3.1
	c-0.1-1.7-0.1-3.7,0-5.4c0.1-1.2,0.7-2.6,0.5-3.8c-0.3-1.6-1.6-1.5-2.1,0c-0.5,1.3-0.1,3.2,0.1,4.5c0.5,2.5,0.8,5,1.1,7.6
	c0.7,5,1.6,9.7,2.8,14.6c0.6,2.4,0.7,4.7,1.2,7.1c0.2,1.1,0.1,2.4-0.2,3.5c-0.3,1.1-0.6,1.1-1.4,1.9c-0.7,0.7-1,1.5-1.3,2.4
	c-0.4,0.9-0.3,1.7-1.4,1.8c-0.8,0-1.3-0.7-1.8-1.3c-1-1.1-1.8-2.6-3.5-2.6c-1.9,0-3.9,0.9-5.6,1.6c-2.5,0.9-4.6,2.9-7,0.6
	c-1.9-1.7-4-4-5.3-6.2c-1.6-2.9,0.5-4.4,2.9-5.8c1.5-0.9,2.2-1.4,1.8-3.2c-0.3-1.4-1.1-2.2-2.5-1.4c-1,0.5-1.5,1.9-2.4,2.6
	c-1.1,0.9-1.8,0.4-2.9-0.2c-2.1-1.2-2.6-3-4-4.9c-2.3-3.1-6.4-8.1-10.7-8.8c-0.5-1.3,0.4-2.8-1.2-3.7c-0.5-0.3-2.2-0.5-2.4-1.1
	c-0.2-0.7,1.1-1.4,1.6-1.6c0.9-0.4,2.1-0.4,3-0.8c0.8-0.4,1.3-1.3,2.1-1.9c0.7-0.5,1.4-1,2.3-0.8c0.9,0.1,1.2,0.5,2.1,0.1
	c2.1-0.9,1.3-3.3-0.1-4.3c-0.8-0.7-2.3-1-1.9-2.3c0.2-0.5,1.3-1.7,1.7-1.8c1-0.3,1.2,0.9,2.1,1.2c0.8,0.3,2.6-0.2,3.1-0.8
	c1.1-1.5-1.5-4.9-1.7-6.6c-0.1-1.1,0-2.2-0.4-3.3c-0.3-1-0.9-1.8-1.3-2.7c-0.5-0.9-0.9-2-1-3.1c0-1.1,0.5-2,0.4-3.2
	c0-0.9-0.3-2.3-1.4-1.7c-0.7,0.4-1.1,1.7-1.6,2.3c-1.6,1.9-2.1-0.9-2.2-2.1c-0.2-1.9-0.4-4.2-1.2-5.9c-0.6-1.4-1-2.7-1-4.3
	c-0.1-2,0-5.4-2.2-6.3c-1.1-0.4-1.3-0.1-1.4-1.6c0-0.9,0.2-2.1-0.2-2.9c-0.6-1.2-1.4-0.8-2.5-0.9c-0.7-0.1-0.7,0.1-1.1-0.5
	c-0.3-0.4-0.4-1.3-0.5-1.8c-0.3-2.4-0.5-4.6-1.1-6.9c-0.7-2.6-0.9-5.3-1.5-7.9c-0.5-2.2-1.5-4.4-1.8-6.6c-0.2-1.7-0.2-3.5-0.2-5.2
	c0-1.5,0.2-3.2-1.8-3.2c-1.3,0-2.8,0.9-4,1.3c-2.3,0.8-5,1.3-7.1,2.6c-1.7,1.1-3.5,2.4-4.9,3.8c-1.9,1.9-3.1,4.2-5.3,5.8
	c-1,0.7-2.2,1.4-3.1,2.3c-1.2,1.1-2.3,2.2-3.8,3.1c-1.5,1-3,1.9-4.2,3.3c-0.9,1.1-1.2,2.2-2.7,2.8c-1.1,0.4-2.1,0.7-3.1,1.3
	c-0.7,0.5-1.5,2.1-2.1,2.3c-0.7,0.3-0.8-0.4-1.1-1c-0.7-1.3-1.3-2.8-1.7-4.2c-0.7,0.1-0.8,1.1-1.2,1.6c-0.5,0.5-1.1,0.8-1.3,1.5
	c-0.5,1.1-0.4,4-2.2,3.8c-0.6-0.9-0.9-1.9-1.6-2.8c-0.8-1.1-1.9-1.9-2.7-3c-0.6-1-1.3-2.2-1.5-3.3c-0.1-0.4,0.1-1-0.2-1.3
	c-0.3-0.4-1.1-0.5-1.6-0.8c-0.9-0.6-0.9-1-0.2-1.9c0.8-0.9,0.7-0.9,0.5-2.1c-0.3-1.2-0.6-1.3-1.6-2.1c-0.7-0.6-1.6-1.6-0.7-2.5
	c0.8-0.8,1.9-0.3,0.6-1.6c-0.6-0.6-1.3-1.4-2.1-1.8c-1-0.5-1.9-1-2.9-1.6c-1.2-0.7-2.6-0.9-3.8-1.6c-0.5-2.4,5-3,3.2-4.9
	c-1.8-1.8-4.4-2.8-6.2-4.6c-1-1-1.7-2-3-2.6c-1-0.4-4.5-0.6-4.8-1.8c-0.2-0.5,1.2-1.2,1.7-1.6c0.7-0.5,2.2-0.8,2.2-1.6
	c0-0.4-0.9-1.6-1.2-1.8c-0.7-0.5-1.8-0.3-2.6-0.4c-0.8-0.1-2.8-0.9-1.6-1.9c0.7-0.6,4-0.3,3.5-2c-2-0.1-2.5,0.3-3.9-1.5
	c-0.8-1.1-1.4-2.1-2.4-3c-0.6-0.6-1.5-1.7-2.3-2.1c-1-0.5-2-0.1-3-0.9c-0.7-0.6-1.3-1.1-2-1.6c-1.6-1.1-2.9-2.4-4.6-3.4
	c-1.2-0.6-1.7-1.4-0.3-1.9c0.7-0.3,2.6-0.3,2.4-1.4c-0.1-0.8-1.6-1.1-1.9-1.9c-0.3-0.9,0.2-2.1-0.2-2.9c-0.4-0.8-1.5-1.3-2.1-1.9
	c-0.8-0.8-1.1-1.7-1.8-2.5c-0.6-0.7-1.7-0.8-2.3-1.5c-0.5-0.6-0.5-2,0-2.6c0.8-1.1,2.6-0.7,3.4-1.8c0.6-0.8,0.4-2.1-0.4-2.7
	c-1-0.7-1.7-0.5-1.5-2c0.1-1.1,0.3-1.7,0-2.8c-0.2-0.6-0.3-1.2-0.5-1.8c-1.3-4.8-2.6-9.9-5.7-13.8c-1.5-1.9-3.3-3.4-5.6-4
	c-1.3-0.4-2.7-0.4-4.1-0.6c-1.8-0.3-3.5-1.1-5.2-1.8c-1.4-0.6-2.4-1-3.4-2.2c-2-2.5-3.4-5.5-5-8.2c-0.9-1.6-1.8-3.7-3.2-4.9
	c-1.3-1.1-2.9-2.1-4.4-2.9c-3.6-2-7.2-4.6-11-6.1c-4.6-1.7-9,0-12.8,2.6c-1.8,1.2-3.4,1.7-5.3,2.5c-1.3,0.5-3.1,1.9-4.6,2.1
	c0-2.8,0.2-5.6,0.4-8.1c0.5-5.2,3.4-10.8,6.3-15.1c1.5-2.3,3.8-3.7,5.5-5.8c2-2.5,3.6-5.7,5.1-8.5c1.5-2.7,3.2-5.3,4.8-7.9
	c1.1-1.9,1.4-4.3,2.7-6.1c1.5-2.1,3.5-3.8,4.9-6.2c3-4.9,5.1-10.6,9.4-14.7c2-2,15.2-5.4,10.3-9.1c-2.6-2-5.7-3.1-5.5-6.2
	c0-0.6,0.2-1.4,0.5-2.2c0.6-1.4,2.2-2.3,3.1-3.6c1.4-1.9,0.5-3.3,1-5.4c1.2-5.3,6.1,1.2,7.4,2.7c3,3.3,6.3-0.7,8.8-2.3
	c0.4-0.2,0.7-0.5,1.1-0.7c5.6-3.6,12.3-6.5,15.5-12.4c1-1.7,1.2-3.8,2.1-5.4c0.9-1.5,2.5-2.5,4.1-3.3c1.5-0.8,2.8-1.9,4-3.1
	c1-1.1,1.6-3,2.6-4c2-1.9,5.3,0.5,7.2,2.1c2.4,2,2.8,4.7,4.8,6.9c0.9,1,2.3,1.9,3,0.2c0.6-1.5-0.9-1.7-1.5-2.9
	c-1.7-3.2,1.9-3.4,4-2.2c2.2,1.3,4.3,2.7,6.6,3.9c2.3,1.2,4.3,2.6,2.7,5.5c-2.1,3.6-7.6,2.8-10.8,4.7c-2.2,1.4-6.5,8.1-3.7,10.5
	c1.7,1.5,3-0.8,3.3-2.5c0.4-2.3,0-2.9,2.1-4.1c3.3-1.8,7.2-4.3,10.2-1.1c1.6,1.6,2.7,2.9,4.6,4.1c1.4,1,4.5,2.2,3.5,4.6
	c-0.7,1.8-1.8,1.2-1.9,3.5c0,0.2,0,0.4-0.1,0.6l-4.1-5.3l-5.5,5.4c0,0,6.1,6.1,7.1,7.2l4.7-0.8l0-0.1c0.7,0.2,1.6,0.3,2.5,0.2
	c0,2.8-0.1,5.5,0.6,8.2c0.4,1.5,0.9,3,1.4,4.4c0.4,1.1,0.6,3,1.7,3.6c1.4,0.8,3.1-0.4,4.1-1.3c1.5-1.2,2.9-2.4,4.5-3.4
	c3.3-2.1,6.8-4.2,10.3-6.1c1.2-0.6,2.4-1.5,3.7-1.7c1.6-0.2,2.3,0.6,3.5,1.3c1.2,0.8,2.5,1.5,3.8,2.2c1,0.5,1.9,1.5,3,1.4
	c1.4-0.1,1.4-1.2,1.8-2.3c0.6-1.4,1-1.3,1.9,0c1.7,2.4,2.2,5.4,4.1,7.7c0.4,0.5,0.9,1.2,1.4,1.6c-0.6,4.1,5.5,9.1,7.9,11.1
	c4.1,3.4,10.3,8.5,15.6,4.8c3.7-2.6,8.1-3.8,11.7-6.3c1.3-0.9,4.8-4.1,4.2-6c-0.5-1.5-2.1-0.9-3.3-1.2c-2.3-0.6-4.5-2.3-6.6-3.4
	c-2.4-1.2-3.6-2.4-4.7-4.8c-0.7-1.6-2.1-4.9-2.1-6.7c0-1.7,0.8-1.5,1.7-2.7c0.6-0.8,0.9-1.8,1.3-2.7c1.1-2,3.2-4.4,1.9-6.9
	c-0.7-1.4-2.6-1.6-3.3-3c-1.7-3.3,3.8-7.9-2.2-8.8c-2.8-0.4-4.8,1.5-7.3,1c-2-0.4-3.8-2.2-5.2-3.6c-1.3-1.2-3-3-2.1-5.1
	c0.7-1.8,3.3-1.7,4.8-2.3c1.7-0.8,3.5-2.1,5.2-3.1c1.5-0.9,2.6-1.7,2.5-3.7c-0.2-3.6-5.6-5-4-9.5c0.6-1.8,2.2-2.7,4.2-1.8
	c2.2,1.1,2.3,2.6,5.2,2.3c1.4-0.1,3.4-0.6,4.6-1.2c1.5-0.9,2.2-2.6,3.5-3.8c1.3,0.9,0.7,2.7,2.7,2.5c1.4-0.2,1.9-1.9,2.3-2.9
	c1-2.5,2.6-5.8,5.5-2.7c1.2,1.3,0.8,3,1.6,4.4c0.7,1.3,2.1,2,2.8,3.3c0.7,1.3,1,2.8-0.1,3.9c-1.1,1-2.5-0.1-2.4,2.1
	c0.1,1.3,2,3.1,2.7,4.2c1.2,2,2.1,3.5,4.6,2c1.9-1.1,2-3.4,2.9-5.1c0.9-1.8,2.9-2.8,4.4-4.2c1.4-1.3,3.2-2.6,2.7-4.7
	c-0.5-2.1-2.7-1.5-3.4-3.3c-1-2.3,1.5-2.2,2.7-2.9c1.2-0.6,2.2-3,3.7-2.9c0.5,2.7,3.6,0.1,4.6-0.8c2.6-2.4,4.3-6,8.1-4.5
	c2.1,0.9,4.3,2.6,6,4.2c1.3,1.2,2,4.2,3.8,4.2c2.1,0,1.4-3.2,3.8-2.2c1.6,0.7,1.3,2.8,2.6,3.7c2.4,1.7,2.3-0.8,4-1.3
	c2.2-0.7,2.2,2.3,2.1,3.7c2.2,0.5,2.3-1,3.5-2.4c1.6-1.9,3.3-1.5,5.6-1c2.5,0.5,4.5,2.4,7,3.2c2.3,0.7,4.5-0.3,6,2.2
	c1.3,2.1-0.3,1.9-0.9,3.8c-1.2,3.8,3.5,4.5,6.1,5c6.2,1.1,19,3.8,19.5-5.9c0.2-3.1-1.4-2.2-2.9-3.7c-1.2-1.2-0.2-3.3,1.4-4.2
	c2.8-1.7,9-0.8,11,2c1.4,1.9,2.4,4.2,3.8,6.2c1.9,2.4,3.2,4.8,4.1,7.8c0.5,1.8,1.1,3.8-0.5,5.2c-0.8,0.7-4.2,0.8-4,2.3
	c0.1,0.6,2.5,1.6,3,2.1c1.3,1.3,2.1,3.1,2.9,4.7c2.5,5.5,3.7,11.2,5.8,16.7c1.9,4.7,5.4,8.5,8.6,12.4c2.6,3.1,5,6.4,8.2,8.9
	c1.9,1.5,3.5,2.4,4.2-0.6c0.2-1,0.3-2.7,0-3.7c-0.3-1.3-0.6-1-1.2-1.9c-1.2-1.6-1.3-3.1,0.6-4.6c1.9-1.4,3.1-0.3,2.7-3.2
	c-0.3-2.1-1.6-3.3-2.5-5.2c-0.9-1.9-0.6-3.1,0.2-5c1.4-3.1,1.4-7.4,3.7-10.2c4-4.8,5.9,2.9,9,0.9c0,0,0,0,0,0L993.9,385.7z"/>
<path id="path12_1_" fill="#FF5964" d="M931.9,735.8L932,758l-7.7-0.4c-1.1-0.8-2.2-2.1-3.5-2.1c-1.7,0.1-3.7,1.7-5.2,2.5
	c-1.8,0.9-3.4,2.4-5,3.6c-3.6,2.6-7.4,5.2-11.7,6.3c-1.7,0.4-3.6,0.2-5.4,0.2c-2,0-4,0.1-6,0c-3.7-0.2-7.1-1-10.4-2.8
	c-3.5-1.9-8.4,0.7-11.8,1.4c-2.9,0.6-5.8,1.1-8.7,2c-2.3,0.7-4.9,0.9-7,1.9c-2.1,1.1-4.3,1.7-6.6,2.3c-2.4,0.6-4.6,1.6-7.1,2
	c-3.4,0.6-6.7,1.7-10.2,2.3c-4.4,0.7-8.2,3.1-12.5,4.1c-4.7,1.2-9.4,2.6-14,4c-3.5,1.1-7.1,1.8-10.5,3c-3.9,1.4-7.9,2.9-11.8,4.1
	c-2.3,0.7-4.7,1.3-7.1,2c-2.6,0.7-4.6,1.7-7,2.9c-3.3,1.7-6.7,3.4-10.1,5.1c-6.6,3.3-13.1,6.7-19.5,10.3c-4.1,2.4-8.1,4.8-12.5,6.7
	c-2.5,1.1-5.7,1.8-7.6,3.8c-0.6,0.6-0.8,1.3-1.7,1.1c-0.9-0.1-0.7-1-1.3-1.4c-0.7-0.5-1.9,0.2-2.5,0.4c-3.2,1.2-5.9,3.5-8.9,5.2
	c-6.6,3.7-13.8,6.9-21.2,8.7c-4.9,1.2-9.8,2.8-14.7,4.1c-4,1.1-7.5,2.5-11.1,4.4c-1.2,0.6-2.5,1.1-3.8,1.6c-0.8,0.4-1.6,1.2-2.4,1.4
	c-2.6,0.7-2.6-3.4-4.7-2.9c-1.4,0.3-2.8,1.3-4.3,1.8c-5.9,1.7-12.1,2.6-18,4.1c-3.6,0.9-7.3,1-10.8,2.1c-3.5,1.1-6.8,2.3-10.1,3.9
	c-3.2,1.4-6.5,2.9-9.8,4c-2.1,0.7-4.6,1.1-6.5,2.4c-1,0.7-2,2.1-3.4,1.3c-0.8-0.4-1.5-2-1.9-2.7c-1.2-2.3-2.5-5.1-2.5-7.7
	c0-4.7-1-12.6,4.6-14.6c3-1,6.4-1.9,9.5-2.4c3.3-0.5,5.7-1.9,8.5-3.5c0.7-0.4,1.7-1.1,2.5-1.1c0.8,0.1,1.2,0.9,2.2,1
	c1,0,1.8-1,2.7-0.8c0.5,0.1,0.5,0.6,1,0.9c0.4,0.2,1.1,0,1.5,0c2.8-0.5,5.1-2.3,7.6-3.6c1.8-0.9,3.5-2,5.3-3.1
	c1.4-0.9,2.6-2.1,4.3-1.5c2.2,0.8,3.9,2.6,6,3.6c1.8,0.9,4.9,1.1,6.8,0.1c0.8-0.5,1-0.9,2-1c1.3-0.1,1.9,0.6,3,0.9
	c1.9,0.3,4.5-1.7,5.7-2.9c1.6-1.7,2.8-3.7,4.4-5.4c1.4-1.4,2.9-4.4,5-3.7c2.2,0.6,3.3,3.3,5.8,2.9c1.9-0.2,3.4-1.7,5-2.6
	c1-0.6,1.7-1.3,2.4-0.1c0.5,0.8,0.3,2.7,1.8,1.9c1-0.6,1.3-1.7,2.5-2.1c1.2-0.4,1.7-0.1,2.5,0.5c2.1,1.5,5.4,0,7.5-1.1
	c1.9-0.9,3.8-1.9,5.6-3c2.6-1.6,5.1-3.1,7.7-4.8c7-4.7,13.8-9.6,20.7-14.4c2.5-1.7,5-3.4,7.3-5.3c1.7-1.5,3.8-3.1,6-3.8
	c3.2-1,5.7,1.3,8.6,1.7c3,0.4,5.7,0,8.7-0.4c3-0.4,5.6-0.9,8.4-2c2.8-1.2,5.7-2.2,8.5-3.5c2.8-1.4,5.6-2.9,8.6-3.8
	c2.2-0.6,4.2-1.2,6.1-2.4c0.8-0.6,2-1.1,3-0.6c0.7,0.4,0.2,1,1.1,0.6c0.3-0.1,0.6-0.7,0.9-0.9c2-1.8,4.4-3.4,6.6-4.9
	c1.3-1,2.7-1.9,4.2-2.8c1.1-0.7,2.6-1.1,3.6-1.9c1.7-1.3,2.3-3.6,4.4-4.5c2.3-1,3.9,1.1,5.7,2.3c0.7,0.5,1.4,1.2,2.2,1.6
	c1.1,0.6,2.2,0.6,1.3-0.8c-0.5-0.7-1.4-1.3-2.1-1.8c-1-0.6-2.7-1.1-3.5-2c-1.3-1.5,0.1-4.6,1.8-5.2c2.2-0.8,3.4,0.4,4.2,2.3
	c0.5,1.3,2.2,5.3,4,4.9c0.2-1.1-0.9-2.8-1.4-3.7c-0.8-1.4-1.7-2.7-2.5-4.1c-1.3-2.5-1-4.9-0.3-7.5c0.6-2.3,3.8-1.9,5.6-1.4
	c1.2,0.3,2.2,0.9,3.3,1.1c1.5,0.3,3.1,0.3,4.6,0.3c1.4,0,2.7-0.3,3.9-1c1.6-0.8,3.3-1.5,4.8-2.6c2.4-1.6,5-3.1,6.2-5.9
	c0.4-1,0.2-2.2,1.3-2.5c1.2-0.3,2.4,1,2.7,1.9c0.8,2.4-0.5,3.3-2,4.8c-1.4,1.4-3.4,3.6-4,5.5c-0.3,1,0,2-0.1,3
	c-0.1,0.9-0.5,1.6-0.9,2.4c-0.5,1-0.4,2.1-0.4,3.2c0,0.7,0,3.4,0.9,2.5c0.5-0.5,0.4-2.4,0.5-3c0.2-1.1,0.2-2.4,0.5-3.4
	c0.4-1.2,1.5-1.9,2.2-2.9c0.9-1.2,1.5-2.7,2.1-4.1c0.8-1.4,1.6-2.4,2.7-3.5c1.1-1.2,2.5-2.4,3.1-4c0.7-1.9-0.8-2.1-1.5-3.5
	c-0.7-1.4,1.2-2,2.1-2.6c1.5-1,2.7-1.9,3.2-3.7c0.4-1.4,0.5-2.5,1.2-3.6c0.7-1.1,1.5-2.1,2.3-3.1c0.8-1,1.4-1.5,2.8-1.2
	c1.3,0.2,2.6,0.8,3.8,1.1c2.4,0.6,4.2,1.8,5.4,4c1.2,2.3-0.6,5.3-1.8,7.4c-1.5,2.8-1.9,6.2-4,8.6c-2.1,2.4-5.3,2.6-7.8,4.4
	c-1.2,0.9-2,2.2-1,3.6c0.8,1.2,2.6,1.3,3.9,1c3.2-0.6,2.6-3.4,4-5.6c0.4-0.7,1.5-1.3,2.3-1.4c1.4-0.2,1.3,0.7,1.7,1.8
	c0.8,2,2.3,4.1,3.4,5.8c0.6,0.9,0.8,0.5,1.8-0.1c0.8-0.4,1.6-1,2.4-1.3c2.1-0.8,2.4,2.3,4.7,1.9c0.2-2.6-2.6-2.3-3.3-4.3
	c-0.7-1.8,0.3-4.2,0.1-6.1c-0.1-1.1-0.5-2.3-0.8-3.4c-0.4-1.1-1.1-2-0.8-3.2c0.3-1.8,0.3-3.7,0.7-5.4c0.3-1.5,1.9-2.6,1.4-4.3
	c-0.6-2.1-3.7-3.2-5.3-4.4c-0.8-0.6-2.1-1.6-2.4-2.5c-0.3-0.8,0-2,0-2.8c0-2.4,1.2-2.4,3.4-2.4c1.8,0,3.7,0.3,5.4,0
	c1.4-0.2,3.2-1.8,4.5-0.5c1.4,1.3,1.2,3.3,3,4.5c1.7,1.1,5.1,1.1,6.4,2.7c1.5,1.7-2,4.1-1.9,5.8c0.1,0,0.2-0.1,0.3-0.1
	c1.4,0,3-3.6,3.8-4.5c1.1-1.1,2.6-1.7,4.1-2.3l0,0.1c0.9,0.2,1.8,1.4,2.4,2.1c1,1.2,1.2,2.7,3,1.7c1.5-0.9,3.1-1.7,4.6-2.7
	c0.6-0.4,1-0.8,1.5-1.3c1-0.8,2.4-1.3,3.5-2c0.9-0.5,2.5-1.5,3.5-0.8c1.9,1.4,3.2,3.7,4.2,5.9c1.1,2.4,2,5.2,3.5,7.4
	c1.1,1.8,2.5,3.7,3.9,5.3c0.5,0.7,1.1,1.3,1.8,1.8c0.3,0.3,0.7,0.7,1.1,0.9C931.1,735.7,931.8,735.7,931.9,735.8z"/>
<path id="path34_1_" fill="#FF5964" d="M805.9,705.8c0,1.1-0.8,1.9-1.9,1.3c-1.8-0.9-2.9-3.6-3.4-5.4c-0.4-1.5-0.8-2.9-1.3-4.3
	c-0.5-1.3-1.1-2-1.9-3.1c-0.6-0.8-0.6-1.6-1.1-2.4c-0.4-0.7-1.7-1.2-1.4-2.2c0.7-0.4,1.1-0.3,1.2-1.2c0.1-0.6-0.2-1.5-0.5-2
	c-0.5-1-1.9-1.9-2.2-3c-0.8-2.5,4,0.2,3.6-2c-0.2-1.1-1.4-1.1-2.2-1.5c-0.8-0.4-1.1-1-1.5-1.7c-0.4-0.6-1.3-1.2-1.8-1.9
	c-0.1-0.1-0.1-0.2-0.2-0.3c-0.4-0.9-0.2-2.8-0.1-3.8c0.1-1.3,0.1-3.5,1.4-4.3c1.6-1.1,3.8,0.8,4.5,2.1c0.9,1.6,2.5,3,3.3,4.7
	c1.2,2.4,0.7,5.3,1.9,7.7c1.1,2.1,1.6,3.8,0.3,5.8c-0.1,0.1-0.2,0.2-0.3,0.4c-1.6,2.3-1.1,4.4-0.7,7c0.4,2.9,1.1,5.6,3.2,7.9
	C805.2,704.3,805.8,704.8,805.9,705.8z"/>
<path id="path36_1_" fill="#FF5964" d="M804.7,740.2c0.6,0.6-0.1,2.5-0.2,3.3c-0.2,2,0.2,6.7-2.4,7c-2.4,0.3-3.8-2.7-4.9-4.4
	c-1.2-1.8-4-5.2-3.6-8c0.1-0.5,0.3-1,0.6-1.5c0.9-1.2,2.4-1.9,3.5-2.9c0.6-0.6,1.1-1.6,1.9-1.7c0.1,0,0.2,0,0.3,0c3,0,1.7,5,2.2,6.7
	C802.6,740.4,803.7,739.2,804.7,740.2z"/>
<path id="path38_1_" fill="#FF5964" d="M793.7,710.9c1,0.7,4.8-0.7,4.5,2.1c-0.3,2.3-4.1,0-4.2,2c0,0.9,0.7,1.7,0.6,2.7
	c-0.1,1.5-0.8,0.6-1.6,1.2c-0.6,0.4-0.8,2.8-0.4,3.4c0.8,1.4,3.4,0.7,4.4,2c1.7,2.3-0.6,4.3-2.3,5.5c-1.1,0.8-2.3,1.8-2.9,3.1
	c-0.5,1.1-0.5,2.7-0.6,3.9c0,0.4-0.1,0.7-0.2,1.1c-0.3,1.1-0.7,2.1-0.9,3.2c-0.2,1.1,0,2.3,0.1,3.4c0.2,1.9,0.6,5.1-0.5,6.7
	c-0.8,1.1-2.3,1.4-3.3,2.2c-1.4,1.1-2.5,2.7-4,3.8c-1,0.7-2.5,1.5-3.6,1.9c-1,0.4-1.9,0.2-2.6-0.6c-0.5-0.6-0.9-2.7-1.7-2.7
	c-1.1-0.1-1.4,2-2.1,2.6c-1.7,1.5-4.8-0.5-6.5-1c-1.9-0.6-5.9-1.1-5.1-4.2c0.6-2.3,3.1-2.8,5.1-3.3c1-0.3,1.8-0.8,2.6-1.5
	c1.1-0.8,2-1,3.3-1.2c1.6-0.2,3.3-0.5,5-0.7c0,0.7-0.2,1.7,0.3,2.2c0.8,0.9,1.1,0.2,1.6-0.4c0.7-0.8,1.2-1.2,2.2-1.5
	c0.9-0.3,1.8-0.5,1.9-1.6c0.2-1.8-2.4-1-2.9-2.6c-0.4-1.4,1.6-3,2.3-4.1c1.3-1.9,1.6-3.9,0.2-5.8c-1.7-2.3,0-4.1,2.3-4.9
	c0.9-0.3,2.4-1.2,1.3-2.2c-0.9-0.7-2.5,0.2-3.4-0.2c-1-0.5-1.2-2.3-1.5-3.2c-0.5-1.4-1.2-2.7-1.8-4.1c-0.6-1.4-1.8-2.6-2.2-4.2
	c-0.2-0.9,0.2-2.5-0.5-3.1c-1,1.2-1.4,5.2-3.4,4.1c-1.7-1-2.7-3.4-3.8-5c-1.9-2.4-4,0.4-5.2,2.2c-1,1.4-1,3.2-1.8,4.6
	c-0.5,0.9-2,3.2-3.1,3.1c-1.9-0.1-2-2.9-2-4.2c0-0.9,0.2-1.8,0-2.7c-0.2-1.2-1.3-2.1-2.1-3.1c-1-1.1-1.9-1.1-3.3-1.8
	c-1.5-0.7-0.5-1.9-0.2-3c0.3-0.8,0.3-1.8,1.5-1.5c0.6,0.2,0.5,0.7,1.4,0.8c0.4,0,0.9,0,1.3-0.1c1.1-0.3,2-0.9,2-2.1
	c0-2.2-3.5-2.3-2.4-5c1-2.5,2-4.7,2.7-7.3c0.3-1.2,0.5-2.5,0.9-3.7c0.5-1.2,1.5-1.7,2.3-2.6c0.7-0.7,1.1-1.9,0.5-2.7
	c-0.6-0.7-2.7-0.4-2.5-1.5c0.1-0.9,1.6-0.9,2.2-1.2c1.6-1,1.7-3.6,2.5-5.1c0.8-1.5,1.8-2.5,1.7-4.4c0-1.4-0.6-2.2-1.1-3.5
	c-0.6-1.4-0.8-2.9-1.4-4.3c-0.6-1.3-1.2-2.6-2.1-3.7c-0.7-1.1-1.1-1.5-0.5-2.7c0.5-1,1.7-2,2.7-2.3c1.3-0.3,2.3,1,3.2,1.7
	c1.5,1.2,2.2,2.6,3.1,4.3c0.6,1.3,1.3,2.9,3,2.7c1-0.1,2.4-0.5,3.1-1c0.9-0.7,3.1-3.1,2.7-4.3c-0.1-0.3-0.7-0.5-0.8-0.8
	c-0.1-0.3,0-1.1,0-1.4c0.1-1.3,0.5-2.8,1.7-3.4c1.5,1.7,1.4,3.7,1.5,5.8c0.1,1.2,0.4,2.7,1.1,3.6c0.6,0.9,1.5,1.6,2.2,2.4
	c0.6,0.7,1,1.4,1.7,2c0.6,0.5,1.5,1.5,0.9,2.4c-0.4,0.6-2.1,0.9-2.8,1.3c-0.4,0.2-1.3,0.5-1.3,1.1c0,0.4,0.9,1.6,1.1,2
	c0.8,1.4,1.6,1.9,3,2.5c1.6,0.7,2.3,2,3.4,3.5c0.7,0.9,1.7,2.3,0.8,3.4c-0.5,0.6-2.3,0.5-2,1.7c0.2,0.5,1,0.4,1.5,0.7
	c0.4,0.3,0.5,0.6,0.7,1c0.6,0.9,1.3,1.5,1.7,2.5c0.3,0.7,0.6,2.2,0.3,2.9c-0.4,0.9-1.5,0.7-2.3,0.5c-0.7-0.1-5.4-2.8-4.9-0.2
	c0.1,0.4,0.6,1,0.9,1.3c0.4,0.7,0.8,1.4,0.8,2.2c0.1,1-0.2,2.7,0.6,3.4c0.7,0.6,1.3-0.2,1.8-0.8c0.8-0.9,1.2-1,2.5-0.9
	c1.2,0.1,2.2,0.5,3.1,1.4c1,1,0.6,1.9,0.1,3.1c-0.6,1.6-1.3,3-3,3.4c-0.9,0.2-3.3,0-3.5,1c-0.1,0.6,0.4,0.7,0.6,1.2
	c0.3,0.6,0.5,1.2,0.7,1.8c0.4,1,1,1.8,1.8,2.6C792.7,709.5,793.1,710.4,793.7,710.9z"/>
<path id="path42_1_" fill="#FF5964" d="M777.9,729.9c0.4,1-0.1,1.7-1.1,2.3c-1.1,0.7-2.4,0.9-3.5,1.4c-0.7,0.3-1.5,1-2.2,0.4
	c-0.7-0.6-0.5-1.9-1.4-2.4c-0.7-0.5-0.8,0.1-1.3,0.5c-0.6,0.5-1.4,0.7-2,1.2c-0.7,0.6-1.3,0.8-2.2,0.9c-0.9,0.1-1.9,0.1-2.9,0.1
	c-1.1,0-1.2,0.4-2,0.9c-2.2,1.3-1.2-2.9-1.2-3.9c0-0.5,0.1-0.8-0.3-1.1c-0.2-0.2-0.7-0.1-0.8-0.5c-0.4-0.8,0.7-1.2,1.2-1.5
	c1.1-0.4,1.5-1,1.9-2.1c0.3-1,1-2.1,1.6-2.9c0.6-0.8,1.3-1.1,1.7-2c0.4-0.9,0.7-1.7,1.6-0.8c0.8,0.9,1.1,1.9,1.5,3
	c0.1,0.4,0.2,1,0.5,1.4c0.3,0.5,0.6,0.7,0.8,1.2c0.2,0.5,0.2,1,0.5,1.5c0.5,1,1.3,1.7,2.4,1c1.8-1.3,0.6-4.2,0.6-6
	c0-0.7,0-2,0.7-2.4c0.9-0.5,1.5,1.3,1.9,1.9c0.5,0.8,1.2,1.5,1.7,2.3c0.5,1,1,2,1.4,3C777.2,728.1,777.6,729,777.9,729.9z"/>
<path id="path44_1_" fill="#FF5964" d="M767.3,763.8c0.2,3.3-2.5,4.9-4.6,7.1c-1.9,1.9-3.9,2.1-6.5,2c-2.5,0-2.6-2.6-3.3-4.5
	c-0.5-1.4-0.7-2.1-0.3-3.6c0.4-1.2,0.8-3-0.2-4.1c-0.7-0.8-2.2-0.9-2.9,0c-0.5,0.7,0.1,1.8,0.1,2.6c0,1-0.5,1.2-1.3,1.6
	c-0.5,0.3-1.4,0.5-1.9,0.9c-0.7,0.5-0.9,1.6-1.6,1.7c-2.5,0.5-6.6-3.2-5.2-5.6c1.4-2.6,3.2-4.7,5.9-5.9c1.7-0.8,3.2-1.9,4.7-3.1
	c1-0.9,1.8-1.1,3-0.6c3,1.2,3.7,5.2,6.4,6.8C761.8,760.4,767.1,760.5,767.3,763.8z"/>
<path id="path26_1_" fill="#38618C" d="
	M847,102.7c1.8,0.1,1.6,3.3,1.2,4.5c-1.1,3.5-6,4.5-9.2,5.6c-4.3,1.5-4.2,5.7-4.6,9.8c-0.2,2.1-0.3,4.2-0.4,6.4
	c-0.1,2.5-1.4,2.9-2.7,4.8c-1.9,2.8-1.4,5.9-4.4,8.1c-2.9,2.2-7.7,3.5-4.5,7.9c1.1,1.5,2.5,2.1,2,4.4c-0.4,1.8-1.9,2.7-2.8,4.3
	c-0.8,1.5-0.4,4.2-1.4,5.5c-1.5,1.9-1.8-0.9-2.5-2c-1.8-2.9-4.6-4.9-6.2-8.1c-0.8-1.6-1-3.4-1.7-5c-0.7-1.8-1.6-3.1-1.6-5.2
	c0-1.7,0.2-4,0.8-5.6c0.6-1.7,2.3-3.6,1.5-5.6c-0.9-2.1-3.2-1.2-4.2,0.6c-0.9,1.7,0.7,3.5,0.2,5c-0.9,2.4-2.5-0.8-3.2-1.8
	c-0.9-1.4-2.1-2.7-3-4.2c-0.9-1.5-1.5-3.7-2.7-4.9c-0.7-0.7-1.2-1.3-2.3-1.1c-1.1,0.2-0.8,1.2-1.5,1.4c-2.8,0.8-1.5-1.7-1.8-3.1
	c-0.4-1.8-2.9-1.4-3.1-3.1c-0.2-1.5,2-2.2,2.3-3.5c0.2-1-0.5-1.7-0.4-2.7c0.1-0.7,0.8-1.2,1-1.9c0.6-1.9,0-4.2-2-2.4
	c-0.6,0.5-3.2,4.2-3.1,0.6c-1.9-0.3-1.4,2.5-3.7,1.8c-1.1-0.3-2.5-2.7-3.1-3.7c-0.9-1.4-1.4-3.2-1-4.8c0.8-2.5,1.8-1.9,3.8-2.4
	c2.4-0.7,1.6-1.9,0.3-3.3c-1.5-1.6-2.4-2.2-2-4.5c1-6.7,7.9-12.8,2.4-19.8c-2.4,1.1-1.5,7.9-1.8,10.2c-0.5,4-2.9,6.7-4.8,10.2
	c-2.4,4.5-1.2,9.3,0.6,14c1.4,3.6,4.4,5,4.6,9.1c0.1,1.7-0.2,4.1,0.2,5.8c0.4,1.8,2.5,2.3,2.9,4c0.7,2.8-6.8,6.7-3.5,8.1
	c2.8,1.2,2.3-2.1,3-3.3c0.9-1.7,3.8-1.7,5.5-1.2c2,0.6,2.8,2.5,2.5,4.6c-0.3,2.7-1.7,2-3.9,3.1c-1.6,0.8-3.2,2.4-3.4,4.3
	c-0.3,2.8,1.5,2,2.9,3.3c1.4,1.3,0.8,2.5,0,4c-1.1,1.8-1.9,2.6,0,4.5c1,1.1,3.2,1.2,2.9,2.6c-0.4,2.5-3.8,0.7-4.4,1.8
	c-0.5,1,1.4,0.9,1.8,1.3c0.9,0.8,0.6,0.7,0.8,1.8c0.2,1-0.5,1.3,0.2,2.5c0.5,0.7,1.2,1.1,1.8,1.6c1.6,1.3,6.9,5.9,3.2,8.1
	c-2.8,1.7-4.6-6.1-8.3-3.1c0.8,0.7,1.9,0.9,2.6,1.7c0.9,0.9,2.4,2.3,3.2,3.3c0.5,0.6,0.9,1.6,1.2,2.3c0.5,1.2,1.2,3,0.1,4.3
	c-1.3,1.4-2.6,0.5-3.2,2.8c-0.8,3.4,0.1,8.1,0.6,11.4c0.4,2.6,1,5.1,2.6,7.2c1.1,1.4,5,3.3,4.3,5.3c-0.5,1.4-2.9,1.4-3.6,2.7
	c-0.6,1.1-0.3,5.1,0.7,5.8c1.3,1,3.2-0.4,4.3-1.5c1.1-1.1,1.9-3.6,3.7-3.9c1.9-0.3,2.9,1.7,3.7,3.1c2.1,3.9,1.4,8.8,3.6,12.9
	c1.9,3.5,7.5,4.5,11.1,6.1c5.1,2.4,2.6,4.6-0.8,6.7c-2.8,1.7-5.6,5.4-8.2,1.4c-1.9-3-1.1-8-5.8-7.7c0,1.7,1.6,3.2,2.5,4.5
	c1,1.6,0.6,3.2,1.3,4.7c1.7,3.6,6.2,5.5,9.7,6.3c3.5,0.8,6.1,3.2,9.4,4.9c2.8,1.4,7.5,1.2,8.8,4.9c1.7,4.9-4.4,4.6-7.4,3.2
	c-3.4-1.7-6.2-4.4-9.6-6.2c-2.4-1.3-4.1-1.3-6.7-1.7c-2-0.3-3.4-1.7-5-2.9c-3.8-2.7-7.2-5.7-10.9-8.6c-4.2-3.3-10.8-1.8-15.3,0.5
	c-2.3,1.2-4.2,3.4-6.6,4.3c-2.6,1-5.4-0.4-8.1-0.5c-1.6-0.1-4.5,0-5.5,1.4c-1.1,1.6-0.1,4.7,0.1,6.4c0.3,2.7,0.1,5.2-2.7,5.7
	c-6.7,1.2-8-3.8-10.5-8.3c-1.7-3.1-1.6-5.7-1.6-9.2c0-3.5-0.7-7-0.4-10.6c0.3-3.3,2.3-6,2.3-9.6c0-4.3-1.6-9-3.2-13
	c-0.4-1-2.5-5.7-3.7-5.1c-1.1,0.6,0.5,7.6,0.6,8.3c0.4,2.2,1.1,4.4,1.5,6.4c0.4,2,1.6,3.7,2,5.6c1.1,4.8-4.2,6.4-6.5,9.8
	c-1.6,2.4-1.9,4.3-2.4,6.9c-0.2,1.2-1.1,5.3-2.5,5.8c-2.7,0.9-4.9-5.5-7.3-6.3c-1.6-0.5-3.6-0.3-5-1.4c-1.2-1.1-1.6-4.7-3.3-4.7
	c-2.3,0-0.2,3.6,0.6,4.5c1.5,1.8,3.7,2.2,5.6,3.4c1.4,0.8,3.4,2.1,3.8,3.7c0.5,2.2-2.1,2.9-1.7,4.8c0.3,1.6,3.1,2.9,4.2,3.9
	c1.3,1.3,3.3,3.3,3.3,5.2c0.1,4.3-8.2,4.7-11.2,5.8c-2.3,0.8-4.4,1.7-6.1-0.2c-1.4-1.5-2.2-4-3.3-5.8c-1.5-2.4-1.3-4.5-1-7.3
	c0.1-1.2,1-4.7-0.1-5.6c-1.2-1-4.5,0.7-5.7,1.1c-2.1,0.6-4.4,1.4-6.7,0.9c-5-1.1-5.5-5.8-8.3-9.1c-3.2-3.7-8-1.7-11.3-4.5
	c-1.8-1.5-2.7-3.7-4.3-5.4c-1.4-1.5-3.5-2-3.1,0.6c0.6,4.4,6.2,6.2,9.5,7.9c1.9,1,4.2,1.9,6,2.9c1.6,1,2.1,2.4,3,4.1
	c0.8,1.7,1.7,3.2,2.5,4.9c0.5,1,1,2.4,1.6,3.2c0.5,0.8,1.3,1.1,1.7,2.1c2.3,6.8-4.5,15.5-11,16.1c-3.3,0.3-2.7-0.8-3.9-2.9
	c-1.1-2.1-4.3-3.5-6.6-4.1c-3-0.8-4.2,0.5-6.2,2.5c-2,2-3.1,3.1-5.2,1c-1.6-1.6-2.6-4-4-5.8c-4.6-5.6-10.4-7.8-17.6-6.1
	c-5.3,1.2-7.8,4-11.1,7.9c-2.2,2.6-4.1,4.9-5.6,8c-0.9,1.9-1.7,3.8-3.1,5.4c-1.7,1.8-2.6,2.1-5,1.9c-1.3-0.1-3.9-1-5.2-0.4
	c-0.3,0.1-0.5,0.3-0.7,0.4l-12-11.9L594,271c0,0,0,0-0.1-0.1c-2.3-3.2-4.6-6.7-6.9-10.1c-2.4-3.5-5.5-6.9-5.5-11.4
	c0-0.1,0-0.1,0-0.1c0.1-4.5,1-9.1,2.1-13.3c0.9-3.5,0.6-7.8,1-11.5c0.4-4.2-0.7-8.9-1.9-12.8c-1.2-4.2-2.7-7.6-1.9-12
	c0.6-3.6,1.7-6.9,2.8-10.4c1-3.1,1.2-6.5,1.9-9.7c0.2-1.1,0.5-2.1,0.9-3.1c1-2.6,2.6-4.6,4-6.9c2-3.2,3.2-7.1,4.8-10.5
	c2.7-5.8,6.2-10.3,10.4-14.9c5.9-6.7,10.9-14.1,14.9-22.1c3-5.9,8.1-15.2,1.4-20.7c-2-1.4-4.5-2.9-6.9-3.4c-2.3-0.5-3.8-0.2-5.9-0.7
	c-1.8-0.4-3.8-1.7-4.9-3.1c-1.1-1.5-2.1-2.9-3.4-4.1c-1.8-1.6-3.9-2.4-4.1-5c-0.1-2,1-3.9,1.7-5.8c1.4-4.2,2.7-8.6,3.9-12.9
	c2.2-7.9,5.4-15.1,8.3-22.6c1.6-4.1,2.3-9,3.6-13.4c1.1-3.8,2.7-7.5,3.4-11.4c0.8-4.2,0.6-8.5,1.2-12.7c0.1-1,0.4-2.1,0.6-3.1
	c5.3,1.5,86.7,37.3,90.6,36.5c0.6-1.7,0.5-3.7,1.2-5.2c0.7-1.5,2.4-1.6,3.2-3.1c0.7-1.4-0.1-2.7,0.2-4.2c0.5-2.2,2.2-1.4,3.5-2.8
	c2.8-2.7-1.5-6,3.3-7.7c4.5-1.6,3.3,4.4-0.6,4.9c1.1,1.2,2.7,1.4,3.7,2.7c1.5,1.8,2.1,2.7,2.5-0.3c0.4-2.6,1.1-2.8,2.9-0.8
	c1.4,1.7,1.9,2,4,2.8c0.7,0.3,1.6,0.7,2.1,1.3c0.7,0.9,0.2,1.5,0.6,2.3c1.1,2,2.6,0.5,4.4,0.5c5.4-0.2,1.6,5.7,3.5,7.9
	c1.5,1.7,3.8,1.9,2.3,5c-0.6,1.2-1.6,1.1-1.5,2.7c0,1.6,0.9,1.3,1.8,2.3c1.6,1.9,0,4.3,2.2,5.7c1,0.6,25.9,10.3,28,10
	c-0.2-1.8-2.9-2.7-0.8-3.7c1.4-0.6,4.4,0.1,5.6,0.6c5.8,2.7,45,16.4,48.3,17.9l0.1,0.1c0,0-0.1,0.1-0.1,0.1
	c-0.5,0.6-0.4,1.5-0.7,2.2c-0.4,0.9-1.2,1.5-1.7,2.2c-1.4,1.9-0.8,2.9-1.2,5c-0.4,2.1-2.2,2.8-2.5,5c-0.3,2,0.6,3.7-1.1,5.2
	c-1.6,1.4-3.1,0.9-4.1,3c-1.2,2.4-1.8,9.1-5.4,6.6c-0.5-0.3-0.4-2-1.5-1c-0.5,0.4,0,1.8,0.1,2.3c0.2,1.4,0.9,4-1.3,4
	c-3-0.1-4.1-6.3-7.7-6.2c-0.2,3.1,4,5.9,5.4,8.2c1.5,2.5,4.3,7.8,7.4,4.2c2.6-3.1,4.1-7.7,6.1-11.3c1.1-1.9,2-3.6,3.8-4.9
	c1.6-1.2,2.8-0.8,3.3-3c0.4-2,0.1-3.1,1-5c0.5-1,1.5-1.1,0.9-2.5c-0.3-0.7-1.4-0.3-1.7-1.3c-0.7-2.4,4.6-8,7.1-7.3
	c1.9,0.6,1,2.4,3.3,2.9c2.1,0.4,3.9-0.2,5.6,1.7c3.1,3.3,0.2,6.6-2.5,8.6c-0.5,0.3-2.1,1.3-2.3,1.8c-0.5,1.5,0.4,0.8,0.8,1.8
	c0.4,0.9,0.4,4,1.2,4.4C844.9,106.5,845.2,102.6,847,102.7L847,102.7z"/>
<path id="path74_1_" fill="#38618C" d="M693.2,300.4c0.9,1.2,2.3,3.1,1,4.5c-1.2,1.4-3.3,0.8-3.9,2.8c-0.3,0.9-0.5,1.2-1.4,1.6
	c-0.8,0.3-1.8,0.4-2.7,0.5c-2.5,0.2-5-0.1-7.6-0.1c-1.2,0-2.4,0.1-3.6-0.2c-1.6-0.5-3.1-1.2-4.7-1.7c-1.8-0.5-3.5-0.9-5.3-1.2
	c-1.4-0.3-2.4-0.4-3.6-1.3c-1.8-1.4-1.7-4.1-3.3-5.6c-0.8-0.8-1.9-1.3-2.7-2.1c-0.9-0.9-1.1-1.4-0.7-2.6c0.3-1.2,0.9-2.4,1.2-3.6
	c0.4-1.4,0.6-2.8,0.9-4.3c0.2-1.3,0.5-2.6,0.7-3.9c0.2-1.2,0.8-1.7,1.8-2.4c0.7-0.5,1.3-0.9,1.7-1.7c0.3-0.6,0.7-2.3,1.7-1.8
	c0.5,0.3,0.9,1.7,1.2,2.1c0.4,0.7,0.9,1.5,1.5,2c0.9,0.8,2,1.3,3,1.9c1,0.7,1.8,1.4,2.9,1.8c4.5,1.9,10.6,2.7,12.1,8.3
	c0.2,0.8,0.3,1.7,0.4,2.5c0.1,0.5,0,1.7,0.6,1.2c0.4-0.3,0.1-1.1,0.3-1.5c0.2-0.5,0.7-0.7,1.1-1c1.1-0.8,1.4-0.3,2.2,0.6
	c0.9,0.9,1.8,2,3,2.7c0.5,0.3,1,0.4,1.3,0.8C692.6,299.2,692.8,299.9,693.2,300.4z"/>
<path id="path78_1_" fill="#38618C" d="M648.6,283.7c0.6,0.2,1.3,1.1,0.8,1.7c-0.4,0.5-1.3,0.3-1.9,0.6c-0.7,0.3-0.7,1.3-1.6,1.1
	c-0.6-0.1-1.2-0.6-1.7-0.9c-0.5-0.3-0.6-0.9-1.1-1.3c-0.5-0.3-1-0.3-1.5-0.5c-0.5-0.2-1.5-1.1-0.7-1.5c0.6-0.3,1.3,0.1,1.7-0.7
	c0.3-0.6,0.6-1,1.4-1.1c0.6,0,0.8,0.1,1.2,0.5c0.5,0.5,0.9,1.1,1.5,1.6C647.3,283.7,647.9,283.5,648.6,283.7z"/>
<path id="path80_1_" fill="#38618C" d="M649,272.6c0.5,0.2,0.7,0.7,0.3,1.1c-0.5,0.5-1.1,0.7-1.7,1c-0.7,0.3-1.2,0.9-1.8,1.4
	c-0.6,0.6-1.2,1.2-1.7,2c-0.2,0.3-0.5,0.9-0.8,1.1c-0.3,0.1-0.7,0-1,0c-0.6-0.1-1.1-0.6-1.7-0.9c-0.6-0.3-1.7-0.3-2.2-0.9
	c-0.4-0.4,0-0.9,0.5-1.1c0.6-0.2,1.2,0.1,1.5-0.6c0.2-0.5,0-1-0.3-1.4c-0.4-0.5-0.7-0.9-1.2-1.2c-0.4-0.3-0.8-0.6-0.4-1.2
	c0.3-0.4,1-0.3,1.4-0.4c0.4-0.1,0.6-0.3,0.9-0.6c0.5-0.5,1.1-0.8,1.6-1.2c0.5-0.4,0.2-0.7,0.5-1.2c0.3-0.8,1.6-1,2-0.2
	c0.3,0.5,0.4,1.1,0.6,1.7c0.3,0.9,0.9,1.4,1.6,1.9C647.7,272.3,648.3,272.3,649,272.6z"/>
<path id="path102_1_" fill="#FFAF87" d="M368.5,732.1c1.6,1.2,5.4,1.9,5.4,4.3c0,1.6-1.5,3.1-2.3,4.5c-0.6,1.2-1,2.5-1.4,3.8
	c-1,2.9-2,5.9-3.2,8.9c-0.9,2.1-2.3,4.1-3.6,6.1c-1.2,2-2.1,4.3-3.5,6.1c-1.7,2.3-5.4,3.6-7.8,5.3c-2.1,1.5-3.8,3-4.9,5.3
	c-1.1,2.2-2,4.2-3.7,6c-2.1,2.5-3.9,5.6-6.5,7.6c-9.2,7-16.8,15.9-24.8,24.2c-1.6,1.6-3.2,3.7-4.5,5.5c-1.2,1.7-2.4,3.5-4.1,4.7
	c-1.8,1.2-2.3,2.6-3.3,4.5c-1.1,2-2,3.9-3.5,5.8c-1.1,1.4-2.3,2.8-3.2,4.2c-0.6,1-1.3,2.7-2.5,3.2c-1.3,0.6-2.2-0.8-3.7-0.5
	c-1.9,0.4-2.4,2-2.9,3.6c-0.6,1.9-1,3.7-2,5.5c-1.1,1.7-2.4,3.3-3.3,5c-0.4,0.6-0.7,2.6-1.4,3c-1.5,0.9-1.5-1.7-1.8-2.6
	c-1.3-3.1-3,2.5-4,3.5c-2.5,2.4-4.7,4.5-6.4,7.6c-1.8,3.3-4.5,6.6-7.5,9.1c-1.6,1.3-3.3,2.5-5,3.7c-1.5,1.1-2.9,2.5-4.7,3
	c-1.9,0.6-3,0.7-4.6,2c-1.8,1.4-3.8,3.1-5.3,4.9c-5.1,6.2-8.3,13.7-14.3,19.1c-1.8,1.6-3.8,3.9-5.8,1.3c-1.6-2.1-4.3-5.2-5.1-7.8
	c-0.4-1.4,0.1-2.6,0.7-3.8c0.9-1.8,1.3-2.2,3.3-2.2c2.9,0,6,0.8,8.4-0.9c1.3-1,2.6-1.9,3.6-3.3c0.9-1.4,1.8-2.9,2.9-4.3
	c1.8-2.3,4.6-4.5,5-7.5c0.4-2.7-3.2-6.3-5.4-7.6c-2.1-1.2-5.1-2.7-7.4-1.2c-1.5,1-1.8,3.2-3.7,3.8c-2.3,0.7-5.5-0.6-5.5,2.9
	c0,1.4,0.1,2.3-1.2,2.8c-1.3,0.5-2.2,0.1-2.6,1.8c-0.2,0.9-0.4,3.1-0.1,4c0.4,1.1,1.4,1.5,1.6,2.8c0.3,2.4-1.1,3.4-2.6,4.9
	c-0.8,0.7-1.1,1.6-1.8,2.3c-0.2,0.2-0.7,0.3-0.9,0.6c-0.3,0.3-0.6,1-0.9,1.4c-0.9,1.2-1.9,2.3-2.8,3.6c-1.6,2.4-3.3,3-5.9,4.2
	c-3.6,1.6-7.3,2.9-10.8,4.9c-2.4,1.4-4.6,3.1-7,4.6c-2.7,1.7-5.3,3.5-7.7,5.6c-2,1.7-4,3.5-6.3,4.6c-1.4,0.6-2.9,1.1-4,2.1
	c-1.1,1.1-1.3,2.4-2.5,0.3c-0.8-1.5-1.1-2.6-3-2.4c-0.5,4.3-3.5,5.2-6.5,7.6c-1.1,0.8-2.1,2.1-3.5,2.4c-2.3,0.3-2.4-2.3-3.7-3.5
	c-1.1-1.1-3,0.1-4.3,1c-1.5,1.2-3,2.4-4.6,3.5c-1.8,1.2-3.5,2.4-4.5,4.3c-1.1,2.1-1.8,4.3-3.2,6.2c-1.7,2.4-6.9,11-10.6,9.6
	c-1.2-0.5-1.4-1.9-2.7-2.5c-1.5-0.7-3.3-0.3-4.6-1.7c-1-1.1,0-2.3-0.5-3.4c-0.9-1.9-1.8,0.4-2.5,1.1c-0.9,1.1-1.8,0.9-3.2,0.9
	c-4.4,0.2-7.8,1.2-11.1,4.2c-3,2.6-5.4,5.9-6.7,9.7c-1.2,3.5-3.5,5.1-6.5,7.1c-3,2-5.2,3.6-8.9,2.5c-1.7-0.5-3.5-0.9-4.4,1
	c-0.5,1-0.5,2.7-1.8,3.3c-2.9,1.4-4.6-3.1-6.5-3.7c-3.2-1.1-6.4,0.9-8.9,2.7c-1.2,0.9-2.5,1.7-3.7,2.6c-1.4,0.9-3,1.8-4,3.1
	c-1.2,1.5-2.3,3.2-3.7,4.5c-1.5,1.3-5.9,3.4-7.8,2c-0.8-0.6-0.5-4.3-2.2-3.4c-1.4,0.7-0.4,3.9-2.8,4.3c-2.2,0.4-3.7-3.4-4.8-4.7
	c-1.6-1.9-3.7-3.1-5.2-5c-1.5-2.1-2.4-4.7-3.5-7c-1-2-2.2-4.3-2.8-6.4c-0.6-1.8-0.7-5.1-0.2-6.9c0.5-1.8,2.5-2,3.4-3.5
	c1.1-1.8,0.8-4.5,0.9-6.5c0.1-2,1-3.1,2.4-4.5c1.4-1.3,2.9-2.5,4.3-3.8c1.2-1.1,2.9-3.8,4.8-2.3c1,0.8,1.6,4.3,2.9,1.6
	c0.6-1.3,0.4-2.8,0.9-4.1c1.3-3.2,4.2,0.7,6-1.8c1.1-1.6,0.4-1.7-0.8-2.7c-1.3-1-2-2.6-2.4-4.1c-0.1-0.5-0.7-1.3-0.4-1.8
	c0.3-0.5,1.1-0.3,1.5-0.7c2.5-2.7-2.5-4.9-2.9-7.2c-0.2-1.3,1.3-3,2.1-3.9c1-1.3,1.6-2.2,2.2-3.7c0.5-1.3,1.9-2.7,2-4.2
	c0.1-1.6-1.5-3.5-1.9-5.1c-0.4-1.2,0.1-3.6-0.6-4.6c-0.6-1-3-1.6-3.9-2.3c-1.1-0.9-2-2.1-2.5-3.5c-0.6-2,0-2,1.5-3.2
	c1.9-1.5,0.4-2-0.7-3.6c-1.1-1.5-1.6-3.4-2.3-5c-0.5-1.3-1.3-2.6-1-4.2c0.4-1.6,2.3-2.7,3.5-3.7c1.1-0.9,1.9-2.2,2.9-3.1
	c1.6-1.3,1.8,0,3.5,0.3c2,0.3,3.4-1.8,4.3-3.3c1.3-1.9,2.3-3.2,4.1-4.7c1.2-1,0.9-1.7,1-3.2c0-3.4,3.7-0.7,5.4-2.8
	c2.4-2.8,4.3-6.7,7.6-8.6c2.6-1.5,6.3-0.1,8.6,1.2c3.3,2,6.5,2.4,10.4,2.8c1.5,0.1,2.9,0.5,4.2-0.7c0.7-0.7,1.2-1.6,1.9-2.3
	c0.8-0.7,1.7-1.1,2.5-1.8c1.6-1.6,2.9-3.5,3.9-5.5c0.6-1.3,1.6-2.6,2-4c0.6-1.7-0.1-2.2-0.7-3.8c-1.3-3.4,0.7-7.2,2.4-10.1
	c1.7-3,1-6.5,3.2-9.3c2.1-2.7,7-0.4,10-1.6c2.9-1.2,5.9-3.7,6.8-6.8c0.6-2,0-7.4,2.8-7.9c2.5-0.5,6.1,3.3,8.1,4.4
	c1.4,0.8,3.3,0.8,4.7,0c1.4-0.9,1.7-2.2,0.1-3.2c-1.5-0.8-3.4-0.5-5-1.3c-1.4-0.6-2.5-1.7-3.6-2.6c-2.4-2-6.1-2.2-9.2-2.3
	c-1.6-0.1-3.2,0.1-4.8-0.3c-1.2-0.3-3.3-0.5-4.2-1.4c-2.3-2.2,0.5-5.9,1-8.2c0.3-1.4,0.5-3,0.2-4.5c-0.5-2.6-1.8-4.7-1.4-7.4
	c0.4-2.6,2-4.6,4-6c3.6-2.5,5.5-5.6,6.8-9.7c1.2-3.7,1.9-7.5,2.9-11.3c0.3-1.3,1-2.4,1.4-3.7c0.9-2.8-0.3-5.9-1.5-8.3
	c-0.5-1-1.4-2.1-1.7-3.2c-0.4-1.7,0.5-3.2,1.5-4.5c1.2-1.6,2.4-3.4,2.8-5.4c0.4-1.8,1.8-3.8,1.7-5.6c-0.1-2-2.3-2.9-3.7-4
	c-1.4-1.1-2.4-2.7-4-3.5c-1.3-0.5-3-0.7-3.9-2c-0.6-0.8-0.9-2.6-1.3-3.6c-0.1-0.4-0.5-1.3-0.4-1.7c0.1-0.9,0.6-0.6,1.1-1.3
	c1.2-1.5-0.1-2.8-0.4-4.6c-0.6-2.9-0.3-6,0.3-8.8c0.3-1.5,0.4-2.9,0.5-4.5c0.2-2.3,0.6-4.9,1.2-7.1c1.3-4.6,5.8-7.6,8.5-11
	c1.7-2.1,1-3.7,1.6-6c0.5-1.8,1.6-2.4,3.2-3.3c2-1.1,4.6-4.8,7-3.3c0.9,0.5,1.8,2.7,3.2,1.7c2.2-1.5-0.8-3.2-0.9-4.2
	c-0.1-1.5,3-2.3,4.1-2.4c2-0.1,1.6,2.2,3.1,1.9c0-1-0.3-2.5,0.2-3.4c0.7-1.3,2.1-1.1,3.4-1.1c2.2-0.1,1.8-1.2,3.3-2.2
	c1.6-1.1,2.5,1,2.7,2.4c0.1,1.1-1.3,3.4-0.5,4.2c1.3,1.3,3.2-1.6,3.8-2.4c0.4-0.6,0.9-1.2,1.3-1.8c0.3-0.4,0.6-1.5,1-1.8
	c1.6-1.4,3.9,1.8,5,2.8c1.1,1,2.7,2,2.8,3.6c0,1-1,3.6,1,2.8c0.9-0.4,1.5-2.3,2.9-1.1c1,0.9,0.1,2.6,2.1,2.5c0-0.9,0-1.7,0-2.6
	c0.9-0.5,2.4,0.2,3.2-0.3c0.6-0.4,0.4-2.7,1.8-1.7c1,0.8,0.4,2.3,1.6,3c1.2,0.7,2.7-0.1,3.9,0.9c1,0.9,1.1,2.1,0.8,3.4
	c-0.2,1-0.8,2.9,1.2,2.2c1.8-0.6,0.4-2.8,2.4-3.2c1.2-0.2,3,0.1,4.2,0.3c1.6,0.2,2.4,0.6,3.3,2.1c0.6,0.9,1.2,2.7,2.4,3.2
	c1.1,0.5,2.2,0.2,2.6-0.7c0.3-0.7-0.2-1.6,0.5-2.2c1.7-1.4,3,0.5,3.4,1.8c0.4,1.1,0.5,3.1,2.1,2.7c2-0.4,0.3-3.5,1.3-4.4
	c0.8-0.7,3.6,0.3,4.4,0.6c1.1,0.4,2.3,1.7,3.3,1.1c1.1-0.6,0.7-2.1,1.1-3.1c0.5-1.2,1.8-2.1,3.1-2.2c2.6-0.4,0.9,2,2.3,2.1
	c0.2,0,0.4,0,0.5,0c-0.1-1.4,0.3-2,1.6-2.3c1.9-0.5,3.1-0.2,4.3-2.2c0.5-1,0.3-1.1,1.4-1.7c1.9-0.9,4.6-0.7,6.7-0.7
	c1.9,0,4.5,0.7,6,1.9c1.3,1,1.3,2.6,2.9,3.3c1.3,0.6,3.8,1.2,5.1,0.5c0.5-0.2,0.8-0.9,1.3-1.1c0.8-0.4,1.8-0.1,2.7-0.3
	c2.4-0.5,3.8-2.1,5.2-3.8c2.1-2.5,4.7-3.9,7.8-4.6c1.5-0.4,3-0.6,4.5-1.1c1.6-0.5,2.9-1.4,4.4-2.1c3.4-1.6,7.2-1.5,11-1.5
	c2.6,0,4.6,0.3,6.9,1.6c1.9,1,4.6,1,6.7,0.5c2.2-0.5,4.6-1.6,6.5-2.6c1.8-1,3.5-2.2,5.4-3.1c1.6-0.8,3.3-1.3,4.9-2.3
	c1-0.6,3-2.5,4.3-2.3c1.1,0.2,2.1,2.1,2.9,2.7c3.1,2,3.7-1.6,6.2-2.4c1.4-0.4,1.9-0.6,2.9,0.4c0.9,0.9,1.4,1.9,2.6,2.4
	c1.1,0.4,2.7-0.1,3.3,1.2c0.5,0.9-0.4,3,0.2,3.8c0.6,0.7,2.8,0.2,3.6,0.4c1.4,0.4,2.8,1.5,3.6,2.7c2.1,3.4,1.3,7.8,1.8,11.7
	c0.4,3.2,0.1,6.5,0.1,9.7c0,3.2,0.3,6.4,0.3,9.6c0,2.5,0,4.9-0.3,7.3c-0.2,1.6-0.4,3.8,0.1,5.3c1.3,3.6,4.4,6.5,6.7,9.4
	c0.7,0.9,1.6,2.4,1.3,3.6c-0.3,1.4-1.6,1.2-2.3,2.2c-1.3,1.8,1.4,1.5,2.5,1.8c1.1,0.2,3.4,1.2,3.3,2.7c-0.1,1.5-2.6,1-2.5,2.7
	c0,1.6,2.8,2.3,3.7,3.5c1.7,2.2,1.9,5.8,3.2,8.3c1.4,2.7,3.3,4.3,5.3,6.5C364.1,727.4,366.2,730.4,368.5,732.1z"/>
<path id="path104_1_" fill="#FFAF87" d="M112.5,715.6c0.3,1-0.2,1.2-0.9,1.7c-1.6,1.4-2.4,3.8-3.6,5.6c-1,1.6-0.9,3.8-0.3,5.6
	c0.6,1.7,1.7,3.3,2.5,5c0.7,1.6,2.2,3.4,1.7,5.2c-0.2,0.8-0.8,1.4-1.1,2.2c-0.2,0.7,0,1.9-0.4,2.6c-1,1.6-2.5-1.6-3-2.3
	c-1.1-1.8-2.6-3.3-3.6-5.1c-0.7-1.2-1.4-2.5-2.1-3.7c-0.6-0.9-1.3-1.8-1.6-2.9c-0.6-2.1,1.1-3.8,1.1-5.9c0-1.4-0.1-2.9,0-4.3
	c0.1-1.3-0.1-2.9,0.5-4.1c0.4-1.1,1.1-2,1.8-3c0.4-0.6,1-1.6,1.8-1.3c0.6,0.2,0.8,1,1.4,1.2c0.7,0.2,1.6,0.1,2.3,0.3
	c0.7,0.2,1.3,0.4,1.9,0.9C111.4,713.8,112.3,714.8,112.5,715.6z"/>
<path id="path60_1_" fill="#F9F94E" d="M721.3,590.3c0.2,1.7,2.8,5.1,1.7,6.6c-0.5,0.6-2.3,1.1-3.1,0.8c-0.9-0.3-1.1-1.5-2-1.2
	c-0.4,0.1-1.6,1.3-1.7,1.8c-0.4,1.3,1.1,1.6,1.9,2.3c1.4,1.1,2.2,3.5,0.1,4.3c-0.9,0.4-1.2,0-2.1-0.1c-0.9-0.1-1.6,0.3-2.3,0.8
	c-0.7,0.5-1.3,1.5-2.1,1.9c-0.9,0.5-2,0.4-3,0.8c-0.5,0.2-1.8,0.9-1.6,1.6c0.2,0.6,1.9,0.8,2.4,1.1c1.6,0.8,0.7,2.4,1.2,3.7
	c-0.4-0.1-0.8-0.1-1.2-0.1c-0.5,2.3,3.9,3.5,5.2,4.5c2.3,1.8,4,5.8,4.2,8.6c0.1,1.3-0.6,2.1-0.7,3.4c-0.1,1.3,0.1,2.7,0.1,4
	c0,1.4,0.2,3.7-0.7,4.9c-0.8,1.1-2.5,1.5-3.8,1.8c-1.5,0.3-2.2,0.5-3.3,1.4c-1.2,1-1.5,1-2.3-0.5c-1.2-2.1-0.2-4.6-1.2-6.7
	c-0.6-1.4-2.9-5.6-4.5-5.5c0.9,2,2.7,4.1,2.8,6.2c0.1,2.6-1.5,3.7-3.5,5c-0.9,0.5-1.7,1.4-2.7,1.3c-1.4-0.2-1.9-1.6-2.7-2.7
	c-1.1-1.6-3.8-4.6-6.1-4.1c-0.3,2,1.3,4.6,2,6.4c1.2,2.8,2.6,4.5,4.7,6.6c1.6,1.6,4.4,3.4,4.8,5.8c0.6,3.3-5.3,4.6-7.1,6.5
	c-0.8,0.8-1.6,3.9-2.5,4.1c-0.7,0.2-3.5-2.9-4.2-3.5c-2.4-2.3-4.8-4.3-7.5-6.2c0.5,1.6,1.6,3.5,2.7,4.7c1.1,1.3,3.4,2.2,3.9,3.8
	c0.7,2,0.2,4.2-2,3.5c-2.4-0.8-2.5-2.8-4.7-0.6c-2.2,2.2-3.6,4.7-4.2,7.7c-0.1,0.6-0.1,2.4-0.6,2.8c-0.8,0.5-1.8-0.9-2-0.8
	c-1.1,0.6-1.8,2.2-2.8,3.1c-1.3,1.1-2.9,5.8-4.5,5.8c-1.9,0-2.9-2.5-4.2,0c-0.7,1.5,0.1,4,0.1,5.6c0,2-0.3,4.1-2.7,4.7
	c-2.5,0.6-2.4-1.4-3.5-2.9c-1.3-1.7-3.7-2.5-5.7-1.4c-2.1,1.2-1.1,2.7,0,4.6c2.1,3.9,4.4,7.9,6.9,11.5c2.4,3.3,3.9,7,6.2,10.3
	c1.9,2.7,4.9,6.1-0.6,6.1c-2.1,0-4-0.2-5.8,0.6c-2.1,0.9-3.6,2.6-5.5,3.9c-1.6,1.1-4.2,1.7-5.5,3.4c-1.1,1.5-0.7,3.8,1.4,4
	c1.7,0.1,3.4-1.9,5.4-2.1c3.5-0.3,7.1,0,10.6,0c2.1,0,5.4-0.4,6.9,1.3c2,2.2,1.4,6,2.2,8.7c1.1,3.5,2.9,6.8,4.2,10.2
	c2,5.2,3.2,10.7,5.4,15.9c1.1,2.7,2.2,5.4,3,8.2c0.7,2.3,1.9,4.5,1.7,7c-0.4,3.6-5.6,4.5-8.8,5.7c-5.1,1.9-10.3,2.5-15.4,4.6
	c-3.6,1.5-8.6,6.2-11.9,3c-1.3-1.3-2.2-2.9-3.5-4.3c-1.7-1.7-3.8-2.4-6-3.3c-1.6-0.7-6.3-2.2-5.3-4.8c0.7-1.9,3.7-0.9,4.8-0.1
	c1.7,1.3,2,3.2,4.4,3.6c1.7,0.3,3.6,0.1,4.5-1.5c2.7-4.7-2.5-6.6-4.2-9.9c-0.9-1.7,0.1-5.3-2-5.9c-1.8-0.5-3,1.6-4.4,2.5
	c-5.2,3.3-4.3-4.3-8.3-3.3c0,1.7,2.7,2.2,2.2,4.1c-1.9,0.5-2.5,1-3.9,2.4c-1.3,1.3-2.9,2.4-4.5,1c-0.7-0.6-1.3-3.9-3.1-2.3
	c-1,0.9,0.1,3.6,0.6,4.4c1.7,2.7,5,3.4,2.5,7c-2.7,3.9-4.2-1.1-7.2-0.5c0,1.1,0,2.2-0.1,3.3c-2,0.3-3.5-1-5.2-1.9
	c-2.5-1.3-5.1-2.7-7.7-3.9c-4.4-2-10.1-6.1-14.2-2.4c-3.9,3.5-8.5,3.8-13.7,3.8c-1.3,0-9,0.6-4.8,1.7c2.5,0.6,6.2,0,8.9,0
	c2.4,0,4-0.1,5.1,2.2c0.8,1.6,1.4,4.3,1.5,6.1c0.2,3.2-5.1,9.2-5.7,3.8c-4.4-0.2-9.3,0.9-13.6,1.7c-3.9,0.7-7.7,1.5-11.6,2.1
	c-3.3,0.4-6.7,0.3-10.1,0.2c-3,0-5.8,1-8.7,1.6c-6.6,1.3-13.3,2-19.9,3.2c-4.8,0.8-9.5,1.1-14.2,2.5c-4.5,1.4-8.4,3.4-13.1,4.1
	c-7.5,1.1-15,1.8-22.6,1.5c-2.8-0.1-5.5-0.5-8-1.9c-1.9-1.1-3-3.2-4.9-4.4c-2.7-1.7-5.3-1.5-8.4-2c-2-0.3-3.7-0.4-4.1-2.7
	c-0.2-0.9,0.4-1.9,0.2-2.9c-0.2-1-1-1.6-1.5-2.5c-0.9-1.9-0.5-3.1,0.8-4.7c1.4-1.6,3.7-3.1,5.6-3.9c1.9-0.7,3.8,0,5.2-1.5
	c0.7-0.7,0.1-1.4,1.3-2c0.8-0.4,2.1-0.3,2.8,0.1c0.4,0.3,0,1.3,0.5,1.7c0.4,0.3,1.6,0.4,2.1,0.5c1.1,0.1,2.3-0.1,3.4,0
	c2.5,0.2,5.4,0.4,7.9,1.3c1.9,0.6,3.5,1.9,5.4,2.4c1,0.3,2.7,0.8,3.7,0.4c0.8-0.3,0.9-1.1,1.4-1.3c2.4-1.1,2.9,2.1,5.2,1.5
	c0.2-3.3-2-3.6-4.2-5.1c-1.7-1.2-2-6.1-3.3-6.3c-1-0.2-2.9,1.2-4.1,1.2c-2.9,0.2-5.9-0.2-8.1-1.9c-1.7-1.3-4.4-3.9-4-6.2
	c0.5-2.5,3.8-2.7,5.8-3.1c0.4-2-1.7-3-1.2-5c0.5-2.1,3.3-2.5,2.9-5.4c-1.4-0.1-4.8,2.6-5.8,0.2c-0.8-2.1,2.5-2.1,2.9-3.5
	c0.7-3.3-6.7-5.2-6.7-0.2c-3.3-0.8-6.1-6.3-8.1-8.8c-7.1-9.1-18.2-9.7-28.7-12c-2.8-0.6-5.9-0.7-8.6-2c-1.9-0.9-3.6-2.4-5.6-3.3
	c-1.9-0.9-3.5-2.4-5.3-3.3c-2.4-1.2-2.8,0.1-2.9,2.2c-1.5-0.6-1.2-2.3-1.2-3.7c0-2-0.2-3.3-1.1-5c-1.7-3.3-3.1-6.7-4.6-10.2
	c-2.6-6.1-5.8-12.7-5.9-19.5c-0.1-3.5,0-7.1,0-10.6c0-3.3-0.1-6.5,1-9.6c1.3-3.6,3.2-7,4.8-10.5c1.6-3.6,2.2-7.3,4.4-10.6
	c2-3.1,2.5-7,4.9-9.9c1.2-1.6,2-1.8,3.9-1.8c0.7,0,6,1.9,6,2c0.6-4.2-5.3-3.3-5.6-7.3c-0.1-1.4,0.5-3.2,1.4-4.1
	c1.9-1.9,3.2-1.7,4.8,0c1.2,1.3,2.2,3.1,4.4,2.5c2.2-0.6,0.9-1.6,0.7-3.3c-0.2-1.4-0.4-4.1,1.2-4.8c1.4-0.5,3.2,1.7,4.4,0.8
	c1.9-1.6-1.7-3.9-2.7-4.4c-2.3-1-2.7-1.3-1.1-3.8c2.1-3.4,5.5-6.2,8.5-8.9c0.8-0.8,2.9-4.1,4-3.7c1.5,0.4,0.6,4.5,3.1,2.8
	c1.6-1.1,0.1-3.6,2.5-1.9c2.4,1.7,2.3,3.4,6,2.5c0.2-4-1.8-3.6-4.8-5.4c-3.1-1.9-0.7-3.9,1.5-5.6c2.6-2,6.1-3.6,8.8-1.6
	c2.1,1.5,3.3,4.2,6.4,2.9c2.6-1.1,0-1.4-0.7-3.1c-0.8-1.9,0.5-3.4,2.2-2.2c1.5,1,1.5,3.4,3.6,3.5c1.7,0.1,3.6-1.9,2.7-3.5
	c-0.9-1.6-4.7-1.4-4-4.2c0.4-1.6,1.1-1.1,2.3-0.9c1.5,0.2,3.9,1.3,5.2,0.1c0.6-0.5,0.9-2,0.6-2.7c-0.3-0.7-2.5-1.7-2.5-1.4
	c-0.3-2,1.1-3.9,1-6.2c-2.4,1.1-2.2,4.5-4.8,5.5c-2.7,1.1-4.5,0.7-6.3,3.5c-0.3,0.6-0.9,3.3-2,2.5c-0.7-0.5,0-2.7,0.2-3.3
	c0.9-2.5,3.4-4.5,1.8-7.3c-1.1,0-1.4,0.8-2.1,1.6c-1.2,1.6-1.9,3.4-3.1,5c-1.3,1.8-3.5,3-5.2,4.4c-2.3,1.9-5.7,5.7-9,4.8
	c-1.6-0.5-3.1-2.1-3.9-3.5c-1.1-1.8-0.6-2.7-0.4-4.7c0.2-1.9-0.3-3.9-1.2-5.5c-0.8-1.4-2.8-2.9-2.3-4.7c3.2-0.6,5.2,3,5.6,5.6
	c0.4,2.8-0.8,6,2.7,7.3c4.7,1.7,6.1-2.6,5.6-6.4c-0.7-5.3-3.9-6.6-7.9-9.6c-1.8-1.3-3.9-2.3-5.5-3.7c-3.2-2.6-2.9-6.4-1.7-10
	c1.4-4.1,6.2-6.4,9.7-8.8c4.6-3.1,9.2-5.8,13.5-9.3c4.3-3.4,7-8.2,9.9-12.8c3.2-5.2,5.5-10,6-16c0.3-2.7,0.7-4.6,2.1-7
	c1.2-2,3-3.2,4.3-5c1-1.4,1.1-3.6,2.7-4.5c2-1.1,3.8,0.1,5.4,0.8c3.8,1.8,10.4,1.1,14.7,0.8c4.6-0.3,9.7-3.1,12.8-6.6
	c0.8-0.9,2.1-4.4,3.1-4.6c1.5-0.3,2.8,3.4,3.3,4.4c1.1,2.1,1.1,4.1,1.4,6.4c0.2,1.4,2.5,6.7,4.8,4.6c1.4-1.2-0.7-5.6-1.3-6.9
	c-1.1-2.1-2.5-4-3.3-6.3c-0.7-2-1-4.8-0.6-7c0.7-3.9,3.6-7.8,5.1-11.4c2-4.4,3.3-9.1,5.8-13.2c2.4-3.9,4.6-7.3,4.6-12
	c0-4.1-1.7-7.2-2.4-11.1c-0.6-3-0.7-6.6-0.7-10.1c1.5-0.1,3.3-1.6,4.6-2.1c1.9-0.7,3.6-1.3,5.3-2.5c3.8-2.6,8.2-4.3,12.8-2.6
	c3.8,1.4,7.4,4.1,11,6.1c1.5,0.8,3.1,1.8,4.4,2.9c1.4,1.2,2.3,3.3,3.2,4.9c1.6,2.7,3,5.7,5,8.2c0.9,1.2,2,1.6,3.4,2.2
	c1.7,0.7,3.4,1.5,5.2,1.8c1.4,0.2,2.8,0.2,4.1,0.6c2.3,0.6,4.2,2.1,5.6,4c3.1,3.9,4.4,9.1,5.7,13.8c0.2,0.6,0.3,1.2,0.5,1.8
	c0.3,1.1,0.1,1.8,0,2.8c-0.2,1.6,0.5,1.4,1.5,2c0.8,0.5,1,1.9,0.4,2.7c-0.8,1.1-2.6,0.7-3.4,1.8c-0.5,0.6-0.5,2,0,2.6
	c0.5,0.7,1.7,0.8,2.3,1.5c0.7,0.8,1,1.8,1.8,2.5c0.6,0.6,1.7,1.1,2.1,1.9c0.4,0.9-0.1,2,0.2,2.9c0.3,0.8,1.7,1.1,1.9,1.9
	c0.2,1.1-1.7,1.1-2.4,1.4c-1.4,0.6-0.9,1.3,0.3,1.9c1.7,1,3.1,2.3,4.6,3.4c0.7,0.5,1.3,1.1,2,1.6c1,0.8,2,0.5,3,1
	c0.8,0.4,1.6,1.5,2.3,2.1c1,0.9,1.6,1.9,2.4,3c1.3,1.7,1.9,1.4,3.9,1.5c0.5,1.7-2.8,1.4-3.5,2c-1.1,1,0.8,1.8,1.6,1.9
	c0.8,0.2,1.9-0.1,2.6,0.4c0.4,0.3,1.3,1.4,1.2,1.8c0,0.9-1.5,1.1-2.2,1.6c-0.5,0.4-1.8,1.1-1.7,1.6c0.4,1.1,3.9,1.4,4.8,1.8
	c1.4,0.5,2,1.6,3,2.6c1.8,1.8,4.4,2.8,6.2,4.6c1.9,1.9-3.7,2.4-3.2,4.9c1.2,0.6,2.6,0.9,3.8,1.6c1,0.6,1.9,1,2.9,1.6
	c0.8,0.5,1.5,1.2,2.1,1.8c1.3,1.2,0.2,0.8-0.6,1.6c-0.9,0.8,0,1.9,0.7,2.5c1,0.8,1.2,0.9,1.6,2.1c0.3,1.2,0.3,1.2-0.5,2.1
	c-0.7,0.9-0.7,1.3,0.2,1.9c0.5,0.3,1.2,0.4,1.6,0.8c0.3,0.4,0.1,0.9,0.2,1.3c0.3,1.1,0.9,2.3,1.5,3.3c0.8,1.1,1.9,1.8,2.7,3
	c0.6,0.9,1,1.9,1.6,2.8c1.8,0.2,1.7-2.8,2.2-3.8c0.3-0.6,0.9-0.9,1.3-1.4c0.4-0.5,0.5-1.5,1.2-1.6c0.4,1.4,1,2.9,1.7,4.2
	c0.3,0.6,0.4,1.2,1.1,1c0.7-0.2,1.4-1.9,2.1-2.3c1-0.6,2-0.9,3.1-1.3c1.5-0.6,1.7-1.7,2.7-2.8c1.1-1.4,2.7-2.3,4.2-3.3
	c1.5-0.9,2.5-1.9,3.8-3.1c1-0.9,2.1-1.5,3.1-2.3c2.2-1.6,3.4-3.9,5.3-5.8c1.4-1.5,3.2-2.7,4.9-3.8c2.1-1.3,4.8-1.9,7.1-2.6
	c1.2-0.4,2.7-1.4,4-1.3c1.9,0,1.8,1.7,1.8,3.2c0,1.7-0.1,3.5,0.2,5.2c0.3,2.2,1.3,4.4,1.8,6.6c0.6,2.6,0.7,5.3,1.5,7.9
	c0.7,2.3,0.8,4.6,1.1,6.9c0.1,0.5,0.2,1.4,0.5,1.8c0.4,0.5,0.4,0.4,1.1,0.5c1.1,0.1,1.9-0.2,2.5,0.9c0.4,0.8,0.2,2,0.2,2.9
	c0,1.5,0.3,1.1,1.3,1.6c2.2,0.9,2.1,4.4,2.2,6.3c0.1,1.6,0.4,2.9,1,4.3c0.8,1.8,1.1,4,1.2,5.9c0.1,1.2,0.7,4,2.2,2.1
	c0.5-0.6,0.9-1.9,1.6-2.3c1.1-0.6,1.4,0.8,1.4,1.7c0,1.2-0.4,2.1-0.4,3.2c0,1.1,0.5,2.1,1,3.1c0.4,0.8,1,1.7,1.3,2.7
	C721.3,588,721.2,589.2,721.3,590.3z"/>
<path id="path62_1_" fill="#F9F94E" d="M711.7,773.5c0.8,1.6,0.5,2.6-0.2,4.2c-1.4,3.2-3.7,5.8-5.5,8.7c-1,1.7-1.9,3.6-2.9,5.3
	c-0.9,1.5-1.8,4.1-4,3.8c-0.4-2.5-0.5-5.6-1.9-7.8c-0.7-1-2.1-1.9-2-3.1c0.1-1,0.8-1.1,1.5-1.8c1.4-1.3,2.4-3.2,3.4-4.8
	c1.2-1.7,4.3-3.9,3-6.4c-0.3-0.6-2.2,2.3-2.4,2.5c-1.1,1.2-2.7,0.2-4.1,1.2c-0.6,0.4-0.8,1.5-1.8,1.5c-0.9,0-0.6-1.5-0.6-2.3
	c0-2.4-2.9-4.1-2.6-6.4c0.2-1.4,1.8-2.2,2.9-2.9c1.5-1.1,2.3-2.4,3.6-3.6c1.5-1.3,3.8,0.9,5.3,1.7c2.6,1.3,4.8,2.7,6.3,5.3
	C710.6,770.3,710.9,772,711.7,773.5z"/>
<path id="path64_1_" fill="#F9F94E" d="M707.6,719.9c0.8,0.7,1.1,1.2,1,2.4c-0.2,1.6-1.1,1.4-2.1,2.2c-1,0.7-0.5,2.4-1.2,2.9
	c-1.9,1.4-1.5-4.6-1.4-5.3c0.1-1,0.9-1.6,1.1-2.6c0.1-0.5,0.1-1.6,0.8-1.8C706.6,717.5,707,719.4,707.6,719.9z"/>
<path id="path66_1_" fill="#F9F94E" d="M705.9,681.3c0.5,1.3,0.4,2.8,0.3,4.2c-0.1,1.7-0.8,3-1.2,4.6c-0.7,2.9,1.2,7.9-0.9,10.2
	c-0.9,0.9-2.1,1.3-3.2,1.8c-1.6,0.7-3.3,1.5-4.9,2.1c-2.1,0.8-4.2,1.5-6.4,2.3c-1.6,0.6-2.8,1.6-4.3,2.5c-1.2,0.7-2.5,1.1-3.8,0.4
	c-1.4-0.7-1.2-2-0.8-3.3c1-3.5,1.9-7.1,3.4-10.4c0.7-1.6,1-3.3,1.8-4.8c0.8-1.7,2.6-3.1,4-4.3c2.3-1.9,4.7-3.5,7.1-5.2
	c1-0.7,1.9-1.6,2.9-2.3C702.7,677.3,704.8,678.2,705.9,681.3z"/>
<path id="path68_1_" fill="#F9F94E" d="M703.2,732.3c0.6,0.2,2.7,2.1,2.3,2.9c-0.3,0.6-1,0.8-1.2,1.5c-0.4,1,0.2,1.5-1.1,1.6
	c-1.1,0.1-4.7-0.9-3.1-2.4c0.3-0.3,0.8-0.1,1-0.4c0.3-0.4,0-0.9,0.1-1.3C701.5,733.3,702.2,732.1,703.2,732.3z"/>
<path id="path70_1_" fill="#F9F94E" d="M701.2,721.7c0.7,1,0.8,2.1,0.3,3.3c-0.3,0.7-0.8,1.3-1,2c-0.2,0.7,0,1.5-0.6,2.1
	c-1.1,1-1.8-0.2-2-1.2c-0.2-1-0.5-3-1.3-3.8c-0.4-0.9-0.9-1.7-1.6-2.4c-1.3-1.5-1.9-2.3-1.4-4.2c0.5-2,0-4.3,0.5-6.3
	c0.6-2.1,2.1,0.8,2.7,1.6c0.6,0.8,1.8,1.7,2,2.7c0.3,1.6-1.1,0.9-1.6,1.7C696.5,718.6,700.6,720.8,701.2,721.7z"/>
<path id="path72_1_" fill="#F9F94E" d="M701.2,750.1c0,1.2-0.1,3.5-1.4,3.6c-2.8,0.2-4.3-5.2-4.3-7.2c0.1-1.5,0-2.9-0.1-4.3
	c-0.1-1-0.3-2.9,0.4-3.7c1-1.2,1.7,0,1.8,1c0.3,2.8-0.4,5.5,1.7,7.9C700.1,748.5,701.2,748.7,701.2,750.1z"/>
<path id="path46_1_" fill="#F9F94E" d="M757.7,666.4c1.2,0.8,2.4,2.8,1.9,4.2c-0.7,1.7-2.3,2.8-3.5,4.1c-1.4,1.6-2.2,3.4-3.1,5.3
	c-0.7,1.3-1.8,8.8-4.4,6c-0.8-0.8-1.1-2.6-1.6-3.7c-0.7-1.3-1.3-2.7-2.1-4c-0.7-1.1-2.6-2.4-2.9-3.7c-0.2-1.1,0.9-1.6,1.8-2
	c1.8-0.9,3.5-2.1,5.2-3.1c1.3-0.8,2.7-1.3,3.9-2.2C754.4,666.4,756.2,665.3,757.7,666.4z"/>
<path id="path48_1_" fill="#F9F94E" d="M752.4,714.4c1.2-0.1,2.6,0.2,2.5,1.6c-0.1,1.1-0.8,2.2-1.1,3.3c-0.6,1.9-1.4,4.4-1.6,6.3
	c-0.2,2.3,1.2,5.1-0.4,7.1c-1.9,2.3-5.6,2.6-7.5,5c-0.9,1.2-1.8,2.3-3.4,2.4c-1.4,0-2-1-2.8-2c-0.8-1-1.5-2.1-2.4-3
	c-1.1-1.1-2.4-1.9-3.1-3.3c-0.6-1.1-0.4-1.6,0.4-2.4c0.6-0.6,1.3-1.3,1.9-1.9c0.8-0.6,1.6-1.2,2.5-1.6c1.1-0.5,1.5-0.8,0.6-1.8
	c-0.3-0.3-0.8-0.4-0.9-0.8c-0.2-0.4,0-1.3,0-1.7c0-1-0.1-1.9,0.1-2.8c0.5-2.5,1.4-4.9,1.7-7.4c0.2-1.6-0.4-3.6,0.4-5.1
	c0.7-1.4,2.1-2.4,3.7-2.3c1.3,0,3.5,0.3,4.3,1.4c1.2,1.8-1.5,1.7-2.3,2.3c-1.4,0.9-1.7,3.1-0.8,4.3c1,1.4,2,2.8,3.4,3.8
	C749.6,717,750.5,714.5,752.4,714.4z"/>
<path id="path50_1_" fill="#F9F94E" d="M744.6,689.8c0.8,0.8,1.2,1.3,0.6,2.4c-1.8,3.3-6.8,1.7-9.7,2.6c-3.5,1.2-7.2,1.9-10.7,3.1
	c-2.4,0.8-4.6,2.1-6.8,3.2c-1.8,0.9-2.7,2-4,3.4c-1.6,1.6-3.9,1.3-5.9,0.3c-1.2-0.6-1.5-1.1-1.4-2.5c0.1-0.8,0.3-1.7,1.3-1.6
	c0.3,0.6,1.4,2.1,2.2,1.7c0.4-0.2,0.4-0.9,0.7-1.3c0.3-0.3,0.6-0.4,1-0.5c0.5-0.2,0.8,0.1,1.1-0.4c0.2-0.3,0-1.4,0-1.7
	c0-1.4,0.1-2.9,0-4.2c-0.1-1.2-0.4-2.4-1.8-2.6c-0.9-0.1-1.8,0.4-2.4-0.3c-0.5-0.5-0.8-2.5-0.8-3.3c0-1,0.4-2.4,1.3-3
	c2-1.3,3.4,0.7,4.9,1.6c1.1,0.6,1.4,0.2,1.8-0.9c0.4-1.3,0.8-2.3,2-3.1c0.7-0.6,1.8-1,2.4-1.7c0.6-0.7,0.6-1.9,1.4-2.5
	c2.2-1.6,1.7,2.7,3.6,2.3c0-1-0.1-2.8,1.4-2.6c0.8,0.1,0.6,0.9,1.1,1.4c1.7,1.5,4.6-0.5,5.8-1.8c0.5-0.6,1.1-2.1,1.9-2.3
	c1.5-0.5,3,3.5,2.3,4.6c-0.5,0.7-1.7,0.8-2.3,1.5c-0.5,0.7-0.7,1.6-1,2.4c-0.3,0.8-0.7,1.9,0.6,1.3c0.8-0.3,1.1-1.3,2.1-1.6
	c2-0.5,4.4,2.6,5.4,4C743.5,688.3,743.9,689.1,744.6,689.8z"/>
<path id="path52_1_" fill="#F9F94E" d="M743.9,657.3c0.8,1,1,1.8,0.9,3.2c-0.3,3.6-2.8,4.7-4.9,7.3c-1.7,2.1-2.4,5.4-5.3,6
	c-2.3,0.5-4.8,0-7.1,0.2c-2.1,0.2-8.2,2.1-9.1-0.2c-1-2.5,0.4-6.4,1.9-8.4c1.7-2.2,3.5-4.2,5.6-5.9c2.2-1.7,4.7-3.1,7-4.5
	c2-1.2,5.9-2.1,7.9-0.8C742,654.9,743,656.3,743.9,657.3z"/>
<path id="path54_1_" fill="#F9F94E" d="M734.7,712.4c0.5,0.9,1,2.1,0.8,3.1c-0.3,1.5-0.9,2.9-1,4.5c-0.1,1.1-0.2,2.7-0.7,3.7
	c-1.3,2.4-4.1,3.5-5.2,6c-0.6,1.4-1.1,3.5-2,4.7c-0.7,1-1.7,0.3-2.6-0.4c-1.7-1.4-1.1-4.1-2.2-6c-1.2-2-3.4-3.7-4.2-5.9
	c-0.7-1.6,1.7-3.3,1.9-5.1c0.1-1.1,0-1.7,1-2.3c0.9-0.5,1.8-0.4,2-1.5c0.2-1.7-2.4-2.6-2.9-4.3c-0.2-0.9-0.3-2.7,1-2.6
	c1.2,0.1,1.3,1.9,1.9,2.7c0.7,0.9,1.9,0.4,2.7,1.1c1,1,0.2,1.7-0.5,2.1c-0.9,0.5-1.2,0.7-1,1.9c0.4,1.4,1.2,1.7,2.5,2.3
	c1,0.4,2.4,0.9,3.5,0.4c1.3-0.6,0.1-1.1-0.7-1.9c-1.1-1-1.5-1.9-0.2-3C730.5,710.4,733.5,710.2,734.7,712.4z"/>
<path id="path56_1_" fill="#F9F94E" d="M731.2,746c0.9,1.5,0.1,4.1-1.1,5.1c-1.4,1.2-3.1,1.8-4.5,2.8c-1.2,0.9-2.5,2.5-4.2,2.5
	c-2.8-0.1-3.7-3.2-5.6-5c-1.5-1.4-3.1-2.8-4.9-3.7c-1.3-0.7-4.4-1.3-4.1-3.3c0.2-1.2,1.7-2,2.6-2.6c0.8-0.5,1.5-1.2,2.2-1.8
	c2.4-1.9,3.9-1.6,6.5-0.3c2,1,4.2,1.8,6.3,2.7c1.2,0.5,2.2,1,3.3,1.6C728.6,744.5,730.6,745.1,731.2,746z"/>
<path id="path82_1_" fill="#FFFFFF" d="M621.2,107.1c0.9,3.8-0.6,9.8-2.9,12.9c-1,1.3-2.5,2.3-4,3c-1.1,0.5-2.7,0.5-3.5,1.4
	c1.2,0.6,2.1,1,1.9,2.5c-0.1,1.3-1,1.5-1.8,2.5c-1.1,1.2-2.1,2.5-3.3,3.6c-0.8,0.7-1.5,2.3-2.4,2.8c-1.1,0.6-1.5-0.8-2.5,0.1
	c-1,0.8-1.2,3.5-1.5,4.6c-1.8,6.3-5.5,11.5-8.7,17.1c-1.1,1.9-1.7,3.9-2.7,5.9c-1.1,2-2.1,4-2.8,6.2c-0.6,1.8-1.8,3.1-2.6,4.9
	c-0.6,1.3-0.8,3.1-1,4.6c0,0,0,0.1,0,0.1c-0.6,3.3-1.7,6.4-3.1,9.5c-1.4,3.2-2,5.6-2.2,9.1c-0.1,2.9-0.3,5.9,0,8.7
	c0.5,5.1,1.8,10.1,2.2,15.1c0.3,4.6-0.4,9.2-0.8,13.8c-0.2,2.6-0.1,5.2-0.1,7.8c0,2.1,0,4.1,0,6.2c0,1.7,0,3.4,0,5.2
	c0,1.9-0.1,2.9,1.2,4.3c1.2,1.3,2.5,2.4,3.6,3.8c2.3,3,4.7,6.1,5.4,9.8c0.5,2.6,0.3,5.6,0.3,8.3c0,2.3,0.4,4.8-0.9,6.7
	c-1.3,1.8-3.2,2.9-4.9,4.2c-2.2,1.8-4.7,3.4-6.7,5.5c-1.5,1.7-2,3.8-2.9,5.8c-0.7,1.7-1.4,3.2-2.5,4.6c-2.5,3.1-7.6,5.4-8.3,9.7
	c-0.3,1.6,0.3,3,1,4.4c0.7,1.6,1.1,3.2,1.6,4.8c0.4,1.3,1.7,3.1,1.7,4.4c0,1.5-2.2,3-3.2,4.1c-1.5,1.8-2.8,3.5-4.5,5.1
	c-3.8,3.8-6.4,8.3-9.1,12.9c-1.5,2.6-3.1,5.2-4.9,7.7c-4.1,5.5-8.7,10.8-12.8,16.4c-3.3,4.5-6.1,9.4-9.3,14
	c-2.8,4.1-6.3,7.7-8.2,12.4c-0.8,2-1.9,3.9-1.9,6.1c0,2.3,0.8,4.7-0.6,6.6c-0.7,1-0.9,1.6-0.8,2.9c0.1,2.2,1.8,3.4,2.2,5.3
	c0.9,3.9-3.4,1.7-4.6,3.5c-1.4,2.3,3.2,3.1,4.1,3.7c-1,1-3.4,0.2-4.6,1.4c-1.2,1.3,0.4,2.1,1.4,3.1c3,2.6,4.7,5.5,4.4,9.5
	c-0.2,2.1-0.6,4.2-1,6.4c-0.2,1.2-0.4,2.5-0.7,3.5c0,0-0.5,0.3-0.5,0.5c-0.1,0.3,0,0.7,0,1c-0.8,5.2-1.1,10.7-3,15.5
	c-1,2.5-2.2,5-3.2,7.5c-0.8,2-1.7,3.5-3.4,4.8c-1.4,1.2-2.8,1.8-4.6,2.4c-1.9,0.6-3.7,1.4-5.7,1.4c-2.2,0-4.4,0.4-6.6,1
	c-1.5,0.4-3,2.4-4.7,1.7c-1.6-0.6-0.9-2.1-1-3.4c-0.1-1.3,0-1.1-1.3-1.3c-0.7-0.1-1.5,0.1-2.2,0.1c-2.3,0.2-4.8,0.5-6.9,1.4
	c-2.2,0.8-4.1,2.3-6.3,3.2c-1.5,0.7-2.7,1.2-2.3,3.1c0.3,1.3,1.3,2.1,0.9,3.6c-1.2,4-5.2,6.9-8.3,9.5c-4.5,3.8-2.7-3.5-5.9-2.6
	c-3.5,0.9,3,5.6-1,6.1c-2.2,0.3-1.4-0.7-2.2-1.9c-1-1.6-2.8-0.3-3.6,0.7c-1.1,1.3-1.5,1.8-3.4,1.6c-1.4-0.1-2.7-1-3.8-1.9
	c-0.8-0.7-1.2-1.5-1.6-2.4c-0.4-1-1.4-2.3-1.7-3.3c-0.5-2.1,1.3-1.6,2-2.9c0.8-1.7-1-2-2.1-1.8c-1.2,0.2-3.4,1-4.1-0.5
	c-0.5-1,0.5-3.5,0.7-4.5c0.5-2.3,1.2-4.5,1.6-6.8c0.3-2,1.1-3.9,1.5-6c0.5-2.7,0.7-5.3,0.8-8c0.3-6.5,2.6-12.8,3.3-19.3
	c0.1-1.3,0.1-4.2,0.7-5.4c0.7-1.3,3.7-1.4,5.1-1.7c1.4-0.3,2.5-0.5,1-1.7c-1.4-1-7.4-1.9-5.1-4.5c0.6-0.6,2-1.2,2.3-2.3
	c0.4-1.8-1.1-0.7-2-1.6c-2.1-1.9,4.8-2,5.7-2.2c0.8-3-4.5-1.2-5-3.3c-0.4-1.6,1.1-3.8,1.5-5.3c0.4-1.6,0.4-2.1,2.4-2.5
	c0.9-0.2,3.4-0.3,2.6-1.8c-0.6-1.3-2.8-1-3.9-1.2c-1.5-0.3-1.6-1.2-0.3-1.9c1-0.5,2.4-0.3,1.9-2.1c-0.2-0.9-1.2-1.9-1.8-2.6
	c-1-1.1-1.2-1.3-0.7-2.8c0.5-1.4,0.8-2.7,0.7-4.3c-0.2-3.7,0-6.8,2.9-9.6c1.7-1.6,3.8-2.2,1.9-4.9c-1.2-1.7-3.7-2.3-2-5
	c1.2-1.9,2.4-3.8,2.3-6.2c1.4,0.1,1,1.4,1.7,2.1c0.9,0.8,2.1-0.1,2.6-0.9c0.5-0.7,0.9-2.2,0.4-3.1c-0.4-0.8-1.4-1-1.6-1.9
	c-0.1-0.6,0.3-1.9,0.5-2.4c0.5-1.9,1.6-3.5,2.7-5.1c0.4-0.6,0.7-1.2,1.3-1.6c0.4-0.3,1.4-0.3,1.7-0.6c1.6-1.4-0.8-1.2-1.6-1.7
	c-0.9-3.3,6.4-0.4,5.6-3c-0.7-0.7-1.9-0.5-2-1.7c-0.1-1,0.8-1.9,1.7-2.1c0.7-0.1,2.3,1,2.5-0.3c0.1-0.9-1.3-1.3-1.9-1.4
	c-0.6-2.5,3.1-0.3,4-0.4c0.3-1.2-1.1-0.9-1.5-1.6c-0.4-0.6,0-1.7,0-2.3c0.5,0.4,4.1,2.4,4,0.5c0-1.2-2.3-1-2.7-2
	c-0.7-1.7,1.6-0.3,2.4-0.7c1.7-0.8-1-1-1.3-1.7c-0.5-1.4,1.8-1.3,2.4-1.8c1.3-1.2-0.3-1.5-0.6-2.7c-0.3-1.3,0.5-1.8,1.3-2.7
	c1.3-1.5,1.4-6.2,4-5.7c0.1,0.5,0.3,1.7,0.8,2c0.9,0.6,1.7,0.1,1.8-0.8c0.2-1.7-2-2.6-0.8-4.4c0.5-0.7,1.3-1,1.7-1.9
	c0.3-0.7,0.5-1.3,1-1.9c1-1.2,3.8-1.5,2.8-3.5c-0.5-0.9-2.4-1-2.5-1.7c-0.3-1.3,2.1-1,2.8-1c1.2,0,2,0.2,2.9-0.7
	c0.9-0.9,1.4-2.4,2-3.5c1.7-3.1,3.8-6.2,5.3-9.4c0.8-1.7,1.4-3.7,2.3-5.4c1.1-2,2.7-3.2,3.9-5c1.2-1.7,1.8-3.7,2.9-5.4
	c1.9-3.2,3.4-6.5,5.2-9.7c1.4-2.5,2.7-4.7,3.6-7.4c0.4-1.3,0.6-2.5,1.1-3.7c1.9-4.5,5-8.8,7.6-13c1.9-3.1,3.5-6.3,5.1-9.5
	c1.1-2.1,1.7-4.4,2.7-6.5c0.9-1.9,2.2-3.6,3.3-5.4c0.6-1,2.4-3.2,2.3-4.3c0-1.3-1.9-1.2-1.5-2.4c0.4-1.1,2.7-1.2,3.4-2.2
	c0.9-1.1,0.6-3,2.1-3.7c0.5-0.3,1.1,0,1.6-0.2c0.6-0.3,0.9-1,1.2-1.5c2.7-4.6,6.1-8.8,9.1-13.3c2.9-4.3,4.9-9.4,6.8-14.2
	c1.8-4.6,2.7-9.4,4.2-14.1c1.1-3.5,3.9-7.3,4.2-11c0.2-3.4-2.2-5.4-3.3-8.5c-0.7-2-0.3-3.8,0.9-5.4c1.1-1.5,2-1.8,3.4-2.7
	c2.5-1.6,4-4.6,5.5-7.1c3.2-5.2,5.9-10.6,9-15.8c2.3-4,4.4-7.9,6.3-12.1c1.6-3.7,2.5-7,2.5-11.1c0-1.6-0.2-3.4,0.1-4.9
	c0.4-1.7,1.8-3.5,2.9-4.9c1.3-1.7,2.9-3.1,4.3-4.7c1-1.1,1.6-1.9,3.2-1.8c3.1,0.2,5,2.8,5.1,5.7c0.1,1.7,0.1,3.5,1.4,4.7
	c0.9,0.9,3.3,1.8,4.4,0.7c1-1-0.1-2.7,1.4-3.3c1.7-0.7,4.1,0.9,5.5,1.5C615.2,103,620.4,103.9,621.2,107.1z"/>
<path id="path84_1_" fill="#FFFFFF" d="M614.3,282.2c-2.1,1.9,2.6,6,2.3,8.1c-0.4,3-5.4,5.5-7.2,7.5c-2.8,3.1-5.9,6.7-6.7,10.8
	c-0.4,2.1,0,4.5-1.2,6.3c-1.1,1.5-2.7,3-4,4.4c-1.2,1.4-3.2,2.8-5.2,2.8c-0.6,0-1.1-0.1-1.7-0.4c-0.6-0.3-1.1-1.3-1.7-1.8
	c-1-0.7-2.1-1.1-3.2-1.6c-2.6-1.2-10-3.9-8.8-7.8c0.5-1.6,1.5-2.7,1.9-4.4c0.5-2.1,1.2-2.5,3.1-3.5c3.7-2.1,6-4.4,8.2-8
	c1.3-2,2.4-3.9,2.7-6.3c0.2-2.3-0.1-4.7,0-7.1c0.2-3.8,3.8-6.5,1.2-10.2l8.3-0.7L614.3,282.2z"/>
<path id="path86_1_" fill="#FFFFFF" d="M576.9,321.4c0.6,1.7-1.7,2.6-2.7,3.8c-0.5,0.7-1,2.5-2.2,2.4c-1.1-0.1-1.2-1.7-1.5-2.5
	c-0.6-1.7-0.5-5,1.4-6C573.6,318.3,576.4,319.8,576.9,321.4z"/>
<path id="path90_1_" fill="#FFFFFF" d="M571.2,336.3c0.1,0.3,0.1,0.7,0.1,1c0,1.2-0.4,2.6-0.6,3.7c-0.9,3.4-3.4,5.7-5.3,8.5
	c-5.4,8.3-9.5,17.2-15.1,25.4c-3.1,4.5-7.3,8-10.5,12.5c-1.7,2.4-4.7,7.7-8.1,7.4c-0.1-1.6-0.1-3,0.5-4.4c0.7-1.8,1.8-3.3,2.4-5.1
	c1.3-3.9,4-7.3,6.5-10.6c2.5-3.4,5.2-6.6,7.6-10c2.8-3.9,5.5-7.9,8.3-11.8c2.2-2.9,3.8-6.1,5.4-9.3c0.4-0.8,0.9-1.6,1.4-2.3
	c0.5-0.7,1.1-1.3,1.9-1.8C566.6,338.9,570.6,333.2,571.2,336.3z"/>
<path id="path92_1_" fill="#FFFFFF" d="M526,396.2C526,396.2,526,396.2,526,396.2c0.1-0.5,0.2-1.2,0.5-1.3c0.7-0.3,1.1,2.2,1,2.7
	c-0.4,1.7-2.5,1.7-3.3,3c-0.4,0.7,0,1.9-0.6,2.5c-0.4,0.4-1.5,0.3-1.8-0.2c-0.3-0.5,0-1.7,0-2.3c0-0.9,0.2-1.1,0.9-1.7
	c0.6-0.5,1.2-1,1.8-1.4C525,397.2,525.7,396.7,526,396.2z"/>
<path id="path94_1_" fill="#FFFFFF" d="M441.7,532.5c0.1,1,0.3,2.5,0.1,3.7c-0.1,0.5-0.3,0.9-0.5,1.2c-0.8,1.1-2.7,1.9-4,2.4
	c-2.1,0.9-4.2,1.7-6.2,3c-2.2,1.4-3.9,3.3-6.1,4.7c-1.2,0.8-2.1,1.5-3.1,2.6c-0.7,0.7-1.8,0.8-2.8,0.4c-1.8-0.8-3-2.6-4.4-3.9
	c-0.8-0.7-1.2-1.4-1.1-2.5c0.1-0.9,0.3-2,0.7-2.8c0.4-0.8,1.3-1.2,2-1.8c1-0.8,2-1.7,3-2.4c1.3-0.9,2-2.1,2.8-3.5
	c0.8-1.3,1.3-2.9,2.3-4.1c0.9-1.1,2.2-1.9,3.3-2.8c1-0.8,2.1-1.8,3.4-2.2c1.7-0.5,3.9,0.6,5.1,1.7
	C438.3,528,441.5,529.5,441.7,532.5z"/>
<path id="path96_1_" fill="#FFFFFF" d="M397.9,513c0.7,0.6,0.5,2-0.2,2.4c-0.7,0.4-1.7,0.5-2.5,0.7c-1,0.2-1.5,0-2.1-0.7
	c-0.8-0.9-1.2-1.8-2.1-2.5c-0.9-0.8-1.6-1.3-1.6-2.6c0-0.8,0.1-1.4,1-1.7c1-0.3,2.3-0.1,3.1,0.5c0.6,0.5,0.5,0.8,0.7,1.4
	c0.3,0.7,0.9,0.9,1.4,1.3c0.4,0.3,0.7,0.6,1.2,0.9C397,512.8,397.6,512.8,397.9,513z"/>
<path id="path98_1_" fill="#FFFFFF" d="M391.3,517.7L391.3,517.7c-0.2,0.4-0.6,0.8-0.8,1.3c-0.2,0.5-0.2,0.9-0.4,1.4
	c-0.3,0.7-0.7,1.7-1.6,1.5c-0.8-0.2-1.1-1.1-1.6-1.7c-0.6-0.6-2.1-1.1-2.3-2c-0.2-0.7,0.8-1.4,1.2-2c0.3-0.5,0.2-1.1,0.5-1.5
	c0.2-0.4,0.7-0.9,1-1.1c0.6-0.5,1.3-0.6,1.7,0.1c0.2,0.4,0.1,0.7,0.4,1c0.3,0.4,0.8,0.6,1.2,0.9C391,515.7,392.2,517.3,391.3,517.7z
	"/>
<path id="path100_1_" fill="#FFFFFF" d="M388.6,536.6c0.3,1.2-0.9,1.5-1.6,2.1c-0.3,0.2-2.6,3.4-2.8,3.4c-0.9-0.5-1.2-1.7-1.8-2.4
	c-0.7-0.9-1.4-1.9-2.4-2.5c-0.8-0.5-2.1-1.1-2-2.2c0-1,0.9-0.9,1.5-1.4c0.6-0.6,1.1-2.1,2-2.4c0.8-0.3,1.5,0.6,2,1.1
	c0.7,0.8,1.6,1.5,2.6,2.1C386.7,534.8,388.4,535.5,388.6,536.6z"/>
<path id="path2950_1_" fill="#FFFFFF" d="M612.6,96.8l3.3-3.9c3.7-4.6,12.4,1.7,11.2,7.5l-1.8,7.7
	C624.6,99.8,615.2,97,612.6,96.8z"/>
</svg>
